G04 #@! TF.GenerationSoftware,KiCad,Pcbnew,9.0.7+1*
G04 #@! TF.CreationDate,2026-05-07T05:04:50+00:00*
G04 #@! TF.ProjectId,HackerDAQ Voltage Card,4861636b-6572-4444-9151-20566f6c7461,rev?*
G04 #@! TF.SameCoordinates,Original*
G04 #@! TF.FileFunction,Copper,L2,Bot*
G04 #@! TF.FilePolarity,Positive*
%FSLAX46Y46*%
G04 Gerber Fmt 4.6, Leading zero omitted, Abs format (unit mm)*
G04 Created by KiCad (PCBNEW 9.0.7+1) date 2026-05-07 05:04:50*
%MOMM*%
%LPD*%
G01*
G04 APERTURE LIST*
G04 #@! TA.AperFunction,ComponentPad*
%ADD10C,4.216000*%
G04 #@! TD*
G04 #@! TA.AperFunction,ComponentPad*
%ADD11R,1.408000X1.408000*%
G04 #@! TD*
G04 #@! TA.AperFunction,ComponentPad*
%ADD12C,1.408000*%
G04 #@! TD*
G04 #@! TA.AperFunction,ComponentPad*
%ADD13C,2.500000*%
G04 #@! TD*
G04 #@! TA.AperFunction,ComponentPad*
%ADD14O,2.700000X3.700000*%
G04 #@! TD*
G04 #@! TA.AperFunction,ViaPad*
%ADD15C,0.600000*%
G04 #@! TD*
G04 #@! TA.AperFunction,Conductor*
%ADD16C,0.200000*%
G04 #@! TD*
G04 #@! TA.AperFunction,Conductor*
%ADD17C,0.500000*%
G04 #@! TD*
G04 APERTURE END LIST*
D10*
X78340000Y-130439669D03*
X111660000Y-130439669D03*
D11*
X104590000Y-129019669D03*
D12*
X101850000Y-129019669D03*
X99110000Y-129019669D03*
X96370000Y-129019669D03*
X93630000Y-129019669D03*
X90890000Y-129019669D03*
X88150000Y-129019669D03*
X85410000Y-129019669D03*
X103220000Y-131859669D03*
X100480000Y-131859669D03*
X97740000Y-131859669D03*
X95000000Y-131859669D03*
X92260000Y-131859669D03*
X89520000Y-131859669D03*
X86780000Y-131859669D03*
D13*
X117000000Y-87000000D03*
G04 #@! TA.AperFunction,ComponentPad*
G36*
G01*
X63960000Y-66399999D02*
X63960000Y-63200001D01*
G75*
G02*
X64210001Y-62950000I250001J0D01*
G01*
X66409999Y-62950000D01*
G75*
G02*
X66660000Y-63200001I0J-250001D01*
G01*
X66660000Y-66399999D01*
G75*
G02*
X66409999Y-66650000I-250001J0D01*
G01*
X64210001Y-66650000D01*
G75*
G02*
X63960000Y-66399999I0J250001D01*
G01*
G37*
G04 #@! TD.AperFunction*
D14*
X69510000Y-64800000D03*
X65310000Y-70300000D03*
X69510000Y-70300000D03*
G04 #@! TA.AperFunction,ComponentPad*
G36*
G01*
X85990000Y-66399999D02*
X85990000Y-63200001D01*
G75*
G02*
X86240001Y-62950000I250001J0D01*
G01*
X88439999Y-62950000D01*
G75*
G02*
X88690000Y-63200001I0J-250001D01*
G01*
X88690000Y-66399999D01*
G75*
G02*
X88439999Y-66650000I-250001J0D01*
G01*
X86240001Y-66650000D01*
G75*
G02*
X85990000Y-66399999I0J250001D01*
G01*
G37*
G04 #@! TD.AperFunction*
X91540000Y-64800000D03*
X87340000Y-70300000D03*
X91540000Y-70300000D03*
G04 #@! TA.AperFunction,ComponentPad*
G36*
G01*
X119035000Y-66399999D02*
X119035000Y-63200001D01*
G75*
G02*
X119285001Y-62950000I250001J0D01*
G01*
X121484999Y-62950000D01*
G75*
G02*
X121735000Y-63200001I0J-250001D01*
G01*
X121735000Y-66399999D01*
G75*
G02*
X121484999Y-66650000I-250001J0D01*
G01*
X119285001Y-66650000D01*
G75*
G02*
X119035000Y-66399999I0J250001D01*
G01*
G37*
G04 #@! TD.AperFunction*
X124585000Y-64800000D03*
X120385000Y-70300000D03*
X124585000Y-70300000D03*
G04 #@! TA.AperFunction,ComponentPad*
G36*
G01*
X130050000Y-66399999D02*
X130050000Y-63200001D01*
G75*
G02*
X130300001Y-62950000I250001J0D01*
G01*
X132499999Y-62950000D01*
G75*
G02*
X132750000Y-63200001I0J-250001D01*
G01*
X132750000Y-66399999D01*
G75*
G02*
X132499999Y-66650000I-250001J0D01*
G01*
X130300001Y-66650000D01*
G75*
G02*
X130050000Y-66399999I0J250001D01*
G01*
G37*
G04 #@! TD.AperFunction*
X135600000Y-64800000D03*
X131400000Y-70300000D03*
X135600000Y-70300000D03*
D13*
X52500000Y-84500000D03*
G04 #@! TA.AperFunction,ComponentPad*
G36*
G01*
X74975000Y-66399999D02*
X74975000Y-63200001D01*
G75*
G02*
X75225001Y-62950000I250001J0D01*
G01*
X77424999Y-62950000D01*
G75*
G02*
X77675000Y-63200001I0J-250001D01*
G01*
X77675000Y-66399999D01*
G75*
G02*
X77424999Y-66650000I-250001J0D01*
G01*
X75225001Y-66650000D01*
G75*
G02*
X74975000Y-66399999I0J250001D01*
G01*
G37*
G04 #@! TD.AperFunction*
D14*
X80525000Y-64800000D03*
X76325000Y-70300000D03*
X80525000Y-70300000D03*
D13*
X108300000Y-104300000D03*
G04 #@! TA.AperFunction,ComponentPad*
G36*
G01*
X97005000Y-66399999D02*
X97005000Y-63200001D01*
G75*
G02*
X97255001Y-62950000I250001J0D01*
G01*
X99454999Y-62950000D01*
G75*
G02*
X99705000Y-63200001I0J-250001D01*
G01*
X99705000Y-66399999D01*
G75*
G02*
X99454999Y-66650000I-250001J0D01*
G01*
X97255001Y-66650000D01*
G75*
G02*
X97005000Y-66399999I0J250001D01*
G01*
G37*
G04 #@! TD.AperFunction*
D14*
X102555000Y-64800000D03*
X98355000Y-70300000D03*
X102555000Y-70300000D03*
G04 #@! TA.AperFunction,ComponentPad*
G36*
G01*
X52945000Y-66399999D02*
X52945000Y-63200001D01*
G75*
G02*
X53195001Y-62950000I250001J0D01*
G01*
X55394999Y-62950000D01*
G75*
G02*
X55645000Y-63200001I0J-250001D01*
G01*
X55645000Y-66399999D01*
G75*
G02*
X55394999Y-66650000I-250001J0D01*
G01*
X53195001Y-66650000D01*
G75*
G02*
X52945000Y-66399999I0J250001D01*
G01*
G37*
G04 #@! TD.AperFunction*
X58495000Y-64800000D03*
X54295000Y-70300000D03*
X58495000Y-70300000D03*
D13*
X66575000Y-101490000D03*
G04 #@! TA.AperFunction,ComponentPad*
G36*
G01*
X108020000Y-66399999D02*
X108020000Y-63200001D01*
G75*
G02*
X108270001Y-62950000I250001J0D01*
G01*
X110469999Y-62950000D01*
G75*
G02*
X110720000Y-63200001I0J-250001D01*
G01*
X110720000Y-66399999D01*
G75*
G02*
X110469999Y-66650000I-250001J0D01*
G01*
X108270001Y-66650000D01*
G75*
G02*
X108020000Y-66399999I0J250001D01*
G01*
G37*
G04 #@! TD.AperFunction*
D14*
X113570000Y-64800000D03*
X109370000Y-70300000D03*
X113570000Y-70300000D03*
D13*
X66575000Y-106040000D03*
D15*
X76500000Y-90000000D03*
X82000000Y-91000000D03*
X81500000Y-92000000D03*
X78500000Y-89000000D03*
X91300000Y-108800000D03*
X124937784Y-79500000D03*
X82975000Y-107300000D03*
X90300000Y-91800000D03*
X92051910Y-79500000D03*
X92300000Y-101800000D03*
X94800000Y-101800000D03*
X95500000Y-91000000D03*
X82800000Y-101525000D03*
X70500000Y-126000000D03*
X119000000Y-96500000D03*
X92300000Y-99300000D03*
X96300000Y-107800000D03*
X59000000Y-92500000D03*
X59000000Y-79500000D03*
X59000000Y-75000000D03*
X100000000Y-89500000D03*
X69500000Y-108000000D03*
X104250000Y-97200000D03*
X102854081Y-75000000D03*
X104300000Y-100525000D03*
X124937784Y-75000000D03*
X93500000Y-91000000D03*
X134500000Y-79500000D03*
X121000000Y-90500000D03*
X92051910Y-75000000D03*
X81048571Y-75000000D03*
X70009259Y-75000000D03*
X95075000Y-110800000D03*
X113785271Y-79500000D03*
X82750000Y-97975000D03*
X81048571Y-79500000D03*
X113785271Y-75000000D03*
X94800000Y-99300000D03*
X70009259Y-79500000D03*
X70000000Y-99000000D03*
X102854081Y-79500000D03*
X134500000Y-75000000D03*
X63500000Y-132000000D03*
X98500000Y-126000000D03*
X102000000Y-133500000D03*
X93000000Y-135000000D03*
X81000000Y-83500000D03*
X79500000Y-85000000D03*
X80292130Y-103207870D03*
X82800000Y-103075000D03*
X104300000Y-102075000D03*
X100575000Y-92075000D03*
X102000000Y-88500000D03*
X85541366Y-93958634D03*
X84000000Y-95500000D03*
X105000000Y-90000000D03*
X107500000Y-90000000D03*
X78000000Y-95500000D03*
X85000000Y-113000000D03*
X93500000Y-125000000D03*
X94500000Y-89500000D03*
X89000000Y-113000000D03*
X78500000Y-94500000D03*
X89037868Y-93962132D03*
X78000000Y-99000000D03*
X87000000Y-93000000D03*
X78000000Y-96300003D03*
X95500000Y-125000000D03*
D16*
X79399000Y-88399000D02*
X78101000Y-88399000D01*
X78101000Y-88399000D02*
X76500000Y-90000000D01*
X82000000Y-91000000D02*
X79399000Y-88399000D01*
X81500000Y-92000000D02*
X78500000Y-89000000D01*
X100495285Y-130453669D02*
X99122715Y-130453669D01*
X99122715Y-130453669D02*
X98000000Y-129330954D01*
X98000000Y-126500000D02*
X98500000Y-126000000D01*
X102000000Y-131958384D02*
X100495285Y-130453669D01*
X90890000Y-132890000D02*
X93000000Y-135000000D01*
X90890000Y-129019669D02*
X90890000Y-132890000D01*
X98000000Y-129330954D02*
X98000000Y-126500000D01*
X102000000Y-133500000D02*
X102000000Y-131958384D01*
X79500000Y-85000000D02*
X81000000Y-83500000D01*
X98300000Y-99300000D02*
X101525000Y-99300000D01*
X89300000Y-96300000D02*
X82800000Y-102800000D01*
X98300000Y-96300000D02*
X100575000Y-94025000D01*
X104075000Y-102075000D02*
X104300000Y-102075000D01*
X82800000Y-102800000D02*
X82800000Y-103075000D01*
X98300000Y-96300000D02*
X98300000Y-99300000D01*
X100575000Y-94025000D02*
X100575000Y-92075000D01*
X98300000Y-96300000D02*
X89300000Y-96300000D01*
X80425000Y-103075000D02*
X82800000Y-103075000D01*
X101525000Y-99300000D02*
X104300000Y-102075000D01*
X80292130Y-103207870D02*
X80425000Y-103075000D01*
D17*
X84000000Y-95500000D02*
X78000000Y-95500000D01*
X103500000Y-90000000D02*
X102000000Y-88500000D01*
X105000000Y-90000000D02*
X103500000Y-90000000D01*
X84000000Y-95500000D02*
X85541366Y-93958634D01*
X107500000Y-90000000D02*
X105000000Y-90000000D01*
D16*
X94500000Y-88500000D02*
X94500000Y-89500000D01*
X84000000Y-94500000D02*
X90000000Y-88500000D01*
X90000000Y-88500000D02*
X94500000Y-88500000D01*
X93630000Y-129019669D02*
X93630000Y-125130000D01*
X93630000Y-125130000D02*
X93500000Y-125000000D01*
X78500000Y-94500000D02*
X84000000Y-94500000D01*
X89000000Y-113000000D02*
X85000000Y-113000000D01*
X78000000Y-99000000D02*
X78424000Y-98576000D01*
X88325735Y-95174265D02*
X88325735Y-94674265D01*
X84924000Y-98576000D02*
X88325735Y-95174265D01*
X66575000Y-105577000D02*
X66575000Y-106040000D01*
X88325735Y-94674265D02*
X89037868Y-93962132D01*
X78424000Y-98576000D02*
X84924000Y-98576000D01*
X87000000Y-93500000D02*
X87000000Y-93000000D01*
X78000000Y-96300003D02*
X78199997Y-96500000D01*
X78199997Y-96500000D02*
X84000000Y-96500000D01*
X84000000Y-96500000D02*
X87000000Y-93500000D01*
X100480000Y-131859669D02*
X99475000Y-130854669D01*
X95000000Y-125500000D02*
X95500000Y-125000000D01*
X95000000Y-129070954D02*
X95000000Y-125500000D01*
X99475000Y-130854669D02*
X96783715Y-130854669D01*
X96783715Y-130854669D02*
X95000000Y-129070954D01*
G04 #@! TA.AperFunction,Conductor*
G36*
X139442539Y-50520185D02*
G01*
X139488294Y-50572989D01*
X139499500Y-50624500D01*
X139499500Y-139375500D01*
X139479815Y-139442539D01*
X139427011Y-139488294D01*
X139375500Y-139499500D01*
X50624500Y-139499500D01*
X50557461Y-139479815D01*
X50511706Y-139427011D01*
X50500500Y-139375500D01*
X50500500Y-130293200D01*
X75732000Y-130293200D01*
X75732000Y-130586137D01*
X75764794Y-130877199D01*
X75764797Y-130877213D01*
X75829978Y-131162793D01*
X75829982Y-131162805D01*
X75926723Y-131439273D01*
X75926729Y-131439287D01*
X76053819Y-131703192D01*
X76209665Y-131951220D01*
X76327336Y-132098777D01*
X77045747Y-131380366D01*
X77119588Y-131481999D01*
X77297670Y-131660081D01*
X77399301Y-131733920D01*
X76680890Y-132452331D01*
X76828448Y-132570003D01*
X77076476Y-132725849D01*
X77340381Y-132852939D01*
X77340395Y-132852945D01*
X77616863Y-132949686D01*
X77616875Y-132949690D01*
X77902455Y-133014871D01*
X77902469Y-133014874D01*
X78193531Y-133047668D01*
X78193535Y-133047669D01*
X78486465Y-133047669D01*
X78486468Y-133047668D01*
X78777530Y-133014874D01*
X78777544Y-133014871D01*
X79063124Y-132949690D01*
X79063136Y-132949686D01*
X79339604Y-132852945D01*
X79339618Y-132852939D01*
X79603523Y-132725849D01*
X79851551Y-132570003D01*
X79999108Y-132452331D01*
X79280698Y-131733920D01*
X79382330Y-131660081D01*
X79560412Y-131481999D01*
X79634251Y-131380367D01*
X80352662Y-132098777D01*
X80470334Y-131951220D01*
X80587427Y-131764868D01*
X85575500Y-131764868D01*
X85575500Y-131954469D01*
X85598356Y-132098777D01*
X85605158Y-132141724D01*
X85644750Y-132263574D01*
X85663747Y-132322041D01*
X85730134Y-132452331D01*
X85749819Y-132490965D01*
X85861259Y-132644348D01*
X85995321Y-132778410D01*
X86148704Y-132889850D01*
X86228515Y-132930515D01*
X86317627Y-132975921D01*
X86317629Y-132975921D01*
X86317632Y-132975923D01*
X86497945Y-133034511D01*
X86581018Y-133047668D01*
X86685200Y-133064169D01*
X86685204Y-133064169D01*
X86874800Y-133064169D01*
X86958022Y-133050987D01*
X87062055Y-133034511D01*
X87242368Y-132975923D01*
X87411296Y-132889850D01*
X87564679Y-132778410D01*
X87698741Y-132644348D01*
X87810181Y-132490965D01*
X87896254Y-132322037D01*
X87954842Y-132141724D01*
X87977245Y-132000272D01*
X87984500Y-131954469D01*
X87984500Y-131764868D01*
X88315500Y-131764868D01*
X88315500Y-131954469D01*
X88338356Y-132098777D01*
X88345158Y-132141724D01*
X88384750Y-132263574D01*
X88403747Y-132322041D01*
X88470134Y-132452331D01*
X88489819Y-132490965D01*
X88601259Y-132644348D01*
X88735321Y-132778410D01*
X88888704Y-132889850D01*
X88968515Y-132930515D01*
X89057627Y-132975921D01*
X89057629Y-132975921D01*
X89057632Y-132975923D01*
X89237945Y-133034511D01*
X89321018Y-133047668D01*
X89425200Y-133064169D01*
X89425204Y-133064169D01*
X89614800Y-133064169D01*
X89698022Y-133050987D01*
X89802055Y-133034511D01*
X89982368Y-132975923D01*
X90117786Y-132906923D01*
X90134296Y-132903823D01*
X90149134Y-132895944D01*
X90167925Y-132897507D01*
X90186455Y-132894028D01*
X90202020Y-132900345D01*
X90218763Y-132901739D01*
X90233724Y-132913213D01*
X90251196Y-132920304D01*
X90261264Y-132934333D01*
X90274206Y-132944258D01*
X90285854Y-132968595D01*
X90290759Y-132975430D01*
X90292512Y-132980305D01*
X90330423Y-133121785D01*
X90359360Y-133171904D01*
X90364898Y-133181496D01*
X90364899Y-133181499D01*
X90409479Y-133258714D01*
X90409481Y-133258717D01*
X90528349Y-133377585D01*
X90528355Y-133377590D01*
X92165425Y-135014660D01*
X92198910Y-135075983D01*
X92199361Y-135078149D01*
X92230261Y-135233491D01*
X92230264Y-135233501D01*
X92290602Y-135379172D01*
X92290609Y-135379185D01*
X92378210Y-135510288D01*
X92378213Y-135510292D01*
X92489707Y-135621786D01*
X92489711Y-135621789D01*
X92620814Y-135709390D01*
X92620827Y-135709397D01*
X92766498Y-135769735D01*
X92766503Y-135769737D01*
X92921153Y-135800499D01*
X92921156Y-135800500D01*
X92921158Y-135800500D01*
X93078844Y-135800500D01*
X93078845Y-135800499D01*
X93233497Y-135769737D01*
X93379179Y-135709394D01*
X93510289Y-135621789D01*
X93621789Y-135510289D01*
X93709394Y-135379179D01*
X93769737Y-135233497D01*
X93800500Y-135078842D01*
X93800500Y-134921158D01*
X93800500Y-134921155D01*
X93800499Y-134921153D01*
X93769738Y-134766510D01*
X93769737Y-134766503D01*
X93769735Y-134766498D01*
X93709397Y-134620827D01*
X93709390Y-134620814D01*
X93621789Y-134489711D01*
X93621786Y-134489707D01*
X93510292Y-134378213D01*
X93510288Y-134378210D01*
X93379185Y-134290609D01*
X93379172Y-134290602D01*
X93233501Y-134230264D01*
X93233491Y-134230261D01*
X93078151Y-134199362D01*
X93016241Y-134166977D01*
X93014662Y-134165426D01*
X92125086Y-133275850D01*
X92091601Y-133214527D01*
X92096585Y-133144835D01*
X92138457Y-133088902D01*
X92203921Y-133064485D01*
X92212767Y-133064169D01*
X92354800Y-133064169D01*
X92438022Y-133050987D01*
X92542055Y-133034511D01*
X92722368Y-132975923D01*
X92891296Y-132889850D01*
X93044679Y-132778410D01*
X93178741Y-132644348D01*
X93290181Y-132490965D01*
X93376254Y-132322037D01*
X93434842Y-132141724D01*
X93457245Y-132000272D01*
X93464500Y-131954469D01*
X93464500Y-131764868D01*
X93447903Y-131660081D01*
X93434842Y-131577614D01*
X93376254Y-131397301D01*
X93376252Y-131397298D01*
X93376252Y-131397296D01*
X93321822Y-131290473D01*
X93290181Y-131228373D01*
X93178741Y-131074990D01*
X93044679Y-130940928D01*
X92891296Y-130829488D01*
X92873252Y-130820294D01*
X92722372Y-130743416D01*
X92663905Y-130724419D01*
X92542055Y-130684827D01*
X92542051Y-130684826D01*
X92542050Y-130684826D01*
X92354800Y-130655169D01*
X92354796Y-130655169D01*
X92165204Y-130655169D01*
X92165200Y-130655169D01*
X91977949Y-130684826D01*
X91977946Y-130684826D01*
X91977945Y-130684827D01*
X91938770Y-130697556D01*
X91797624Y-130743417D01*
X91670794Y-130808041D01*
X91602125Y-130820937D01*
X91537385Y-130794660D01*
X91497128Y-130737554D01*
X91490500Y-130697556D01*
X91490500Y-130135405D01*
X91510185Y-130068366D01*
X91541610Y-130035090D01*
X91674679Y-129938410D01*
X91808741Y-129804348D01*
X91920181Y-129650965D01*
X92006254Y-129482037D01*
X92064842Y-129301724D01*
X92084731Y-129176145D01*
X92094500Y-129114469D01*
X92094500Y-128924868D01*
X92425500Y-128924868D01*
X92425500Y-129114469D01*
X92438484Y-129196446D01*
X92455158Y-129301724D01*
X92486226Y-129397339D01*
X92513747Y-129482041D01*
X92599682Y-129650696D01*
X92599819Y-129650965D01*
X92711259Y-129804348D01*
X92845321Y-129938410D01*
X92998704Y-130049850D01*
X93067598Y-130084953D01*
X93167627Y-130135921D01*
X93167629Y-130135921D01*
X93167632Y-130135923D01*
X93347945Y-130194511D01*
X93441574Y-130209340D01*
X93535200Y-130224169D01*
X93535204Y-130224169D01*
X93724800Y-130224169D01*
X93808022Y-130210987D01*
X93912055Y-130194511D01*
X94092368Y-130135923D01*
X94261296Y-130049850D01*
X94414679Y-129938410D01*
X94548741Y-129804348D01*
X94604551Y-129727531D01*
X94659880Y-129684868D01*
X94729494Y-129678889D01*
X94791288Y-129711495D01*
X94792549Y-129712738D01*
X95644502Y-130564691D01*
X95677987Y-130626014D01*
X95673003Y-130695706D01*
X95631131Y-130751639D01*
X95565667Y-130776056D01*
X95500527Y-130762857D01*
X95462375Y-130743417D01*
X95407326Y-130725530D01*
X95282055Y-130684827D01*
X95282051Y-130684826D01*
X95282050Y-130684826D01*
X95094800Y-130655169D01*
X95094796Y-130655169D01*
X94905204Y-130655169D01*
X94905200Y-130655169D01*
X94717949Y-130684826D01*
X94717946Y-130684826D01*
X94717945Y-130684827D01*
X94678770Y-130697556D01*
X94537627Y-130743416D01*
X94368703Y-130829488D01*
X94215319Y-130940929D01*
X94081260Y-131074988D01*
X93969819Y-131228372D01*
X93883747Y-131397296D01*
X93850513Y-131499579D01*
X93825159Y-131577613D01*
X93825157Y-131577618D01*
X93795500Y-131764868D01*
X93795500Y-131954469D01*
X93818356Y-132098777D01*
X93825158Y-132141724D01*
X93864750Y-132263574D01*
X93883747Y-132322041D01*
X93950134Y-132452331D01*
X93969819Y-132490965D01*
X94081259Y-132644348D01*
X94215321Y-132778410D01*
X94368704Y-132889850D01*
X94448515Y-132930515D01*
X94537627Y-132975921D01*
X94537629Y-132975921D01*
X94537632Y-132975923D01*
X94717945Y-133034511D01*
X94801018Y-133047668D01*
X94905200Y-133064169D01*
X94905204Y-133064169D01*
X95094800Y-133064169D01*
X95178022Y-133050987D01*
X95282055Y-133034511D01*
X95462368Y-132975923D01*
X95631296Y-132889850D01*
X95784679Y-132778410D01*
X95918741Y-132644348D01*
X96030181Y-132490965D01*
X96116254Y-132322037D01*
X96174842Y-132141724D01*
X96197245Y-132000272D01*
X96204500Y-131954469D01*
X96204500Y-131764868D01*
X96187903Y-131660081D01*
X96174842Y-131577614D01*
X96116254Y-131397301D01*
X96116252Y-131397298D01*
X96116252Y-131397296D01*
X96096811Y-131359142D01*
X96093840Y-131343326D01*
X96086130Y-131329205D01*
X96087525Y-131309696D01*
X96083915Y-131290473D01*
X96089966Y-131275563D01*
X96091114Y-131259513D01*
X96102835Y-131243854D01*
X96110191Y-131225733D01*
X96123342Y-131216461D01*
X96132986Y-131203580D01*
X96151309Y-131196745D01*
X96167297Y-131185475D01*
X96183374Y-131184785D01*
X96198450Y-131179163D01*
X96217561Y-131183320D01*
X96237103Y-131182483D01*
X96251759Y-131190759D01*
X96266723Y-131194015D01*
X96294977Y-131215166D01*
X96298854Y-131219043D01*
X96298864Y-131219054D01*
X96303194Y-131223384D01*
X96303195Y-131223385D01*
X96414999Y-131335189D01*
X96456488Y-131359142D01*
X96501810Y-131385308D01*
X96501813Y-131385310D01*
X96520806Y-131396276D01*
X96569020Y-131446844D01*
X96582242Y-131515451D01*
X96576736Y-131541978D01*
X96565158Y-131577613D01*
X96535500Y-131764868D01*
X96535500Y-131954469D01*
X96558356Y-132098777D01*
X96565158Y-132141724D01*
X96604750Y-132263574D01*
X96623747Y-132322041D01*
X96690134Y-132452331D01*
X96709819Y-132490965D01*
X96821259Y-132644348D01*
X96955321Y-132778410D01*
X97108704Y-132889850D01*
X97188515Y-132930515D01*
X97277627Y-132975921D01*
X97277629Y-132975921D01*
X97277632Y-132975923D01*
X97457945Y-133034511D01*
X97541018Y-133047668D01*
X97645200Y-133064169D01*
X97645204Y-133064169D01*
X97834800Y-133064169D01*
X97918022Y-133050987D01*
X98022055Y-133034511D01*
X98202368Y-132975923D01*
X98371296Y-132889850D01*
X98524679Y-132778410D01*
X98658741Y-132644348D01*
X98770181Y-132490965D01*
X98856254Y-132322037D01*
X98914842Y-132141724D01*
X98937245Y-132000272D01*
X98944500Y-131954469D01*
X98944500Y-131764867D01*
X98918161Y-131598566D01*
X98920556Y-131580027D01*
X98917896Y-131561522D01*
X98924942Y-131546092D01*
X98927116Y-131529273D01*
X98939154Y-131514971D01*
X98946921Y-131497966D01*
X98961189Y-131488796D01*
X98972112Y-131475821D01*
X98989972Y-131470298D01*
X99005699Y-131460192D01*
X99037404Y-131455633D01*
X99038864Y-131455182D01*
X99040634Y-131455169D01*
X99174903Y-131455169D01*
X99241942Y-131474854D01*
X99262584Y-131491488D01*
X99266437Y-131495341D01*
X99277926Y-131516382D01*
X99287697Y-131527658D01*
X99288988Y-131536641D01*
X99299922Y-131556664D01*
X99301229Y-131602420D01*
X99275500Y-131764868D01*
X99275500Y-131954469D01*
X99298356Y-132098777D01*
X99305158Y-132141724D01*
X99344750Y-132263574D01*
X99363747Y-132322041D01*
X99430134Y-132452331D01*
X99449819Y-132490965D01*
X99561259Y-132644348D01*
X99695321Y-132778410D01*
X99848704Y-132889850D01*
X99928515Y-132930515D01*
X100017627Y-132975921D01*
X100017629Y-132975921D01*
X100017632Y-132975923D01*
X100197945Y-133034511D01*
X100281018Y-133047668D01*
X100385200Y-133064169D01*
X100385204Y-133064169D01*
X100574800Y-133064169D01*
X100658022Y-133050987D01*
X100762055Y-133034511D01*
X100942368Y-132975923D01*
X101111296Y-132889850D01*
X101197958Y-132826885D01*
X101263761Y-132803406D01*
X101331815Y-132819231D01*
X101380511Y-132869336D01*
X101394387Y-132937814D01*
X101373944Y-132996094D01*
X101290612Y-133120809D01*
X101290602Y-133120827D01*
X101230264Y-133266498D01*
X101230261Y-133266510D01*
X101199500Y-133421153D01*
X101199500Y-133578846D01*
X101230261Y-133733489D01*
X101230264Y-133733501D01*
X101290602Y-133879172D01*
X101290609Y-133879185D01*
X101378210Y-134010288D01*
X101378213Y-134010292D01*
X101489707Y-134121786D01*
X101489711Y-134121789D01*
X101620814Y-134209390D01*
X101620827Y-134209397D01*
X101766498Y-134269735D01*
X101766503Y-134269737D01*
X101921153Y-134300499D01*
X101921156Y-134300500D01*
X101921158Y-134300500D01*
X102078844Y-134300500D01*
X102078845Y-134300499D01*
X102233497Y-134269737D01*
X102379179Y-134209394D01*
X102510289Y-134121789D01*
X102621789Y-134010289D01*
X102709394Y-133879179D01*
X102769737Y-133733497D01*
X102800500Y-133578842D01*
X102800500Y-133421158D01*
X102800500Y-133421155D01*
X102800499Y-133421153D01*
X102791833Y-133377585D01*
X102769737Y-133266503D01*
X102735219Y-133183170D01*
X102727751Y-133113704D01*
X102759026Y-133051225D01*
X102819115Y-133015572D01*
X102888099Y-133017789D01*
X102938062Y-133034022D01*
X103125238Y-133063669D01*
X103314762Y-133063669D01*
X103501937Y-133034023D01*
X103682182Y-132975457D01*
X103682184Y-132975456D01*
X103851027Y-132889425D01*
X103851043Y-132889415D01*
X103877192Y-132870415D01*
X103877193Y-132870414D01*
X103308584Y-132301807D01*
X103393694Y-132279002D01*
X103496306Y-132219759D01*
X103580090Y-132135975D01*
X103639333Y-132033363D01*
X103662137Y-131948254D01*
X104230745Y-132516862D01*
X104230746Y-132516861D01*
X104249746Y-132490712D01*
X104249750Y-132490705D01*
X104322673Y-132347590D01*
X104322674Y-132347588D01*
X104335789Y-132321849D01*
X104394354Y-132141606D01*
X104424000Y-131954431D01*
X104424000Y-131764906D01*
X104394354Y-131577731D01*
X104335789Y-131397490D01*
X104249752Y-131228635D01*
X104230745Y-131202475D01*
X103662137Y-131771083D01*
X103639333Y-131685975D01*
X103580090Y-131583363D01*
X103496306Y-131499579D01*
X103393694Y-131440336D01*
X103308584Y-131417530D01*
X103877193Y-130848922D01*
X103851033Y-130829915D01*
X103682178Y-130743879D01*
X103501937Y-130685314D01*
X103314762Y-130655669D01*
X103125238Y-130655669D01*
X102938062Y-130685314D01*
X102757821Y-130743879D01*
X102588969Y-130829914D01*
X102562806Y-130848922D01*
X103131415Y-131417530D01*
X103046306Y-131440336D01*
X102943694Y-131499579D01*
X102859910Y-131583363D01*
X102800667Y-131685975D01*
X102777861Y-131771084D01*
X102209253Y-131202475D01*
X102158772Y-131206448D01*
X102090395Y-131192084D01*
X102061362Y-131170511D01*
X101204353Y-130313502D01*
X101193267Y-130293200D01*
X109052000Y-130293200D01*
X109052000Y-130586137D01*
X109084794Y-130877199D01*
X109084797Y-130877213D01*
X109149978Y-131162793D01*
X109149982Y-131162805D01*
X109246723Y-131439273D01*
X109246729Y-131439287D01*
X109373819Y-131703192D01*
X109529665Y-131951220D01*
X109647336Y-132098777D01*
X110365747Y-131380366D01*
X110439588Y-131481999D01*
X110617670Y-131660081D01*
X110719301Y-131733920D01*
X110000890Y-132452331D01*
X110148448Y-132570003D01*
X110396476Y-132725849D01*
X110660381Y-132852939D01*
X110660395Y-132852945D01*
X110936863Y-132949686D01*
X110936875Y-132949690D01*
X111222455Y-133014871D01*
X111222469Y-133014874D01*
X111513531Y-133047668D01*
X111513535Y-133047669D01*
X111806465Y-133047669D01*
X111806468Y-133047668D01*
X112097530Y-133014874D01*
X112097544Y-133014871D01*
X112383124Y-132949690D01*
X112383136Y-132949686D01*
X112659604Y-132852945D01*
X112659618Y-132852939D01*
X112923523Y-132725849D01*
X113171551Y-132570003D01*
X113319108Y-132452331D01*
X112600698Y-131733920D01*
X112702330Y-131660081D01*
X112880412Y-131481999D01*
X112954251Y-131380367D01*
X113672662Y-132098777D01*
X113790334Y-131951220D01*
X113946180Y-131703192D01*
X114073270Y-131439287D01*
X114073276Y-131439273D01*
X114170017Y-131162805D01*
X114170021Y-131162793D01*
X114235202Y-130877213D01*
X114235205Y-130877199D01*
X114267999Y-130586137D01*
X114268000Y-130586133D01*
X114268000Y-130293204D01*
X114267999Y-130293200D01*
X114235205Y-130002138D01*
X114235202Y-130002124D01*
X114170021Y-129716544D01*
X114170017Y-129716532D01*
X114073276Y-129440064D01*
X114073270Y-129440050D01*
X113946180Y-129176145D01*
X113790334Y-128928117D01*
X113672662Y-128780559D01*
X112954251Y-129498970D01*
X112880412Y-129397339D01*
X112702330Y-129219257D01*
X112600697Y-129145416D01*
X113319108Y-128427005D01*
X113171551Y-128309334D01*
X112923523Y-128153488D01*
X112659618Y-128026398D01*
X112659604Y-128026392D01*
X112383136Y-127929651D01*
X112383124Y-127929647D01*
X112097544Y-127864466D01*
X112097530Y-127864463D01*
X111806468Y-127831669D01*
X111513531Y-127831669D01*
X111222469Y-127864463D01*
X111222455Y-127864466D01*
X110936875Y-127929647D01*
X110936863Y-127929651D01*
X110660395Y-128026392D01*
X110660381Y-128026398D01*
X110396476Y-128153488D01*
X110148444Y-128309336D01*
X110148440Y-128309339D01*
X110000890Y-128427005D01*
X110719301Y-129145416D01*
X110617670Y-129219257D01*
X110439588Y-129397339D01*
X110365747Y-129498970D01*
X109647336Y-128780559D01*
X109529670Y-128928109D01*
X109529667Y-128928113D01*
X109373819Y-129176145D01*
X109246729Y-129440050D01*
X109246723Y-129440064D01*
X109149982Y-129716532D01*
X109149978Y-129716544D01*
X109084797Y-130002124D01*
X109084794Y-130002138D01*
X109052000Y-130293200D01*
X101193267Y-130293200D01*
X101170868Y-130252179D01*
X101175852Y-130182487D01*
X101217724Y-130126554D01*
X101283188Y-130102137D01*
X101348330Y-130115337D01*
X101387819Y-130135458D01*
X101568062Y-130194023D01*
X101755238Y-130223669D01*
X101944762Y-130223669D01*
X102131937Y-130194023D01*
X102312182Y-130135457D01*
X102312184Y-130135456D01*
X102481027Y-130049425D01*
X102481043Y-130049415D01*
X102507192Y-130030415D01*
X102507193Y-130030414D01*
X101938584Y-129461807D01*
X102023694Y-129439002D01*
X102126306Y-129379759D01*
X102210090Y-129295975D01*
X102269333Y-129193363D01*
X102292137Y-129108254D01*
X102860745Y-129676862D01*
X102860746Y-129676861D01*
X102879746Y-129650712D01*
X102879756Y-129650696D01*
X102965787Y-129481853D01*
X102965788Y-129481851D01*
X103024354Y-129301606D01*
X103054000Y-129114431D01*
X103054000Y-128924906D01*
X103024354Y-128737731D01*
X102965789Y-128557490D01*
X102879752Y-128388634D01*
X102860746Y-128362475D01*
X102860745Y-128362475D01*
X102292137Y-128931083D01*
X102269333Y-128845975D01*
X102210090Y-128743363D01*
X102126306Y-128659579D01*
X102023694Y-128600336D01*
X101938584Y-128577530D01*
X102248311Y-128267804D01*
X103385500Y-128267804D01*
X103385500Y-129771539D01*
X103385501Y-129771545D01*
X103391908Y-129831152D01*
X103442202Y-129965997D01*
X103442206Y-129966004D01*
X103528452Y-130081213D01*
X103528455Y-130081216D01*
X103643664Y-130167462D01*
X103643671Y-130167466D01*
X103778517Y-130217760D01*
X103778516Y-130217760D01*
X103785444Y-130218504D01*
X103838127Y-130224169D01*
X105341872Y-130224168D01*
X105401483Y-130217760D01*
X105463817Y-130194511D01*
X105520028Y-130173546D01*
X105536328Y-130167466D01*
X105536327Y-130167466D01*
X105536331Y-130167465D01*
X105651546Y-130081215D01*
X105737796Y-129966000D01*
X105788091Y-129831152D01*
X105794500Y-129771542D01*
X105794499Y-128267797D01*
X105788091Y-128208186D01*
X105773522Y-128169125D01*
X105737797Y-128073340D01*
X105737793Y-128073333D01*
X105651547Y-127958124D01*
X105651544Y-127958121D01*
X105536335Y-127871875D01*
X105536328Y-127871871D01*
X105401482Y-127821577D01*
X105401483Y-127821577D01*
X105341883Y-127815170D01*
X105341881Y-127815169D01*
X105341873Y-127815169D01*
X105341864Y-127815169D01*
X103838129Y-127815169D01*
X103838123Y-127815170D01*
X103778516Y-127821577D01*
X103643671Y-127871871D01*
X103643664Y-127871875D01*
X103528455Y-127958121D01*
X103528452Y-127958124D01*
X103442206Y-128073333D01*
X103442202Y-128073340D01*
X103391908Y-128208186D01*
X103389027Y-128234988D01*
X103385501Y-128267792D01*
X103385500Y-128267804D01*
X102248311Y-128267804D01*
X102507193Y-128008922D01*
X102481033Y-127989915D01*
X102312178Y-127903879D01*
X102131937Y-127845314D01*
X101944762Y-127815669D01*
X101755238Y-127815669D01*
X101568062Y-127845314D01*
X101387821Y-127903879D01*
X101218969Y-127989914D01*
X101192806Y-128008922D01*
X101761415Y-128577530D01*
X101676306Y-128600336D01*
X101573694Y-128659579D01*
X101489910Y-128743363D01*
X101430667Y-128845975D01*
X101407861Y-128931084D01*
X100839253Y-128362475D01*
X100820245Y-128388638D01*
X100734210Y-128557490D01*
X100675645Y-128737731D01*
X100646000Y-128924906D01*
X100646000Y-129114431D01*
X100675645Y-129301606D01*
X100734210Y-129481847D01*
X100820247Y-129650703D01*
X100856528Y-129700639D01*
X100880008Y-129766445D01*
X100864183Y-129834499D01*
X100814077Y-129883194D01*
X100745599Y-129897070D01*
X100724117Y-129893300D01*
X100614421Y-129863907D01*
X100574342Y-129853168D01*
X100416228Y-129853168D01*
X100408632Y-129853168D01*
X100408616Y-129853169D01*
X100236635Y-129853169D01*
X100169596Y-129833484D01*
X100123841Y-129780680D01*
X100113897Y-129711522D01*
X100136318Y-129656282D01*
X100140180Y-129650966D01*
X100140310Y-129650712D01*
X100226254Y-129482037D01*
X100284842Y-129301724D01*
X100304731Y-129176145D01*
X100314500Y-129114469D01*
X100314500Y-128924868D01*
X100298023Y-128820840D01*
X100284842Y-128737614D01*
X100226254Y-128557301D01*
X100226252Y-128557298D01*
X100226252Y-128557296D01*
X100140316Y-128388638D01*
X100140181Y-128388373D01*
X100028741Y-128234990D01*
X99894679Y-128100928D01*
X99741296Y-127989488D01*
X99710499Y-127973796D01*
X99572372Y-127903416D01*
X99475299Y-127871875D01*
X99392055Y-127844827D01*
X99392051Y-127844826D01*
X99392050Y-127844826D01*
X99204800Y-127815169D01*
X99204796Y-127815169D01*
X99015204Y-127815169D01*
X99015200Y-127815169D01*
X98827947Y-127844826D01*
X98827943Y-127844827D01*
X98762817Y-127865988D01*
X98692976Y-127867983D01*
X98633144Y-127831902D01*
X98602316Y-127769201D01*
X98600500Y-127748057D01*
X98600500Y-126897955D01*
X98620185Y-126830916D01*
X98672989Y-126785161D01*
X98700303Y-126776339D01*
X98733497Y-126769737D01*
X98879179Y-126709394D01*
X99010289Y-126621789D01*
X99121789Y-126510289D01*
X99209394Y-126379179D01*
X99269737Y-126233497D01*
X99300500Y-126078842D01*
X99300500Y-125921158D01*
X99300500Y-125921155D01*
X99300499Y-125921153D01*
X99295885Y-125897955D01*
X99269737Y-125766503D01*
X99246080Y-125709390D01*
X99209397Y-125620827D01*
X99209390Y-125620814D01*
X99121789Y-125489711D01*
X99121786Y-125489707D01*
X99010292Y-125378213D01*
X99010288Y-125378210D01*
X98879185Y-125290609D01*
X98879172Y-125290602D01*
X98733501Y-125230264D01*
X98733489Y-125230261D01*
X98578845Y-125199500D01*
X98578842Y-125199500D01*
X98421158Y-125199500D01*
X98421155Y-125199500D01*
X98266510Y-125230261D01*
X98266498Y-125230264D01*
X98120827Y-125290602D01*
X98120814Y-125290609D01*
X97989711Y-125378210D01*
X97989707Y-125378213D01*
X97878213Y-125489707D01*
X97878210Y-125489711D01*
X97790609Y-125620814D01*
X97790602Y-125620827D01*
X97730264Y-125766498D01*
X97730261Y-125766508D01*
X97699362Y-125921847D01*
X97690597Y-125938602D01*
X97686578Y-125957081D01*
X97667834Y-125982118D01*
X97666977Y-125983758D01*
X97665427Y-125985335D01*
X97624224Y-126026538D01*
X97624212Y-126026552D01*
X97519478Y-126131286D01*
X97469361Y-126218094D01*
X97469359Y-126218096D01*
X97440425Y-126268209D01*
X97440424Y-126268210D01*
X97440423Y-126268215D01*
X97399499Y-126420943D01*
X97399499Y-126420945D01*
X97399499Y-126589046D01*
X97399500Y-126589059D01*
X97399500Y-128046387D01*
X97379815Y-128113426D01*
X97327011Y-128159181D01*
X97257853Y-128169125D01*
X97194297Y-128140100D01*
X97187819Y-128134068D01*
X97154680Y-128100929D01*
X97116707Y-128073340D01*
X97001296Y-127989488D01*
X96970499Y-127973796D01*
X96832372Y-127903416D01*
X96735299Y-127871875D01*
X96652055Y-127844827D01*
X96652051Y-127844826D01*
X96652050Y-127844826D01*
X96464800Y-127815169D01*
X96464796Y-127815169D01*
X96275204Y-127815169D01*
X96275200Y-127815169D01*
X96087949Y-127844826D01*
X96087946Y-127844826D01*
X96087945Y-127844827D01*
X96048770Y-127857556D01*
X95907624Y-127903417D01*
X95780794Y-127968041D01*
X95712125Y-127980937D01*
X95647385Y-127954660D01*
X95607128Y-127897554D01*
X95600500Y-127857556D01*
X95600500Y-125897955D01*
X95620185Y-125830916D01*
X95672989Y-125785161D01*
X95700303Y-125776339D01*
X95733497Y-125769737D01*
X95879179Y-125709394D01*
X96010289Y-125621789D01*
X96121789Y-125510289D01*
X96209394Y-125379179D01*
X96269737Y-125233497D01*
X96300500Y-125078842D01*
X96300500Y-124921158D01*
X96300500Y-124921155D01*
X96300499Y-124921153D01*
X96269738Y-124766510D01*
X96269738Y-124766508D01*
X96269737Y-124766503D01*
X96269735Y-124766498D01*
X96209397Y-124620827D01*
X96209390Y-124620814D01*
X96121789Y-124489711D01*
X96121786Y-124489707D01*
X96010292Y-124378213D01*
X96010288Y-124378210D01*
X95879185Y-124290609D01*
X95879172Y-124290602D01*
X95733501Y-124230264D01*
X95733489Y-124230261D01*
X95578845Y-124199500D01*
X95578842Y-124199500D01*
X95421158Y-124199500D01*
X95421155Y-124199500D01*
X95266510Y-124230261D01*
X95266498Y-124230264D01*
X95120827Y-124290602D01*
X95120814Y-124290609D01*
X94989711Y-124378210D01*
X94989707Y-124378213D01*
X94878213Y-124489707D01*
X94878210Y-124489711D01*
X94790609Y-124620814D01*
X94790602Y-124620827D01*
X94730264Y-124766498D01*
X94730261Y-124766508D01*
X94699362Y-124921847D01*
X94690597Y-124938602D01*
X94686578Y-124957081D01*
X94667834Y-124982118D01*
X94666977Y-124983758D01*
X94665427Y-124985335D01*
X94624224Y-125026538D01*
X94624212Y-125026552D01*
X94519480Y-125131284D01*
X94519478Y-125131286D01*
X94513734Y-125137031D01*
X94511714Y-125135011D01*
X94466431Y-125168067D01*
X94396684Y-125172212D01*
X94335769Y-125137991D01*
X94303025Y-125076269D01*
X94300500Y-125051372D01*
X94300500Y-124921155D01*
X94300499Y-124921153D01*
X94269738Y-124766510D01*
X94269738Y-124766508D01*
X94269737Y-124766503D01*
X94269735Y-124766498D01*
X94209397Y-124620827D01*
X94209390Y-124620814D01*
X94121789Y-124489711D01*
X94121786Y-124489707D01*
X94010292Y-124378213D01*
X94010288Y-124378210D01*
X93879185Y-124290609D01*
X93879172Y-124290602D01*
X93733501Y-124230264D01*
X93733489Y-124230261D01*
X93578845Y-124199500D01*
X93578842Y-124199500D01*
X93421158Y-124199500D01*
X93421155Y-124199500D01*
X93266510Y-124230261D01*
X93266498Y-124230264D01*
X93120827Y-124290602D01*
X93120814Y-124290609D01*
X92989711Y-124378210D01*
X92989707Y-124378213D01*
X92878213Y-124489707D01*
X92878210Y-124489711D01*
X92790609Y-124620814D01*
X92790602Y-124620827D01*
X92730264Y-124766498D01*
X92730261Y-124766510D01*
X92699500Y-124921153D01*
X92699500Y-125078846D01*
X92730261Y-125233489D01*
X92730264Y-125233501D01*
X92790602Y-125379172D01*
X92790609Y-125379185D01*
X92878210Y-125510288D01*
X92878213Y-125510292D01*
X92993181Y-125625260D01*
X93026666Y-125686583D01*
X93029500Y-125712941D01*
X93029500Y-127903932D01*
X93009815Y-127970971D01*
X92978386Y-128004250D01*
X92845319Y-128100929D01*
X92711260Y-128234988D01*
X92599819Y-128388372D01*
X92513747Y-128557296D01*
X92455157Y-128737618D01*
X92425500Y-128924868D01*
X92094500Y-128924868D01*
X92078023Y-128820840D01*
X92064842Y-128737614D01*
X92006254Y-128557301D01*
X92006252Y-128557298D01*
X92006252Y-128557296D01*
X91920316Y-128388638D01*
X91920181Y-128388373D01*
X91808741Y-128234990D01*
X91674679Y-128100928D01*
X91521296Y-127989488D01*
X91490499Y-127973796D01*
X91352372Y-127903416D01*
X91255299Y-127871875D01*
X91172055Y-127844827D01*
X91172051Y-127844826D01*
X91172050Y-127844826D01*
X90984800Y-127815169D01*
X90984796Y-127815169D01*
X90795204Y-127815169D01*
X90795200Y-127815169D01*
X90607949Y-127844826D01*
X90607946Y-127844826D01*
X90607945Y-127844827D01*
X90568770Y-127857556D01*
X90427627Y-127903416D01*
X90258703Y-127989488D01*
X90105319Y-128100929D01*
X89971260Y-128234988D01*
X89859819Y-128388372D01*
X89773747Y-128557296D01*
X89715157Y-128737618D01*
X89685500Y-128924868D01*
X89685500Y-129114469D01*
X89698484Y-129196446D01*
X89715158Y-129301724D01*
X89746226Y-129397339D01*
X89773747Y-129482041D01*
X89859682Y-129650696D01*
X89859819Y-129650965D01*
X89971259Y-129804348D01*
X90105321Y-129938410D01*
X90238387Y-130035089D01*
X90281051Y-130090417D01*
X90289500Y-130135405D01*
X90289500Y-130697556D01*
X90269815Y-130764595D01*
X90217011Y-130810350D01*
X90147853Y-130820294D01*
X90109206Y-130808041D01*
X89982375Y-130743417D01*
X89927326Y-130725530D01*
X89802055Y-130684827D01*
X89802051Y-130684826D01*
X89802050Y-130684826D01*
X89614800Y-130655169D01*
X89614796Y-130655169D01*
X89425204Y-130655169D01*
X89425200Y-130655169D01*
X89237949Y-130684826D01*
X89237946Y-130684826D01*
X89237945Y-130684827D01*
X89198770Y-130697556D01*
X89057627Y-130743416D01*
X88888703Y-130829488D01*
X88735319Y-130940929D01*
X88601260Y-131074988D01*
X88489819Y-131228372D01*
X88403747Y-131397296D01*
X88370513Y-131499579D01*
X88345159Y-131577613D01*
X88345157Y-131577618D01*
X88315500Y-131764868D01*
X87984500Y-131764868D01*
X87967903Y-131660081D01*
X87954842Y-131577614D01*
X87896254Y-131397301D01*
X87896252Y-131397298D01*
X87896252Y-131397296D01*
X87841822Y-131290473D01*
X87810181Y-131228373D01*
X87698741Y-131074990D01*
X87564679Y-130940928D01*
X87411296Y-130829488D01*
X87393252Y-130820294D01*
X87242372Y-130743416D01*
X87183905Y-130724419D01*
X87062055Y-130684827D01*
X87062051Y-130684826D01*
X87062050Y-130684826D01*
X86874800Y-130655169D01*
X86874796Y-130655169D01*
X86685204Y-130655169D01*
X86685200Y-130655169D01*
X86497949Y-130684826D01*
X86497946Y-130684826D01*
X86497945Y-130684827D01*
X86458770Y-130697556D01*
X86317627Y-130743416D01*
X86148703Y-130829488D01*
X85995319Y-130940929D01*
X85861260Y-131074988D01*
X85749819Y-131228372D01*
X85663747Y-131397296D01*
X85630513Y-131499579D01*
X85605159Y-131577613D01*
X85605157Y-131577618D01*
X85575500Y-131764868D01*
X80587427Y-131764868D01*
X80626182Y-131703190D01*
X80753270Y-131439287D01*
X80753276Y-131439273D01*
X80850017Y-131162805D01*
X80850021Y-131162793D01*
X80915202Y-130877213D01*
X80915205Y-130877199D01*
X80947999Y-130586137D01*
X80948000Y-130586133D01*
X80948000Y-130293204D01*
X80947999Y-130293200D01*
X80915205Y-130002138D01*
X80915202Y-130002124D01*
X80850021Y-129716544D01*
X80850017Y-129716532D01*
X80753276Y-129440064D01*
X80753270Y-129440050D01*
X80626180Y-129176145D01*
X80506688Y-128985973D01*
X80470334Y-128928117D01*
X80467743Y-128924868D01*
X84205500Y-128924868D01*
X84205500Y-129114469D01*
X84218484Y-129196446D01*
X84235158Y-129301724D01*
X84266226Y-129397339D01*
X84293747Y-129482041D01*
X84379682Y-129650696D01*
X84379819Y-129650965D01*
X84491259Y-129804348D01*
X84625321Y-129938410D01*
X84778704Y-130049850D01*
X84847598Y-130084953D01*
X84947627Y-130135921D01*
X84947629Y-130135921D01*
X84947632Y-130135923D01*
X85127945Y-130194511D01*
X85221574Y-130209340D01*
X85315200Y-130224169D01*
X85315204Y-130224169D01*
X85504800Y-130224169D01*
X85588022Y-130210987D01*
X85692055Y-130194511D01*
X85872368Y-130135923D01*
X86041296Y-130049850D01*
X86194679Y-129938410D01*
X86328741Y-129804348D01*
X86440181Y-129650965D01*
X86526254Y-129482037D01*
X86584842Y-129301724D01*
X86604731Y-129176145D01*
X86614500Y-129114469D01*
X86614500Y-128924868D01*
X86945500Y-128924868D01*
X86945500Y-129114469D01*
X86958484Y-129196446D01*
X86975158Y-129301724D01*
X87006226Y-129397339D01*
X87033747Y-129482041D01*
X87119682Y-129650696D01*
X87119819Y-129650965D01*
X87231259Y-129804348D01*
X87365321Y-129938410D01*
X87518704Y-130049850D01*
X87587598Y-130084953D01*
X87687627Y-130135921D01*
X87687629Y-130135921D01*
X87687632Y-130135923D01*
X87867945Y-130194511D01*
X87961574Y-130209340D01*
X88055200Y-130224169D01*
X88055204Y-130224169D01*
X88244800Y-130224169D01*
X88328022Y-130210987D01*
X88432055Y-130194511D01*
X88612368Y-130135923D01*
X88781296Y-130049850D01*
X88934679Y-129938410D01*
X89068741Y-129804348D01*
X89180181Y-129650965D01*
X89266254Y-129482037D01*
X89324842Y-129301724D01*
X89344731Y-129176145D01*
X89354500Y-129114469D01*
X89354500Y-128924868D01*
X89338023Y-128820840D01*
X89324842Y-128737614D01*
X89266254Y-128557301D01*
X89266252Y-128557298D01*
X89266252Y-128557296D01*
X89180316Y-128388638D01*
X89180181Y-128388373D01*
X89068741Y-128234990D01*
X88934679Y-128100928D01*
X88781296Y-127989488D01*
X88750499Y-127973796D01*
X88612372Y-127903416D01*
X88515299Y-127871875D01*
X88432055Y-127844827D01*
X88432051Y-127844826D01*
X88432050Y-127844826D01*
X88244800Y-127815169D01*
X88244796Y-127815169D01*
X88055204Y-127815169D01*
X88055200Y-127815169D01*
X87867949Y-127844826D01*
X87867946Y-127844826D01*
X87867945Y-127844827D01*
X87828770Y-127857556D01*
X87687627Y-127903416D01*
X87518703Y-127989488D01*
X87365319Y-128100929D01*
X87231260Y-128234988D01*
X87119819Y-128388372D01*
X87033747Y-128557296D01*
X86975157Y-128737618D01*
X86945500Y-128924868D01*
X86614500Y-128924868D01*
X86598023Y-128820840D01*
X86584842Y-128737614D01*
X86526254Y-128557301D01*
X86526252Y-128557298D01*
X86526252Y-128557296D01*
X86440316Y-128388638D01*
X86440181Y-128388373D01*
X86328741Y-128234990D01*
X86194679Y-128100928D01*
X86041296Y-127989488D01*
X86010499Y-127973796D01*
X85872372Y-127903416D01*
X85775299Y-127871875D01*
X85692055Y-127844827D01*
X85692051Y-127844826D01*
X85692050Y-127844826D01*
X85504800Y-127815169D01*
X85504796Y-127815169D01*
X85315204Y-127815169D01*
X85315200Y-127815169D01*
X85127949Y-127844826D01*
X85127946Y-127844826D01*
X85127945Y-127844827D01*
X85088770Y-127857556D01*
X84947627Y-127903416D01*
X84778703Y-127989488D01*
X84625319Y-128100929D01*
X84491260Y-128234988D01*
X84379819Y-128388372D01*
X84293747Y-128557296D01*
X84235157Y-128737618D01*
X84205500Y-128924868D01*
X80467743Y-128924868D01*
X80352662Y-128780559D01*
X79634251Y-129498970D01*
X79560412Y-129397339D01*
X79382330Y-129219257D01*
X79280697Y-129145416D01*
X79999108Y-128427005D01*
X79851551Y-128309334D01*
X79603523Y-128153488D01*
X79339618Y-128026398D01*
X79339604Y-128026392D01*
X79063136Y-127929651D01*
X79063124Y-127929647D01*
X78777544Y-127864466D01*
X78777530Y-127864463D01*
X78486468Y-127831669D01*
X78193531Y-127831669D01*
X77902469Y-127864463D01*
X77902455Y-127864466D01*
X77616875Y-127929647D01*
X77616863Y-127929651D01*
X77340395Y-128026392D01*
X77340381Y-128026398D01*
X77076476Y-128153488D01*
X76828444Y-128309336D01*
X76828440Y-128309339D01*
X76680890Y-128427005D01*
X77399301Y-129145416D01*
X77297670Y-129219257D01*
X77119588Y-129397339D01*
X77045747Y-129498970D01*
X76327336Y-128780559D01*
X76209670Y-128928109D01*
X76209667Y-128928113D01*
X76053819Y-129176145D01*
X75926729Y-129440050D01*
X75926723Y-129440064D01*
X75829982Y-129716532D01*
X75829978Y-129716544D01*
X75764797Y-130002124D01*
X75764794Y-130002138D01*
X75732000Y-130293200D01*
X50500500Y-130293200D01*
X50500500Y-112921153D01*
X84199500Y-112921153D01*
X84199500Y-113078846D01*
X84230261Y-113233489D01*
X84230264Y-113233501D01*
X84290602Y-113379172D01*
X84290609Y-113379185D01*
X84378210Y-113510288D01*
X84378213Y-113510292D01*
X84489707Y-113621786D01*
X84489711Y-113621789D01*
X84620814Y-113709390D01*
X84620827Y-113709397D01*
X84766498Y-113769735D01*
X84766503Y-113769737D01*
X84921153Y-113800499D01*
X84921156Y-113800500D01*
X84921158Y-113800500D01*
X85078844Y-113800500D01*
X85078845Y-113800499D01*
X85233497Y-113769737D01*
X85379179Y-113709394D01*
X85379185Y-113709390D01*
X85510875Y-113621398D01*
X85577553Y-113600520D01*
X85579766Y-113600500D01*
X88420234Y-113600500D01*
X88487273Y-113620185D01*
X88489125Y-113621398D01*
X88620814Y-113709390D01*
X88620827Y-113709397D01*
X88766498Y-113769735D01*
X88766503Y-113769737D01*
X88921153Y-113800499D01*
X88921156Y-113800500D01*
X88921158Y-113800500D01*
X89078844Y-113800500D01*
X89078845Y-113800499D01*
X89233497Y-113769737D01*
X89379179Y-113709394D01*
X89510289Y-113621789D01*
X89621789Y-113510289D01*
X89709394Y-113379179D01*
X89769737Y-113233497D01*
X89800500Y-113078842D01*
X89800500Y-112921158D01*
X89800500Y-112921155D01*
X89800499Y-112921153D01*
X89769738Y-112766510D01*
X89769737Y-112766503D01*
X89769735Y-112766498D01*
X89709397Y-112620827D01*
X89709390Y-112620814D01*
X89621789Y-112489711D01*
X89621786Y-112489707D01*
X89510292Y-112378213D01*
X89510288Y-112378210D01*
X89379185Y-112290609D01*
X89379172Y-112290602D01*
X89233501Y-112230264D01*
X89233489Y-112230261D01*
X89078845Y-112199500D01*
X89078842Y-112199500D01*
X88921158Y-112199500D01*
X88921155Y-112199500D01*
X88766510Y-112230261D01*
X88766498Y-112230264D01*
X88620827Y-112290602D01*
X88620814Y-112290609D01*
X88489125Y-112378602D01*
X88422447Y-112399480D01*
X88420234Y-112399500D01*
X85579766Y-112399500D01*
X85512727Y-112379815D01*
X85510875Y-112378602D01*
X85379185Y-112290609D01*
X85379172Y-112290602D01*
X85233501Y-112230264D01*
X85233489Y-112230261D01*
X85078845Y-112199500D01*
X85078842Y-112199500D01*
X84921158Y-112199500D01*
X84921155Y-112199500D01*
X84766510Y-112230261D01*
X84766498Y-112230264D01*
X84620827Y-112290602D01*
X84620814Y-112290609D01*
X84489711Y-112378210D01*
X84489707Y-112378213D01*
X84378213Y-112489707D01*
X84378210Y-112489711D01*
X84290609Y-112620814D01*
X84290602Y-112620827D01*
X84230264Y-112766498D01*
X84230261Y-112766510D01*
X84199500Y-112921153D01*
X50500500Y-112921153D01*
X50500500Y-105925258D01*
X64824500Y-105925258D01*
X64824500Y-106154741D01*
X64849446Y-106344215D01*
X64854452Y-106382238D01*
X64854453Y-106382240D01*
X64913842Y-106603887D01*
X65001650Y-106815876D01*
X65001657Y-106815890D01*
X65116392Y-107014617D01*
X65256081Y-107196661D01*
X65256089Y-107196670D01*
X65418330Y-107358911D01*
X65418338Y-107358918D01*
X65600382Y-107498607D01*
X65600385Y-107498608D01*
X65600388Y-107498611D01*
X65799112Y-107613344D01*
X65799117Y-107613346D01*
X65799123Y-107613349D01*
X65890480Y-107651190D01*
X66011113Y-107701158D01*
X66232762Y-107760548D01*
X66460266Y-107790500D01*
X66460273Y-107790500D01*
X66689727Y-107790500D01*
X66689734Y-107790500D01*
X66917238Y-107760548D01*
X67138887Y-107701158D01*
X67350888Y-107613344D01*
X67549612Y-107498611D01*
X67731661Y-107358919D01*
X67731665Y-107358914D01*
X67731670Y-107358911D01*
X67893911Y-107196670D01*
X67893914Y-107196665D01*
X67893919Y-107196661D01*
X68033611Y-107014612D01*
X68148344Y-106815888D01*
X68236158Y-106603887D01*
X68295548Y-106382238D01*
X68325500Y-106154734D01*
X68325500Y-105925266D01*
X68295548Y-105697762D01*
X68236158Y-105476113D01*
X68186190Y-105355480D01*
X68148349Y-105264123D01*
X68148346Y-105264117D01*
X68148344Y-105264112D01*
X68033611Y-105065388D01*
X68033608Y-105065385D01*
X68033607Y-105065382D01*
X67893918Y-104883338D01*
X67893911Y-104883330D01*
X67731670Y-104721089D01*
X67731661Y-104721081D01*
X67549617Y-104581392D01*
X67350890Y-104466657D01*
X67350876Y-104466650D01*
X67138887Y-104378842D01*
X66917238Y-104319452D01*
X66794322Y-104303269D01*
X66689741Y-104289500D01*
X66689734Y-104289500D01*
X66460266Y-104289500D01*
X66460258Y-104289500D01*
X66243715Y-104318009D01*
X66232762Y-104319452D01*
X66139076Y-104344554D01*
X66011112Y-104378842D01*
X65799123Y-104466650D01*
X65799109Y-104466657D01*
X65600382Y-104581392D01*
X65418338Y-104721081D01*
X65256081Y-104883338D01*
X65116392Y-105065382D01*
X65001657Y-105264109D01*
X65001650Y-105264123D01*
X64913842Y-105476112D01*
X64854453Y-105697759D01*
X64854451Y-105697770D01*
X64824500Y-105925258D01*
X50500500Y-105925258D01*
X50500500Y-104185258D01*
X106549500Y-104185258D01*
X106549500Y-104414741D01*
X106571441Y-104581389D01*
X106579452Y-104642238D01*
X106579453Y-104642240D01*
X106638842Y-104863887D01*
X106726650Y-105075876D01*
X106726657Y-105075890D01*
X106841392Y-105274617D01*
X106981081Y-105456661D01*
X106981089Y-105456670D01*
X107143330Y-105618911D01*
X107143338Y-105618918D01*
X107325382Y-105758607D01*
X107325385Y-105758608D01*
X107325388Y-105758611D01*
X107524112Y-105873344D01*
X107524117Y-105873346D01*
X107524123Y-105873349D01*
X107615480Y-105911190D01*
X107736113Y-105961158D01*
X107957762Y-106020548D01*
X108185266Y-106050500D01*
X108185273Y-106050500D01*
X108414727Y-106050500D01*
X108414734Y-106050500D01*
X108642238Y-106020548D01*
X108863887Y-105961158D01*
X109075888Y-105873344D01*
X109274612Y-105758611D01*
X109456661Y-105618919D01*
X109456665Y-105618914D01*
X109456670Y-105618911D01*
X109618911Y-105456670D01*
X109618914Y-105456665D01*
X109618919Y-105456661D01*
X109758611Y-105274612D01*
X109873344Y-105075888D01*
X109961158Y-104863887D01*
X110020548Y-104642238D01*
X110050500Y-104414734D01*
X110050500Y-104185266D01*
X110020548Y-103957762D01*
X109961158Y-103736113D01*
X109899416Y-103587055D01*
X109873349Y-103524123D01*
X109873346Y-103524117D01*
X109873344Y-103524112D01*
X109758611Y-103325388D01*
X109758608Y-103325385D01*
X109758607Y-103325382D01*
X109618918Y-103143338D01*
X109618911Y-103143330D01*
X109456670Y-102981089D01*
X109456661Y-102981081D01*
X109274617Y-102841392D01*
X109075890Y-102726657D01*
X109075876Y-102726650D01*
X108863887Y-102638842D01*
X108642238Y-102579452D01*
X108604215Y-102574446D01*
X108414741Y-102549500D01*
X108414734Y-102549500D01*
X108185266Y-102549500D01*
X108185258Y-102549500D01*
X107968715Y-102578009D01*
X107957762Y-102579452D01*
X107864076Y-102604554D01*
X107736112Y-102638842D01*
X107524123Y-102726650D01*
X107524109Y-102726657D01*
X107325382Y-102841392D01*
X107143338Y-102981081D01*
X106981081Y-103143338D01*
X106841392Y-103325382D01*
X106726657Y-103524109D01*
X106726650Y-103524123D01*
X106638842Y-103736112D01*
X106613777Y-103829659D01*
X106590303Y-103917267D01*
X106579453Y-103957759D01*
X106579451Y-103957770D01*
X106549500Y-104185258D01*
X50500500Y-104185258D01*
X50500500Y-101375258D01*
X64824500Y-101375258D01*
X64824500Y-101604741D01*
X64849446Y-101794215D01*
X64854452Y-101832238D01*
X64898373Y-101996155D01*
X64913842Y-102053887D01*
X65001650Y-102265876D01*
X65001657Y-102265890D01*
X65032596Y-102319478D01*
X65110361Y-102454172D01*
X65116392Y-102464617D01*
X65256081Y-102646661D01*
X65256089Y-102646670D01*
X65418330Y-102808911D01*
X65418338Y-102808918D01*
X65418339Y-102808919D01*
X65460658Y-102841392D01*
X65600382Y-102948607D01*
X65600385Y-102948608D01*
X65600388Y-102948611D01*
X65799112Y-103063344D01*
X65799117Y-103063346D01*
X65799123Y-103063349D01*
X65890480Y-103101190D01*
X66011113Y-103151158D01*
X66232762Y-103210548D01*
X66460266Y-103240500D01*
X66460273Y-103240500D01*
X66689727Y-103240500D01*
X66689734Y-103240500D01*
X66917238Y-103210548D01*
X67138887Y-103151158D01*
X67192325Y-103129023D01*
X79491630Y-103129023D01*
X79491630Y-103286716D01*
X79522391Y-103441359D01*
X79522394Y-103441371D01*
X79582732Y-103587042D01*
X79582739Y-103587055D01*
X79670340Y-103718158D01*
X79670343Y-103718162D01*
X79781837Y-103829656D01*
X79781841Y-103829659D01*
X79912944Y-103917260D01*
X79912957Y-103917267D01*
X80058628Y-103977605D01*
X80058633Y-103977607D01*
X80213283Y-104008369D01*
X80213286Y-104008370D01*
X80213288Y-104008370D01*
X80370974Y-104008370D01*
X80370975Y-104008369D01*
X80525627Y-103977607D01*
X80671309Y-103917264D01*
X80802419Y-103829659D01*
X80847688Y-103784390D01*
X80918227Y-103713852D01*
X80919748Y-103715373D01*
X80969453Y-103681506D01*
X81007576Y-103675500D01*
X82220234Y-103675500D01*
X82287273Y-103695185D01*
X82289125Y-103696398D01*
X82420814Y-103784390D01*
X82420827Y-103784397D01*
X82530094Y-103829656D01*
X82566503Y-103844737D01*
X82721153Y-103875499D01*
X82721156Y-103875500D01*
X82721158Y-103875500D01*
X82878844Y-103875500D01*
X82878845Y-103875499D01*
X83033497Y-103844737D01*
X83179179Y-103784394D01*
X83310289Y-103696789D01*
X83421789Y-103585289D01*
X83509394Y-103454179D01*
X83569737Y-103308497D01*
X83600500Y-103153842D01*
X83600500Y-102996158D01*
X83597502Y-102981089D01*
X83588971Y-102938200D01*
X83595198Y-102868608D01*
X83622905Y-102826328D01*
X89512416Y-96936819D01*
X89573739Y-96903334D01*
X89600097Y-96900500D01*
X97575500Y-96900500D01*
X97642539Y-96920185D01*
X97688294Y-96972989D01*
X97699500Y-97024500D01*
X97699500Y-99379057D01*
X97734665Y-99510292D01*
X97740423Y-99531783D01*
X97740426Y-99531790D01*
X97819475Y-99668709D01*
X97819479Y-99668714D01*
X97819480Y-99668716D01*
X97931284Y-99780520D01*
X97931286Y-99780521D01*
X97931290Y-99780524D01*
X98014981Y-99828842D01*
X98068216Y-99859577D01*
X98220943Y-99900500D01*
X98379057Y-99900500D01*
X101224903Y-99900500D01*
X101291942Y-99920185D01*
X101312584Y-99936819D01*
X103438181Y-102062416D01*
X103471666Y-102123739D01*
X103474500Y-102150097D01*
X103474500Y-102154056D01*
X103515423Y-102306783D01*
X103515423Y-102306784D01*
X103561368Y-102386365D01*
X103568540Y-102400909D01*
X103581122Y-102431284D01*
X103590606Y-102454179D01*
X103590609Y-102454185D01*
X103678210Y-102585288D01*
X103678213Y-102585292D01*
X103789707Y-102696786D01*
X103789711Y-102696789D01*
X103920814Y-102784390D01*
X103920827Y-102784397D01*
X104058420Y-102841389D01*
X104066503Y-102844737D01*
X104186510Y-102868608D01*
X104221153Y-102875499D01*
X104221156Y-102875500D01*
X104221158Y-102875500D01*
X104378844Y-102875500D01*
X104378845Y-102875499D01*
X104533497Y-102844737D01*
X104679179Y-102784394D01*
X104810289Y-102696789D01*
X104921789Y-102585289D01*
X105009394Y-102454179D01*
X105009636Y-102453596D01*
X105065187Y-102319481D01*
X105069737Y-102308497D01*
X105100500Y-102153842D01*
X105100500Y-101996158D01*
X105100500Y-101996155D01*
X105100499Y-101996153D01*
X105069738Y-101841510D01*
X105069737Y-101841503D01*
X105065896Y-101832229D01*
X105009397Y-101695827D01*
X105009390Y-101695814D01*
X104921789Y-101564711D01*
X104921786Y-101564707D01*
X104810292Y-101453213D01*
X104810288Y-101453210D01*
X104679185Y-101365609D01*
X104679172Y-101365602D01*
X104533501Y-101305264D01*
X104533491Y-101305261D01*
X104378151Y-101274362D01*
X104316241Y-101241977D01*
X104314662Y-101240426D01*
X102012590Y-98938355D01*
X102012588Y-98938352D01*
X101893717Y-98819481D01*
X101893716Y-98819480D01*
X101801956Y-98766503D01*
X101801955Y-98766502D01*
X101756783Y-98740422D01*
X101700881Y-98725443D01*
X101604057Y-98699499D01*
X101445943Y-98699499D01*
X101438347Y-98699499D01*
X101438331Y-98699500D01*
X99024500Y-98699500D01*
X98957461Y-98679815D01*
X98911706Y-98627011D01*
X98900500Y-98575500D01*
X98900500Y-96600096D01*
X98920185Y-96533057D01*
X98936814Y-96512420D01*
X100933506Y-94515727D01*
X100933511Y-94515724D01*
X100943714Y-94505520D01*
X100943716Y-94505520D01*
X101055520Y-94393716D01*
X101067307Y-94373301D01*
X101106423Y-94305550D01*
X101106423Y-94305549D01*
X101134577Y-94256785D01*
X101175501Y-94104057D01*
X101175501Y-93945943D01*
X101175501Y-93938348D01*
X101175500Y-93938330D01*
X101175500Y-92654765D01*
X101195185Y-92587726D01*
X101196398Y-92585874D01*
X101284390Y-92454185D01*
X101284390Y-92454184D01*
X101284394Y-92454179D01*
X101344737Y-92308497D01*
X101375500Y-92153842D01*
X101375500Y-91996158D01*
X101375500Y-91996155D01*
X101375499Y-91996153D01*
X101344738Y-91841510D01*
X101344737Y-91841503D01*
X101321681Y-91785840D01*
X101284397Y-91695827D01*
X101284390Y-91695814D01*
X101196789Y-91564711D01*
X101196786Y-91564707D01*
X101085292Y-91453213D01*
X101085288Y-91453210D01*
X100954185Y-91365609D01*
X100954172Y-91365602D01*
X100808501Y-91305264D01*
X100808489Y-91305261D01*
X100653845Y-91274500D01*
X100653842Y-91274500D01*
X100496158Y-91274500D01*
X100496155Y-91274500D01*
X100341510Y-91305261D01*
X100341498Y-91305264D01*
X100195827Y-91365602D01*
X100195814Y-91365609D01*
X100064711Y-91453210D01*
X100064707Y-91453213D01*
X99953213Y-91564707D01*
X99953210Y-91564711D01*
X99865609Y-91695814D01*
X99865602Y-91695827D01*
X99805264Y-91841498D01*
X99805261Y-91841510D01*
X99774500Y-91996153D01*
X99774500Y-92153846D01*
X99805261Y-92308489D01*
X99805264Y-92308501D01*
X99865602Y-92454172D01*
X99865609Y-92454185D01*
X99953602Y-92585874D01*
X99974480Y-92652551D01*
X99974500Y-92654765D01*
X99974500Y-93724903D01*
X99954815Y-93791942D01*
X99938181Y-93812584D01*
X98087584Y-95663181D01*
X98026261Y-95696666D01*
X97999903Y-95699500D01*
X89379057Y-95699500D01*
X89220943Y-95699500D01*
X89068215Y-95740423D01*
X89068214Y-95740423D01*
X89068212Y-95740424D01*
X89068209Y-95740425D01*
X89018096Y-95769359D01*
X89018095Y-95769360D01*
X88974689Y-95794420D01*
X88931285Y-95819479D01*
X88931282Y-95819481D01*
X82431284Y-102319480D01*
X82431283Y-102319481D01*
X82321979Y-102428783D01*
X82303199Y-102444197D01*
X82289135Y-102453596D01*
X82222459Y-102474480D01*
X82220235Y-102474500D01*
X80638090Y-102474500D01*
X80590638Y-102465061D01*
X80525631Y-102438134D01*
X80525619Y-102438131D01*
X80370975Y-102407370D01*
X80370972Y-102407370D01*
X80213288Y-102407370D01*
X80213285Y-102407370D01*
X80058640Y-102438131D01*
X80058628Y-102438134D01*
X79912957Y-102498472D01*
X79912944Y-102498479D01*
X79781841Y-102586080D01*
X79781837Y-102586083D01*
X79670343Y-102697577D01*
X79670340Y-102697581D01*
X79582739Y-102828684D01*
X79582732Y-102828697D01*
X79522394Y-102974368D01*
X79522391Y-102974380D01*
X79491630Y-103129023D01*
X67192325Y-103129023D01*
X67350888Y-103063344D01*
X67549612Y-102948611D01*
X67731661Y-102808919D01*
X67731665Y-102808914D01*
X67731670Y-102808911D01*
X67893911Y-102646670D01*
X67893914Y-102646665D01*
X67893919Y-102646661D01*
X68033611Y-102464612D01*
X68148344Y-102265888D01*
X68236158Y-102053887D01*
X68295548Y-101832238D01*
X68325500Y-101604734D01*
X68325500Y-101375266D01*
X68295548Y-101147762D01*
X68236158Y-100926113D01*
X68148344Y-100714112D01*
X68033611Y-100515388D01*
X68033608Y-100515385D01*
X68033607Y-100515382D01*
X67893918Y-100333338D01*
X67893911Y-100333330D01*
X67731670Y-100171089D01*
X67731661Y-100171081D01*
X67549617Y-100031392D01*
X67350890Y-99916657D01*
X67350876Y-99916650D01*
X67138887Y-99828842D01*
X66917238Y-99769452D01*
X66879215Y-99764446D01*
X66689741Y-99739500D01*
X66689734Y-99739500D01*
X66460266Y-99739500D01*
X66460258Y-99739500D01*
X66243715Y-99768009D01*
X66232762Y-99769452D01*
X66139076Y-99794554D01*
X66011112Y-99828842D01*
X65799123Y-99916650D01*
X65799109Y-99916657D01*
X65600382Y-100031392D01*
X65418338Y-100171081D01*
X65256081Y-100333338D01*
X65116392Y-100515382D01*
X65001657Y-100714109D01*
X65001650Y-100714123D01*
X64913842Y-100926112D01*
X64854453Y-101147759D01*
X64854451Y-101147770D01*
X64824500Y-101375258D01*
X50500500Y-101375258D01*
X50500500Y-98921153D01*
X77199500Y-98921153D01*
X77199500Y-99078846D01*
X77230261Y-99233489D01*
X77230264Y-99233501D01*
X77290602Y-99379172D01*
X77290609Y-99379185D01*
X77378210Y-99510288D01*
X77378213Y-99510292D01*
X77489707Y-99621786D01*
X77489711Y-99621789D01*
X77620814Y-99709390D01*
X77620827Y-99709397D01*
X77765815Y-99769452D01*
X77766503Y-99769737D01*
X77921153Y-99800499D01*
X77921156Y-99800500D01*
X77921158Y-99800500D01*
X78078844Y-99800500D01*
X78078845Y-99800499D01*
X78233497Y-99769737D01*
X78379179Y-99709394D01*
X78510289Y-99621789D01*
X78621789Y-99510289D01*
X78709394Y-99379179D01*
X78761639Y-99253048D01*
X78805479Y-99198644D01*
X78871774Y-99176579D01*
X78876200Y-99176500D01*
X84837331Y-99176500D01*
X84837347Y-99176501D01*
X84844943Y-99176501D01*
X85003054Y-99176501D01*
X85003057Y-99176501D01*
X85155785Y-99135577D01*
X85205904Y-99106639D01*
X85292716Y-99056520D01*
X85404520Y-98944716D01*
X85404520Y-98944714D01*
X85414728Y-98934507D01*
X85414729Y-98934504D01*
X88806255Y-95542981D01*
X88885312Y-95406049D01*
X88926236Y-95253322D01*
X88926236Y-95095207D01*
X88926236Y-95087612D01*
X88926235Y-95087594D01*
X88926235Y-94974362D01*
X88945920Y-94907323D01*
X88962548Y-94886686D01*
X89052531Y-94796703D01*
X89113850Y-94763221D01*
X89116018Y-94762770D01*
X89173953Y-94751245D01*
X89271365Y-94731869D01*
X89417047Y-94671526D01*
X89548157Y-94583921D01*
X89659657Y-94472421D01*
X89747262Y-94341311D01*
X89807605Y-94195629D01*
X89838368Y-94040974D01*
X89838368Y-93883290D01*
X89838368Y-93883287D01*
X89838367Y-93883285D01*
X89834368Y-93863181D01*
X89807605Y-93728635D01*
X89795537Y-93699500D01*
X89747265Y-93582959D01*
X89747258Y-93582946D01*
X89659657Y-93451843D01*
X89659654Y-93451839D01*
X89548160Y-93340345D01*
X89548156Y-93340342D01*
X89417053Y-93252741D01*
X89417040Y-93252734D01*
X89271369Y-93192396D01*
X89271357Y-93192393D01*
X89116713Y-93161632D01*
X89116710Y-93161632D01*
X88959026Y-93161632D01*
X88959023Y-93161632D01*
X88804378Y-93192393D01*
X88804366Y-93192396D01*
X88658695Y-93252734D01*
X88658682Y-93252741D01*
X88527579Y-93340342D01*
X88527575Y-93340345D01*
X88416081Y-93451839D01*
X88416078Y-93451843D01*
X88328477Y-93582946D01*
X88328470Y-93582959D01*
X88268132Y-93728630D01*
X88268129Y-93728640D01*
X88237229Y-93883982D01*
X88204844Y-93945893D01*
X88203293Y-93947471D01*
X87845216Y-94305547D01*
X87845216Y-94305548D01*
X87845215Y-94305549D01*
X87824572Y-94341304D01*
X87806099Y-94373301D01*
X87806098Y-94373303D01*
X87766158Y-94442479D01*
X87766158Y-94442480D01*
X87725234Y-94595208D01*
X87725234Y-94595210D01*
X87725234Y-94763311D01*
X87725235Y-94763324D01*
X87725235Y-94874167D01*
X87705550Y-94941206D01*
X87688916Y-94961848D01*
X84711584Y-97939181D01*
X84650261Y-97972666D01*
X84623903Y-97975500D01*
X78510670Y-97975500D01*
X78510654Y-97975499D01*
X78503058Y-97975499D01*
X78344943Y-97975499D01*
X78268579Y-97995961D01*
X78192214Y-98016423D01*
X78192209Y-98016426D01*
X78055290Y-98095475D01*
X78055286Y-98095478D01*
X77985337Y-98165427D01*
X77924013Y-98198911D01*
X77921848Y-98199362D01*
X77766508Y-98230261D01*
X77766498Y-98230264D01*
X77620827Y-98290602D01*
X77620814Y-98290609D01*
X77489711Y-98378210D01*
X77489707Y-98378213D01*
X77378213Y-98489707D01*
X77378210Y-98489711D01*
X77290609Y-98620814D01*
X77290602Y-98620827D01*
X77230264Y-98766498D01*
X77230261Y-98766510D01*
X77199500Y-98921153D01*
X50500500Y-98921153D01*
X50500500Y-95421153D01*
X77199500Y-95421153D01*
X77199500Y-95578846D01*
X77230261Y-95733489D01*
X77230264Y-95733501D01*
X77279575Y-95852549D01*
X77287044Y-95922018D01*
X77279575Y-95947453D01*
X77230264Y-96066501D01*
X77230261Y-96066513D01*
X77199500Y-96221156D01*
X77199500Y-96378849D01*
X77230261Y-96533492D01*
X77230264Y-96533504D01*
X77290602Y-96679175D01*
X77290609Y-96679188D01*
X77378210Y-96810291D01*
X77378213Y-96810295D01*
X77489707Y-96921789D01*
X77489711Y-96921792D01*
X77620814Y-97009393D01*
X77620827Y-97009400D01*
X77741967Y-97059577D01*
X77766503Y-97069740D01*
X77896987Y-97095695D01*
X77921153Y-97100502D01*
X77921156Y-97100503D01*
X77921158Y-97100503D01*
X78078844Y-97100503D01*
X78084902Y-97099906D01*
X78084995Y-97100854D01*
X78115919Y-97099839D01*
X78120938Y-97100500D01*
X78120939Y-97100500D01*
X78120940Y-97100500D01*
X83913331Y-97100500D01*
X83913347Y-97100501D01*
X83920943Y-97100501D01*
X84079054Y-97100501D01*
X84079057Y-97100501D01*
X84231785Y-97059577D01*
X84281904Y-97030639D01*
X84368716Y-96980520D01*
X84480520Y-96868716D01*
X84480520Y-96868714D01*
X84490728Y-96858507D01*
X84490729Y-96858504D01*
X87480520Y-93868716D01*
X87559577Y-93731784D01*
X87600501Y-93579057D01*
X87600501Y-93579054D01*
X87601562Y-93570998D01*
X87603018Y-93571189D01*
X87620186Y-93512725D01*
X87621399Y-93510873D01*
X87709390Y-93379185D01*
X87709390Y-93379184D01*
X87709394Y-93379179D01*
X87769737Y-93233497D01*
X87800500Y-93078842D01*
X87800500Y-92921158D01*
X87800500Y-92921155D01*
X87800499Y-92921153D01*
X87769738Y-92766510D01*
X87769737Y-92766503D01*
X87709794Y-92621786D01*
X87709397Y-92620827D01*
X87709390Y-92620814D01*
X87621789Y-92489711D01*
X87621786Y-92489707D01*
X87510292Y-92378213D01*
X87510288Y-92378210D01*
X87379185Y-92290609D01*
X87379175Y-92290604D01*
X87323967Y-92267736D01*
X87269564Y-92223895D01*
X87247499Y-92157600D01*
X87264778Y-92089901D01*
X87283735Y-92065498D01*
X90212416Y-89136819D01*
X90273739Y-89103334D01*
X90300097Y-89100500D01*
X93613445Y-89100500D01*
X93680484Y-89120185D01*
X93726239Y-89172989D01*
X93736183Y-89242147D01*
X93731159Y-89260411D01*
X93732031Y-89260676D01*
X93730261Y-89266510D01*
X93699500Y-89421153D01*
X93699500Y-89578846D01*
X93730261Y-89733489D01*
X93730264Y-89733501D01*
X93790602Y-89879172D01*
X93790609Y-89879185D01*
X93878210Y-90010288D01*
X93878213Y-90010292D01*
X93989707Y-90121786D01*
X93989711Y-90121789D01*
X94120814Y-90209390D01*
X94120827Y-90209397D01*
X94266498Y-90269735D01*
X94266503Y-90269737D01*
X94421153Y-90300499D01*
X94421156Y-90300500D01*
X94421158Y-90300500D01*
X94578844Y-90300500D01*
X94578845Y-90300499D01*
X94733497Y-90269737D01*
X94879179Y-90209394D01*
X95010289Y-90121789D01*
X95121789Y-90010289D01*
X95209394Y-89879179D01*
X95269737Y-89733497D01*
X95300500Y-89578842D01*
X95300500Y-89421158D01*
X95300500Y-89421155D01*
X95300499Y-89421153D01*
X95274531Y-89290606D01*
X95269737Y-89266503D01*
X95261274Y-89246071D01*
X95209397Y-89120827D01*
X95209390Y-89120814D01*
X95121398Y-88989125D01*
X95100520Y-88922447D01*
X95100500Y-88920234D01*
X95100500Y-88421153D01*
X101199500Y-88421153D01*
X101199500Y-88578846D01*
X101230261Y-88733489D01*
X101230264Y-88733501D01*
X101290602Y-88879172D01*
X101290609Y-88879185D01*
X101378210Y-89010288D01*
X101378213Y-89010292D01*
X101489710Y-89121789D01*
X101620815Y-89209390D01*
X101620821Y-89209394D01*
X101644475Y-89219191D01*
X101684703Y-89246071D01*
X102917048Y-90478415D01*
X102917049Y-90478416D01*
X103021584Y-90582951D01*
X103021585Y-90582952D01*
X103144498Y-90665080D01*
X103144511Y-90665087D01*
X103251469Y-90709390D01*
X103281087Y-90721658D01*
X103281091Y-90721658D01*
X103281092Y-90721659D01*
X103426079Y-90750500D01*
X103426082Y-90750500D01*
X104695396Y-90750500D01*
X104742844Y-90759937D01*
X104766503Y-90769737D01*
X104766508Y-90769738D01*
X104766511Y-90769739D01*
X104921153Y-90800499D01*
X104921156Y-90800500D01*
X104921158Y-90800500D01*
X105078844Y-90800500D01*
X105078845Y-90800499D01*
X105155152Y-90785320D01*
X105233488Y-90769739D01*
X105233489Y-90769738D01*
X105233497Y-90769737D01*
X105257155Y-90759937D01*
X105304604Y-90750500D01*
X107195396Y-90750500D01*
X107242844Y-90759937D01*
X107266503Y-90769737D01*
X107266508Y-90769738D01*
X107266511Y-90769739D01*
X107421153Y-90800499D01*
X107421156Y-90800500D01*
X107421158Y-90800500D01*
X107578844Y-90800500D01*
X107578845Y-90800499D01*
X107733497Y-90769737D01*
X107879179Y-90709394D01*
X108010289Y-90621789D01*
X108121789Y-90510289D01*
X108209394Y-90379179D01*
X108269737Y-90233497D01*
X108300500Y-90078842D01*
X108300500Y-89921158D01*
X108300500Y-89921155D01*
X108300499Y-89921153D01*
X108269738Y-89766510D01*
X108269737Y-89766503D01*
X108209794Y-89621786D01*
X108209397Y-89620827D01*
X108209390Y-89620814D01*
X108121789Y-89489711D01*
X108121786Y-89489707D01*
X108010292Y-89378213D01*
X108010288Y-89378210D01*
X107879185Y-89290609D01*
X107879172Y-89290602D01*
X107733501Y-89230264D01*
X107733489Y-89230261D01*
X107578845Y-89199500D01*
X107578842Y-89199500D01*
X107421158Y-89199500D01*
X107421155Y-89199500D01*
X107266511Y-89230260D01*
X107266506Y-89230262D01*
X107266504Y-89230262D01*
X107266503Y-89230263D01*
X107242844Y-89240062D01*
X107195396Y-89249500D01*
X105304604Y-89249500D01*
X105257155Y-89240062D01*
X105233497Y-89230263D01*
X105233493Y-89230262D01*
X105233488Y-89230260D01*
X105078845Y-89199500D01*
X105078842Y-89199500D01*
X104921158Y-89199500D01*
X104921155Y-89199500D01*
X104766511Y-89230260D01*
X104766506Y-89230262D01*
X104766504Y-89230262D01*
X104766503Y-89230263D01*
X104742844Y-89240062D01*
X104695396Y-89249500D01*
X103862229Y-89249500D01*
X103795190Y-89229815D01*
X103774548Y-89213181D01*
X102746071Y-88184703D01*
X102719191Y-88144475D01*
X102709394Y-88120821D01*
X102653622Y-88037352D01*
X102621789Y-87989710D01*
X102510292Y-87878213D01*
X102510288Y-87878210D01*
X102379185Y-87790609D01*
X102379172Y-87790602D01*
X102233501Y-87730264D01*
X102233489Y-87730261D01*
X102078845Y-87699500D01*
X102078842Y-87699500D01*
X101921158Y-87699500D01*
X101921155Y-87699500D01*
X101766510Y-87730261D01*
X101766498Y-87730264D01*
X101620827Y-87790602D01*
X101620814Y-87790609D01*
X101489711Y-87878210D01*
X101489707Y-87878213D01*
X101378213Y-87989707D01*
X101378210Y-87989711D01*
X101290609Y-88120814D01*
X101290602Y-88120827D01*
X101230264Y-88266498D01*
X101230261Y-88266510D01*
X101199500Y-88421153D01*
X95100500Y-88421153D01*
X95100500Y-88420945D01*
X95100500Y-88420943D01*
X95059577Y-88268216D01*
X95058585Y-88266498D01*
X94980524Y-88131290D01*
X94980518Y-88131282D01*
X94868717Y-88019481D01*
X94868709Y-88019475D01*
X94731790Y-87940426D01*
X94731786Y-87940424D01*
X94731784Y-87940423D01*
X94579057Y-87899500D01*
X90079057Y-87899500D01*
X89920942Y-87899500D01*
X89920940Y-87899500D01*
X89880019Y-87910464D01*
X89880019Y-87910465D01*
X89842751Y-87920451D01*
X89768214Y-87940423D01*
X89768209Y-87940426D01*
X89631290Y-88019475D01*
X89631282Y-88019481D01*
X89519478Y-88131286D01*
X83787584Y-93863181D01*
X83726261Y-93896666D01*
X83699903Y-93899500D01*
X79079766Y-93899500D01*
X79012727Y-93879815D01*
X79010875Y-93878602D01*
X78879185Y-93790609D01*
X78879172Y-93790602D01*
X78733501Y-93730264D01*
X78733489Y-93730261D01*
X78578845Y-93699500D01*
X78578842Y-93699500D01*
X78421158Y-93699500D01*
X78421155Y-93699500D01*
X78266510Y-93730261D01*
X78266498Y-93730264D01*
X78120827Y-93790602D01*
X78120814Y-93790609D01*
X77989711Y-93878210D01*
X77989707Y-93878213D01*
X77878213Y-93989707D01*
X77878210Y-93989711D01*
X77790609Y-94120814D01*
X77790602Y-94120827D01*
X77730264Y-94266498D01*
X77730261Y-94266510D01*
X77699500Y-94421153D01*
X77699500Y-94578846D01*
X77712573Y-94644568D01*
X77706346Y-94714159D01*
X77663483Y-94769337D01*
X77638411Y-94783319D01*
X77620826Y-94790603D01*
X77620814Y-94790609D01*
X77489711Y-94878210D01*
X77489707Y-94878213D01*
X77378213Y-94989707D01*
X77378210Y-94989711D01*
X77290609Y-95120814D01*
X77290602Y-95120827D01*
X77230264Y-95266498D01*
X77230261Y-95266510D01*
X77199500Y-95421153D01*
X50500500Y-95421153D01*
X50500500Y-89921153D01*
X75699500Y-89921153D01*
X75699500Y-90078846D01*
X75730261Y-90233489D01*
X75730264Y-90233501D01*
X75790602Y-90379172D01*
X75790609Y-90379185D01*
X75878210Y-90510288D01*
X75878213Y-90510292D01*
X75989707Y-90621786D01*
X75989711Y-90621789D01*
X76120814Y-90709390D01*
X76120827Y-90709397D01*
X76220060Y-90750500D01*
X76266503Y-90769737D01*
X76421153Y-90800499D01*
X76421156Y-90800500D01*
X76421158Y-90800500D01*
X76578844Y-90800500D01*
X76578845Y-90800499D01*
X76733497Y-90769737D01*
X76879179Y-90709394D01*
X77010289Y-90621789D01*
X77121789Y-90510289D01*
X77209394Y-90379179D01*
X77269737Y-90233497D01*
X77291958Y-90121786D01*
X77300638Y-90078150D01*
X77333023Y-90016239D01*
X77334521Y-90014712D01*
X77770898Y-89578335D01*
X77832219Y-89544852D01*
X77901910Y-89549836D01*
X77946258Y-89578337D01*
X77989707Y-89621786D01*
X77989711Y-89621789D01*
X78120814Y-89709390D01*
X78120827Y-89709397D01*
X78258683Y-89766498D01*
X78266503Y-89769737D01*
X78331147Y-89782595D01*
X78421849Y-89800638D01*
X78483760Y-89833023D01*
X78485339Y-89834574D01*
X80665425Y-92014660D01*
X80698910Y-92075983D01*
X80699361Y-92078149D01*
X80730261Y-92233491D01*
X80730264Y-92233501D01*
X80790602Y-92379172D01*
X80790609Y-92379185D01*
X80878210Y-92510288D01*
X80878213Y-92510292D01*
X80989707Y-92621786D01*
X80989711Y-92621789D01*
X81120814Y-92709390D01*
X81120827Y-92709397D01*
X81258683Y-92766498D01*
X81266503Y-92769737D01*
X81421153Y-92800499D01*
X81421156Y-92800500D01*
X81421158Y-92800500D01*
X81578844Y-92800500D01*
X81578845Y-92800499D01*
X81733497Y-92769737D01*
X81879179Y-92709394D01*
X82010289Y-92621789D01*
X82121789Y-92510289D01*
X82209394Y-92379179D01*
X82269737Y-92233497D01*
X82300500Y-92078842D01*
X82300500Y-91921158D01*
X82300500Y-91921155D01*
X82287426Y-91855431D01*
X82293653Y-91785840D01*
X82336515Y-91730662D01*
X82361589Y-91716679D01*
X82379179Y-91709394D01*
X82510289Y-91621789D01*
X82621789Y-91510289D01*
X82709394Y-91379179D01*
X82769737Y-91233497D01*
X82800500Y-91078842D01*
X82800500Y-90921158D01*
X82800500Y-90921155D01*
X82800499Y-90921153D01*
X82776499Y-90800499D01*
X82769737Y-90766503D01*
X82767018Y-90759938D01*
X82709397Y-90620827D01*
X82709390Y-90620814D01*
X82621789Y-90489711D01*
X82621786Y-90489707D01*
X82510292Y-90378213D01*
X82510288Y-90378210D01*
X82379185Y-90290609D01*
X82379172Y-90290602D01*
X82233501Y-90230264D01*
X82233491Y-90230261D01*
X82078149Y-90199361D01*
X82016238Y-90166976D01*
X82014660Y-90165425D01*
X79886590Y-88037355D01*
X79886588Y-88037352D01*
X79767717Y-87918481D01*
X79767716Y-87918480D01*
X79680904Y-87868360D01*
X79680904Y-87868359D01*
X79680900Y-87868358D01*
X79630785Y-87839423D01*
X79478057Y-87798499D01*
X79319943Y-87798499D01*
X79312347Y-87798499D01*
X79312331Y-87798500D01*
X78187669Y-87798500D01*
X78187653Y-87798499D01*
X78180057Y-87798499D01*
X78021943Y-87798499D01*
X77914587Y-87827265D01*
X77869210Y-87839424D01*
X77869209Y-87839425D01*
X77819096Y-87868359D01*
X77819095Y-87868360D01*
X77802029Y-87878213D01*
X77732285Y-87918479D01*
X77732282Y-87918481D01*
X76485339Y-89165425D01*
X76424016Y-89198910D01*
X76421850Y-89199361D01*
X76266508Y-89230261D01*
X76266498Y-89230264D01*
X76120827Y-89290602D01*
X76120814Y-89290609D01*
X75989711Y-89378210D01*
X75989707Y-89378213D01*
X75878213Y-89489707D01*
X75878210Y-89489711D01*
X75790609Y-89620814D01*
X75790602Y-89620827D01*
X75730264Y-89766498D01*
X75730261Y-89766510D01*
X75699500Y-89921153D01*
X50500500Y-89921153D01*
X50500500Y-86885258D01*
X115249500Y-86885258D01*
X115249500Y-87114741D01*
X115274446Y-87304215D01*
X115279452Y-87342238D01*
X115279453Y-87342240D01*
X115338842Y-87563887D01*
X115426650Y-87775876D01*
X115426657Y-87775890D01*
X115541392Y-87974617D01*
X115681081Y-88156661D01*
X115681089Y-88156670D01*
X115843330Y-88318911D01*
X115843338Y-88318918D01*
X116025382Y-88458607D01*
X116025385Y-88458608D01*
X116025388Y-88458611D01*
X116224112Y-88573344D01*
X116224117Y-88573346D01*
X116224123Y-88573349D01*
X116315480Y-88611190D01*
X116436113Y-88661158D01*
X116657762Y-88720548D01*
X116885266Y-88750500D01*
X116885273Y-88750500D01*
X117114727Y-88750500D01*
X117114734Y-88750500D01*
X117342238Y-88720548D01*
X117563887Y-88661158D01*
X117775888Y-88573344D01*
X117974612Y-88458611D01*
X118156661Y-88318919D01*
X118156665Y-88318914D01*
X118156670Y-88318911D01*
X118318911Y-88156670D01*
X118318914Y-88156665D01*
X118318919Y-88156661D01*
X118458611Y-87974612D01*
X118573344Y-87775888D01*
X118661158Y-87563887D01*
X118720548Y-87342238D01*
X118750500Y-87114734D01*
X118750500Y-86885266D01*
X118720548Y-86657762D01*
X118661158Y-86436113D01*
X118611190Y-86315480D01*
X118573349Y-86224123D01*
X118573346Y-86224117D01*
X118573344Y-86224112D01*
X118458611Y-86025388D01*
X118458608Y-86025385D01*
X118458607Y-86025382D01*
X118318918Y-85843338D01*
X118318911Y-85843330D01*
X118156670Y-85681089D01*
X118156661Y-85681081D01*
X117974617Y-85541392D01*
X117775890Y-85426657D01*
X117775876Y-85426650D01*
X117563887Y-85338842D01*
X117342238Y-85279452D01*
X117304215Y-85274446D01*
X117114741Y-85249500D01*
X117114734Y-85249500D01*
X116885266Y-85249500D01*
X116885258Y-85249500D01*
X116668715Y-85278009D01*
X116657762Y-85279452D01*
X116564076Y-85304554D01*
X116436112Y-85338842D01*
X116224123Y-85426650D01*
X116224109Y-85426657D01*
X116025382Y-85541392D01*
X115843338Y-85681081D01*
X115681081Y-85843338D01*
X115541392Y-86025382D01*
X115426657Y-86224109D01*
X115426650Y-86224123D01*
X115338842Y-86436112D01*
X115279453Y-86657759D01*
X115279451Y-86657770D01*
X115249500Y-86885258D01*
X50500500Y-86885258D01*
X50500500Y-84385258D01*
X50749500Y-84385258D01*
X50749500Y-84614741D01*
X50769480Y-84766498D01*
X50779452Y-84842238D01*
X50825652Y-85014660D01*
X50838842Y-85063887D01*
X50926650Y-85275876D01*
X50926657Y-85275890D01*
X51041392Y-85474617D01*
X51181081Y-85656661D01*
X51181089Y-85656670D01*
X51343330Y-85818911D01*
X51343338Y-85818918D01*
X51525382Y-85958607D01*
X51525385Y-85958608D01*
X51525388Y-85958611D01*
X51724112Y-86073344D01*
X51724117Y-86073346D01*
X51724123Y-86073349D01*
X51815480Y-86111190D01*
X51936113Y-86161158D01*
X52157762Y-86220548D01*
X52385266Y-86250500D01*
X52385273Y-86250500D01*
X52614727Y-86250500D01*
X52614734Y-86250500D01*
X52842238Y-86220548D01*
X53063887Y-86161158D01*
X53275888Y-86073344D01*
X53474612Y-85958611D01*
X53656661Y-85818919D01*
X53656665Y-85818914D01*
X53656670Y-85818911D01*
X53818911Y-85656670D01*
X53818914Y-85656665D01*
X53818919Y-85656661D01*
X53958611Y-85474612D01*
X54073344Y-85275888D01*
X54161158Y-85063887D01*
X54199403Y-84921153D01*
X78699500Y-84921153D01*
X78699500Y-85078846D01*
X78730261Y-85233489D01*
X78730264Y-85233501D01*
X78790602Y-85379172D01*
X78790609Y-85379185D01*
X78878210Y-85510288D01*
X78878213Y-85510292D01*
X78989707Y-85621786D01*
X78989711Y-85621789D01*
X79120814Y-85709390D01*
X79120827Y-85709397D01*
X79266498Y-85769735D01*
X79266503Y-85769737D01*
X79421153Y-85800499D01*
X79421156Y-85800500D01*
X79421158Y-85800500D01*
X79578844Y-85800500D01*
X79578845Y-85800499D01*
X79733497Y-85769737D01*
X79879179Y-85709394D01*
X80010289Y-85621789D01*
X80121789Y-85510289D01*
X80209394Y-85379179D01*
X80269737Y-85233497D01*
X80289113Y-85136085D01*
X80300638Y-85078150D01*
X80333023Y-85016239D01*
X80334518Y-85014716D01*
X81014662Y-84334572D01*
X81075983Y-84301089D01*
X81078150Y-84300638D01*
X81136085Y-84289113D01*
X81233497Y-84269737D01*
X81379179Y-84209394D01*
X81510289Y-84121789D01*
X81621789Y-84010289D01*
X81709394Y-83879179D01*
X81769737Y-83733497D01*
X81800500Y-83578842D01*
X81800500Y-83421158D01*
X81800500Y-83421155D01*
X81800499Y-83421153D01*
X81785021Y-83343339D01*
X81769737Y-83266503D01*
X81734358Y-83181089D01*
X81709397Y-83120827D01*
X81709390Y-83120814D01*
X81621789Y-82989711D01*
X81621786Y-82989707D01*
X81510292Y-82878213D01*
X81510288Y-82878210D01*
X81379185Y-82790609D01*
X81379172Y-82790602D01*
X81233501Y-82730264D01*
X81233489Y-82730261D01*
X81078845Y-82699500D01*
X81078842Y-82699500D01*
X80921158Y-82699500D01*
X80921155Y-82699500D01*
X80766510Y-82730261D01*
X80766498Y-82730264D01*
X80620827Y-82790602D01*
X80620814Y-82790609D01*
X80489711Y-82878210D01*
X80489707Y-82878213D01*
X80378213Y-82989707D01*
X80378210Y-82989711D01*
X80290609Y-83120814D01*
X80290602Y-83120827D01*
X80230264Y-83266498D01*
X80230261Y-83266508D01*
X80199361Y-83421850D01*
X80166976Y-83483761D01*
X80165425Y-83485339D01*
X79485339Y-84165425D01*
X79424016Y-84198910D01*
X79421850Y-84199361D01*
X79266508Y-84230261D01*
X79266498Y-84230264D01*
X79120827Y-84290602D01*
X79120814Y-84290609D01*
X78989711Y-84378210D01*
X78989707Y-84378213D01*
X78878213Y-84489707D01*
X78878210Y-84489711D01*
X78790609Y-84620814D01*
X78790602Y-84620827D01*
X78730264Y-84766498D01*
X78730261Y-84766510D01*
X78699500Y-84921153D01*
X54199403Y-84921153D01*
X54220548Y-84842238D01*
X54250500Y-84614734D01*
X54250500Y-84385266D01*
X54220548Y-84157762D01*
X54161158Y-83936113D01*
X54077233Y-83733501D01*
X54073349Y-83724123D01*
X54073346Y-83724117D01*
X54073344Y-83724112D01*
X53958611Y-83525388D01*
X53958608Y-83525385D01*
X53958607Y-83525382D01*
X53818918Y-83343338D01*
X53818911Y-83343330D01*
X53656670Y-83181089D01*
X53656661Y-83181081D01*
X53474617Y-83041392D01*
X53275890Y-82926657D01*
X53275876Y-82926650D01*
X53063887Y-82838842D01*
X52842238Y-82779452D01*
X52804215Y-82774446D01*
X52614741Y-82749500D01*
X52614734Y-82749500D01*
X52385266Y-82749500D01*
X52385258Y-82749500D01*
X52168715Y-82778009D01*
X52157762Y-82779452D01*
X52116123Y-82790609D01*
X51936112Y-82838842D01*
X51724123Y-82926650D01*
X51724109Y-82926657D01*
X51525382Y-83041392D01*
X51343338Y-83181081D01*
X51181081Y-83343338D01*
X51041392Y-83525382D01*
X50926657Y-83724109D01*
X50926650Y-83724123D01*
X50838842Y-83936112D01*
X50779453Y-84157759D01*
X50779451Y-84157770D01*
X50749500Y-84385258D01*
X50500500Y-84385258D01*
X50500500Y-69678711D01*
X52444500Y-69678711D01*
X52444500Y-70921288D01*
X52476161Y-71161785D01*
X52538947Y-71396104D01*
X52631773Y-71620205D01*
X52631776Y-71620212D01*
X52753064Y-71830289D01*
X52753066Y-71830292D01*
X52753067Y-71830293D01*
X52900733Y-72022736D01*
X52900739Y-72022743D01*
X53072256Y-72194260D01*
X53072262Y-72194265D01*
X53264711Y-72341936D01*
X53474788Y-72463224D01*
X53698900Y-72556054D01*
X53933211Y-72618838D01*
X54113586Y-72642584D01*
X54173711Y-72650500D01*
X54173712Y-72650500D01*
X54416289Y-72650500D01*
X54464388Y-72644167D01*
X54656789Y-72618838D01*
X54891100Y-72556054D01*
X55115212Y-72463224D01*
X55325289Y-72341936D01*
X55517738Y-72194265D01*
X55689265Y-72022738D01*
X55836936Y-71830289D01*
X55958224Y-71620212D01*
X56051054Y-71396100D01*
X56113838Y-71161789D01*
X56145500Y-70921288D01*
X56145500Y-69678712D01*
X56145500Y-69678711D01*
X56644500Y-69678711D01*
X56644500Y-70921288D01*
X56676161Y-71161785D01*
X56738947Y-71396104D01*
X56831773Y-71620205D01*
X56831776Y-71620212D01*
X56953064Y-71830289D01*
X56953066Y-71830292D01*
X56953067Y-71830293D01*
X57100733Y-72022736D01*
X57100739Y-72022743D01*
X57272256Y-72194260D01*
X57272262Y-72194265D01*
X57464711Y-72341936D01*
X57674788Y-72463224D01*
X57898900Y-72556054D01*
X58133211Y-72618838D01*
X58313586Y-72642584D01*
X58373711Y-72650500D01*
X58373712Y-72650500D01*
X58616289Y-72650500D01*
X58664388Y-72644167D01*
X58856789Y-72618838D01*
X59091100Y-72556054D01*
X59315212Y-72463224D01*
X59525289Y-72341936D01*
X59717738Y-72194265D01*
X59889265Y-72022738D01*
X60036936Y-71830289D01*
X60158224Y-71620212D01*
X60251054Y-71396100D01*
X60313838Y-71161789D01*
X60345500Y-70921288D01*
X60345500Y-69678712D01*
X60345500Y-69678711D01*
X63459500Y-69678711D01*
X63459500Y-70921288D01*
X63491161Y-71161785D01*
X63553947Y-71396104D01*
X63646773Y-71620205D01*
X63646776Y-71620212D01*
X63768064Y-71830289D01*
X63768066Y-71830292D01*
X63768067Y-71830293D01*
X63915733Y-72022736D01*
X63915739Y-72022743D01*
X64087256Y-72194260D01*
X64087262Y-72194265D01*
X64279711Y-72341936D01*
X64489788Y-72463224D01*
X64713900Y-72556054D01*
X64948211Y-72618838D01*
X65128586Y-72642584D01*
X65188711Y-72650500D01*
X65188712Y-72650500D01*
X65431289Y-72650500D01*
X65479388Y-72644167D01*
X65671789Y-72618838D01*
X65906100Y-72556054D01*
X66130212Y-72463224D01*
X66340289Y-72341936D01*
X66532738Y-72194265D01*
X66704265Y-72022738D01*
X66851936Y-71830289D01*
X66973224Y-71620212D01*
X67066054Y-71396100D01*
X67128838Y-71161789D01*
X67160500Y-70921288D01*
X67160500Y-69678712D01*
X67160500Y-69678711D01*
X67659500Y-69678711D01*
X67659500Y-70921288D01*
X67691161Y-71161785D01*
X67753947Y-71396104D01*
X67846773Y-71620205D01*
X67846776Y-71620212D01*
X67968064Y-71830289D01*
X67968066Y-71830292D01*
X67968067Y-71830293D01*
X68115733Y-72022736D01*
X68115739Y-72022743D01*
X68287256Y-72194260D01*
X68287262Y-72194265D01*
X68479711Y-72341936D01*
X68689788Y-72463224D01*
X68913900Y-72556054D01*
X69148211Y-72618838D01*
X69328586Y-72642584D01*
X69388711Y-72650500D01*
X69388712Y-72650500D01*
X69631289Y-72650500D01*
X69679388Y-72644167D01*
X69871789Y-72618838D01*
X70106100Y-72556054D01*
X70330212Y-72463224D01*
X70540289Y-72341936D01*
X70732738Y-72194265D01*
X70904265Y-72022738D01*
X71051936Y-71830289D01*
X71173224Y-71620212D01*
X71266054Y-71396100D01*
X71328838Y-71161789D01*
X71360500Y-70921288D01*
X71360500Y-69678712D01*
X71360500Y-69678711D01*
X74474500Y-69678711D01*
X74474500Y-70921288D01*
X74506161Y-71161785D01*
X74568947Y-71396104D01*
X74661773Y-71620205D01*
X74661776Y-71620212D01*
X74783064Y-71830289D01*
X74783066Y-71830292D01*
X74783067Y-71830293D01*
X74930733Y-72022736D01*
X74930739Y-72022743D01*
X75102256Y-72194260D01*
X75102262Y-72194265D01*
X75294711Y-72341936D01*
X75504788Y-72463224D01*
X75728900Y-72556054D01*
X75963211Y-72618838D01*
X76143586Y-72642584D01*
X76203711Y-72650500D01*
X76203712Y-72650500D01*
X76446289Y-72650500D01*
X76494388Y-72644167D01*
X76686789Y-72618838D01*
X76921100Y-72556054D01*
X77145212Y-72463224D01*
X77355289Y-72341936D01*
X77547738Y-72194265D01*
X77719265Y-72022738D01*
X77866936Y-71830289D01*
X77988224Y-71620212D01*
X78081054Y-71396100D01*
X78143838Y-71161789D01*
X78175500Y-70921288D01*
X78175500Y-69678712D01*
X78175500Y-69678711D01*
X78674500Y-69678711D01*
X78674500Y-70921288D01*
X78706161Y-71161785D01*
X78768947Y-71396104D01*
X78861773Y-71620205D01*
X78861776Y-71620212D01*
X78983064Y-71830289D01*
X78983066Y-71830292D01*
X78983067Y-71830293D01*
X79130733Y-72022736D01*
X79130739Y-72022743D01*
X79302256Y-72194260D01*
X79302262Y-72194265D01*
X79494711Y-72341936D01*
X79704788Y-72463224D01*
X79928900Y-72556054D01*
X80163211Y-72618838D01*
X80343586Y-72642584D01*
X80403711Y-72650500D01*
X80403712Y-72650500D01*
X80646289Y-72650500D01*
X80694388Y-72644167D01*
X80886789Y-72618838D01*
X81121100Y-72556054D01*
X81345212Y-72463224D01*
X81555289Y-72341936D01*
X81747738Y-72194265D01*
X81919265Y-72022738D01*
X82066936Y-71830289D01*
X82188224Y-71620212D01*
X82281054Y-71396100D01*
X82343838Y-71161789D01*
X82375500Y-70921288D01*
X82375500Y-69678712D01*
X82375500Y-69678711D01*
X85489500Y-69678711D01*
X85489500Y-70921288D01*
X85521161Y-71161785D01*
X85583947Y-71396104D01*
X85676773Y-71620205D01*
X85676776Y-71620212D01*
X85798064Y-71830289D01*
X85798066Y-71830292D01*
X85798067Y-71830293D01*
X85945733Y-72022736D01*
X85945739Y-72022743D01*
X86117256Y-72194260D01*
X86117262Y-72194265D01*
X86309711Y-72341936D01*
X86519788Y-72463224D01*
X86743900Y-72556054D01*
X86978211Y-72618838D01*
X87158586Y-72642584D01*
X87218711Y-72650500D01*
X87218712Y-72650500D01*
X87461289Y-72650500D01*
X87509388Y-72644167D01*
X87701789Y-72618838D01*
X87936100Y-72556054D01*
X88160212Y-72463224D01*
X88370289Y-72341936D01*
X88562738Y-72194265D01*
X88734265Y-72022738D01*
X88881936Y-71830289D01*
X89003224Y-71620212D01*
X89096054Y-71396100D01*
X89158838Y-71161789D01*
X89190500Y-70921288D01*
X89190500Y-69678712D01*
X89190500Y-69678711D01*
X89689500Y-69678711D01*
X89689500Y-70921288D01*
X89721161Y-71161785D01*
X89783947Y-71396104D01*
X89876773Y-71620205D01*
X89876776Y-71620212D01*
X89998064Y-71830289D01*
X89998066Y-71830292D01*
X89998067Y-71830293D01*
X90145733Y-72022736D01*
X90145739Y-72022743D01*
X90317256Y-72194260D01*
X90317262Y-72194265D01*
X90509711Y-72341936D01*
X90719788Y-72463224D01*
X90943900Y-72556054D01*
X91178211Y-72618838D01*
X91358586Y-72642584D01*
X91418711Y-72650500D01*
X91418712Y-72650500D01*
X91661289Y-72650500D01*
X91709388Y-72644167D01*
X91901789Y-72618838D01*
X92136100Y-72556054D01*
X92360212Y-72463224D01*
X92570289Y-72341936D01*
X92762738Y-72194265D01*
X92934265Y-72022738D01*
X93081936Y-71830289D01*
X93203224Y-71620212D01*
X93296054Y-71396100D01*
X93358838Y-71161789D01*
X93390500Y-70921288D01*
X93390500Y-69678712D01*
X93390500Y-69678711D01*
X96504500Y-69678711D01*
X96504500Y-70921288D01*
X96536161Y-71161785D01*
X96598947Y-71396104D01*
X96691773Y-71620205D01*
X96691776Y-71620212D01*
X96813064Y-71830289D01*
X96813066Y-71830292D01*
X96813067Y-71830293D01*
X96960733Y-72022736D01*
X96960739Y-72022743D01*
X97132256Y-72194260D01*
X97132262Y-72194265D01*
X97324711Y-72341936D01*
X97534788Y-72463224D01*
X97758900Y-72556054D01*
X97993211Y-72618838D01*
X98173586Y-72642584D01*
X98233711Y-72650500D01*
X98233712Y-72650500D01*
X98476289Y-72650500D01*
X98524388Y-72644167D01*
X98716789Y-72618838D01*
X98951100Y-72556054D01*
X99175212Y-72463224D01*
X99385289Y-72341936D01*
X99577738Y-72194265D01*
X99749265Y-72022738D01*
X99896936Y-71830289D01*
X100018224Y-71620212D01*
X100111054Y-71396100D01*
X100173838Y-71161789D01*
X100205500Y-70921288D01*
X100205500Y-69678712D01*
X100205500Y-69678711D01*
X100704500Y-69678711D01*
X100704500Y-70921288D01*
X100736161Y-71161785D01*
X100798947Y-71396104D01*
X100891773Y-71620205D01*
X100891776Y-71620212D01*
X101013064Y-71830289D01*
X101013066Y-71830292D01*
X101013067Y-71830293D01*
X101160733Y-72022736D01*
X101160739Y-72022743D01*
X101332256Y-72194260D01*
X101332262Y-72194265D01*
X101524711Y-72341936D01*
X101734788Y-72463224D01*
X101958900Y-72556054D01*
X102193211Y-72618838D01*
X102373586Y-72642584D01*
X102433711Y-72650500D01*
X102433712Y-72650500D01*
X102676289Y-72650500D01*
X102724388Y-72644167D01*
X102916789Y-72618838D01*
X103151100Y-72556054D01*
X103375212Y-72463224D01*
X103585289Y-72341936D01*
X103777738Y-72194265D01*
X103949265Y-72022738D01*
X104096936Y-71830289D01*
X104218224Y-71620212D01*
X104311054Y-71396100D01*
X104373838Y-71161789D01*
X104405500Y-70921288D01*
X104405500Y-69678712D01*
X104405500Y-69678711D01*
X107519500Y-69678711D01*
X107519500Y-70921288D01*
X107551161Y-71161785D01*
X107613947Y-71396104D01*
X107706773Y-71620205D01*
X107706776Y-71620212D01*
X107828064Y-71830289D01*
X107828066Y-71830292D01*
X107828067Y-71830293D01*
X107975733Y-72022736D01*
X107975739Y-72022743D01*
X108147256Y-72194260D01*
X108147262Y-72194265D01*
X108339711Y-72341936D01*
X108549788Y-72463224D01*
X108773900Y-72556054D01*
X109008211Y-72618838D01*
X109188586Y-72642584D01*
X109248711Y-72650500D01*
X109248712Y-72650500D01*
X109491289Y-72650500D01*
X109539388Y-72644167D01*
X109731789Y-72618838D01*
X109966100Y-72556054D01*
X110190212Y-72463224D01*
X110400289Y-72341936D01*
X110592738Y-72194265D01*
X110764265Y-72022738D01*
X110911936Y-71830289D01*
X111033224Y-71620212D01*
X111126054Y-71396100D01*
X111188838Y-71161789D01*
X111220500Y-70921288D01*
X111220500Y-69678712D01*
X111220500Y-69678711D01*
X111719500Y-69678711D01*
X111719500Y-70921288D01*
X111751161Y-71161785D01*
X111813947Y-71396104D01*
X111906773Y-71620205D01*
X111906776Y-71620212D01*
X112028064Y-71830289D01*
X112028066Y-71830292D01*
X112028067Y-71830293D01*
X112175733Y-72022736D01*
X112175739Y-72022743D01*
X112347256Y-72194260D01*
X112347262Y-72194265D01*
X112539711Y-72341936D01*
X112749788Y-72463224D01*
X112973900Y-72556054D01*
X113208211Y-72618838D01*
X113388586Y-72642584D01*
X113448711Y-72650500D01*
X113448712Y-72650500D01*
X113691289Y-72650500D01*
X113739388Y-72644167D01*
X113931789Y-72618838D01*
X114166100Y-72556054D01*
X114390212Y-72463224D01*
X114600289Y-72341936D01*
X114792738Y-72194265D01*
X114964265Y-72022738D01*
X115111936Y-71830289D01*
X115233224Y-71620212D01*
X115326054Y-71396100D01*
X115388838Y-71161789D01*
X115420500Y-70921288D01*
X115420500Y-69678712D01*
X115420500Y-69678711D01*
X118534500Y-69678711D01*
X118534500Y-70921288D01*
X118566161Y-71161785D01*
X118628947Y-71396104D01*
X118721773Y-71620205D01*
X118721776Y-71620212D01*
X118843064Y-71830289D01*
X118843066Y-71830292D01*
X118843067Y-71830293D01*
X118990733Y-72022736D01*
X118990739Y-72022743D01*
X119162256Y-72194260D01*
X119162262Y-72194265D01*
X119354711Y-72341936D01*
X119564788Y-72463224D01*
X119788900Y-72556054D01*
X120023211Y-72618838D01*
X120203586Y-72642584D01*
X120263711Y-72650500D01*
X120263712Y-72650500D01*
X120506289Y-72650500D01*
X120554388Y-72644167D01*
X120746789Y-72618838D01*
X120981100Y-72556054D01*
X121205212Y-72463224D01*
X121415289Y-72341936D01*
X121607738Y-72194265D01*
X121779265Y-72022738D01*
X121926936Y-71830289D01*
X122048224Y-71620212D01*
X122141054Y-71396100D01*
X122203838Y-71161789D01*
X122235500Y-70921288D01*
X122235500Y-69678712D01*
X122235500Y-69678711D01*
X122734500Y-69678711D01*
X122734500Y-70921288D01*
X122766161Y-71161785D01*
X122828947Y-71396104D01*
X122921773Y-71620205D01*
X122921776Y-71620212D01*
X123043064Y-71830289D01*
X123043066Y-71830292D01*
X123043067Y-71830293D01*
X123190733Y-72022736D01*
X123190739Y-72022743D01*
X123362256Y-72194260D01*
X123362262Y-72194265D01*
X123554711Y-72341936D01*
X123764788Y-72463224D01*
X123988900Y-72556054D01*
X124223211Y-72618838D01*
X124403586Y-72642584D01*
X124463711Y-72650500D01*
X124463712Y-72650500D01*
X124706289Y-72650500D01*
X124754388Y-72644167D01*
X124946789Y-72618838D01*
X125181100Y-72556054D01*
X125405212Y-72463224D01*
X125615289Y-72341936D01*
X125807738Y-72194265D01*
X125979265Y-72022738D01*
X126126936Y-71830289D01*
X126248224Y-71620212D01*
X126341054Y-71396100D01*
X126403838Y-71161789D01*
X126435500Y-70921288D01*
X126435500Y-69678712D01*
X126435500Y-69678711D01*
X129549500Y-69678711D01*
X129549500Y-70921288D01*
X129581161Y-71161785D01*
X129643947Y-71396104D01*
X129736773Y-71620205D01*
X129736776Y-71620212D01*
X129858064Y-71830289D01*
X129858066Y-71830292D01*
X129858067Y-71830293D01*
X130005733Y-72022736D01*
X130005739Y-72022743D01*
X130177256Y-72194260D01*
X130177262Y-72194265D01*
X130369711Y-72341936D01*
X130579788Y-72463224D01*
X130803900Y-72556054D01*
X131038211Y-72618838D01*
X131218586Y-72642584D01*
X131278711Y-72650500D01*
X131278712Y-72650500D01*
X131521289Y-72650500D01*
X131569388Y-72644167D01*
X131761789Y-72618838D01*
X131996100Y-72556054D01*
X132220212Y-72463224D01*
X132430289Y-72341936D01*
X132622738Y-72194265D01*
X132794265Y-72022738D01*
X132941936Y-71830289D01*
X133063224Y-71620212D01*
X133156054Y-71396100D01*
X133218838Y-71161789D01*
X133250500Y-70921288D01*
X133250500Y-69678712D01*
X133250500Y-69678711D01*
X133749500Y-69678711D01*
X133749500Y-70921288D01*
X133781161Y-71161785D01*
X133843947Y-71396104D01*
X133936773Y-71620205D01*
X133936776Y-71620212D01*
X134058064Y-71830289D01*
X134058066Y-71830292D01*
X134058067Y-71830293D01*
X134205733Y-72022736D01*
X134205739Y-72022743D01*
X134377256Y-72194260D01*
X134377262Y-72194265D01*
X134569711Y-72341936D01*
X134779788Y-72463224D01*
X135003900Y-72556054D01*
X135238211Y-72618838D01*
X135418586Y-72642584D01*
X135478711Y-72650500D01*
X135478712Y-72650500D01*
X135721289Y-72650500D01*
X135769388Y-72644167D01*
X135961789Y-72618838D01*
X136196100Y-72556054D01*
X136420212Y-72463224D01*
X136630289Y-72341936D01*
X136822738Y-72194265D01*
X136994265Y-72022738D01*
X137141936Y-71830289D01*
X137263224Y-71620212D01*
X137356054Y-71396100D01*
X137418838Y-71161789D01*
X137450500Y-70921288D01*
X137450500Y-69678712D01*
X137418838Y-69438211D01*
X137356054Y-69203900D01*
X137263224Y-68979788D01*
X137141936Y-68769711D01*
X136994265Y-68577262D01*
X136994260Y-68577256D01*
X136822743Y-68405739D01*
X136822736Y-68405733D01*
X136630293Y-68258067D01*
X136630292Y-68258066D01*
X136630289Y-68258064D01*
X136420212Y-68136776D01*
X136420205Y-68136773D01*
X136196104Y-68043947D01*
X135961785Y-67981161D01*
X135721289Y-67949500D01*
X135721288Y-67949500D01*
X135478712Y-67949500D01*
X135478711Y-67949500D01*
X135238214Y-67981161D01*
X135003895Y-68043947D01*
X134779794Y-68136773D01*
X134779785Y-68136777D01*
X134569706Y-68258067D01*
X134377263Y-68405733D01*
X134377256Y-68405739D01*
X134205739Y-68577256D01*
X134205733Y-68577263D01*
X134058067Y-68769706D01*
X133936777Y-68979785D01*
X133936773Y-68979794D01*
X133843947Y-69203895D01*
X133781161Y-69438214D01*
X133749500Y-69678711D01*
X133250500Y-69678711D01*
X133218838Y-69438211D01*
X133156054Y-69203900D01*
X133063224Y-68979788D01*
X132941936Y-68769711D01*
X132794265Y-68577262D01*
X132794260Y-68577256D01*
X132622743Y-68405739D01*
X132622736Y-68405733D01*
X132430293Y-68258067D01*
X132430292Y-68258066D01*
X132430289Y-68258064D01*
X132220212Y-68136776D01*
X132220205Y-68136773D01*
X131996104Y-68043947D01*
X131761785Y-67981161D01*
X131521289Y-67949500D01*
X131521288Y-67949500D01*
X131278712Y-67949500D01*
X131278711Y-67949500D01*
X131038214Y-67981161D01*
X130803895Y-68043947D01*
X130579794Y-68136773D01*
X130579785Y-68136777D01*
X130369706Y-68258067D01*
X130177263Y-68405733D01*
X130177256Y-68405739D01*
X130005739Y-68577256D01*
X130005733Y-68577263D01*
X129858067Y-68769706D01*
X129736777Y-68979785D01*
X129736773Y-68979794D01*
X129643947Y-69203895D01*
X129581161Y-69438214D01*
X129549500Y-69678711D01*
X126435500Y-69678711D01*
X126403838Y-69438211D01*
X126341054Y-69203900D01*
X126248224Y-68979788D01*
X126126936Y-68769711D01*
X125979265Y-68577262D01*
X125979260Y-68577256D01*
X125807743Y-68405739D01*
X125807736Y-68405733D01*
X125615293Y-68258067D01*
X125615292Y-68258066D01*
X125615289Y-68258064D01*
X125405212Y-68136776D01*
X125405205Y-68136773D01*
X125181104Y-68043947D01*
X124946785Y-67981161D01*
X124706289Y-67949500D01*
X124706288Y-67949500D01*
X124463712Y-67949500D01*
X124463711Y-67949500D01*
X124223214Y-67981161D01*
X123988895Y-68043947D01*
X123764794Y-68136773D01*
X123764785Y-68136777D01*
X123554706Y-68258067D01*
X123362263Y-68405733D01*
X123362256Y-68405739D01*
X123190739Y-68577256D01*
X123190733Y-68577263D01*
X123043067Y-68769706D01*
X122921777Y-68979785D01*
X122921773Y-68979794D01*
X122828947Y-69203895D01*
X122766161Y-69438214D01*
X122734500Y-69678711D01*
X122235500Y-69678711D01*
X122203838Y-69438211D01*
X122141054Y-69203900D01*
X122048224Y-68979788D01*
X121926936Y-68769711D01*
X121779265Y-68577262D01*
X121779260Y-68577256D01*
X121607743Y-68405739D01*
X121607736Y-68405733D01*
X121415293Y-68258067D01*
X121415292Y-68258066D01*
X121415289Y-68258064D01*
X121205212Y-68136776D01*
X121205205Y-68136773D01*
X120981104Y-68043947D01*
X120746785Y-67981161D01*
X120506289Y-67949500D01*
X120506288Y-67949500D01*
X120263712Y-67949500D01*
X120263711Y-67949500D01*
X120023214Y-67981161D01*
X119788895Y-68043947D01*
X119564794Y-68136773D01*
X119564785Y-68136777D01*
X119354706Y-68258067D01*
X119162263Y-68405733D01*
X119162256Y-68405739D01*
X118990739Y-68577256D01*
X118990733Y-68577263D01*
X118843067Y-68769706D01*
X118721777Y-68979785D01*
X118721773Y-68979794D01*
X118628947Y-69203895D01*
X118566161Y-69438214D01*
X118534500Y-69678711D01*
X115420500Y-69678711D01*
X115388838Y-69438211D01*
X115326054Y-69203900D01*
X115233224Y-68979788D01*
X115111936Y-68769711D01*
X114964265Y-68577262D01*
X114964260Y-68577256D01*
X114792743Y-68405739D01*
X114792736Y-68405733D01*
X114600293Y-68258067D01*
X114600292Y-68258066D01*
X114600289Y-68258064D01*
X114390212Y-68136776D01*
X114390205Y-68136773D01*
X114166104Y-68043947D01*
X113931785Y-67981161D01*
X113691289Y-67949500D01*
X113691288Y-67949500D01*
X113448712Y-67949500D01*
X113448711Y-67949500D01*
X113208214Y-67981161D01*
X112973895Y-68043947D01*
X112749794Y-68136773D01*
X112749785Y-68136777D01*
X112539706Y-68258067D01*
X112347263Y-68405733D01*
X112347256Y-68405739D01*
X112175739Y-68577256D01*
X112175733Y-68577263D01*
X112028067Y-68769706D01*
X111906777Y-68979785D01*
X111906773Y-68979794D01*
X111813947Y-69203895D01*
X111751161Y-69438214D01*
X111719500Y-69678711D01*
X111220500Y-69678711D01*
X111188838Y-69438211D01*
X111126054Y-69203900D01*
X111033224Y-68979788D01*
X110911936Y-68769711D01*
X110764265Y-68577262D01*
X110764260Y-68577256D01*
X110592743Y-68405739D01*
X110592736Y-68405733D01*
X110400293Y-68258067D01*
X110400292Y-68258066D01*
X110400289Y-68258064D01*
X110190212Y-68136776D01*
X110190205Y-68136773D01*
X109966104Y-68043947D01*
X109731785Y-67981161D01*
X109491289Y-67949500D01*
X109491288Y-67949500D01*
X109248712Y-67949500D01*
X109248711Y-67949500D01*
X109008214Y-67981161D01*
X108773895Y-68043947D01*
X108549794Y-68136773D01*
X108549785Y-68136777D01*
X108339706Y-68258067D01*
X108147263Y-68405733D01*
X108147256Y-68405739D01*
X107975739Y-68577256D01*
X107975733Y-68577263D01*
X107828067Y-68769706D01*
X107706777Y-68979785D01*
X107706773Y-68979794D01*
X107613947Y-69203895D01*
X107551161Y-69438214D01*
X107519500Y-69678711D01*
X104405500Y-69678711D01*
X104373838Y-69438211D01*
X104311054Y-69203900D01*
X104218224Y-68979788D01*
X104096936Y-68769711D01*
X103949265Y-68577262D01*
X103949260Y-68577256D01*
X103777743Y-68405739D01*
X103777736Y-68405733D01*
X103585293Y-68258067D01*
X103585292Y-68258066D01*
X103585289Y-68258064D01*
X103375212Y-68136776D01*
X103375205Y-68136773D01*
X103151104Y-68043947D01*
X102916785Y-67981161D01*
X102676289Y-67949500D01*
X102676288Y-67949500D01*
X102433712Y-67949500D01*
X102433711Y-67949500D01*
X102193214Y-67981161D01*
X101958895Y-68043947D01*
X101734794Y-68136773D01*
X101734785Y-68136777D01*
X101524706Y-68258067D01*
X101332263Y-68405733D01*
X101332256Y-68405739D01*
X101160739Y-68577256D01*
X101160733Y-68577263D01*
X101013067Y-68769706D01*
X100891777Y-68979785D01*
X100891773Y-68979794D01*
X100798947Y-69203895D01*
X100736161Y-69438214D01*
X100704500Y-69678711D01*
X100205500Y-69678711D01*
X100173838Y-69438211D01*
X100111054Y-69203900D01*
X100018224Y-68979788D01*
X99896936Y-68769711D01*
X99749265Y-68577262D01*
X99749260Y-68577256D01*
X99577743Y-68405739D01*
X99577736Y-68405733D01*
X99385293Y-68258067D01*
X99385292Y-68258066D01*
X99385289Y-68258064D01*
X99175212Y-68136776D01*
X99175205Y-68136773D01*
X98951104Y-68043947D01*
X98716785Y-67981161D01*
X98476289Y-67949500D01*
X98476288Y-67949500D01*
X98233712Y-67949500D01*
X98233711Y-67949500D01*
X97993214Y-67981161D01*
X97758895Y-68043947D01*
X97534794Y-68136773D01*
X97534785Y-68136777D01*
X97324706Y-68258067D01*
X97132263Y-68405733D01*
X97132256Y-68405739D01*
X96960739Y-68577256D01*
X96960733Y-68577263D01*
X96813067Y-68769706D01*
X96691777Y-68979785D01*
X96691773Y-68979794D01*
X96598947Y-69203895D01*
X96536161Y-69438214D01*
X96504500Y-69678711D01*
X93390500Y-69678711D01*
X93358838Y-69438211D01*
X93296054Y-69203900D01*
X93203224Y-68979788D01*
X93081936Y-68769711D01*
X92934265Y-68577262D01*
X92934260Y-68577256D01*
X92762743Y-68405739D01*
X92762736Y-68405733D01*
X92570293Y-68258067D01*
X92570292Y-68258066D01*
X92570289Y-68258064D01*
X92360212Y-68136776D01*
X92360205Y-68136773D01*
X92136104Y-68043947D01*
X91901785Y-67981161D01*
X91661289Y-67949500D01*
X91661288Y-67949500D01*
X91418712Y-67949500D01*
X91418711Y-67949500D01*
X91178214Y-67981161D01*
X90943895Y-68043947D01*
X90719794Y-68136773D01*
X90719785Y-68136777D01*
X90509706Y-68258067D01*
X90317263Y-68405733D01*
X90317256Y-68405739D01*
X90145739Y-68577256D01*
X90145733Y-68577263D01*
X89998067Y-68769706D01*
X89876777Y-68979785D01*
X89876773Y-68979794D01*
X89783947Y-69203895D01*
X89721161Y-69438214D01*
X89689500Y-69678711D01*
X89190500Y-69678711D01*
X89158838Y-69438211D01*
X89096054Y-69203900D01*
X89003224Y-68979788D01*
X88881936Y-68769711D01*
X88734265Y-68577262D01*
X88734260Y-68577256D01*
X88562743Y-68405739D01*
X88562736Y-68405733D01*
X88370293Y-68258067D01*
X88370292Y-68258066D01*
X88370289Y-68258064D01*
X88160212Y-68136776D01*
X88160205Y-68136773D01*
X87936104Y-68043947D01*
X87701785Y-67981161D01*
X87461289Y-67949500D01*
X87461288Y-67949500D01*
X87218712Y-67949500D01*
X87218711Y-67949500D01*
X86978214Y-67981161D01*
X86743895Y-68043947D01*
X86519794Y-68136773D01*
X86519785Y-68136777D01*
X86309706Y-68258067D01*
X86117263Y-68405733D01*
X86117256Y-68405739D01*
X85945739Y-68577256D01*
X85945733Y-68577263D01*
X85798067Y-68769706D01*
X85676777Y-68979785D01*
X85676773Y-68979794D01*
X85583947Y-69203895D01*
X85521161Y-69438214D01*
X85489500Y-69678711D01*
X82375500Y-69678711D01*
X82343838Y-69438211D01*
X82281054Y-69203900D01*
X82188224Y-68979788D01*
X82066936Y-68769711D01*
X81919265Y-68577262D01*
X81919260Y-68577256D01*
X81747743Y-68405739D01*
X81747736Y-68405733D01*
X81555293Y-68258067D01*
X81555292Y-68258066D01*
X81555289Y-68258064D01*
X81345212Y-68136776D01*
X81345205Y-68136773D01*
X81121104Y-68043947D01*
X80886785Y-67981161D01*
X80646289Y-67949500D01*
X80646288Y-67949500D01*
X80403712Y-67949500D01*
X80403711Y-67949500D01*
X80163214Y-67981161D01*
X79928895Y-68043947D01*
X79704794Y-68136773D01*
X79704785Y-68136777D01*
X79494706Y-68258067D01*
X79302263Y-68405733D01*
X79302256Y-68405739D01*
X79130739Y-68577256D01*
X79130733Y-68577263D01*
X78983067Y-68769706D01*
X78861777Y-68979785D01*
X78861773Y-68979794D01*
X78768947Y-69203895D01*
X78706161Y-69438214D01*
X78674500Y-69678711D01*
X78175500Y-69678711D01*
X78143838Y-69438211D01*
X78081054Y-69203900D01*
X77988224Y-68979788D01*
X77866936Y-68769711D01*
X77719265Y-68577262D01*
X77719260Y-68577256D01*
X77547743Y-68405739D01*
X77547736Y-68405733D01*
X77355293Y-68258067D01*
X77355292Y-68258066D01*
X77355289Y-68258064D01*
X77145212Y-68136776D01*
X77145205Y-68136773D01*
X76921104Y-68043947D01*
X76686785Y-67981161D01*
X76446289Y-67949500D01*
X76446288Y-67949500D01*
X76203712Y-67949500D01*
X76203711Y-67949500D01*
X75963214Y-67981161D01*
X75728895Y-68043947D01*
X75504794Y-68136773D01*
X75504785Y-68136777D01*
X75294706Y-68258067D01*
X75102263Y-68405733D01*
X75102256Y-68405739D01*
X74930739Y-68577256D01*
X74930733Y-68577263D01*
X74783067Y-68769706D01*
X74661777Y-68979785D01*
X74661773Y-68979794D01*
X74568947Y-69203895D01*
X74506161Y-69438214D01*
X74474500Y-69678711D01*
X71360500Y-69678711D01*
X71328838Y-69438211D01*
X71266054Y-69203900D01*
X71173224Y-68979788D01*
X71051936Y-68769711D01*
X70904265Y-68577262D01*
X70904260Y-68577256D01*
X70732743Y-68405739D01*
X70732736Y-68405733D01*
X70540293Y-68258067D01*
X70540292Y-68258066D01*
X70540289Y-68258064D01*
X70330212Y-68136776D01*
X70330205Y-68136773D01*
X70106104Y-68043947D01*
X69871785Y-67981161D01*
X69631289Y-67949500D01*
X69631288Y-67949500D01*
X69388712Y-67949500D01*
X69388711Y-67949500D01*
X69148214Y-67981161D01*
X68913895Y-68043947D01*
X68689794Y-68136773D01*
X68689785Y-68136777D01*
X68479706Y-68258067D01*
X68287263Y-68405733D01*
X68287256Y-68405739D01*
X68115739Y-68577256D01*
X68115733Y-68577263D01*
X67968067Y-68769706D01*
X67846777Y-68979785D01*
X67846773Y-68979794D01*
X67753947Y-69203895D01*
X67691161Y-69438214D01*
X67659500Y-69678711D01*
X67160500Y-69678711D01*
X67128838Y-69438211D01*
X67066054Y-69203900D01*
X66973224Y-68979788D01*
X66851936Y-68769711D01*
X66704265Y-68577262D01*
X66704260Y-68577256D01*
X66532743Y-68405739D01*
X66532736Y-68405733D01*
X66340293Y-68258067D01*
X66340292Y-68258066D01*
X66340289Y-68258064D01*
X66130212Y-68136776D01*
X66130205Y-68136773D01*
X65906104Y-68043947D01*
X65671785Y-67981161D01*
X65431289Y-67949500D01*
X65431288Y-67949500D01*
X65188712Y-67949500D01*
X65188711Y-67949500D01*
X64948214Y-67981161D01*
X64713895Y-68043947D01*
X64489794Y-68136773D01*
X64489785Y-68136777D01*
X64279706Y-68258067D01*
X64087263Y-68405733D01*
X64087256Y-68405739D01*
X63915739Y-68577256D01*
X63915733Y-68577263D01*
X63768067Y-68769706D01*
X63646777Y-68979785D01*
X63646773Y-68979794D01*
X63553947Y-69203895D01*
X63491161Y-69438214D01*
X63459500Y-69678711D01*
X60345500Y-69678711D01*
X60313838Y-69438211D01*
X60251054Y-69203900D01*
X60158224Y-68979788D01*
X60036936Y-68769711D01*
X59889265Y-68577262D01*
X59889260Y-68577256D01*
X59717743Y-68405739D01*
X59717736Y-68405733D01*
X59525293Y-68258067D01*
X59525292Y-68258066D01*
X59525289Y-68258064D01*
X59315212Y-68136776D01*
X59315205Y-68136773D01*
X59091104Y-68043947D01*
X58856785Y-67981161D01*
X58616289Y-67949500D01*
X58616288Y-67949500D01*
X58373712Y-67949500D01*
X58373711Y-67949500D01*
X58133214Y-67981161D01*
X57898895Y-68043947D01*
X57674794Y-68136773D01*
X57674785Y-68136777D01*
X57464706Y-68258067D01*
X57272263Y-68405733D01*
X57272256Y-68405739D01*
X57100739Y-68577256D01*
X57100733Y-68577263D01*
X56953067Y-68769706D01*
X56831777Y-68979785D01*
X56831773Y-68979794D01*
X56738947Y-69203895D01*
X56676161Y-69438214D01*
X56644500Y-69678711D01*
X56145500Y-69678711D01*
X56113838Y-69438211D01*
X56051054Y-69203900D01*
X55958224Y-68979788D01*
X55836936Y-68769711D01*
X55689265Y-68577262D01*
X55689260Y-68577256D01*
X55517743Y-68405739D01*
X55517736Y-68405733D01*
X55325293Y-68258067D01*
X55325292Y-68258066D01*
X55325289Y-68258064D01*
X55115212Y-68136776D01*
X55115205Y-68136773D01*
X54891104Y-68043947D01*
X54656785Y-67981161D01*
X54416289Y-67949500D01*
X54416288Y-67949500D01*
X54173712Y-67949500D01*
X54173711Y-67949500D01*
X53933214Y-67981161D01*
X53698895Y-68043947D01*
X53474794Y-68136773D01*
X53474785Y-68136777D01*
X53264706Y-68258067D01*
X53072263Y-68405733D01*
X53072256Y-68405739D01*
X52900739Y-68577256D01*
X52900733Y-68577263D01*
X52753067Y-68769706D01*
X52631777Y-68979785D01*
X52631773Y-68979794D01*
X52538947Y-69203895D01*
X52476161Y-69438214D01*
X52444500Y-69678711D01*
X50500500Y-69678711D01*
X50500500Y-63149984D01*
X52444500Y-63149984D01*
X52444500Y-66450015D01*
X52455000Y-66552795D01*
X52455001Y-66552796D01*
X52510186Y-66719335D01*
X52510187Y-66719337D01*
X52602286Y-66868651D01*
X52602289Y-66868655D01*
X52726344Y-66992710D01*
X52726348Y-66992713D01*
X52875662Y-67084812D01*
X52875664Y-67084813D01*
X52875666Y-67084814D01*
X53042203Y-67139999D01*
X53144992Y-67150500D01*
X53144997Y-67150500D01*
X55445003Y-67150500D01*
X55445008Y-67150500D01*
X55547797Y-67139999D01*
X55714334Y-67084814D01*
X55863655Y-66992711D01*
X55987711Y-66868655D01*
X56079814Y-66719334D01*
X56134999Y-66552797D01*
X56145500Y-66450008D01*
X56145500Y-64178751D01*
X56645000Y-64178751D01*
X56645000Y-64550000D01*
X57627096Y-64550000D01*
X57595000Y-64711358D01*
X57595000Y-64888642D01*
X57627096Y-65050000D01*
X56645000Y-65050000D01*
X56645000Y-65421248D01*
X56645001Y-65421264D01*
X56676653Y-65661687D01*
X56739421Y-65895939D01*
X56832220Y-66119978D01*
X56832227Y-66119993D01*
X56953480Y-66330009D01*
X57101110Y-66522405D01*
X57101116Y-66522412D01*
X57272587Y-66693883D01*
X57272594Y-66693889D01*
X57464990Y-66841519D01*
X57675006Y-66962772D01*
X57675021Y-66962779D01*
X57899060Y-67055578D01*
X58133312Y-67118346D01*
X58245000Y-67133049D01*
X58245000Y-65667904D01*
X58406358Y-65700000D01*
X58583642Y-65700000D01*
X58745000Y-65667904D01*
X58745000Y-67133048D01*
X58856687Y-67118346D01*
X59090939Y-67055578D01*
X59314978Y-66962779D01*
X59314993Y-66962772D01*
X59525009Y-66841519D01*
X59717405Y-66693889D01*
X59717412Y-66693883D01*
X59888883Y-66522412D01*
X59888889Y-66522405D01*
X60036519Y-66330009D01*
X60157772Y-66119993D01*
X60157779Y-66119978D01*
X60250578Y-65895939D01*
X60313346Y-65661687D01*
X60344998Y-65421264D01*
X60345000Y-65421248D01*
X60345000Y-65050000D01*
X59362904Y-65050000D01*
X59395000Y-64888642D01*
X59395000Y-64711358D01*
X59362904Y-64550000D01*
X60345000Y-64550000D01*
X60345000Y-64178751D01*
X60344998Y-64178735D01*
X60313346Y-63938312D01*
X60250578Y-63704060D01*
X60157779Y-63480021D01*
X60157772Y-63480006D01*
X60036519Y-63269990D01*
X59999942Y-63222321D01*
X59944436Y-63149984D01*
X63459500Y-63149984D01*
X63459500Y-66450015D01*
X63470000Y-66552795D01*
X63470001Y-66552796D01*
X63525186Y-66719335D01*
X63525187Y-66719337D01*
X63617286Y-66868651D01*
X63617289Y-66868655D01*
X63741344Y-66992710D01*
X63741348Y-66992713D01*
X63890662Y-67084812D01*
X63890664Y-67084813D01*
X63890666Y-67084814D01*
X64057203Y-67139999D01*
X64159992Y-67150500D01*
X64159997Y-67150500D01*
X66460003Y-67150500D01*
X66460008Y-67150500D01*
X66562797Y-67139999D01*
X66729334Y-67084814D01*
X66878655Y-66992711D01*
X67002711Y-66868655D01*
X67094814Y-66719334D01*
X67149999Y-66552797D01*
X67160500Y-66450008D01*
X67160500Y-64178751D01*
X67660000Y-64178751D01*
X67660000Y-64550000D01*
X68642096Y-64550000D01*
X68610000Y-64711358D01*
X68610000Y-64888642D01*
X68642096Y-65050000D01*
X67660000Y-65050000D01*
X67660000Y-65421248D01*
X67660001Y-65421264D01*
X67691653Y-65661687D01*
X67754421Y-65895939D01*
X67847220Y-66119978D01*
X67847227Y-66119993D01*
X67968480Y-66330009D01*
X68116110Y-66522405D01*
X68116116Y-66522412D01*
X68287587Y-66693883D01*
X68287594Y-66693889D01*
X68479990Y-66841519D01*
X68690006Y-66962772D01*
X68690021Y-66962779D01*
X68914060Y-67055578D01*
X69148312Y-67118346D01*
X69260000Y-67133049D01*
X69260000Y-65667904D01*
X69421358Y-65700000D01*
X69598642Y-65700000D01*
X69760000Y-65667904D01*
X69760000Y-67133049D01*
X69871687Y-67118346D01*
X70105939Y-67055578D01*
X70329978Y-66962779D01*
X70329993Y-66962772D01*
X70540009Y-66841519D01*
X70732405Y-66693889D01*
X70732412Y-66693883D01*
X70903883Y-66522412D01*
X70903889Y-66522405D01*
X71051519Y-66330009D01*
X71172772Y-66119993D01*
X71172779Y-66119978D01*
X71265578Y-65895939D01*
X71328346Y-65661687D01*
X71359998Y-65421264D01*
X71360000Y-65421248D01*
X71360000Y-65050000D01*
X70377904Y-65050000D01*
X70410000Y-64888642D01*
X70410000Y-64711358D01*
X70377904Y-64550000D01*
X71360000Y-64550000D01*
X71360000Y-64178751D01*
X71359998Y-64178735D01*
X71328346Y-63938312D01*
X71265578Y-63704060D01*
X71172779Y-63480021D01*
X71172772Y-63480006D01*
X71051519Y-63269990D01*
X71014942Y-63222321D01*
X70959436Y-63149984D01*
X74474500Y-63149984D01*
X74474500Y-66450015D01*
X74485000Y-66552795D01*
X74485001Y-66552796D01*
X74540186Y-66719335D01*
X74540187Y-66719337D01*
X74632286Y-66868651D01*
X74632289Y-66868655D01*
X74756344Y-66992710D01*
X74756348Y-66992713D01*
X74905662Y-67084812D01*
X74905664Y-67084813D01*
X74905666Y-67084814D01*
X75072203Y-67139999D01*
X75174992Y-67150500D01*
X75174997Y-67150500D01*
X77475003Y-67150500D01*
X77475008Y-67150500D01*
X77577797Y-67139999D01*
X77744334Y-67084814D01*
X77893655Y-66992711D01*
X78017711Y-66868655D01*
X78109814Y-66719334D01*
X78164999Y-66552797D01*
X78175500Y-66450008D01*
X78175500Y-64178751D01*
X78675000Y-64178751D01*
X78675000Y-64550000D01*
X79657096Y-64550000D01*
X79625000Y-64711358D01*
X79625000Y-64888642D01*
X79657096Y-65050000D01*
X78675000Y-65050000D01*
X78675000Y-65421248D01*
X78675001Y-65421264D01*
X78706653Y-65661687D01*
X78769421Y-65895939D01*
X78862220Y-66119978D01*
X78862227Y-66119993D01*
X78983480Y-66330009D01*
X79131110Y-66522405D01*
X79131116Y-66522412D01*
X79302587Y-66693883D01*
X79302594Y-66693889D01*
X79494990Y-66841519D01*
X79705006Y-66962772D01*
X79705021Y-66962779D01*
X79929060Y-67055578D01*
X80163312Y-67118346D01*
X80275000Y-67133049D01*
X80275000Y-65667904D01*
X80436358Y-65700000D01*
X80613642Y-65700000D01*
X80775000Y-65667904D01*
X80775000Y-67133048D01*
X80886687Y-67118346D01*
X81120939Y-67055578D01*
X81344978Y-66962779D01*
X81344993Y-66962772D01*
X81555009Y-66841519D01*
X81747405Y-66693889D01*
X81747412Y-66693883D01*
X81918883Y-66522412D01*
X81918889Y-66522405D01*
X82066519Y-66330009D01*
X82187772Y-66119993D01*
X82187779Y-66119978D01*
X82280578Y-65895939D01*
X82343346Y-65661687D01*
X82374998Y-65421264D01*
X82375000Y-65421248D01*
X82375000Y-65050000D01*
X81392904Y-65050000D01*
X81425000Y-64888642D01*
X81425000Y-64711358D01*
X81392904Y-64550000D01*
X82375000Y-64550000D01*
X82375000Y-64178751D01*
X82374998Y-64178735D01*
X82343346Y-63938312D01*
X82280578Y-63704060D01*
X82187779Y-63480021D01*
X82187772Y-63480006D01*
X82066519Y-63269990D01*
X82029942Y-63222321D01*
X81974436Y-63149984D01*
X85489500Y-63149984D01*
X85489500Y-66450015D01*
X85500000Y-66552795D01*
X85500001Y-66552796D01*
X85555186Y-66719335D01*
X85555187Y-66719337D01*
X85647286Y-66868651D01*
X85647289Y-66868655D01*
X85771344Y-66992710D01*
X85771348Y-66992713D01*
X85920662Y-67084812D01*
X85920664Y-67084813D01*
X85920666Y-67084814D01*
X86087203Y-67139999D01*
X86189992Y-67150500D01*
X86189997Y-67150500D01*
X88490003Y-67150500D01*
X88490008Y-67150500D01*
X88592797Y-67139999D01*
X88759334Y-67084814D01*
X88908655Y-66992711D01*
X89032711Y-66868655D01*
X89124814Y-66719334D01*
X89179999Y-66552797D01*
X89190500Y-66450008D01*
X89190500Y-64178751D01*
X89690000Y-64178751D01*
X89690000Y-64550000D01*
X90672096Y-64550000D01*
X90640000Y-64711358D01*
X90640000Y-64888642D01*
X90672096Y-65050000D01*
X89690000Y-65050000D01*
X89690000Y-65421248D01*
X89690001Y-65421264D01*
X89721653Y-65661687D01*
X89784421Y-65895939D01*
X89877220Y-66119978D01*
X89877227Y-66119993D01*
X89998480Y-66330009D01*
X90146110Y-66522405D01*
X90146116Y-66522412D01*
X90317587Y-66693883D01*
X90317594Y-66693889D01*
X90509990Y-66841519D01*
X90720006Y-66962772D01*
X90720021Y-66962779D01*
X90944060Y-67055578D01*
X91178312Y-67118346D01*
X91290000Y-67133049D01*
X91290000Y-65667904D01*
X91451358Y-65700000D01*
X91628642Y-65700000D01*
X91790000Y-65667904D01*
X91790000Y-67133049D01*
X91901687Y-67118346D01*
X92135939Y-67055578D01*
X92359978Y-66962779D01*
X92359993Y-66962772D01*
X92570009Y-66841519D01*
X92762405Y-66693889D01*
X92762412Y-66693883D01*
X92933883Y-66522412D01*
X92933889Y-66522405D01*
X93081519Y-66330009D01*
X93202772Y-66119993D01*
X93202779Y-66119978D01*
X93295578Y-65895939D01*
X93358346Y-65661687D01*
X93389998Y-65421264D01*
X93390000Y-65421248D01*
X93390000Y-65050000D01*
X92407904Y-65050000D01*
X92440000Y-64888642D01*
X92440000Y-64711358D01*
X92407904Y-64550000D01*
X93390000Y-64550000D01*
X93390000Y-64178751D01*
X93389998Y-64178735D01*
X93358346Y-63938312D01*
X93295578Y-63704060D01*
X93202779Y-63480021D01*
X93202772Y-63480006D01*
X93081519Y-63269990D01*
X93044942Y-63222321D01*
X92989436Y-63149984D01*
X96504500Y-63149984D01*
X96504500Y-66450015D01*
X96515000Y-66552795D01*
X96515001Y-66552796D01*
X96570186Y-66719335D01*
X96570187Y-66719337D01*
X96662286Y-66868651D01*
X96662289Y-66868655D01*
X96786344Y-66992710D01*
X96786348Y-66992713D01*
X96935662Y-67084812D01*
X96935664Y-67084813D01*
X96935666Y-67084814D01*
X97102203Y-67139999D01*
X97204992Y-67150500D01*
X97204997Y-67150500D01*
X99505003Y-67150500D01*
X99505008Y-67150500D01*
X99607797Y-67139999D01*
X99774334Y-67084814D01*
X99923655Y-66992711D01*
X100047711Y-66868655D01*
X100139814Y-66719334D01*
X100194999Y-66552797D01*
X100205500Y-66450008D01*
X100205500Y-64178751D01*
X100705000Y-64178751D01*
X100705000Y-64550000D01*
X101687096Y-64550000D01*
X101655000Y-64711358D01*
X101655000Y-64888642D01*
X101687096Y-65050000D01*
X100705000Y-65050000D01*
X100705000Y-65421248D01*
X100705001Y-65421264D01*
X100736653Y-65661687D01*
X100799421Y-65895939D01*
X100892220Y-66119978D01*
X100892227Y-66119993D01*
X101013480Y-66330009D01*
X101161110Y-66522405D01*
X101161116Y-66522412D01*
X101332587Y-66693883D01*
X101332594Y-66693889D01*
X101524990Y-66841519D01*
X101735006Y-66962772D01*
X101735021Y-66962779D01*
X101959060Y-67055578D01*
X102193312Y-67118346D01*
X102305000Y-67133049D01*
X102305000Y-65667904D01*
X102466358Y-65700000D01*
X102643642Y-65700000D01*
X102805000Y-65667904D01*
X102805000Y-67133049D01*
X102916687Y-67118346D01*
X103150939Y-67055578D01*
X103374978Y-66962779D01*
X103374993Y-66962772D01*
X103585009Y-66841519D01*
X103777405Y-66693889D01*
X103777412Y-66693883D01*
X103948883Y-66522412D01*
X103948889Y-66522405D01*
X104096519Y-66330009D01*
X104217772Y-66119993D01*
X104217779Y-66119978D01*
X104310578Y-65895939D01*
X104373346Y-65661687D01*
X104404998Y-65421264D01*
X104405000Y-65421248D01*
X104405000Y-65050000D01*
X103422904Y-65050000D01*
X103455000Y-64888642D01*
X103455000Y-64711358D01*
X103422904Y-64550000D01*
X104405000Y-64550000D01*
X104405000Y-64178751D01*
X104404998Y-64178735D01*
X104373346Y-63938312D01*
X104310578Y-63704060D01*
X104217779Y-63480021D01*
X104217772Y-63480006D01*
X104096519Y-63269990D01*
X104059942Y-63222321D01*
X104004436Y-63149984D01*
X107519500Y-63149984D01*
X107519500Y-66450015D01*
X107530000Y-66552795D01*
X107530001Y-66552796D01*
X107585186Y-66719335D01*
X107585187Y-66719337D01*
X107677286Y-66868651D01*
X107677289Y-66868655D01*
X107801344Y-66992710D01*
X107801348Y-66992713D01*
X107950662Y-67084812D01*
X107950664Y-67084813D01*
X107950666Y-67084814D01*
X108117203Y-67139999D01*
X108219992Y-67150500D01*
X108219997Y-67150500D01*
X110520003Y-67150500D01*
X110520008Y-67150500D01*
X110622797Y-67139999D01*
X110789334Y-67084814D01*
X110938655Y-66992711D01*
X111062711Y-66868655D01*
X111154814Y-66719334D01*
X111209999Y-66552797D01*
X111220500Y-66450008D01*
X111220500Y-64178751D01*
X111720000Y-64178751D01*
X111720000Y-64550000D01*
X112702096Y-64550000D01*
X112670000Y-64711358D01*
X112670000Y-64888642D01*
X112702096Y-65050000D01*
X111720000Y-65050000D01*
X111720000Y-65421248D01*
X111720001Y-65421264D01*
X111751653Y-65661687D01*
X111814421Y-65895939D01*
X111907220Y-66119978D01*
X111907227Y-66119993D01*
X112028480Y-66330009D01*
X112176110Y-66522405D01*
X112176116Y-66522412D01*
X112347587Y-66693883D01*
X112347594Y-66693889D01*
X112539990Y-66841519D01*
X112750006Y-66962772D01*
X112750021Y-66962779D01*
X112974060Y-67055578D01*
X113208312Y-67118346D01*
X113320000Y-67133049D01*
X113320000Y-65667904D01*
X113481358Y-65700000D01*
X113658642Y-65700000D01*
X113820000Y-65667904D01*
X113820000Y-67133048D01*
X113931687Y-67118346D01*
X114165939Y-67055578D01*
X114389978Y-66962779D01*
X114389993Y-66962772D01*
X114600009Y-66841519D01*
X114792405Y-66693889D01*
X114792412Y-66693883D01*
X114963883Y-66522412D01*
X114963889Y-66522405D01*
X115111519Y-66330009D01*
X115232772Y-66119993D01*
X115232779Y-66119978D01*
X115325578Y-65895939D01*
X115388346Y-65661687D01*
X115419998Y-65421264D01*
X115420000Y-65421248D01*
X115420000Y-65050000D01*
X114437904Y-65050000D01*
X114470000Y-64888642D01*
X114470000Y-64711358D01*
X114437904Y-64550000D01*
X115420000Y-64550000D01*
X115420000Y-64178751D01*
X115419998Y-64178735D01*
X115388346Y-63938312D01*
X115325578Y-63704060D01*
X115232779Y-63480021D01*
X115232772Y-63480006D01*
X115111519Y-63269990D01*
X115074942Y-63222321D01*
X115019436Y-63149984D01*
X118534500Y-63149984D01*
X118534500Y-66450015D01*
X118545000Y-66552795D01*
X118545001Y-66552796D01*
X118600186Y-66719335D01*
X118600187Y-66719337D01*
X118692286Y-66868651D01*
X118692289Y-66868655D01*
X118816344Y-66992710D01*
X118816348Y-66992713D01*
X118965662Y-67084812D01*
X118965664Y-67084813D01*
X118965666Y-67084814D01*
X119132203Y-67139999D01*
X119234992Y-67150500D01*
X119234997Y-67150500D01*
X121535003Y-67150500D01*
X121535008Y-67150500D01*
X121637797Y-67139999D01*
X121804334Y-67084814D01*
X121953655Y-66992711D01*
X122077711Y-66868655D01*
X122169814Y-66719334D01*
X122224999Y-66552797D01*
X122235500Y-66450008D01*
X122235500Y-64178751D01*
X122735000Y-64178751D01*
X122735000Y-64550000D01*
X123717096Y-64550000D01*
X123685000Y-64711358D01*
X123685000Y-64888642D01*
X123717096Y-65050000D01*
X122735000Y-65050000D01*
X122735000Y-65421248D01*
X122735001Y-65421264D01*
X122766653Y-65661687D01*
X122829421Y-65895939D01*
X122922220Y-66119978D01*
X122922227Y-66119993D01*
X123043480Y-66330009D01*
X123191110Y-66522405D01*
X123191116Y-66522412D01*
X123362587Y-66693883D01*
X123362594Y-66693889D01*
X123554990Y-66841519D01*
X123765006Y-66962772D01*
X123765021Y-66962779D01*
X123989060Y-67055578D01*
X124223312Y-67118346D01*
X124335000Y-67133049D01*
X124335000Y-65667904D01*
X124496358Y-65700000D01*
X124673642Y-65700000D01*
X124835000Y-65667904D01*
X124835000Y-67133049D01*
X124946687Y-67118346D01*
X125180939Y-67055578D01*
X125404978Y-66962779D01*
X125404993Y-66962772D01*
X125615009Y-66841519D01*
X125807405Y-66693889D01*
X125807412Y-66693883D01*
X125978883Y-66522412D01*
X125978889Y-66522405D01*
X126126519Y-66330009D01*
X126247772Y-66119993D01*
X126247779Y-66119978D01*
X126340578Y-65895939D01*
X126403346Y-65661687D01*
X126434998Y-65421264D01*
X126435000Y-65421248D01*
X126435000Y-65050000D01*
X125452904Y-65050000D01*
X125485000Y-64888642D01*
X125485000Y-64711358D01*
X125452904Y-64550000D01*
X126435000Y-64550000D01*
X126435000Y-64178751D01*
X126434998Y-64178735D01*
X126403346Y-63938312D01*
X126340578Y-63704060D01*
X126247779Y-63480021D01*
X126247772Y-63480006D01*
X126126519Y-63269990D01*
X126089942Y-63222321D01*
X126034436Y-63149984D01*
X129549500Y-63149984D01*
X129549500Y-66450015D01*
X129560000Y-66552795D01*
X129560001Y-66552796D01*
X129615186Y-66719335D01*
X129615187Y-66719337D01*
X129707286Y-66868651D01*
X129707289Y-66868655D01*
X129831344Y-66992710D01*
X129831348Y-66992713D01*
X129980662Y-67084812D01*
X129980664Y-67084813D01*
X129980666Y-67084814D01*
X130147203Y-67139999D01*
X130249992Y-67150500D01*
X130249997Y-67150500D01*
X132550003Y-67150500D01*
X132550008Y-67150500D01*
X132652797Y-67139999D01*
X132819334Y-67084814D01*
X132968655Y-66992711D01*
X133092711Y-66868655D01*
X133184814Y-66719334D01*
X133239999Y-66552797D01*
X133250500Y-66450008D01*
X133250500Y-64178751D01*
X133750000Y-64178751D01*
X133750000Y-64550000D01*
X134732096Y-64550000D01*
X134700000Y-64711358D01*
X134700000Y-64888642D01*
X134732096Y-65050000D01*
X133750000Y-65050000D01*
X133750000Y-65421248D01*
X133750001Y-65421264D01*
X133781653Y-65661687D01*
X133844421Y-65895939D01*
X133937220Y-66119978D01*
X133937227Y-66119993D01*
X134058480Y-66330009D01*
X134206110Y-66522405D01*
X134206116Y-66522412D01*
X134377587Y-66693883D01*
X134377594Y-66693889D01*
X134569990Y-66841519D01*
X134780006Y-66962772D01*
X134780021Y-66962779D01*
X135004060Y-67055578D01*
X135238312Y-67118346D01*
X135350000Y-67133049D01*
X135350000Y-65667904D01*
X135511358Y-65700000D01*
X135688642Y-65700000D01*
X135850000Y-65667904D01*
X135850000Y-67133049D01*
X135961687Y-67118346D01*
X136195939Y-67055578D01*
X136419978Y-66962779D01*
X136419993Y-66962772D01*
X136630009Y-66841519D01*
X136822405Y-66693889D01*
X136822412Y-66693883D01*
X136993883Y-66522412D01*
X136993889Y-66522405D01*
X137141519Y-66330009D01*
X137262772Y-66119993D01*
X137262779Y-66119978D01*
X137355578Y-65895939D01*
X137418346Y-65661687D01*
X137449998Y-65421264D01*
X137450000Y-65421248D01*
X137450000Y-65050000D01*
X136467904Y-65050000D01*
X136500000Y-64888642D01*
X136500000Y-64711358D01*
X136467904Y-64550000D01*
X137450000Y-64550000D01*
X137450000Y-64178751D01*
X137449998Y-64178735D01*
X137418346Y-63938312D01*
X137355578Y-63704060D01*
X137262779Y-63480021D01*
X137262772Y-63480006D01*
X137141519Y-63269990D01*
X136993889Y-63077594D01*
X136993883Y-63077587D01*
X136822412Y-62906116D01*
X136822405Y-62906110D01*
X136630009Y-62758480D01*
X136419993Y-62637227D01*
X136419978Y-62637220D01*
X136195939Y-62544421D01*
X135961687Y-62481653D01*
X135850000Y-62466948D01*
X135850000Y-63932095D01*
X135688642Y-63900000D01*
X135511358Y-63900000D01*
X135350000Y-63932095D01*
X135350000Y-62466948D01*
X135349999Y-62466948D01*
X135238312Y-62481653D01*
X135004060Y-62544421D01*
X134780021Y-62637220D01*
X134780006Y-62637227D01*
X134569990Y-62758480D01*
X134377594Y-62906110D01*
X134377587Y-62906116D01*
X134206116Y-63077587D01*
X134206110Y-63077594D01*
X134058480Y-63269990D01*
X133937227Y-63480006D01*
X133937220Y-63480021D01*
X133844421Y-63704060D01*
X133781653Y-63938312D01*
X133750001Y-64178735D01*
X133750000Y-64178751D01*
X133250500Y-64178751D01*
X133250500Y-63149992D01*
X133239999Y-63047203D01*
X133184814Y-62880666D01*
X133092711Y-62731345D01*
X132968655Y-62607289D01*
X132968651Y-62607286D01*
X132819337Y-62515187D01*
X132819335Y-62515186D01*
X132718138Y-62481653D01*
X132652797Y-62460001D01*
X132652795Y-62460000D01*
X132550015Y-62449500D01*
X132550008Y-62449500D01*
X130249992Y-62449500D01*
X130249984Y-62449500D01*
X130147204Y-62460000D01*
X130147203Y-62460001D01*
X129980664Y-62515186D01*
X129980662Y-62515187D01*
X129831348Y-62607286D01*
X129831344Y-62607289D01*
X129707289Y-62731344D01*
X129707286Y-62731348D01*
X129615187Y-62880662D01*
X129615186Y-62880664D01*
X129560001Y-63047203D01*
X129560000Y-63047204D01*
X129549500Y-63149984D01*
X126034436Y-63149984D01*
X125978889Y-63077594D01*
X125978883Y-63077587D01*
X125807412Y-62906116D01*
X125807405Y-62906110D01*
X125615009Y-62758480D01*
X125404993Y-62637227D01*
X125404978Y-62637220D01*
X125180939Y-62544421D01*
X124946687Y-62481653D01*
X124835000Y-62466948D01*
X124835000Y-63932095D01*
X124673642Y-63900000D01*
X124496358Y-63900000D01*
X124335000Y-63932095D01*
X124335000Y-62466948D01*
X124334999Y-62466948D01*
X124223312Y-62481653D01*
X123989060Y-62544421D01*
X123765021Y-62637220D01*
X123765006Y-62637227D01*
X123554990Y-62758480D01*
X123362594Y-62906110D01*
X123362587Y-62906116D01*
X123191116Y-63077587D01*
X123191110Y-63077594D01*
X123043480Y-63269990D01*
X122922227Y-63480006D01*
X122922220Y-63480021D01*
X122829421Y-63704060D01*
X122766653Y-63938312D01*
X122735001Y-64178735D01*
X122735000Y-64178751D01*
X122235500Y-64178751D01*
X122235500Y-63149992D01*
X122224999Y-63047203D01*
X122169814Y-62880666D01*
X122077711Y-62731345D01*
X121953655Y-62607289D01*
X121953651Y-62607286D01*
X121804337Y-62515187D01*
X121804335Y-62515186D01*
X121703138Y-62481653D01*
X121637797Y-62460001D01*
X121637795Y-62460000D01*
X121535015Y-62449500D01*
X121535008Y-62449500D01*
X119234992Y-62449500D01*
X119234984Y-62449500D01*
X119132204Y-62460000D01*
X119132203Y-62460001D01*
X118965664Y-62515186D01*
X118965662Y-62515187D01*
X118816348Y-62607286D01*
X118816344Y-62607289D01*
X118692289Y-62731344D01*
X118692286Y-62731348D01*
X118600187Y-62880662D01*
X118600186Y-62880664D01*
X118545001Y-63047203D01*
X118545000Y-63047204D01*
X118534500Y-63149984D01*
X115019436Y-63149984D01*
X114963889Y-63077594D01*
X114963883Y-63077587D01*
X114792412Y-62906116D01*
X114792405Y-62906110D01*
X114600009Y-62758480D01*
X114389993Y-62637227D01*
X114389978Y-62637220D01*
X114165939Y-62544421D01*
X113931687Y-62481653D01*
X113820000Y-62466948D01*
X113820000Y-63932095D01*
X113658642Y-63900000D01*
X113481358Y-63900000D01*
X113320000Y-63932095D01*
X113320000Y-62466948D01*
X113208312Y-62481653D01*
X112974060Y-62544421D01*
X112750021Y-62637220D01*
X112750006Y-62637227D01*
X112539990Y-62758480D01*
X112347594Y-62906110D01*
X112347587Y-62906116D01*
X112176116Y-63077587D01*
X112176110Y-63077594D01*
X112028480Y-63269990D01*
X111907227Y-63480006D01*
X111907220Y-63480021D01*
X111814421Y-63704060D01*
X111751653Y-63938312D01*
X111720001Y-64178735D01*
X111720000Y-64178751D01*
X111220500Y-64178751D01*
X111220500Y-63149992D01*
X111209999Y-63047203D01*
X111154814Y-62880666D01*
X111062711Y-62731345D01*
X110938655Y-62607289D01*
X110938651Y-62607286D01*
X110789337Y-62515187D01*
X110789335Y-62515186D01*
X110688138Y-62481653D01*
X110622797Y-62460001D01*
X110622795Y-62460000D01*
X110520015Y-62449500D01*
X110520008Y-62449500D01*
X108219992Y-62449500D01*
X108219984Y-62449500D01*
X108117204Y-62460000D01*
X108117203Y-62460001D01*
X107950664Y-62515186D01*
X107950662Y-62515187D01*
X107801348Y-62607286D01*
X107801344Y-62607289D01*
X107677289Y-62731344D01*
X107677286Y-62731348D01*
X107585187Y-62880662D01*
X107585186Y-62880664D01*
X107530001Y-63047203D01*
X107530000Y-63047204D01*
X107519500Y-63149984D01*
X104004436Y-63149984D01*
X103948889Y-63077594D01*
X103948883Y-63077587D01*
X103777412Y-62906116D01*
X103777405Y-62906110D01*
X103585009Y-62758480D01*
X103374993Y-62637227D01*
X103374978Y-62637220D01*
X103150939Y-62544421D01*
X102916687Y-62481653D01*
X102805000Y-62466948D01*
X102805000Y-63932095D01*
X102643642Y-63900000D01*
X102466358Y-63900000D01*
X102305000Y-63932095D01*
X102305000Y-62466948D01*
X102304999Y-62466948D01*
X102193312Y-62481653D01*
X101959060Y-62544421D01*
X101735021Y-62637220D01*
X101735006Y-62637227D01*
X101524990Y-62758480D01*
X101332594Y-62906110D01*
X101332587Y-62906116D01*
X101161116Y-63077587D01*
X101161110Y-63077594D01*
X101013480Y-63269990D01*
X100892227Y-63480006D01*
X100892220Y-63480021D01*
X100799421Y-63704060D01*
X100736653Y-63938312D01*
X100705001Y-64178735D01*
X100705000Y-64178751D01*
X100205500Y-64178751D01*
X100205500Y-63149992D01*
X100194999Y-63047203D01*
X100139814Y-62880666D01*
X100047711Y-62731345D01*
X99923655Y-62607289D01*
X99923651Y-62607286D01*
X99774337Y-62515187D01*
X99774335Y-62515186D01*
X99673138Y-62481653D01*
X99607797Y-62460001D01*
X99607795Y-62460000D01*
X99505015Y-62449500D01*
X99505008Y-62449500D01*
X97204992Y-62449500D01*
X97204984Y-62449500D01*
X97102204Y-62460000D01*
X97102203Y-62460001D01*
X96935664Y-62515186D01*
X96935662Y-62515187D01*
X96786348Y-62607286D01*
X96786344Y-62607289D01*
X96662289Y-62731344D01*
X96662286Y-62731348D01*
X96570187Y-62880662D01*
X96570186Y-62880664D01*
X96515001Y-63047203D01*
X96515000Y-63047204D01*
X96504500Y-63149984D01*
X92989436Y-63149984D01*
X92933889Y-63077594D01*
X92933883Y-63077587D01*
X92762412Y-62906116D01*
X92762405Y-62906110D01*
X92570009Y-62758480D01*
X92359993Y-62637227D01*
X92359978Y-62637220D01*
X92135939Y-62544421D01*
X91901687Y-62481653D01*
X91790000Y-62466948D01*
X91790000Y-63932095D01*
X91628642Y-63900000D01*
X91451358Y-63900000D01*
X91290000Y-63932095D01*
X91290000Y-62466948D01*
X91289999Y-62466948D01*
X91178312Y-62481653D01*
X90944060Y-62544421D01*
X90720021Y-62637220D01*
X90720006Y-62637227D01*
X90509990Y-62758480D01*
X90317594Y-62906110D01*
X90317587Y-62906116D01*
X90146116Y-63077587D01*
X90146110Y-63077594D01*
X89998480Y-63269990D01*
X89877227Y-63480006D01*
X89877220Y-63480021D01*
X89784421Y-63704060D01*
X89721653Y-63938312D01*
X89690001Y-64178735D01*
X89690000Y-64178751D01*
X89190500Y-64178751D01*
X89190500Y-63149992D01*
X89179999Y-63047203D01*
X89124814Y-62880666D01*
X89032711Y-62731345D01*
X88908655Y-62607289D01*
X88908651Y-62607286D01*
X88759337Y-62515187D01*
X88759335Y-62515186D01*
X88658138Y-62481653D01*
X88592797Y-62460001D01*
X88592795Y-62460000D01*
X88490015Y-62449500D01*
X88490008Y-62449500D01*
X86189992Y-62449500D01*
X86189984Y-62449500D01*
X86087204Y-62460000D01*
X86087203Y-62460001D01*
X85920664Y-62515186D01*
X85920662Y-62515187D01*
X85771348Y-62607286D01*
X85771344Y-62607289D01*
X85647289Y-62731344D01*
X85647286Y-62731348D01*
X85555187Y-62880662D01*
X85555186Y-62880664D01*
X85500001Y-63047203D01*
X85500000Y-63047204D01*
X85489500Y-63149984D01*
X81974436Y-63149984D01*
X81918889Y-63077594D01*
X81918883Y-63077587D01*
X81747412Y-62906116D01*
X81747405Y-62906110D01*
X81555009Y-62758480D01*
X81344993Y-62637227D01*
X81344978Y-62637220D01*
X81120939Y-62544421D01*
X80886687Y-62481653D01*
X80775000Y-62466948D01*
X80775000Y-63932095D01*
X80613642Y-63900000D01*
X80436358Y-63900000D01*
X80275000Y-63932095D01*
X80275000Y-62466948D01*
X80274999Y-62466948D01*
X80163312Y-62481653D01*
X79929060Y-62544421D01*
X79705021Y-62637220D01*
X79705006Y-62637227D01*
X79494990Y-62758480D01*
X79302594Y-62906110D01*
X79302587Y-62906116D01*
X79131116Y-63077587D01*
X79131110Y-63077594D01*
X78983480Y-63269990D01*
X78862227Y-63480006D01*
X78862220Y-63480021D01*
X78769421Y-63704060D01*
X78706653Y-63938312D01*
X78675001Y-64178735D01*
X78675000Y-64178751D01*
X78175500Y-64178751D01*
X78175500Y-63149992D01*
X78164999Y-63047203D01*
X78109814Y-62880666D01*
X78017711Y-62731345D01*
X77893655Y-62607289D01*
X77893651Y-62607286D01*
X77744337Y-62515187D01*
X77744335Y-62515186D01*
X77643138Y-62481653D01*
X77577797Y-62460001D01*
X77577795Y-62460000D01*
X77475015Y-62449500D01*
X77475008Y-62449500D01*
X75174992Y-62449500D01*
X75174984Y-62449500D01*
X75072204Y-62460000D01*
X75072203Y-62460001D01*
X74905664Y-62515186D01*
X74905662Y-62515187D01*
X74756348Y-62607286D01*
X74756344Y-62607289D01*
X74632289Y-62731344D01*
X74632286Y-62731348D01*
X74540187Y-62880662D01*
X74540186Y-62880664D01*
X74485001Y-63047203D01*
X74485000Y-63047204D01*
X74474500Y-63149984D01*
X70959436Y-63149984D01*
X70903889Y-63077594D01*
X70903883Y-63077587D01*
X70732412Y-62906116D01*
X70732405Y-62906110D01*
X70540009Y-62758480D01*
X70329993Y-62637227D01*
X70329978Y-62637220D01*
X70105939Y-62544421D01*
X69871687Y-62481653D01*
X69760000Y-62466948D01*
X69760000Y-63932095D01*
X69598642Y-63900000D01*
X69421358Y-63900000D01*
X69260000Y-63932095D01*
X69260000Y-62466948D01*
X69259999Y-62466948D01*
X69148312Y-62481653D01*
X68914060Y-62544421D01*
X68690021Y-62637220D01*
X68690006Y-62637227D01*
X68479990Y-62758480D01*
X68287594Y-62906110D01*
X68287587Y-62906116D01*
X68116116Y-63077587D01*
X68116110Y-63077594D01*
X67968480Y-63269990D01*
X67847227Y-63480006D01*
X67847220Y-63480021D01*
X67754421Y-63704060D01*
X67691653Y-63938312D01*
X67660001Y-64178735D01*
X67660000Y-64178751D01*
X67160500Y-64178751D01*
X67160500Y-63149992D01*
X67149999Y-63047203D01*
X67094814Y-62880666D01*
X67002711Y-62731345D01*
X66878655Y-62607289D01*
X66878651Y-62607286D01*
X66729337Y-62515187D01*
X66729335Y-62515186D01*
X66628138Y-62481653D01*
X66562797Y-62460001D01*
X66562795Y-62460000D01*
X66460015Y-62449500D01*
X66460008Y-62449500D01*
X64159992Y-62449500D01*
X64159984Y-62449500D01*
X64057204Y-62460000D01*
X64057203Y-62460001D01*
X63890664Y-62515186D01*
X63890662Y-62515187D01*
X63741348Y-62607286D01*
X63741344Y-62607289D01*
X63617289Y-62731344D01*
X63617286Y-62731348D01*
X63525187Y-62880662D01*
X63525186Y-62880664D01*
X63470001Y-63047203D01*
X63470000Y-63047204D01*
X63459500Y-63149984D01*
X59944436Y-63149984D01*
X59888889Y-63077594D01*
X59888883Y-63077587D01*
X59717412Y-62906116D01*
X59717405Y-62906110D01*
X59525009Y-62758480D01*
X59314993Y-62637227D01*
X59314978Y-62637220D01*
X59090939Y-62544421D01*
X58856687Y-62481653D01*
X58745000Y-62466948D01*
X58745000Y-63932095D01*
X58583642Y-63900000D01*
X58406358Y-63900000D01*
X58245000Y-63932095D01*
X58245000Y-62466948D01*
X58244999Y-62466948D01*
X58133312Y-62481653D01*
X57899060Y-62544421D01*
X57675021Y-62637220D01*
X57675006Y-62637227D01*
X57464990Y-62758480D01*
X57272594Y-62906110D01*
X57272587Y-62906116D01*
X57101116Y-63077587D01*
X57101110Y-63077594D01*
X56953480Y-63269990D01*
X56832227Y-63480006D01*
X56832220Y-63480021D01*
X56739421Y-63704060D01*
X56676653Y-63938312D01*
X56645001Y-64178735D01*
X56645000Y-64178751D01*
X56145500Y-64178751D01*
X56145500Y-63149992D01*
X56134999Y-63047203D01*
X56079814Y-62880666D01*
X55987711Y-62731345D01*
X55863655Y-62607289D01*
X55863651Y-62607286D01*
X55714337Y-62515187D01*
X55714335Y-62515186D01*
X55613138Y-62481653D01*
X55547797Y-62460001D01*
X55547795Y-62460000D01*
X55445015Y-62449500D01*
X55445008Y-62449500D01*
X53144992Y-62449500D01*
X53144984Y-62449500D01*
X53042204Y-62460000D01*
X53042203Y-62460001D01*
X52875664Y-62515186D01*
X52875662Y-62515187D01*
X52726348Y-62607286D01*
X52726344Y-62607289D01*
X52602289Y-62731344D01*
X52602286Y-62731348D01*
X52510187Y-62880662D01*
X52510186Y-62880664D01*
X52455001Y-63047203D01*
X52455000Y-63047204D01*
X52444500Y-63149984D01*
X50500500Y-63149984D01*
X50500500Y-57385258D01*
X54644500Y-57385258D01*
X54644500Y-57614741D01*
X54669446Y-57804215D01*
X54674452Y-57842238D01*
X54674453Y-57842240D01*
X54733842Y-58063887D01*
X54821650Y-58275876D01*
X54821657Y-58275890D01*
X54936392Y-58474617D01*
X55076081Y-58656661D01*
X55076089Y-58656670D01*
X55238330Y-58818911D01*
X55238338Y-58818918D01*
X55420382Y-58958607D01*
X55420385Y-58958608D01*
X55420388Y-58958611D01*
X55619112Y-59073344D01*
X55619117Y-59073346D01*
X55619123Y-59073349D01*
X55710480Y-59111190D01*
X55831113Y-59161158D01*
X56052762Y-59220548D01*
X56280266Y-59250500D01*
X56280273Y-59250500D01*
X56509727Y-59250500D01*
X56509734Y-59250500D01*
X56737238Y-59220548D01*
X56958887Y-59161158D01*
X57170888Y-59073344D01*
X57369612Y-58958611D01*
X57551661Y-58818919D01*
X57551665Y-58818914D01*
X57551670Y-58818911D01*
X57713911Y-58656670D01*
X57713914Y-58656665D01*
X57713919Y-58656661D01*
X57853611Y-58474612D01*
X57968344Y-58275888D01*
X58056158Y-58063887D01*
X58115548Y-57842238D01*
X58145500Y-57614734D01*
X58145500Y-57385266D01*
X58145499Y-57385258D01*
X65659500Y-57385258D01*
X65659500Y-57614741D01*
X65684446Y-57804215D01*
X65689452Y-57842238D01*
X65689453Y-57842240D01*
X65748842Y-58063887D01*
X65836650Y-58275876D01*
X65836657Y-58275890D01*
X65951392Y-58474617D01*
X66091081Y-58656661D01*
X66091089Y-58656670D01*
X66253330Y-58818911D01*
X66253338Y-58818918D01*
X66435382Y-58958607D01*
X66435385Y-58958608D01*
X66435388Y-58958611D01*
X66634112Y-59073344D01*
X66634117Y-59073346D01*
X66634123Y-59073349D01*
X66725480Y-59111190D01*
X66846113Y-59161158D01*
X67067762Y-59220548D01*
X67295266Y-59250500D01*
X67295273Y-59250500D01*
X67524727Y-59250500D01*
X67524734Y-59250500D01*
X67752238Y-59220548D01*
X67973887Y-59161158D01*
X68185888Y-59073344D01*
X68384612Y-58958611D01*
X68566661Y-58818919D01*
X68566665Y-58818914D01*
X68566670Y-58818911D01*
X68728911Y-58656670D01*
X68728914Y-58656665D01*
X68728919Y-58656661D01*
X68868611Y-58474612D01*
X68983344Y-58275888D01*
X69071158Y-58063887D01*
X69130548Y-57842238D01*
X69160500Y-57614734D01*
X69160500Y-57385266D01*
X69160499Y-57385258D01*
X76674500Y-57385258D01*
X76674500Y-57614741D01*
X76699446Y-57804215D01*
X76704452Y-57842238D01*
X76704453Y-57842240D01*
X76763842Y-58063887D01*
X76851650Y-58275876D01*
X76851657Y-58275890D01*
X76966392Y-58474617D01*
X77106081Y-58656661D01*
X77106089Y-58656670D01*
X77268330Y-58818911D01*
X77268338Y-58818918D01*
X77450382Y-58958607D01*
X77450385Y-58958608D01*
X77450388Y-58958611D01*
X77649112Y-59073344D01*
X77649117Y-59073346D01*
X77649123Y-59073349D01*
X77740480Y-59111190D01*
X77861113Y-59161158D01*
X78082762Y-59220548D01*
X78310266Y-59250500D01*
X78310273Y-59250500D01*
X78539727Y-59250500D01*
X78539734Y-59250500D01*
X78767238Y-59220548D01*
X78988887Y-59161158D01*
X79200888Y-59073344D01*
X79399612Y-58958611D01*
X79581661Y-58818919D01*
X79581665Y-58818914D01*
X79581670Y-58818911D01*
X79743911Y-58656670D01*
X79743914Y-58656665D01*
X79743919Y-58656661D01*
X79883611Y-58474612D01*
X79998344Y-58275888D01*
X80086158Y-58063887D01*
X80145548Y-57842238D01*
X80175500Y-57614734D01*
X80175500Y-57385266D01*
X80175499Y-57385258D01*
X87689500Y-57385258D01*
X87689500Y-57614741D01*
X87714446Y-57804215D01*
X87719452Y-57842238D01*
X87719453Y-57842240D01*
X87778842Y-58063887D01*
X87866650Y-58275876D01*
X87866657Y-58275890D01*
X87981392Y-58474617D01*
X88121081Y-58656661D01*
X88121089Y-58656670D01*
X88283330Y-58818911D01*
X88283338Y-58818918D01*
X88465382Y-58958607D01*
X88465385Y-58958608D01*
X88465388Y-58958611D01*
X88664112Y-59073344D01*
X88664117Y-59073346D01*
X88664123Y-59073349D01*
X88755480Y-59111190D01*
X88876113Y-59161158D01*
X89097762Y-59220548D01*
X89325266Y-59250500D01*
X89325273Y-59250500D01*
X89554727Y-59250500D01*
X89554734Y-59250500D01*
X89782238Y-59220548D01*
X90003887Y-59161158D01*
X90215888Y-59073344D01*
X90414612Y-58958611D01*
X90596661Y-58818919D01*
X90596665Y-58818914D01*
X90596670Y-58818911D01*
X90758911Y-58656670D01*
X90758914Y-58656665D01*
X90758919Y-58656661D01*
X90898611Y-58474612D01*
X91013344Y-58275888D01*
X91101158Y-58063887D01*
X91160548Y-57842238D01*
X91190500Y-57614734D01*
X91190500Y-57385266D01*
X91190499Y-57385258D01*
X98704500Y-57385258D01*
X98704500Y-57614741D01*
X98729446Y-57804215D01*
X98734452Y-57842238D01*
X98734453Y-57842240D01*
X98793842Y-58063887D01*
X98881650Y-58275876D01*
X98881657Y-58275890D01*
X98996392Y-58474617D01*
X99136081Y-58656661D01*
X99136089Y-58656670D01*
X99298330Y-58818911D01*
X99298338Y-58818918D01*
X99480382Y-58958607D01*
X99480385Y-58958608D01*
X99480388Y-58958611D01*
X99679112Y-59073344D01*
X99679117Y-59073346D01*
X99679123Y-59073349D01*
X99770480Y-59111190D01*
X99891113Y-59161158D01*
X100112762Y-59220548D01*
X100340266Y-59250500D01*
X100340273Y-59250500D01*
X100569727Y-59250500D01*
X100569734Y-59250500D01*
X100797238Y-59220548D01*
X101018887Y-59161158D01*
X101230888Y-59073344D01*
X101429612Y-58958611D01*
X101611661Y-58818919D01*
X101611665Y-58818914D01*
X101611670Y-58818911D01*
X101773911Y-58656670D01*
X101773914Y-58656665D01*
X101773919Y-58656661D01*
X101913611Y-58474612D01*
X102028344Y-58275888D01*
X102116158Y-58063887D01*
X102175548Y-57842238D01*
X102205500Y-57614734D01*
X102205500Y-57385266D01*
X102205499Y-57385258D01*
X109719500Y-57385258D01*
X109719500Y-57614741D01*
X109744446Y-57804215D01*
X109749452Y-57842238D01*
X109749453Y-57842240D01*
X109808842Y-58063887D01*
X109896650Y-58275876D01*
X109896657Y-58275890D01*
X110011392Y-58474617D01*
X110151081Y-58656661D01*
X110151089Y-58656670D01*
X110313330Y-58818911D01*
X110313338Y-58818918D01*
X110495382Y-58958607D01*
X110495385Y-58958608D01*
X110495388Y-58958611D01*
X110694112Y-59073344D01*
X110694117Y-59073346D01*
X110694123Y-59073349D01*
X110785480Y-59111190D01*
X110906113Y-59161158D01*
X111127762Y-59220548D01*
X111355266Y-59250500D01*
X111355273Y-59250500D01*
X111584727Y-59250500D01*
X111584734Y-59250500D01*
X111812238Y-59220548D01*
X112033887Y-59161158D01*
X112245888Y-59073344D01*
X112444612Y-58958611D01*
X112626661Y-58818919D01*
X112626665Y-58818914D01*
X112626670Y-58818911D01*
X112788911Y-58656670D01*
X112788914Y-58656665D01*
X112788919Y-58656661D01*
X112928611Y-58474612D01*
X113043344Y-58275888D01*
X113131158Y-58063887D01*
X113190548Y-57842238D01*
X113220500Y-57614734D01*
X113220500Y-57385266D01*
X113220499Y-57385258D01*
X120734500Y-57385258D01*
X120734500Y-57614741D01*
X120759446Y-57804215D01*
X120764452Y-57842238D01*
X120764453Y-57842240D01*
X120823842Y-58063887D01*
X120911650Y-58275876D01*
X120911657Y-58275890D01*
X121026392Y-58474617D01*
X121166081Y-58656661D01*
X121166089Y-58656670D01*
X121328330Y-58818911D01*
X121328338Y-58818918D01*
X121510382Y-58958607D01*
X121510385Y-58958608D01*
X121510388Y-58958611D01*
X121709112Y-59073344D01*
X121709117Y-59073346D01*
X121709123Y-59073349D01*
X121800480Y-59111190D01*
X121921113Y-59161158D01*
X122142762Y-59220548D01*
X122370266Y-59250500D01*
X122370273Y-59250500D01*
X122599727Y-59250500D01*
X122599734Y-59250500D01*
X122827238Y-59220548D01*
X123048887Y-59161158D01*
X123260888Y-59073344D01*
X123459612Y-58958611D01*
X123641661Y-58818919D01*
X123641665Y-58818914D01*
X123641670Y-58818911D01*
X123803911Y-58656670D01*
X123803914Y-58656665D01*
X123803919Y-58656661D01*
X123943611Y-58474612D01*
X124058344Y-58275888D01*
X124146158Y-58063887D01*
X124205548Y-57842238D01*
X124235500Y-57614734D01*
X124235500Y-57385266D01*
X124235499Y-57385258D01*
X131749500Y-57385258D01*
X131749500Y-57614741D01*
X131774446Y-57804215D01*
X131779452Y-57842238D01*
X131779453Y-57842240D01*
X131838842Y-58063887D01*
X131926650Y-58275876D01*
X131926657Y-58275890D01*
X132041392Y-58474617D01*
X132181081Y-58656661D01*
X132181089Y-58656670D01*
X132343330Y-58818911D01*
X132343338Y-58818918D01*
X132525382Y-58958607D01*
X132525385Y-58958608D01*
X132525388Y-58958611D01*
X132724112Y-59073344D01*
X132724117Y-59073346D01*
X132724123Y-59073349D01*
X132815480Y-59111190D01*
X132936113Y-59161158D01*
X133157762Y-59220548D01*
X133385266Y-59250500D01*
X133385273Y-59250500D01*
X133614727Y-59250500D01*
X133614734Y-59250500D01*
X133842238Y-59220548D01*
X134063887Y-59161158D01*
X134275888Y-59073344D01*
X134474612Y-58958611D01*
X134656661Y-58818919D01*
X134656665Y-58818914D01*
X134656670Y-58818911D01*
X134818911Y-58656670D01*
X134818914Y-58656665D01*
X134818919Y-58656661D01*
X134958611Y-58474612D01*
X135073344Y-58275888D01*
X135161158Y-58063887D01*
X135220548Y-57842238D01*
X135250500Y-57614734D01*
X135250500Y-57385266D01*
X135220548Y-57157762D01*
X135161158Y-56936113D01*
X135073344Y-56724112D01*
X134958611Y-56525388D01*
X134958608Y-56525385D01*
X134958607Y-56525382D01*
X134818918Y-56343338D01*
X134818911Y-56343330D01*
X134656670Y-56181089D01*
X134656661Y-56181081D01*
X134474617Y-56041392D01*
X134275890Y-55926657D01*
X134275876Y-55926650D01*
X134063887Y-55838842D01*
X133842238Y-55779452D01*
X133804215Y-55774446D01*
X133614741Y-55749500D01*
X133614734Y-55749500D01*
X133385266Y-55749500D01*
X133385258Y-55749500D01*
X133168715Y-55778009D01*
X133157762Y-55779452D01*
X133064076Y-55804554D01*
X132936112Y-55838842D01*
X132724123Y-55926650D01*
X132724109Y-55926657D01*
X132525382Y-56041392D01*
X132343338Y-56181081D01*
X132181081Y-56343338D01*
X132041392Y-56525382D01*
X131926657Y-56724109D01*
X131926650Y-56724123D01*
X131838842Y-56936112D01*
X131779453Y-57157759D01*
X131779451Y-57157770D01*
X131749500Y-57385258D01*
X124235499Y-57385258D01*
X124205548Y-57157762D01*
X124146158Y-56936113D01*
X124058344Y-56724112D01*
X123943611Y-56525388D01*
X123943608Y-56525385D01*
X123943607Y-56525382D01*
X123803918Y-56343338D01*
X123803911Y-56343330D01*
X123641670Y-56181089D01*
X123641661Y-56181081D01*
X123459617Y-56041392D01*
X123260890Y-55926657D01*
X123260876Y-55926650D01*
X123048887Y-55838842D01*
X122827238Y-55779452D01*
X122789215Y-55774446D01*
X122599741Y-55749500D01*
X122599734Y-55749500D01*
X122370266Y-55749500D01*
X122370258Y-55749500D01*
X122153715Y-55778009D01*
X122142762Y-55779452D01*
X122049076Y-55804554D01*
X121921112Y-55838842D01*
X121709123Y-55926650D01*
X121709109Y-55926657D01*
X121510382Y-56041392D01*
X121328338Y-56181081D01*
X121166081Y-56343338D01*
X121026392Y-56525382D01*
X120911657Y-56724109D01*
X120911650Y-56724123D01*
X120823842Y-56936112D01*
X120764453Y-57157759D01*
X120764451Y-57157770D01*
X120734500Y-57385258D01*
X113220499Y-57385258D01*
X113190548Y-57157762D01*
X113131158Y-56936113D01*
X113043344Y-56724112D01*
X112928611Y-56525388D01*
X112928608Y-56525385D01*
X112928607Y-56525382D01*
X112788918Y-56343338D01*
X112788911Y-56343330D01*
X112626670Y-56181089D01*
X112626661Y-56181081D01*
X112444617Y-56041392D01*
X112245890Y-55926657D01*
X112245876Y-55926650D01*
X112033887Y-55838842D01*
X111812238Y-55779452D01*
X111774215Y-55774446D01*
X111584741Y-55749500D01*
X111584734Y-55749500D01*
X111355266Y-55749500D01*
X111355258Y-55749500D01*
X111138715Y-55778009D01*
X111127762Y-55779452D01*
X111034076Y-55804554D01*
X110906112Y-55838842D01*
X110694123Y-55926650D01*
X110694109Y-55926657D01*
X110495382Y-56041392D01*
X110313338Y-56181081D01*
X110151081Y-56343338D01*
X110011392Y-56525382D01*
X109896657Y-56724109D01*
X109896650Y-56724123D01*
X109808842Y-56936112D01*
X109749453Y-57157759D01*
X109749451Y-57157770D01*
X109719500Y-57385258D01*
X102205499Y-57385258D01*
X102175548Y-57157762D01*
X102116158Y-56936113D01*
X102028344Y-56724112D01*
X101913611Y-56525388D01*
X101913608Y-56525385D01*
X101913607Y-56525382D01*
X101773918Y-56343338D01*
X101773911Y-56343330D01*
X101611670Y-56181089D01*
X101611661Y-56181081D01*
X101429617Y-56041392D01*
X101230890Y-55926657D01*
X101230876Y-55926650D01*
X101018887Y-55838842D01*
X100797238Y-55779452D01*
X100759215Y-55774446D01*
X100569741Y-55749500D01*
X100569734Y-55749500D01*
X100340266Y-55749500D01*
X100340258Y-55749500D01*
X100123715Y-55778009D01*
X100112762Y-55779452D01*
X100019076Y-55804554D01*
X99891112Y-55838842D01*
X99679123Y-55926650D01*
X99679109Y-55926657D01*
X99480382Y-56041392D01*
X99298338Y-56181081D01*
X99136081Y-56343338D01*
X98996392Y-56525382D01*
X98881657Y-56724109D01*
X98881650Y-56724123D01*
X98793842Y-56936112D01*
X98734453Y-57157759D01*
X98734451Y-57157770D01*
X98704500Y-57385258D01*
X91190499Y-57385258D01*
X91160548Y-57157762D01*
X91101158Y-56936113D01*
X91013344Y-56724112D01*
X90898611Y-56525388D01*
X90898608Y-56525385D01*
X90898607Y-56525382D01*
X90758918Y-56343338D01*
X90758911Y-56343330D01*
X90596670Y-56181089D01*
X90596661Y-56181081D01*
X90414617Y-56041392D01*
X90215890Y-55926657D01*
X90215876Y-55926650D01*
X90003887Y-55838842D01*
X89782238Y-55779452D01*
X89744215Y-55774446D01*
X89554741Y-55749500D01*
X89554734Y-55749500D01*
X89325266Y-55749500D01*
X89325258Y-55749500D01*
X89108715Y-55778009D01*
X89097762Y-55779452D01*
X89004076Y-55804554D01*
X88876112Y-55838842D01*
X88664123Y-55926650D01*
X88664109Y-55926657D01*
X88465382Y-56041392D01*
X88283338Y-56181081D01*
X88121081Y-56343338D01*
X87981392Y-56525382D01*
X87866657Y-56724109D01*
X87866650Y-56724123D01*
X87778842Y-56936112D01*
X87719453Y-57157759D01*
X87719451Y-57157770D01*
X87689500Y-57385258D01*
X80175499Y-57385258D01*
X80145548Y-57157762D01*
X80086158Y-56936113D01*
X79998344Y-56724112D01*
X79883611Y-56525388D01*
X79883608Y-56525385D01*
X79883607Y-56525382D01*
X79743918Y-56343338D01*
X79743911Y-56343330D01*
X79581670Y-56181089D01*
X79581661Y-56181081D01*
X79399617Y-56041392D01*
X79200890Y-55926657D01*
X79200876Y-55926650D01*
X78988887Y-55838842D01*
X78767238Y-55779452D01*
X78729215Y-55774446D01*
X78539741Y-55749500D01*
X78539734Y-55749500D01*
X78310266Y-55749500D01*
X78310258Y-55749500D01*
X78093715Y-55778009D01*
X78082762Y-55779452D01*
X77989076Y-55804554D01*
X77861112Y-55838842D01*
X77649123Y-55926650D01*
X77649109Y-55926657D01*
X77450382Y-56041392D01*
X77268338Y-56181081D01*
X77106081Y-56343338D01*
X76966392Y-56525382D01*
X76851657Y-56724109D01*
X76851650Y-56724123D01*
X76763842Y-56936112D01*
X76704453Y-57157759D01*
X76704451Y-57157770D01*
X76674500Y-57385258D01*
X69160499Y-57385258D01*
X69130548Y-57157762D01*
X69071158Y-56936113D01*
X68983344Y-56724112D01*
X68868611Y-56525388D01*
X68868608Y-56525385D01*
X68868607Y-56525382D01*
X68728918Y-56343338D01*
X68728911Y-56343330D01*
X68566670Y-56181089D01*
X68566661Y-56181081D01*
X68384617Y-56041392D01*
X68185890Y-55926657D01*
X68185876Y-55926650D01*
X67973887Y-55838842D01*
X67752238Y-55779452D01*
X67714215Y-55774446D01*
X67524741Y-55749500D01*
X67524734Y-55749500D01*
X67295266Y-55749500D01*
X67295258Y-55749500D01*
X67078715Y-55778009D01*
X67067762Y-55779452D01*
X66974076Y-55804554D01*
X66846112Y-55838842D01*
X66634123Y-55926650D01*
X66634109Y-55926657D01*
X66435382Y-56041392D01*
X66253338Y-56181081D01*
X66091081Y-56343338D01*
X65951392Y-56525382D01*
X65836657Y-56724109D01*
X65836650Y-56724123D01*
X65748842Y-56936112D01*
X65689453Y-57157759D01*
X65689451Y-57157770D01*
X65659500Y-57385258D01*
X58145499Y-57385258D01*
X58115548Y-57157762D01*
X58056158Y-56936113D01*
X57968344Y-56724112D01*
X57853611Y-56525388D01*
X57853608Y-56525385D01*
X57853607Y-56525382D01*
X57713918Y-56343338D01*
X57713911Y-56343330D01*
X57551670Y-56181089D01*
X57551661Y-56181081D01*
X57369617Y-56041392D01*
X57170890Y-55926657D01*
X57170876Y-55926650D01*
X56958887Y-55838842D01*
X56737238Y-55779452D01*
X56699215Y-55774446D01*
X56509741Y-55749500D01*
X56509734Y-55749500D01*
X56280266Y-55749500D01*
X56280258Y-55749500D01*
X56063715Y-55778009D01*
X56052762Y-55779452D01*
X55959076Y-55804554D01*
X55831112Y-55838842D01*
X55619123Y-55926650D01*
X55619109Y-55926657D01*
X55420382Y-56041392D01*
X55238338Y-56181081D01*
X55076081Y-56343338D01*
X54936392Y-56525382D01*
X54821657Y-56724109D01*
X54821650Y-56724123D01*
X54733842Y-56936112D01*
X54674453Y-57157759D01*
X54674451Y-57157770D01*
X54644500Y-57385258D01*
X50500500Y-57385258D01*
X50500500Y-50624500D01*
X50520185Y-50557461D01*
X50572989Y-50511706D01*
X50624500Y-50500500D01*
X139375500Y-50500500D01*
X139442539Y-50520185D01*
G37*
G04 #@! TD.AperFunction*
M02*
