M48
INCH,TZ
T1C0.0118
T2C0.0354
T3C0.0472
T4C0.0709
T5C0.1260
%
G90
G05
T1
X23228Y-29528
X23228Y-31299
X23228Y-36417
X25000Y-51969
X27362Y-42520
X27559Y-38976
X27563Y-29528
X27563Y-31299
X27756Y-49606
X30118Y-35433
X30709Y-37598
X30709Y-37913
X30709Y-38976
X30906Y-35039
X30906Y-37205
X31299Y-33465
X31611Y-40633
X31890Y-32874
X31909Y-29528
X31909Y-31299
X32087Y-36220
X32283Y-35827
X32579Y-38573
X32598Y-39970
X32598Y-40581
X32667Y-42244
X33071Y-37598
X33465Y-44488
X33678Y-36992
X34252Y-36614
X35039Y-44488
X35054Y-36993
X35551Y-36142
X35945Y-42835
X36241Y-29528
X36241Y-31299
X36339Y-39094
X36339Y-40079
X36614Y-53150
X36811Y-35827
X36811Y-49213
X37205Y-35236
X37323Y-39094
X37323Y-40079
X37431Y-43622
X37598Y-35827
X37598Y-49213
X37913Y-42441
X38780Y-49606
X39370Y-35236
X39596Y-36250
X40157Y-34843
X40157Y-52559
X40494Y-29528
X40494Y-31299
X41043Y-38268
X41063Y-39577
X41063Y-40187
X41339Y-35433
X42323Y-35433
X44797Y-29528
X44797Y-31299
X46850Y-37992
X47638Y-35630
X49188Y-29528
X49188Y-31299
X52953Y-29528
X52953Y-31299
T2
X33626Y-50795
X34165Y-51913
X34705Y-50795
X35244Y-51913
X35783Y-50795
X36323Y-51913
X36862Y-50795
X37402Y-51913
X37941Y-50795
X38480Y-51913
X39020Y-50795
X39559Y-51913
X40098Y-50795
X40638Y-51913
X41177Y-50795
T3
X20669Y-33268
X26211Y-39957
X26211Y-41748
X42638Y-41063
X46063Y-34252
T4
X21376Y-25512
X21376Y-27677
X23030Y-25512
X23030Y-27677
X25713Y-25512
X25713Y-27677
X27366Y-25512
X27366Y-27677
X30049Y-25512
X30049Y-27677
X31703Y-25512
X31703Y-27677
X34386Y-25512
X34386Y-27677
X36039Y-25512
X36039Y-27677
X38722Y-25512
X38722Y-27677
X40376Y-25512
X40376Y-27677
X43059Y-25512
X43059Y-27677
X44713Y-25512
X44713Y-27677
X47396Y-25512
X47396Y-27677
X49049Y-25512
X49049Y-27677
X51732Y-25512
X51732Y-27677
X53386Y-25512
X53386Y-27677
T5
X30843Y-51354
X43961Y-51354
M30
