G04 #@! TF.GenerationSoftware,KiCad,Pcbnew,9.0.7+1*
G04 #@! TF.CreationDate,2026-05-07T05:04:50+00:00*
G04 #@! TF.ProjectId,HackerDAQ Voltage Card,4861636b-6572-4444-9151-20566f6c7461,rev?*
G04 #@! TF.SameCoordinates,Original*
G04 #@! TF.FileFunction,Legend,Bot*
G04 #@! TF.FilePolarity,Positive*
%FSLAX46Y46*%
G04 Gerber Fmt 4.6, Leading zero omitted, Abs format (unit mm)*
G04 Created by KiCad (PCBNEW 9.0.7+1) date 2026-05-07 05:04:50*
%MOMM*%
%LPD*%
G01*
G04 APERTURE LIST*
%ADD10C,0.100000*%
%ADD11C,0.600000*%
%ADD12C,0.150000*%
G04 APERTURE END LIST*
D10*
X125500000Y-82500000D02*
X125500000Y-93500000D01*
X119500000Y-82500000D02*
X131500000Y-82500000D01*
X131500000Y-93500000D01*
X119500000Y-93500000D01*
X119500000Y-82500000D01*
X124500000Y-81000000D02*
X127500000Y-81000000D01*
X127500000Y-82500000D01*
X124500000Y-82500000D01*
X124500000Y-81000000D01*
X131500000Y-88000000D02*
X119500000Y-88000000D01*
D11*
X113176692Y-54315942D02*
X113319549Y-54458800D01*
X113319549Y-54458800D02*
X113748121Y-54601657D01*
X113748121Y-54601657D02*
X114033835Y-54601657D01*
X114033835Y-54601657D02*
X114462406Y-54458800D01*
X114462406Y-54458800D02*
X114748121Y-54173085D01*
X114748121Y-54173085D02*
X114890978Y-53887371D01*
X114890978Y-53887371D02*
X115033835Y-53315942D01*
X115033835Y-53315942D02*
X115033835Y-52887371D01*
X115033835Y-52887371D02*
X114890978Y-52315942D01*
X114890978Y-52315942D02*
X114748121Y-52030228D01*
X114748121Y-52030228D02*
X114462406Y-51744514D01*
X114462406Y-51744514D02*
X114033835Y-51601657D01*
X114033835Y-51601657D02*
X113748121Y-51601657D01*
X113748121Y-51601657D02*
X113319549Y-51744514D01*
X113319549Y-51744514D02*
X113176692Y-51887371D01*
X111890978Y-54601657D02*
X111890978Y-51601657D01*
X110605264Y-54601657D02*
X110605264Y-53030228D01*
X110605264Y-53030228D02*
X110748121Y-52744514D01*
X110748121Y-52744514D02*
X111033835Y-52601657D01*
X111033835Y-52601657D02*
X111462406Y-52601657D01*
X111462406Y-52601657D02*
X111748121Y-52744514D01*
X111748121Y-52744514D02*
X111890978Y-52887371D01*
X107748120Y-51601657D02*
X109176692Y-51601657D01*
X109176692Y-51601657D02*
X109319549Y-53030228D01*
X109319549Y-53030228D02*
X109176692Y-52887371D01*
X109176692Y-52887371D02*
X108890978Y-52744514D01*
X108890978Y-52744514D02*
X108176692Y-52744514D01*
X108176692Y-52744514D02*
X107890978Y-52887371D01*
X107890978Y-52887371D02*
X107748120Y-53030228D01*
X107748120Y-53030228D02*
X107605263Y-53315942D01*
X107605263Y-53315942D02*
X107605263Y-54030228D01*
X107605263Y-54030228D02*
X107748120Y-54315942D01*
X107748120Y-54315942D02*
X107890978Y-54458800D01*
X107890978Y-54458800D02*
X108176692Y-54601657D01*
X108176692Y-54601657D02*
X108890978Y-54601657D01*
X108890978Y-54601657D02*
X109176692Y-54458800D01*
X109176692Y-54458800D02*
X109319549Y-54315942D01*
X91176692Y-54315942D02*
X91319549Y-54458800D01*
X91319549Y-54458800D02*
X91748121Y-54601657D01*
X91748121Y-54601657D02*
X92033835Y-54601657D01*
X92033835Y-54601657D02*
X92462406Y-54458800D01*
X92462406Y-54458800D02*
X92748121Y-54173085D01*
X92748121Y-54173085D02*
X92890978Y-53887371D01*
X92890978Y-53887371D02*
X93033835Y-53315942D01*
X93033835Y-53315942D02*
X93033835Y-52887371D01*
X93033835Y-52887371D02*
X92890978Y-52315942D01*
X92890978Y-52315942D02*
X92748121Y-52030228D01*
X92748121Y-52030228D02*
X92462406Y-51744514D01*
X92462406Y-51744514D02*
X92033835Y-51601657D01*
X92033835Y-51601657D02*
X91748121Y-51601657D01*
X91748121Y-51601657D02*
X91319549Y-51744514D01*
X91319549Y-51744514D02*
X91176692Y-51887371D01*
X89890978Y-54601657D02*
X89890978Y-51601657D01*
X88605264Y-54601657D02*
X88605264Y-53030228D01*
X88605264Y-53030228D02*
X88748121Y-52744514D01*
X88748121Y-52744514D02*
X89033835Y-52601657D01*
X89033835Y-52601657D02*
X89462406Y-52601657D01*
X89462406Y-52601657D02*
X89748121Y-52744514D01*
X89748121Y-52744514D02*
X89890978Y-52887371D01*
X87462406Y-51601657D02*
X85605263Y-51601657D01*
X85605263Y-51601657D02*
X86605263Y-52744514D01*
X86605263Y-52744514D02*
X86176692Y-52744514D01*
X86176692Y-52744514D02*
X85890978Y-52887371D01*
X85890978Y-52887371D02*
X85748120Y-53030228D01*
X85748120Y-53030228D02*
X85605263Y-53315942D01*
X85605263Y-53315942D02*
X85605263Y-54030228D01*
X85605263Y-54030228D02*
X85748120Y-54315942D01*
X85748120Y-54315942D02*
X85890978Y-54458800D01*
X85890978Y-54458800D02*
X86176692Y-54601657D01*
X86176692Y-54601657D02*
X87033835Y-54601657D01*
X87033835Y-54601657D02*
X87319549Y-54458800D01*
X87319549Y-54458800D02*
X87462406Y-54315942D01*
X124176692Y-54315942D02*
X124319549Y-54458800D01*
X124319549Y-54458800D02*
X124748121Y-54601657D01*
X124748121Y-54601657D02*
X125033835Y-54601657D01*
X125033835Y-54601657D02*
X125462406Y-54458800D01*
X125462406Y-54458800D02*
X125748121Y-54173085D01*
X125748121Y-54173085D02*
X125890978Y-53887371D01*
X125890978Y-53887371D02*
X126033835Y-53315942D01*
X126033835Y-53315942D02*
X126033835Y-52887371D01*
X126033835Y-52887371D02*
X125890978Y-52315942D01*
X125890978Y-52315942D02*
X125748121Y-52030228D01*
X125748121Y-52030228D02*
X125462406Y-51744514D01*
X125462406Y-51744514D02*
X125033835Y-51601657D01*
X125033835Y-51601657D02*
X124748121Y-51601657D01*
X124748121Y-51601657D02*
X124319549Y-51744514D01*
X124319549Y-51744514D02*
X124176692Y-51887371D01*
X122890978Y-54601657D02*
X122890978Y-51601657D01*
X121605264Y-54601657D02*
X121605264Y-53030228D01*
X121605264Y-53030228D02*
X121748121Y-52744514D01*
X121748121Y-52744514D02*
X122033835Y-52601657D01*
X122033835Y-52601657D02*
X122462406Y-52601657D01*
X122462406Y-52601657D02*
X122748121Y-52744514D01*
X122748121Y-52744514D02*
X122890978Y-52887371D01*
X118890978Y-51601657D02*
X119462406Y-51601657D01*
X119462406Y-51601657D02*
X119748120Y-51744514D01*
X119748120Y-51744514D02*
X119890978Y-51887371D01*
X119890978Y-51887371D02*
X120176692Y-52315942D01*
X120176692Y-52315942D02*
X120319549Y-52887371D01*
X120319549Y-52887371D02*
X120319549Y-54030228D01*
X120319549Y-54030228D02*
X120176692Y-54315942D01*
X120176692Y-54315942D02*
X120033835Y-54458800D01*
X120033835Y-54458800D02*
X119748120Y-54601657D01*
X119748120Y-54601657D02*
X119176692Y-54601657D01*
X119176692Y-54601657D02*
X118890978Y-54458800D01*
X118890978Y-54458800D02*
X118748120Y-54315942D01*
X118748120Y-54315942D02*
X118605263Y-54030228D01*
X118605263Y-54030228D02*
X118605263Y-53315942D01*
X118605263Y-53315942D02*
X118748120Y-53030228D01*
X118748120Y-53030228D02*
X118890978Y-52887371D01*
X118890978Y-52887371D02*
X119176692Y-52744514D01*
X119176692Y-52744514D02*
X119748120Y-52744514D01*
X119748120Y-52744514D02*
X120033835Y-52887371D01*
X120033835Y-52887371D02*
X120176692Y-53030228D01*
X120176692Y-53030228D02*
X120319549Y-53315942D01*
D10*
X123119047Y-90033483D02*
X123166666Y-89985864D01*
X123166666Y-89985864D02*
X123261904Y-89843007D01*
X123261904Y-89843007D02*
X123309523Y-89747769D01*
X123309523Y-89747769D02*
X123357142Y-89604912D01*
X123357142Y-89604912D02*
X123404761Y-89366816D01*
X123404761Y-89366816D02*
X123404761Y-89176340D01*
X123404761Y-89176340D02*
X123357142Y-88938245D01*
X123357142Y-88938245D02*
X123309523Y-88795388D01*
X123309523Y-88795388D02*
X123261904Y-88700150D01*
X123261904Y-88700150D02*
X123166666Y-88557292D01*
X123166666Y-88557292D02*
X123119047Y-88509673D01*
X122214285Y-89652531D02*
X122785713Y-89652531D01*
X122499999Y-89652531D02*
X122499999Y-88652531D01*
X122499999Y-88652531D02*
X122595237Y-88795388D01*
X122595237Y-88795388D02*
X122690475Y-88890626D01*
X122690475Y-88890626D02*
X122785713Y-88938245D01*
X121880951Y-90033483D02*
X121833332Y-89985864D01*
X121833332Y-89985864D02*
X121738094Y-89843007D01*
X121738094Y-89843007D02*
X121690475Y-89747769D01*
X121690475Y-89747769D02*
X121642856Y-89604912D01*
X121642856Y-89604912D02*
X121595237Y-89366816D01*
X121595237Y-89366816D02*
X121595237Y-89176340D01*
X121595237Y-89176340D02*
X121642856Y-88938245D01*
X121642856Y-88938245D02*
X121690475Y-88795388D01*
X121690475Y-88795388D02*
X121738094Y-88700150D01*
X121738094Y-88700150D02*
X121833332Y-88557292D01*
X121833332Y-88557292D02*
X121880951Y-88509673D01*
X124547618Y-90262475D02*
X124452380Y-90262475D01*
X124452380Y-90262475D02*
X124357142Y-90310094D01*
X124357142Y-90310094D02*
X124309523Y-90357713D01*
X124309523Y-90357713D02*
X124261904Y-90452951D01*
X124261904Y-90452951D02*
X124214285Y-90643427D01*
X124214285Y-90643427D02*
X124214285Y-90881522D01*
X124214285Y-90881522D02*
X124261904Y-91071998D01*
X124261904Y-91071998D02*
X124309523Y-91167236D01*
X124309523Y-91167236D02*
X124357142Y-91214856D01*
X124357142Y-91214856D02*
X124452380Y-91262475D01*
X124452380Y-91262475D02*
X124547618Y-91262475D01*
X124547618Y-91262475D02*
X124642856Y-91214856D01*
X124642856Y-91214856D02*
X124690475Y-91167236D01*
X124690475Y-91167236D02*
X124738094Y-91071998D01*
X124738094Y-91071998D02*
X124785713Y-90881522D01*
X124785713Y-90881522D02*
X124785713Y-90643427D01*
X124785713Y-90643427D02*
X124738094Y-90452951D01*
X124738094Y-90452951D02*
X124690475Y-90357713D01*
X124690475Y-90357713D02*
X124642856Y-90310094D01*
X124642856Y-90310094D02*
X124547618Y-90262475D01*
X123785713Y-90881522D02*
X123023809Y-90881522D01*
X122023809Y-91262475D02*
X122595237Y-91262475D01*
X122309523Y-91262475D02*
X122309523Y-90262475D01*
X122309523Y-90262475D02*
X122404761Y-90405332D01*
X122404761Y-90405332D02*
X122499999Y-90500570D01*
X122499999Y-90500570D02*
X122595237Y-90548189D01*
X121404761Y-90262475D02*
X121309523Y-90262475D01*
X121309523Y-90262475D02*
X121214285Y-90310094D01*
X121214285Y-90310094D02*
X121166666Y-90357713D01*
X121166666Y-90357713D02*
X121119047Y-90452951D01*
X121119047Y-90452951D02*
X121071428Y-90643427D01*
X121071428Y-90643427D02*
X121071428Y-90881522D01*
X121071428Y-90881522D02*
X121119047Y-91071998D01*
X121119047Y-91071998D02*
X121166666Y-91167236D01*
X121166666Y-91167236D02*
X121214285Y-91214856D01*
X121214285Y-91214856D02*
X121309523Y-91262475D01*
X121309523Y-91262475D02*
X121404761Y-91262475D01*
X121404761Y-91262475D02*
X121499999Y-91214856D01*
X121499999Y-91214856D02*
X121547618Y-91167236D01*
X121547618Y-91167236D02*
X121595237Y-91071998D01*
X121595237Y-91071998D02*
X121642856Y-90881522D01*
X121642856Y-90881522D02*
X121642856Y-90643427D01*
X121642856Y-90643427D02*
X121595237Y-90452951D01*
X121595237Y-90452951D02*
X121547618Y-90357713D01*
X121547618Y-90357713D02*
X121499999Y-90310094D01*
X121499999Y-90310094D02*
X121404761Y-90262475D01*
X120785713Y-90262475D02*
X120452380Y-91262475D01*
X120452380Y-91262475D02*
X120119047Y-90262475D01*
X124809523Y-92586704D02*
X124333333Y-92586704D01*
X124904761Y-92872419D02*
X124571428Y-91872419D01*
X124571428Y-91872419D02*
X124238095Y-92872419D01*
X123904761Y-92205752D02*
X123904761Y-92872419D01*
X123904761Y-92300990D02*
X123857142Y-92253371D01*
X123857142Y-92253371D02*
X123761904Y-92205752D01*
X123761904Y-92205752D02*
X123619047Y-92205752D01*
X123619047Y-92205752D02*
X123523809Y-92253371D01*
X123523809Y-92253371D02*
X123476190Y-92348609D01*
X123476190Y-92348609D02*
X123476190Y-92872419D01*
X122571428Y-92872419D02*
X122571428Y-92348609D01*
X122571428Y-92348609D02*
X122619047Y-92253371D01*
X122619047Y-92253371D02*
X122714285Y-92205752D01*
X122714285Y-92205752D02*
X122904761Y-92205752D01*
X122904761Y-92205752D02*
X122999999Y-92253371D01*
X122571428Y-92824800D02*
X122666666Y-92872419D01*
X122666666Y-92872419D02*
X122904761Y-92872419D01*
X122904761Y-92872419D02*
X122999999Y-92824800D01*
X122999999Y-92824800D02*
X123047618Y-92729561D01*
X123047618Y-92729561D02*
X123047618Y-92634323D01*
X123047618Y-92634323D02*
X122999999Y-92539085D01*
X122999999Y-92539085D02*
X122904761Y-92491466D01*
X122904761Y-92491466D02*
X122666666Y-92491466D01*
X122666666Y-92491466D02*
X122571428Y-92443847D01*
X121952380Y-92872419D02*
X122047618Y-92824800D01*
X122047618Y-92824800D02*
X122095237Y-92729561D01*
X122095237Y-92729561D02*
X122095237Y-91872419D01*
X121428570Y-92872419D02*
X121523808Y-92824800D01*
X121523808Y-92824800D02*
X121571427Y-92777180D01*
X121571427Y-92777180D02*
X121619046Y-92681942D01*
X121619046Y-92681942D02*
X121619046Y-92396228D01*
X121619046Y-92396228D02*
X121571427Y-92300990D01*
X121571427Y-92300990D02*
X121523808Y-92253371D01*
X121523808Y-92253371D02*
X121428570Y-92205752D01*
X121428570Y-92205752D02*
X121285713Y-92205752D01*
X121285713Y-92205752D02*
X121190475Y-92253371D01*
X121190475Y-92253371D02*
X121142856Y-92300990D01*
X121142856Y-92300990D02*
X121095237Y-92396228D01*
X121095237Y-92396228D02*
X121095237Y-92681942D01*
X121095237Y-92681942D02*
X121142856Y-92777180D01*
X121142856Y-92777180D02*
X121190475Y-92824800D01*
X121190475Y-92824800D02*
X121285713Y-92872419D01*
X121285713Y-92872419D02*
X121428570Y-92872419D01*
X120238094Y-92205752D02*
X120238094Y-93015276D01*
X120238094Y-93015276D02*
X120285713Y-93110514D01*
X120285713Y-93110514D02*
X120333332Y-93158133D01*
X120333332Y-93158133D02*
X120428570Y-93205752D01*
X120428570Y-93205752D02*
X120571427Y-93205752D01*
X120571427Y-93205752D02*
X120666665Y-93158133D01*
X120238094Y-92824800D02*
X120333332Y-92872419D01*
X120333332Y-92872419D02*
X120523808Y-92872419D01*
X120523808Y-92872419D02*
X120619046Y-92824800D01*
X120619046Y-92824800D02*
X120666665Y-92777180D01*
X120666665Y-92777180D02*
X120714284Y-92681942D01*
X120714284Y-92681942D02*
X120714284Y-92396228D01*
X120714284Y-92396228D02*
X120666665Y-92300990D01*
X120666665Y-92300990D02*
X120619046Y-92253371D01*
X120619046Y-92253371D02*
X120523808Y-92205752D01*
X120523808Y-92205752D02*
X120333332Y-92205752D01*
X120333332Y-92205752D02*
X120238094Y-92253371D01*
X129119047Y-90143427D02*
X129166666Y-90095808D01*
X129166666Y-90095808D02*
X129261904Y-89952951D01*
X129261904Y-89952951D02*
X129309523Y-89857713D01*
X129309523Y-89857713D02*
X129357142Y-89714856D01*
X129357142Y-89714856D02*
X129404761Y-89476760D01*
X129404761Y-89476760D02*
X129404761Y-89286284D01*
X129404761Y-89286284D02*
X129357142Y-89048189D01*
X129357142Y-89048189D02*
X129309523Y-88905332D01*
X129309523Y-88905332D02*
X129261904Y-88810094D01*
X129261904Y-88810094D02*
X129166666Y-88667236D01*
X129166666Y-88667236D02*
X129119047Y-88619617D01*
X128785713Y-88857713D02*
X128738094Y-88810094D01*
X128738094Y-88810094D02*
X128642856Y-88762475D01*
X128642856Y-88762475D02*
X128404761Y-88762475D01*
X128404761Y-88762475D02*
X128309523Y-88810094D01*
X128309523Y-88810094D02*
X128261904Y-88857713D01*
X128261904Y-88857713D02*
X128214285Y-88952951D01*
X128214285Y-88952951D02*
X128214285Y-89048189D01*
X128214285Y-89048189D02*
X128261904Y-89191046D01*
X128261904Y-89191046D02*
X128833332Y-89762475D01*
X128833332Y-89762475D02*
X128214285Y-89762475D01*
X127880951Y-90143427D02*
X127833332Y-90095808D01*
X127833332Y-90095808D02*
X127738094Y-89952951D01*
X127738094Y-89952951D02*
X127690475Y-89857713D01*
X127690475Y-89857713D02*
X127642856Y-89714856D01*
X127642856Y-89714856D02*
X127595237Y-89476760D01*
X127595237Y-89476760D02*
X127595237Y-89286284D01*
X127595237Y-89286284D02*
X127642856Y-89048189D01*
X127642856Y-89048189D02*
X127690475Y-88905332D01*
X127690475Y-88905332D02*
X127738094Y-88810094D01*
X127738094Y-88810094D02*
X127833332Y-88667236D01*
X127833332Y-88667236D02*
X127880951Y-88619617D01*
X129261904Y-90420038D02*
X129357142Y-90372419D01*
X129357142Y-90372419D02*
X129499999Y-90372419D01*
X129499999Y-90372419D02*
X129642856Y-90420038D01*
X129642856Y-90420038D02*
X129738094Y-90515276D01*
X129738094Y-90515276D02*
X129785713Y-90610514D01*
X129785713Y-90610514D02*
X129833332Y-90800990D01*
X129833332Y-90800990D02*
X129833332Y-90943847D01*
X129833332Y-90943847D02*
X129785713Y-91134323D01*
X129785713Y-91134323D02*
X129738094Y-91229561D01*
X129738094Y-91229561D02*
X129642856Y-91324800D01*
X129642856Y-91324800D02*
X129499999Y-91372419D01*
X129499999Y-91372419D02*
X129404761Y-91372419D01*
X129404761Y-91372419D02*
X129261904Y-91324800D01*
X129261904Y-91324800D02*
X129214285Y-91277180D01*
X129214285Y-91277180D02*
X129214285Y-90943847D01*
X129214285Y-90943847D02*
X129404761Y-90943847D01*
X128785713Y-91372419D02*
X128785713Y-90372419D01*
X128785713Y-90372419D02*
X128214285Y-91372419D01*
X128214285Y-91372419D02*
X128214285Y-90372419D01*
X127738094Y-91372419D02*
X127738094Y-90372419D01*
X127738094Y-90372419D02*
X127499999Y-90372419D01*
X127499999Y-90372419D02*
X127357142Y-90420038D01*
X127357142Y-90420038D02*
X127261904Y-90515276D01*
X127261904Y-90515276D02*
X127214285Y-90610514D01*
X127214285Y-90610514D02*
X127166666Y-90800990D01*
X127166666Y-90800990D02*
X127166666Y-90943847D01*
X127166666Y-90943847D02*
X127214285Y-91134323D01*
X127214285Y-91134323D02*
X127261904Y-91229561D01*
X127261904Y-91229561D02*
X127357142Y-91324800D01*
X127357142Y-91324800D02*
X127499999Y-91372419D01*
X127499999Y-91372419D02*
X127738094Y-91372419D01*
X129119047Y-84643427D02*
X129166666Y-84595808D01*
X129166666Y-84595808D02*
X129261904Y-84452951D01*
X129261904Y-84452951D02*
X129309523Y-84357713D01*
X129309523Y-84357713D02*
X129357142Y-84214856D01*
X129357142Y-84214856D02*
X129404761Y-83976760D01*
X129404761Y-83976760D02*
X129404761Y-83786284D01*
X129404761Y-83786284D02*
X129357142Y-83548189D01*
X129357142Y-83548189D02*
X129309523Y-83405332D01*
X129309523Y-83405332D02*
X129261904Y-83310094D01*
X129261904Y-83310094D02*
X129166666Y-83167236D01*
X129166666Y-83167236D02*
X129119047Y-83119617D01*
X128309523Y-83595808D02*
X128309523Y-84262475D01*
X128547618Y-83214856D02*
X128785713Y-83929141D01*
X128785713Y-83929141D02*
X128166666Y-83929141D01*
X127880951Y-84643427D02*
X127833332Y-84595808D01*
X127833332Y-84595808D02*
X127738094Y-84452951D01*
X127738094Y-84452951D02*
X127690475Y-84357713D01*
X127690475Y-84357713D02*
X127642856Y-84214856D01*
X127642856Y-84214856D02*
X127595237Y-83976760D01*
X127595237Y-83976760D02*
X127595237Y-83786284D01*
X127595237Y-83786284D02*
X127642856Y-83548189D01*
X127642856Y-83548189D02*
X127690475Y-83405332D01*
X127690475Y-83405332D02*
X127738094Y-83310094D01*
X127738094Y-83310094D02*
X127833332Y-83167236D01*
X127833332Y-83167236D02*
X127880951Y-83119617D01*
X129285713Y-85872419D02*
X129285713Y-84872419D01*
X129285713Y-84872419D02*
X128714285Y-85872419D01*
X128714285Y-85872419D02*
X128714285Y-84872419D01*
X127666666Y-85777180D02*
X127714285Y-85824800D01*
X127714285Y-85824800D02*
X127857142Y-85872419D01*
X127857142Y-85872419D02*
X127952380Y-85872419D01*
X127952380Y-85872419D02*
X128095237Y-85824800D01*
X128095237Y-85824800D02*
X128190475Y-85729561D01*
X128190475Y-85729561D02*
X128238094Y-85634323D01*
X128238094Y-85634323D02*
X128285713Y-85443847D01*
X128285713Y-85443847D02*
X128285713Y-85300990D01*
X128285713Y-85300990D02*
X128238094Y-85110514D01*
X128238094Y-85110514D02*
X128190475Y-85015276D01*
X128190475Y-85015276D02*
X128095237Y-84920038D01*
X128095237Y-84920038D02*
X127952380Y-84872419D01*
X127952380Y-84872419D02*
X127857142Y-84872419D01*
X127857142Y-84872419D02*
X127714285Y-84920038D01*
X127714285Y-84920038D02*
X127666666Y-84967657D01*
X136696115Y-96262475D02*
X136696115Y-95262475D01*
X136696115Y-95262475D02*
X136362782Y-95976760D01*
X136362782Y-95976760D02*
X136029449Y-95262475D01*
X136029449Y-95262475D02*
X136029449Y-96262475D01*
X135124687Y-96262475D02*
X135124687Y-95738665D01*
X135124687Y-95738665D02*
X135172306Y-95643427D01*
X135172306Y-95643427D02*
X135267544Y-95595808D01*
X135267544Y-95595808D02*
X135458020Y-95595808D01*
X135458020Y-95595808D02*
X135553258Y-95643427D01*
X135124687Y-96214856D02*
X135219925Y-96262475D01*
X135219925Y-96262475D02*
X135458020Y-96262475D01*
X135458020Y-96262475D02*
X135553258Y-96214856D01*
X135553258Y-96214856D02*
X135600877Y-96119617D01*
X135600877Y-96119617D02*
X135600877Y-96024379D01*
X135600877Y-96024379D02*
X135553258Y-95929141D01*
X135553258Y-95929141D02*
X135458020Y-95881522D01*
X135458020Y-95881522D02*
X135219925Y-95881522D01*
X135219925Y-95881522D02*
X135124687Y-95833903D01*
X134791353Y-95595808D02*
X134410401Y-95595808D01*
X134648496Y-95262475D02*
X134648496Y-96119617D01*
X134648496Y-96119617D02*
X134600877Y-96214856D01*
X134600877Y-96214856D02*
X134505639Y-96262475D01*
X134505639Y-96262475D02*
X134410401Y-96262475D01*
X133696115Y-96214856D02*
X133791353Y-96262475D01*
X133791353Y-96262475D02*
X133981829Y-96262475D01*
X133981829Y-96262475D02*
X134077067Y-96214856D01*
X134077067Y-96214856D02*
X134124686Y-96119617D01*
X134124686Y-96119617D02*
X134124686Y-95738665D01*
X134124686Y-95738665D02*
X134077067Y-95643427D01*
X134077067Y-95643427D02*
X133981829Y-95595808D01*
X133981829Y-95595808D02*
X133791353Y-95595808D01*
X133791353Y-95595808D02*
X133696115Y-95643427D01*
X133696115Y-95643427D02*
X133648496Y-95738665D01*
X133648496Y-95738665D02*
X133648496Y-95833903D01*
X133648496Y-95833903D02*
X134124686Y-95929141D01*
X133267543Y-96214856D02*
X133172305Y-96262475D01*
X133172305Y-96262475D02*
X132981829Y-96262475D01*
X132981829Y-96262475D02*
X132886591Y-96214856D01*
X132886591Y-96214856D02*
X132838972Y-96119617D01*
X132838972Y-96119617D02*
X132838972Y-96071998D01*
X132838972Y-96071998D02*
X132886591Y-95976760D01*
X132886591Y-95976760D02*
X132981829Y-95929141D01*
X132981829Y-95929141D02*
X133124686Y-95929141D01*
X133124686Y-95929141D02*
X133219924Y-95881522D01*
X133219924Y-95881522D02*
X133267543Y-95786284D01*
X133267543Y-95786284D02*
X133267543Y-95738665D01*
X133267543Y-95738665D02*
X133219924Y-95643427D01*
X133219924Y-95643427D02*
X133124686Y-95595808D01*
X133124686Y-95595808D02*
X132981829Y-95595808D01*
X132981829Y-95595808D02*
X132886591Y-95643427D01*
X131743733Y-95595808D02*
X131553257Y-96262475D01*
X131553257Y-96262475D02*
X131362781Y-95786284D01*
X131362781Y-95786284D02*
X131172305Y-96262475D01*
X131172305Y-96262475D02*
X130981829Y-95595808D01*
X130600876Y-96262475D02*
X130600876Y-95595808D01*
X130600876Y-95262475D02*
X130648495Y-95310094D01*
X130648495Y-95310094D02*
X130600876Y-95357713D01*
X130600876Y-95357713D02*
X130553257Y-95310094D01*
X130553257Y-95310094D02*
X130600876Y-95262475D01*
X130600876Y-95262475D02*
X130600876Y-95357713D01*
X130267543Y-95595808D02*
X129886591Y-95595808D01*
X130124686Y-95262475D02*
X130124686Y-96119617D01*
X130124686Y-96119617D02*
X130077067Y-96214856D01*
X130077067Y-96214856D02*
X129981829Y-96262475D01*
X129981829Y-96262475D02*
X129886591Y-96262475D01*
X129553257Y-96262475D02*
X129553257Y-95262475D01*
X129124686Y-96262475D02*
X129124686Y-95738665D01*
X129124686Y-95738665D02*
X129172305Y-95643427D01*
X129172305Y-95643427D02*
X129267543Y-95595808D01*
X129267543Y-95595808D02*
X129410400Y-95595808D01*
X129410400Y-95595808D02*
X129505638Y-95643427D01*
X129505638Y-95643427D02*
X129553257Y-95691046D01*
X127886590Y-96262475D02*
X127886590Y-95262475D01*
X127886590Y-95262475D02*
X127553257Y-95976760D01*
X127553257Y-95976760D02*
X127219924Y-95262475D01*
X127219924Y-95262475D02*
X127219924Y-96262475D01*
X126743733Y-96262475D02*
X126743733Y-95595808D01*
X126743733Y-95262475D02*
X126791352Y-95310094D01*
X126791352Y-95310094D02*
X126743733Y-95357713D01*
X126743733Y-95357713D02*
X126696114Y-95310094D01*
X126696114Y-95310094D02*
X126743733Y-95262475D01*
X126743733Y-95262475D02*
X126743733Y-95357713D01*
X126267543Y-95595808D02*
X126267543Y-96262475D01*
X126267543Y-95691046D02*
X126219924Y-95643427D01*
X126219924Y-95643427D02*
X126124686Y-95595808D01*
X126124686Y-95595808D02*
X125981829Y-95595808D01*
X125981829Y-95595808D02*
X125886591Y-95643427D01*
X125886591Y-95643427D02*
X125838972Y-95738665D01*
X125838972Y-95738665D02*
X125838972Y-96262475D01*
X125362781Y-96262475D02*
X125362781Y-95595808D01*
X125362781Y-95262475D02*
X125410400Y-95310094D01*
X125410400Y-95310094D02*
X125362781Y-95357713D01*
X125362781Y-95357713D02*
X125315162Y-95310094D01*
X125315162Y-95310094D02*
X125362781Y-95262475D01*
X125362781Y-95262475D02*
X125362781Y-95357713D01*
X124886591Y-95881522D02*
X124124687Y-95881522D01*
X123315163Y-95738665D02*
X123648496Y-95738665D01*
X123648496Y-96262475D02*
X123648496Y-95262475D01*
X123648496Y-95262475D02*
X123172306Y-95262475D01*
X122791353Y-96262475D02*
X122791353Y-95595808D01*
X122791353Y-95262475D02*
X122838972Y-95310094D01*
X122838972Y-95310094D02*
X122791353Y-95357713D01*
X122791353Y-95357713D02*
X122743734Y-95310094D01*
X122743734Y-95310094D02*
X122791353Y-95262475D01*
X122791353Y-95262475D02*
X122791353Y-95357713D01*
X122458020Y-95595808D02*
X122077068Y-95595808D01*
X122315163Y-95262475D02*
X122315163Y-96119617D01*
X122315163Y-96119617D02*
X122267544Y-96214856D01*
X122267544Y-96214856D02*
X122172306Y-96262475D01*
X122172306Y-96262475D02*
X122077068Y-96262475D01*
X120505639Y-95262475D02*
X120981829Y-95262475D01*
X120981829Y-95262475D02*
X121029448Y-95738665D01*
X121029448Y-95738665D02*
X120981829Y-95691046D01*
X120981829Y-95691046D02*
X120886591Y-95643427D01*
X120886591Y-95643427D02*
X120648496Y-95643427D01*
X120648496Y-95643427D02*
X120553258Y-95691046D01*
X120553258Y-95691046D02*
X120505639Y-95738665D01*
X120505639Y-95738665D02*
X120458020Y-95833903D01*
X120458020Y-95833903D02*
X120458020Y-96071998D01*
X120458020Y-96071998D02*
X120505639Y-96167236D01*
X120505639Y-96167236D02*
X120553258Y-96214856D01*
X120553258Y-96214856D02*
X120648496Y-96262475D01*
X120648496Y-96262475D02*
X120886591Y-96262475D01*
X120886591Y-96262475D02*
X120981829Y-96214856D01*
X120981829Y-96214856D02*
X121029448Y-96167236D01*
X119553258Y-95262475D02*
X120029448Y-95262475D01*
X120029448Y-95262475D02*
X120077067Y-95738665D01*
X120077067Y-95738665D02*
X120029448Y-95691046D01*
X120029448Y-95691046D02*
X119934210Y-95643427D01*
X119934210Y-95643427D02*
X119696115Y-95643427D01*
X119696115Y-95643427D02*
X119600877Y-95691046D01*
X119600877Y-95691046D02*
X119553258Y-95738665D01*
X119553258Y-95738665D02*
X119505639Y-95833903D01*
X119505639Y-95833903D02*
X119505639Y-96071998D01*
X119505639Y-96071998D02*
X119553258Y-96167236D01*
X119553258Y-96167236D02*
X119600877Y-96214856D01*
X119600877Y-96214856D02*
X119696115Y-96262475D01*
X119696115Y-96262475D02*
X119934210Y-96262475D01*
X119934210Y-96262475D02*
X120029448Y-96214856D01*
X120029448Y-96214856D02*
X120077067Y-96167236D01*
X118600877Y-95262475D02*
X119077067Y-95262475D01*
X119077067Y-95262475D02*
X119124686Y-95738665D01*
X119124686Y-95738665D02*
X119077067Y-95691046D01*
X119077067Y-95691046D02*
X118981829Y-95643427D01*
X118981829Y-95643427D02*
X118743734Y-95643427D01*
X118743734Y-95643427D02*
X118648496Y-95691046D01*
X118648496Y-95691046D02*
X118600877Y-95738665D01*
X118600877Y-95738665D02*
X118553258Y-95833903D01*
X118553258Y-95833903D02*
X118553258Y-96071998D01*
X118553258Y-96071998D02*
X118600877Y-96167236D01*
X118600877Y-96167236D02*
X118648496Y-96214856D01*
X118648496Y-96214856D02*
X118743734Y-96262475D01*
X118743734Y-96262475D02*
X118981829Y-96262475D01*
X118981829Y-96262475D02*
X119077067Y-96214856D01*
X119077067Y-96214856D02*
X119124686Y-96167236D01*
X118219924Y-95262475D02*
X117553258Y-95262475D01*
X117553258Y-95262475D02*
X117981829Y-96262475D01*
X116458019Y-96214856D02*
X116362781Y-96262475D01*
X116362781Y-96262475D02*
X116172305Y-96262475D01*
X116172305Y-96262475D02*
X116077067Y-96214856D01*
X116077067Y-96214856D02*
X116029448Y-96119617D01*
X116029448Y-96119617D02*
X116029448Y-96071998D01*
X116029448Y-96071998D02*
X116077067Y-95976760D01*
X116077067Y-95976760D02*
X116172305Y-95929141D01*
X116172305Y-95929141D02*
X116315162Y-95929141D01*
X116315162Y-95929141D02*
X116410400Y-95881522D01*
X116410400Y-95881522D02*
X116458019Y-95786284D01*
X116458019Y-95786284D02*
X116458019Y-95738665D01*
X116458019Y-95738665D02*
X116410400Y-95643427D01*
X116410400Y-95643427D02*
X116315162Y-95595808D01*
X116315162Y-95595808D02*
X116172305Y-95595808D01*
X116172305Y-95595808D02*
X116077067Y-95643427D01*
X115219924Y-96214856D02*
X115315162Y-96262475D01*
X115315162Y-96262475D02*
X115505638Y-96262475D01*
X115505638Y-96262475D02*
X115600876Y-96214856D01*
X115600876Y-96214856D02*
X115648495Y-96119617D01*
X115648495Y-96119617D02*
X115648495Y-95738665D01*
X115648495Y-95738665D02*
X115600876Y-95643427D01*
X115600876Y-95643427D02*
X115505638Y-95595808D01*
X115505638Y-95595808D02*
X115315162Y-95595808D01*
X115315162Y-95595808D02*
X115219924Y-95643427D01*
X115219924Y-95643427D02*
X115172305Y-95738665D01*
X115172305Y-95738665D02*
X115172305Y-95833903D01*
X115172305Y-95833903D02*
X115648495Y-95929141D01*
X114743733Y-96262475D02*
X114743733Y-95595808D01*
X114743733Y-95786284D02*
X114696114Y-95691046D01*
X114696114Y-95691046D02*
X114648495Y-95643427D01*
X114648495Y-95643427D02*
X114553257Y-95595808D01*
X114553257Y-95595808D02*
X114458019Y-95595808D01*
X114124685Y-96262475D02*
X114124685Y-95595808D01*
X114124685Y-95262475D02*
X114172304Y-95310094D01*
X114172304Y-95310094D02*
X114124685Y-95357713D01*
X114124685Y-95357713D02*
X114077066Y-95310094D01*
X114077066Y-95310094D02*
X114124685Y-95262475D01*
X114124685Y-95262475D02*
X114124685Y-95357713D01*
X113267543Y-96214856D02*
X113362781Y-96262475D01*
X113362781Y-96262475D02*
X113553257Y-96262475D01*
X113553257Y-96262475D02*
X113648495Y-96214856D01*
X113648495Y-96214856D02*
X113696114Y-96119617D01*
X113696114Y-96119617D02*
X113696114Y-95738665D01*
X113696114Y-95738665D02*
X113648495Y-95643427D01*
X113648495Y-95643427D02*
X113553257Y-95595808D01*
X113553257Y-95595808D02*
X113362781Y-95595808D01*
X113362781Y-95595808D02*
X113267543Y-95643427D01*
X113267543Y-95643427D02*
X113219924Y-95738665D01*
X113219924Y-95738665D02*
X113219924Y-95833903D01*
X113219924Y-95833903D02*
X113696114Y-95929141D01*
X112838971Y-96214856D02*
X112743733Y-96262475D01*
X112743733Y-96262475D02*
X112553257Y-96262475D01*
X112553257Y-96262475D02*
X112458019Y-96214856D01*
X112458019Y-96214856D02*
X112410400Y-96119617D01*
X112410400Y-96119617D02*
X112410400Y-96071998D01*
X112410400Y-96071998D02*
X112458019Y-95976760D01*
X112458019Y-95976760D02*
X112553257Y-95929141D01*
X112553257Y-95929141D02*
X112696114Y-95929141D01*
X112696114Y-95929141D02*
X112791352Y-95881522D01*
X112791352Y-95881522D02*
X112838971Y-95786284D01*
X112838971Y-95786284D02*
X112838971Y-95738665D01*
X112838971Y-95738665D02*
X112791352Y-95643427D01*
X112791352Y-95643427D02*
X112696114Y-95595808D01*
X112696114Y-95595808D02*
X112553257Y-95595808D01*
X112553257Y-95595808D02*
X112458019Y-95643427D01*
X136410401Y-98253371D02*
X136458020Y-98205752D01*
X136458020Y-98205752D02*
X136553258Y-98062895D01*
X136553258Y-98062895D02*
X136600877Y-97967657D01*
X136600877Y-97967657D02*
X136648496Y-97824800D01*
X136648496Y-97824800D02*
X136696115Y-97586704D01*
X136696115Y-97586704D02*
X136696115Y-97396228D01*
X136696115Y-97396228D02*
X136648496Y-97158133D01*
X136648496Y-97158133D02*
X136600877Y-97015276D01*
X136600877Y-97015276D02*
X136553258Y-96920038D01*
X136553258Y-96920038D02*
X136458020Y-96777180D01*
X136458020Y-96777180D02*
X136410401Y-96729561D01*
X135648496Y-97824800D02*
X135743734Y-97872419D01*
X135743734Y-97872419D02*
X135934210Y-97872419D01*
X135934210Y-97872419D02*
X136029448Y-97824800D01*
X136029448Y-97824800D02*
X136077067Y-97729561D01*
X136077067Y-97729561D02*
X136077067Y-97348609D01*
X136077067Y-97348609D02*
X136029448Y-97253371D01*
X136029448Y-97253371D02*
X135934210Y-97205752D01*
X135934210Y-97205752D02*
X135743734Y-97205752D01*
X135743734Y-97205752D02*
X135648496Y-97253371D01*
X135648496Y-97253371D02*
X135600877Y-97348609D01*
X135600877Y-97348609D02*
X135600877Y-97443847D01*
X135600877Y-97443847D02*
X136077067Y-97539085D01*
X135172305Y-97777180D02*
X135124686Y-97824800D01*
X135124686Y-97824800D02*
X135172305Y-97872419D01*
X135172305Y-97872419D02*
X135219924Y-97824800D01*
X135219924Y-97824800D02*
X135172305Y-97777180D01*
X135172305Y-97777180D02*
X135172305Y-97872419D01*
X134267544Y-97205752D02*
X134267544Y-98015276D01*
X134267544Y-98015276D02*
X134315163Y-98110514D01*
X134315163Y-98110514D02*
X134362782Y-98158133D01*
X134362782Y-98158133D02*
X134458020Y-98205752D01*
X134458020Y-98205752D02*
X134600877Y-98205752D01*
X134600877Y-98205752D02*
X134696115Y-98158133D01*
X134267544Y-97824800D02*
X134362782Y-97872419D01*
X134362782Y-97872419D02*
X134553258Y-97872419D01*
X134553258Y-97872419D02*
X134648496Y-97824800D01*
X134648496Y-97824800D02*
X134696115Y-97777180D01*
X134696115Y-97777180D02*
X134743734Y-97681942D01*
X134743734Y-97681942D02*
X134743734Y-97396228D01*
X134743734Y-97396228D02*
X134696115Y-97300990D01*
X134696115Y-97300990D02*
X134648496Y-97253371D01*
X134648496Y-97253371D02*
X134553258Y-97205752D01*
X134553258Y-97205752D02*
X134362782Y-97205752D01*
X134362782Y-97205752D02*
X134267544Y-97253371D01*
X133791353Y-97777180D02*
X133743734Y-97824800D01*
X133743734Y-97824800D02*
X133791353Y-97872419D01*
X133791353Y-97872419D02*
X133838972Y-97824800D01*
X133838972Y-97824800D02*
X133791353Y-97777180D01*
X133791353Y-97777180D02*
X133791353Y-97872419D01*
X132648496Y-96872419D02*
X132029449Y-96872419D01*
X132029449Y-96872419D02*
X132362782Y-97253371D01*
X132362782Y-97253371D02*
X132219925Y-97253371D01*
X132219925Y-97253371D02*
X132124687Y-97300990D01*
X132124687Y-97300990D02*
X132077068Y-97348609D01*
X132077068Y-97348609D02*
X132029449Y-97443847D01*
X132029449Y-97443847D02*
X132029449Y-97681942D01*
X132029449Y-97681942D02*
X132077068Y-97777180D01*
X132077068Y-97777180D02*
X132124687Y-97824800D01*
X132124687Y-97824800D02*
X132219925Y-97872419D01*
X132219925Y-97872419D02*
X132505639Y-97872419D01*
X132505639Y-97872419D02*
X132600877Y-97824800D01*
X132600877Y-97824800D02*
X132648496Y-97777180D01*
X131553258Y-97872419D02*
X131362782Y-97872419D01*
X131362782Y-97872419D02*
X131267544Y-97824800D01*
X131267544Y-97824800D02*
X131219925Y-97777180D01*
X131219925Y-97777180D02*
X131124687Y-97634323D01*
X131124687Y-97634323D02*
X131077068Y-97443847D01*
X131077068Y-97443847D02*
X131077068Y-97062895D01*
X131077068Y-97062895D02*
X131124687Y-96967657D01*
X131124687Y-96967657D02*
X131172306Y-96920038D01*
X131172306Y-96920038D02*
X131267544Y-96872419D01*
X131267544Y-96872419D02*
X131458020Y-96872419D01*
X131458020Y-96872419D02*
X131553258Y-96920038D01*
X131553258Y-96920038D02*
X131600877Y-96967657D01*
X131600877Y-96967657D02*
X131648496Y-97062895D01*
X131648496Y-97062895D02*
X131648496Y-97300990D01*
X131648496Y-97300990D02*
X131600877Y-97396228D01*
X131600877Y-97396228D02*
X131553258Y-97443847D01*
X131553258Y-97443847D02*
X131458020Y-97491466D01*
X131458020Y-97491466D02*
X131267544Y-97491466D01*
X131267544Y-97491466D02*
X131172306Y-97443847D01*
X131172306Y-97443847D02*
X131124687Y-97396228D01*
X131124687Y-97396228D02*
X131077068Y-97300990D01*
X130458020Y-96872419D02*
X130362782Y-96872419D01*
X130362782Y-96872419D02*
X130267544Y-96920038D01*
X130267544Y-96920038D02*
X130219925Y-96967657D01*
X130219925Y-96967657D02*
X130172306Y-97062895D01*
X130172306Y-97062895D02*
X130124687Y-97253371D01*
X130124687Y-97253371D02*
X130124687Y-97491466D01*
X130124687Y-97491466D02*
X130172306Y-97681942D01*
X130172306Y-97681942D02*
X130219925Y-97777180D01*
X130219925Y-97777180D02*
X130267544Y-97824800D01*
X130267544Y-97824800D02*
X130362782Y-97872419D01*
X130362782Y-97872419D02*
X130458020Y-97872419D01*
X130458020Y-97872419D02*
X130553258Y-97824800D01*
X130553258Y-97824800D02*
X130600877Y-97777180D01*
X130600877Y-97777180D02*
X130648496Y-97681942D01*
X130648496Y-97681942D02*
X130696115Y-97491466D01*
X130696115Y-97491466D02*
X130696115Y-97253371D01*
X130696115Y-97253371D02*
X130648496Y-97062895D01*
X130648496Y-97062895D02*
X130600877Y-96967657D01*
X130600877Y-96967657D02*
X130553258Y-96920038D01*
X130553258Y-96920038D02*
X130458020Y-96872419D01*
X129172306Y-97872419D02*
X129743734Y-97872419D01*
X129458020Y-97872419D02*
X129458020Y-96872419D01*
X129458020Y-96872419D02*
X129553258Y-97015276D01*
X129553258Y-97015276D02*
X129648496Y-97110514D01*
X129648496Y-97110514D02*
X129743734Y-97158133D01*
X128838972Y-96872419D02*
X128219925Y-96872419D01*
X128219925Y-96872419D02*
X128553258Y-97253371D01*
X128553258Y-97253371D02*
X128410401Y-97253371D01*
X128410401Y-97253371D02*
X128315163Y-97300990D01*
X128315163Y-97300990D02*
X128267544Y-97348609D01*
X128267544Y-97348609D02*
X128219925Y-97443847D01*
X128219925Y-97443847D02*
X128219925Y-97681942D01*
X128219925Y-97681942D02*
X128267544Y-97777180D01*
X128267544Y-97777180D02*
X128315163Y-97824800D01*
X128315163Y-97824800D02*
X128410401Y-97872419D01*
X128410401Y-97872419D02*
X128696115Y-97872419D01*
X128696115Y-97872419D02*
X128791353Y-97824800D01*
X128791353Y-97824800D02*
X128838972Y-97777180D01*
X127600877Y-96872419D02*
X127505639Y-96872419D01*
X127505639Y-96872419D02*
X127410401Y-96920038D01*
X127410401Y-96920038D02*
X127362782Y-96967657D01*
X127362782Y-96967657D02*
X127315163Y-97062895D01*
X127315163Y-97062895D02*
X127267544Y-97253371D01*
X127267544Y-97253371D02*
X127267544Y-97491466D01*
X127267544Y-97491466D02*
X127315163Y-97681942D01*
X127315163Y-97681942D02*
X127362782Y-97777180D01*
X127362782Y-97777180D02*
X127410401Y-97824800D01*
X127410401Y-97824800D02*
X127505639Y-97872419D01*
X127505639Y-97872419D02*
X127600877Y-97872419D01*
X127600877Y-97872419D02*
X127696115Y-97824800D01*
X127696115Y-97824800D02*
X127743734Y-97777180D01*
X127743734Y-97777180D02*
X127791353Y-97681942D01*
X127791353Y-97681942D02*
X127838972Y-97491466D01*
X127838972Y-97491466D02*
X127838972Y-97253371D01*
X127838972Y-97253371D02*
X127791353Y-97062895D01*
X127791353Y-97062895D02*
X127743734Y-96967657D01*
X127743734Y-96967657D02*
X127696115Y-96920038D01*
X127696115Y-96920038D02*
X127600877Y-96872419D01*
X126410401Y-97205752D02*
X126410401Y-97872419D01*
X126648496Y-96824800D02*
X126886591Y-97539085D01*
X126886591Y-97539085D02*
X126267544Y-97539085D01*
X125410401Y-96872419D02*
X125886591Y-96872419D01*
X125886591Y-96872419D02*
X125934210Y-97348609D01*
X125934210Y-97348609D02*
X125886591Y-97300990D01*
X125886591Y-97300990D02*
X125791353Y-97253371D01*
X125791353Y-97253371D02*
X125553258Y-97253371D01*
X125553258Y-97253371D02*
X125458020Y-97300990D01*
X125458020Y-97300990D02*
X125410401Y-97348609D01*
X125410401Y-97348609D02*
X125362782Y-97443847D01*
X125362782Y-97443847D02*
X125362782Y-97681942D01*
X125362782Y-97681942D02*
X125410401Y-97777180D01*
X125410401Y-97777180D02*
X125458020Y-97824800D01*
X125458020Y-97824800D02*
X125553258Y-97872419D01*
X125553258Y-97872419D02*
X125791353Y-97872419D01*
X125791353Y-97872419D02*
X125886591Y-97824800D01*
X125886591Y-97824800D02*
X125934210Y-97777180D01*
X125029448Y-98253371D02*
X124981829Y-98205752D01*
X124981829Y-98205752D02*
X124886591Y-98062895D01*
X124886591Y-98062895D02*
X124838972Y-97967657D01*
X124838972Y-97967657D02*
X124791353Y-97824800D01*
X124791353Y-97824800D02*
X124743734Y-97586704D01*
X124743734Y-97586704D02*
X124743734Y-97396228D01*
X124743734Y-97396228D02*
X124791353Y-97158133D01*
X124791353Y-97158133D02*
X124838972Y-97015276D01*
X124838972Y-97015276D02*
X124886591Y-96920038D01*
X124886591Y-96920038D02*
X124981829Y-96777180D01*
X124981829Y-96777180D02*
X125029448Y-96729561D01*
X136838972Y-98762475D02*
X136505639Y-99762475D01*
X136505639Y-99762475D02*
X136172306Y-98762475D01*
X135886591Y-99714856D02*
X135791353Y-99762475D01*
X135791353Y-99762475D02*
X135600877Y-99762475D01*
X135600877Y-99762475D02*
X135505639Y-99714856D01*
X135505639Y-99714856D02*
X135458020Y-99619617D01*
X135458020Y-99619617D02*
X135458020Y-99571998D01*
X135458020Y-99571998D02*
X135505639Y-99476760D01*
X135505639Y-99476760D02*
X135600877Y-99429141D01*
X135600877Y-99429141D02*
X135743734Y-99429141D01*
X135743734Y-99429141D02*
X135838972Y-99381522D01*
X135838972Y-99381522D02*
X135886591Y-99286284D01*
X135886591Y-99286284D02*
X135886591Y-99238665D01*
X135886591Y-99238665D02*
X135838972Y-99143427D01*
X135838972Y-99143427D02*
X135743734Y-99095808D01*
X135743734Y-99095808D02*
X135600877Y-99095808D01*
X135600877Y-99095808D02*
X135505639Y-99143427D01*
X134600877Y-99095808D02*
X134600877Y-99762475D01*
X135029448Y-99095808D02*
X135029448Y-99619617D01*
X135029448Y-99619617D02*
X134981829Y-99714856D01*
X134981829Y-99714856D02*
X134886591Y-99762475D01*
X134886591Y-99762475D02*
X134743734Y-99762475D01*
X134743734Y-99762475D02*
X134648496Y-99714856D01*
X134648496Y-99714856D02*
X134600877Y-99667236D01*
X134124686Y-99095808D02*
X134124686Y-100095808D01*
X134124686Y-99143427D02*
X134029448Y-99095808D01*
X134029448Y-99095808D02*
X133838972Y-99095808D01*
X133838972Y-99095808D02*
X133743734Y-99143427D01*
X133743734Y-99143427D02*
X133696115Y-99191046D01*
X133696115Y-99191046D02*
X133648496Y-99286284D01*
X133648496Y-99286284D02*
X133648496Y-99571998D01*
X133648496Y-99571998D02*
X133696115Y-99667236D01*
X133696115Y-99667236D02*
X133743734Y-99714856D01*
X133743734Y-99714856D02*
X133838972Y-99762475D01*
X133838972Y-99762475D02*
X134029448Y-99762475D01*
X134029448Y-99762475D02*
X134124686Y-99714856D01*
X133219924Y-99095808D02*
X133219924Y-100095808D01*
X133219924Y-99143427D02*
X133124686Y-99095808D01*
X133124686Y-99095808D02*
X132934210Y-99095808D01*
X132934210Y-99095808D02*
X132838972Y-99143427D01*
X132838972Y-99143427D02*
X132791353Y-99191046D01*
X132791353Y-99191046D02*
X132743734Y-99286284D01*
X132743734Y-99286284D02*
X132743734Y-99571998D01*
X132743734Y-99571998D02*
X132791353Y-99667236D01*
X132791353Y-99667236D02*
X132838972Y-99714856D01*
X132838972Y-99714856D02*
X132934210Y-99762475D01*
X132934210Y-99762475D02*
X133124686Y-99762475D01*
X133124686Y-99762475D02*
X133219924Y-99714856D01*
X132172305Y-99762475D02*
X132267543Y-99714856D01*
X132267543Y-99714856D02*
X132315162Y-99619617D01*
X132315162Y-99619617D02*
X132315162Y-98762475D01*
X131886590Y-99095808D02*
X131648495Y-99762475D01*
X131410400Y-99095808D02*
X131648495Y-99762475D01*
X131648495Y-99762475D02*
X131743733Y-100000570D01*
X131743733Y-100000570D02*
X131791352Y-100048189D01*
X131791352Y-100048189D02*
X131886590Y-100095808D01*
X130267542Y-99762475D02*
X130267542Y-99095808D01*
X130267542Y-98762475D02*
X130315161Y-98810094D01*
X130315161Y-98810094D02*
X130267542Y-98857713D01*
X130267542Y-98857713D02*
X130219923Y-98810094D01*
X130219923Y-98810094D02*
X130267542Y-98762475D01*
X130267542Y-98762475D02*
X130267542Y-98857713D01*
X129838971Y-99714856D02*
X129743733Y-99762475D01*
X129743733Y-99762475D02*
X129553257Y-99762475D01*
X129553257Y-99762475D02*
X129458019Y-99714856D01*
X129458019Y-99714856D02*
X129410400Y-99619617D01*
X129410400Y-99619617D02*
X129410400Y-99571998D01*
X129410400Y-99571998D02*
X129458019Y-99476760D01*
X129458019Y-99476760D02*
X129553257Y-99429141D01*
X129553257Y-99429141D02*
X129696114Y-99429141D01*
X129696114Y-99429141D02*
X129791352Y-99381522D01*
X129791352Y-99381522D02*
X129838971Y-99286284D01*
X129838971Y-99286284D02*
X129838971Y-99238665D01*
X129838971Y-99238665D02*
X129791352Y-99143427D01*
X129791352Y-99143427D02*
X129696114Y-99095808D01*
X129696114Y-99095808D02*
X129553257Y-99095808D01*
X129553257Y-99095808D02*
X129458019Y-99143427D01*
X128362780Y-99095808D02*
X127981828Y-99095808D01*
X128219923Y-98762475D02*
X128219923Y-99619617D01*
X128219923Y-99619617D02*
X128172304Y-99714856D01*
X128172304Y-99714856D02*
X128077066Y-99762475D01*
X128077066Y-99762475D02*
X127981828Y-99762475D01*
X127648494Y-99762475D02*
X127648494Y-98762475D01*
X127219923Y-99762475D02*
X127219923Y-99238665D01*
X127219923Y-99238665D02*
X127267542Y-99143427D01*
X127267542Y-99143427D02*
X127362780Y-99095808D01*
X127362780Y-99095808D02*
X127505637Y-99095808D01*
X127505637Y-99095808D02*
X127600875Y-99143427D01*
X127600875Y-99143427D02*
X127648494Y-99191046D01*
X126362780Y-99714856D02*
X126458018Y-99762475D01*
X126458018Y-99762475D02*
X126648494Y-99762475D01*
X126648494Y-99762475D02*
X126743732Y-99714856D01*
X126743732Y-99714856D02*
X126791351Y-99619617D01*
X126791351Y-99619617D02*
X126791351Y-99238665D01*
X126791351Y-99238665D02*
X126743732Y-99143427D01*
X126743732Y-99143427D02*
X126648494Y-99095808D01*
X126648494Y-99095808D02*
X126458018Y-99095808D01*
X126458018Y-99095808D02*
X126362780Y-99143427D01*
X126362780Y-99143427D02*
X126315161Y-99238665D01*
X126315161Y-99238665D02*
X126315161Y-99333903D01*
X126315161Y-99333903D02*
X126791351Y-99429141D01*
X125124684Y-99762475D02*
X125124684Y-98762475D01*
X125124684Y-98762475D02*
X124886589Y-98762475D01*
X124886589Y-98762475D02*
X124743732Y-98810094D01*
X124743732Y-98810094D02*
X124648494Y-98905332D01*
X124648494Y-98905332D02*
X124600875Y-99000570D01*
X124600875Y-99000570D02*
X124553256Y-99191046D01*
X124553256Y-99191046D02*
X124553256Y-99333903D01*
X124553256Y-99333903D02*
X124600875Y-99524379D01*
X124600875Y-99524379D02*
X124648494Y-99619617D01*
X124648494Y-99619617D02*
X124743732Y-99714856D01*
X124743732Y-99714856D02*
X124886589Y-99762475D01*
X124886589Y-99762475D02*
X125124684Y-99762475D01*
X123553256Y-99667236D02*
X123600875Y-99714856D01*
X123600875Y-99714856D02*
X123743732Y-99762475D01*
X123743732Y-99762475D02*
X123838970Y-99762475D01*
X123838970Y-99762475D02*
X123981827Y-99714856D01*
X123981827Y-99714856D02*
X124077065Y-99619617D01*
X124077065Y-99619617D02*
X124124684Y-99524379D01*
X124124684Y-99524379D02*
X124172303Y-99333903D01*
X124172303Y-99333903D02*
X124172303Y-99191046D01*
X124172303Y-99191046D02*
X124124684Y-99000570D01*
X124124684Y-99000570D02*
X124077065Y-98905332D01*
X124077065Y-98905332D02*
X123981827Y-98810094D01*
X123981827Y-98810094D02*
X123838970Y-98762475D01*
X123838970Y-98762475D02*
X123743732Y-98762475D01*
X123743732Y-98762475D02*
X123600875Y-98810094D01*
X123600875Y-98810094D02*
X123553256Y-98857713D01*
X122362779Y-99095808D02*
X122362779Y-100095808D01*
X122362779Y-99143427D02*
X122267541Y-99095808D01*
X122267541Y-99095808D02*
X122077065Y-99095808D01*
X122077065Y-99095808D02*
X121981827Y-99143427D01*
X121981827Y-99143427D02*
X121934208Y-99191046D01*
X121934208Y-99191046D02*
X121886589Y-99286284D01*
X121886589Y-99286284D02*
X121886589Y-99571998D01*
X121886589Y-99571998D02*
X121934208Y-99667236D01*
X121934208Y-99667236D02*
X121981827Y-99714856D01*
X121981827Y-99714856D02*
X122077065Y-99762475D01*
X122077065Y-99762475D02*
X122267541Y-99762475D01*
X122267541Y-99762475D02*
X122362779Y-99714856D01*
X121315160Y-99762475D02*
X121410398Y-99714856D01*
X121410398Y-99714856D02*
X121458017Y-99667236D01*
X121458017Y-99667236D02*
X121505636Y-99571998D01*
X121505636Y-99571998D02*
X121505636Y-99286284D01*
X121505636Y-99286284D02*
X121458017Y-99191046D01*
X121458017Y-99191046D02*
X121410398Y-99143427D01*
X121410398Y-99143427D02*
X121315160Y-99095808D01*
X121315160Y-99095808D02*
X121172303Y-99095808D01*
X121172303Y-99095808D02*
X121077065Y-99143427D01*
X121077065Y-99143427D02*
X121029446Y-99191046D01*
X121029446Y-99191046D02*
X120981827Y-99286284D01*
X120981827Y-99286284D02*
X120981827Y-99571998D01*
X120981827Y-99571998D02*
X121029446Y-99667236D01*
X121029446Y-99667236D02*
X121077065Y-99714856D01*
X121077065Y-99714856D02*
X121172303Y-99762475D01*
X121172303Y-99762475D02*
X121315160Y-99762475D01*
X120648493Y-99095808D02*
X120458017Y-99762475D01*
X120458017Y-99762475D02*
X120267541Y-99286284D01*
X120267541Y-99286284D02*
X120077065Y-99762475D01*
X120077065Y-99762475D02*
X119886589Y-99095808D01*
X119124684Y-99714856D02*
X119219922Y-99762475D01*
X119219922Y-99762475D02*
X119410398Y-99762475D01*
X119410398Y-99762475D02*
X119505636Y-99714856D01*
X119505636Y-99714856D02*
X119553255Y-99619617D01*
X119553255Y-99619617D02*
X119553255Y-99238665D01*
X119553255Y-99238665D02*
X119505636Y-99143427D01*
X119505636Y-99143427D02*
X119410398Y-99095808D01*
X119410398Y-99095808D02*
X119219922Y-99095808D01*
X119219922Y-99095808D02*
X119124684Y-99143427D01*
X119124684Y-99143427D02*
X119077065Y-99238665D01*
X119077065Y-99238665D02*
X119077065Y-99333903D01*
X119077065Y-99333903D02*
X119553255Y-99429141D01*
X118648493Y-99762475D02*
X118648493Y-99095808D01*
X118648493Y-99286284D02*
X118600874Y-99191046D01*
X118600874Y-99191046D02*
X118553255Y-99143427D01*
X118553255Y-99143427D02*
X118458017Y-99095808D01*
X118458017Y-99095808D02*
X118362779Y-99095808D01*
X117315159Y-99714856D02*
X117219921Y-99762475D01*
X117219921Y-99762475D02*
X117029445Y-99762475D01*
X117029445Y-99762475D02*
X116934207Y-99714856D01*
X116934207Y-99714856D02*
X116886588Y-99619617D01*
X116886588Y-99619617D02*
X116886588Y-99571998D01*
X116886588Y-99571998D02*
X116934207Y-99476760D01*
X116934207Y-99476760D02*
X117029445Y-99429141D01*
X117029445Y-99429141D02*
X117172302Y-99429141D01*
X117172302Y-99429141D02*
X117267540Y-99381522D01*
X117267540Y-99381522D02*
X117315159Y-99286284D01*
X117315159Y-99286284D02*
X117315159Y-99238665D01*
X117315159Y-99238665D02*
X117267540Y-99143427D01*
X117267540Y-99143427D02*
X117172302Y-99095808D01*
X117172302Y-99095808D02*
X117029445Y-99095808D01*
X117029445Y-99095808D02*
X116934207Y-99143427D01*
X116029445Y-99095808D02*
X116029445Y-99762475D01*
X116458016Y-99095808D02*
X116458016Y-99619617D01*
X116458016Y-99619617D02*
X116410397Y-99714856D01*
X116410397Y-99714856D02*
X116315159Y-99762475D01*
X116315159Y-99762475D02*
X116172302Y-99762475D01*
X116172302Y-99762475D02*
X116077064Y-99714856D01*
X116077064Y-99714856D02*
X116029445Y-99667236D01*
X115553254Y-99095808D02*
X115553254Y-100095808D01*
X115553254Y-99143427D02*
X115458016Y-99095808D01*
X115458016Y-99095808D02*
X115267540Y-99095808D01*
X115267540Y-99095808D02*
X115172302Y-99143427D01*
X115172302Y-99143427D02*
X115124683Y-99191046D01*
X115124683Y-99191046D02*
X115077064Y-99286284D01*
X115077064Y-99286284D02*
X115077064Y-99571998D01*
X115077064Y-99571998D02*
X115124683Y-99667236D01*
X115124683Y-99667236D02*
X115172302Y-99714856D01*
X115172302Y-99714856D02*
X115267540Y-99762475D01*
X115267540Y-99762475D02*
X115458016Y-99762475D01*
X115458016Y-99762475D02*
X115553254Y-99714856D01*
X114648492Y-99095808D02*
X114648492Y-100095808D01*
X114648492Y-99143427D02*
X114553254Y-99095808D01*
X114553254Y-99095808D02*
X114362778Y-99095808D01*
X114362778Y-99095808D02*
X114267540Y-99143427D01*
X114267540Y-99143427D02*
X114219921Y-99191046D01*
X114219921Y-99191046D02*
X114172302Y-99286284D01*
X114172302Y-99286284D02*
X114172302Y-99571998D01*
X114172302Y-99571998D02*
X114219921Y-99667236D01*
X114219921Y-99667236D02*
X114267540Y-99714856D01*
X114267540Y-99714856D02*
X114362778Y-99762475D01*
X114362778Y-99762475D02*
X114553254Y-99762475D01*
X114553254Y-99762475D02*
X114648492Y-99714856D01*
X113600873Y-99762475D02*
X113696111Y-99714856D01*
X113696111Y-99714856D02*
X113743730Y-99619617D01*
X113743730Y-99619617D02*
X113743730Y-98762475D01*
X113315158Y-99095808D02*
X113077063Y-99762475D01*
X112838968Y-99095808D02*
X113077063Y-99762475D01*
X113077063Y-99762475D02*
X113172301Y-100000570D01*
X113172301Y-100000570D02*
X113219920Y-100048189D01*
X113219920Y-100048189D02*
X113315158Y-100095808D01*
X136791353Y-100705752D02*
X136553258Y-101372419D01*
X136553258Y-101372419D02*
X136315163Y-100705752D01*
X135791353Y-101372419D02*
X135886591Y-101324800D01*
X135886591Y-101324800D02*
X135934210Y-101277180D01*
X135934210Y-101277180D02*
X135981829Y-101181942D01*
X135981829Y-101181942D02*
X135981829Y-100896228D01*
X135981829Y-100896228D02*
X135934210Y-100800990D01*
X135934210Y-100800990D02*
X135886591Y-100753371D01*
X135886591Y-100753371D02*
X135791353Y-100705752D01*
X135791353Y-100705752D02*
X135648496Y-100705752D01*
X135648496Y-100705752D02*
X135553258Y-100753371D01*
X135553258Y-100753371D02*
X135505639Y-100800990D01*
X135505639Y-100800990D02*
X135458020Y-100896228D01*
X135458020Y-100896228D02*
X135458020Y-101181942D01*
X135458020Y-101181942D02*
X135505639Y-101277180D01*
X135505639Y-101277180D02*
X135553258Y-101324800D01*
X135553258Y-101324800D02*
X135648496Y-101372419D01*
X135648496Y-101372419D02*
X135791353Y-101372419D01*
X134886591Y-101372419D02*
X134981829Y-101324800D01*
X134981829Y-101324800D02*
X135029448Y-101229561D01*
X135029448Y-101229561D02*
X135029448Y-100372419D01*
X134648495Y-100705752D02*
X134267543Y-100705752D01*
X134505638Y-100372419D02*
X134505638Y-101229561D01*
X134505638Y-101229561D02*
X134458019Y-101324800D01*
X134458019Y-101324800D02*
X134362781Y-101372419D01*
X134362781Y-101372419D02*
X134267543Y-101372419D01*
X133505638Y-101372419D02*
X133505638Y-100848609D01*
X133505638Y-100848609D02*
X133553257Y-100753371D01*
X133553257Y-100753371D02*
X133648495Y-100705752D01*
X133648495Y-100705752D02*
X133838971Y-100705752D01*
X133838971Y-100705752D02*
X133934209Y-100753371D01*
X133505638Y-101324800D02*
X133600876Y-101372419D01*
X133600876Y-101372419D02*
X133838971Y-101372419D01*
X133838971Y-101372419D02*
X133934209Y-101324800D01*
X133934209Y-101324800D02*
X133981828Y-101229561D01*
X133981828Y-101229561D02*
X133981828Y-101134323D01*
X133981828Y-101134323D02*
X133934209Y-101039085D01*
X133934209Y-101039085D02*
X133838971Y-100991466D01*
X133838971Y-100991466D02*
X133600876Y-100991466D01*
X133600876Y-100991466D02*
X133505638Y-100943847D01*
X132600876Y-100705752D02*
X132600876Y-101515276D01*
X132600876Y-101515276D02*
X132648495Y-101610514D01*
X132648495Y-101610514D02*
X132696114Y-101658133D01*
X132696114Y-101658133D02*
X132791352Y-101705752D01*
X132791352Y-101705752D02*
X132934209Y-101705752D01*
X132934209Y-101705752D02*
X133029447Y-101658133D01*
X132600876Y-101324800D02*
X132696114Y-101372419D01*
X132696114Y-101372419D02*
X132886590Y-101372419D01*
X132886590Y-101372419D02*
X132981828Y-101324800D01*
X132981828Y-101324800D02*
X133029447Y-101277180D01*
X133029447Y-101277180D02*
X133077066Y-101181942D01*
X133077066Y-101181942D02*
X133077066Y-100896228D01*
X133077066Y-100896228D02*
X133029447Y-100800990D01*
X133029447Y-100800990D02*
X132981828Y-100753371D01*
X132981828Y-100753371D02*
X132886590Y-100705752D01*
X132886590Y-100705752D02*
X132696114Y-100705752D01*
X132696114Y-100705752D02*
X132600876Y-100753371D01*
X131743733Y-101324800D02*
X131838971Y-101372419D01*
X131838971Y-101372419D02*
X132029447Y-101372419D01*
X132029447Y-101372419D02*
X132124685Y-101324800D01*
X132124685Y-101324800D02*
X132172304Y-101229561D01*
X132172304Y-101229561D02*
X132172304Y-100848609D01*
X132172304Y-100848609D02*
X132124685Y-100753371D01*
X132124685Y-100753371D02*
X132029447Y-100705752D01*
X132029447Y-100705752D02*
X131838971Y-100705752D01*
X131838971Y-100705752D02*
X131743733Y-100753371D01*
X131743733Y-100753371D02*
X131696114Y-100848609D01*
X131696114Y-100848609D02*
X131696114Y-100943847D01*
X131696114Y-100943847D02*
X132172304Y-101039085D01*
X130648494Y-100705752D02*
X130267542Y-100705752D01*
X130505637Y-101372419D02*
X130505637Y-100515276D01*
X130505637Y-100515276D02*
X130458018Y-100420038D01*
X130458018Y-100420038D02*
X130362780Y-100372419D01*
X130362780Y-100372419D02*
X130267542Y-100372419D01*
X129553256Y-101324800D02*
X129648494Y-101372419D01*
X129648494Y-101372419D02*
X129838970Y-101372419D01*
X129838970Y-101372419D02*
X129934208Y-101324800D01*
X129934208Y-101324800D02*
X129981827Y-101229561D01*
X129981827Y-101229561D02*
X129981827Y-100848609D01*
X129981827Y-100848609D02*
X129934208Y-100753371D01*
X129934208Y-100753371D02*
X129838970Y-100705752D01*
X129838970Y-100705752D02*
X129648494Y-100705752D01*
X129648494Y-100705752D02*
X129553256Y-100753371D01*
X129553256Y-100753371D02*
X129505637Y-100848609D01*
X129505637Y-100848609D02*
X129505637Y-100943847D01*
X129505637Y-100943847D02*
X129981827Y-101039085D01*
X128648494Y-101372419D02*
X128648494Y-100372419D01*
X128648494Y-101324800D02*
X128743732Y-101372419D01*
X128743732Y-101372419D02*
X128934208Y-101372419D01*
X128934208Y-101372419D02*
X129029446Y-101324800D01*
X129029446Y-101324800D02*
X129077065Y-101277180D01*
X129077065Y-101277180D02*
X129124684Y-101181942D01*
X129124684Y-101181942D02*
X129124684Y-100896228D01*
X129124684Y-100896228D02*
X129077065Y-100800990D01*
X129077065Y-100800990D02*
X129029446Y-100753371D01*
X129029446Y-100753371D02*
X128934208Y-100705752D01*
X128934208Y-100705752D02*
X128743732Y-100705752D01*
X128743732Y-100705752D02*
X128648494Y-100753371D01*
X127410398Y-101372419D02*
X127410398Y-100705752D01*
X127410398Y-100372419D02*
X127458017Y-100420038D01*
X127458017Y-100420038D02*
X127410398Y-100467657D01*
X127410398Y-100467657D02*
X127362779Y-100420038D01*
X127362779Y-100420038D02*
X127410398Y-100372419D01*
X127410398Y-100372419D02*
X127410398Y-100467657D01*
X126934208Y-100705752D02*
X126934208Y-101372419D01*
X126934208Y-100800990D02*
X126886589Y-100753371D01*
X126886589Y-100753371D02*
X126791351Y-100705752D01*
X126791351Y-100705752D02*
X126648494Y-100705752D01*
X126648494Y-100705752D02*
X126553256Y-100753371D01*
X126553256Y-100753371D02*
X126505637Y-100848609D01*
X126505637Y-100848609D02*
X126505637Y-101372419D01*
X126172303Y-100705752D02*
X125791351Y-100705752D01*
X126029446Y-100372419D02*
X126029446Y-101229561D01*
X126029446Y-101229561D02*
X125981827Y-101324800D01*
X125981827Y-101324800D02*
X125886589Y-101372419D01*
X125886589Y-101372419D02*
X125791351Y-101372419D01*
X125315160Y-101372419D02*
X125410398Y-101324800D01*
X125410398Y-101324800D02*
X125458017Y-101277180D01*
X125458017Y-101277180D02*
X125505636Y-101181942D01*
X125505636Y-101181942D02*
X125505636Y-100896228D01*
X125505636Y-100896228D02*
X125458017Y-100800990D01*
X125458017Y-100800990D02*
X125410398Y-100753371D01*
X125410398Y-100753371D02*
X125315160Y-100705752D01*
X125315160Y-100705752D02*
X125172303Y-100705752D01*
X125172303Y-100705752D02*
X125077065Y-100753371D01*
X125077065Y-100753371D02*
X125029446Y-100800990D01*
X125029446Y-100800990D02*
X124981827Y-100896228D01*
X124981827Y-100896228D02*
X124981827Y-101181942D01*
X124981827Y-101181942D02*
X125029446Y-101277180D01*
X125029446Y-101277180D02*
X125077065Y-101324800D01*
X125077065Y-101324800D02*
X125172303Y-101372419D01*
X125172303Y-101372419D02*
X125315160Y-101372419D01*
X123934207Y-100705752D02*
X123553255Y-100705752D01*
X123791350Y-100372419D02*
X123791350Y-101229561D01*
X123791350Y-101229561D02*
X123743731Y-101324800D01*
X123743731Y-101324800D02*
X123648493Y-101372419D01*
X123648493Y-101372419D02*
X123553255Y-101372419D01*
X123219921Y-101372419D02*
X123219921Y-100372419D01*
X122791350Y-101372419D02*
X122791350Y-100848609D01*
X122791350Y-100848609D02*
X122838969Y-100753371D01*
X122838969Y-100753371D02*
X122934207Y-100705752D01*
X122934207Y-100705752D02*
X123077064Y-100705752D01*
X123077064Y-100705752D02*
X123172302Y-100753371D01*
X123172302Y-100753371D02*
X123219921Y-100800990D01*
X121934207Y-101324800D02*
X122029445Y-101372419D01*
X122029445Y-101372419D02*
X122219921Y-101372419D01*
X122219921Y-101372419D02*
X122315159Y-101324800D01*
X122315159Y-101324800D02*
X122362778Y-101229561D01*
X122362778Y-101229561D02*
X122362778Y-100848609D01*
X122362778Y-100848609D02*
X122315159Y-100753371D01*
X122315159Y-100753371D02*
X122219921Y-100705752D01*
X122219921Y-100705752D02*
X122029445Y-100705752D01*
X122029445Y-100705752D02*
X121934207Y-100753371D01*
X121934207Y-100753371D02*
X121886588Y-100848609D01*
X121886588Y-100848609D02*
X121886588Y-100943847D01*
X121886588Y-100943847D02*
X122362778Y-101039085D01*
X120696111Y-101372419D02*
X120696111Y-100705752D01*
X120696111Y-100800990D02*
X120648492Y-100753371D01*
X120648492Y-100753371D02*
X120553254Y-100705752D01*
X120553254Y-100705752D02*
X120410397Y-100705752D01*
X120410397Y-100705752D02*
X120315159Y-100753371D01*
X120315159Y-100753371D02*
X120267540Y-100848609D01*
X120267540Y-100848609D02*
X120267540Y-101372419D01*
X120267540Y-100848609D02*
X120219921Y-100753371D01*
X120219921Y-100753371D02*
X120124683Y-100705752D01*
X120124683Y-100705752D02*
X119981826Y-100705752D01*
X119981826Y-100705752D02*
X119886587Y-100753371D01*
X119886587Y-100753371D02*
X119838968Y-100848609D01*
X119838968Y-100848609D02*
X119838968Y-101372419D01*
X118934207Y-101372419D02*
X118934207Y-100848609D01*
X118934207Y-100848609D02*
X118981826Y-100753371D01*
X118981826Y-100753371D02*
X119077064Y-100705752D01*
X119077064Y-100705752D02*
X119267540Y-100705752D01*
X119267540Y-100705752D02*
X119362778Y-100753371D01*
X118934207Y-101324800D02*
X119029445Y-101372419D01*
X119029445Y-101372419D02*
X119267540Y-101372419D01*
X119267540Y-101372419D02*
X119362778Y-101324800D01*
X119362778Y-101324800D02*
X119410397Y-101229561D01*
X119410397Y-101229561D02*
X119410397Y-101134323D01*
X119410397Y-101134323D02*
X119362778Y-101039085D01*
X119362778Y-101039085D02*
X119267540Y-100991466D01*
X119267540Y-100991466D02*
X119029445Y-100991466D01*
X119029445Y-100991466D02*
X118934207Y-100943847D01*
X118458016Y-101372419D02*
X118458016Y-100705752D01*
X118458016Y-100372419D02*
X118505635Y-100420038D01*
X118505635Y-100420038D02*
X118458016Y-100467657D01*
X118458016Y-100467657D02*
X118410397Y-100420038D01*
X118410397Y-100420038D02*
X118458016Y-100372419D01*
X118458016Y-100372419D02*
X118458016Y-100467657D01*
X117981826Y-100705752D02*
X117981826Y-101372419D01*
X117981826Y-100800990D02*
X117934207Y-100753371D01*
X117934207Y-100753371D02*
X117838969Y-100705752D01*
X117838969Y-100705752D02*
X117696112Y-100705752D01*
X117696112Y-100705752D02*
X117600874Y-100753371D01*
X117600874Y-100753371D02*
X117553255Y-100848609D01*
X117553255Y-100848609D02*
X117553255Y-101372419D01*
X115886588Y-100705752D02*
X115886588Y-101372419D01*
X116315159Y-100705752D02*
X116315159Y-101229561D01*
X116315159Y-101229561D02*
X116267540Y-101324800D01*
X116267540Y-101324800D02*
X116172302Y-101372419D01*
X116172302Y-101372419D02*
X116029445Y-101372419D01*
X116029445Y-101372419D02*
X115934207Y-101324800D01*
X115934207Y-101324800D02*
X115886588Y-101277180D01*
X115410397Y-100705752D02*
X115410397Y-101372419D01*
X115410397Y-100800990D02*
X115362778Y-100753371D01*
X115362778Y-100753371D02*
X115267540Y-100705752D01*
X115267540Y-100705752D02*
X115124683Y-100705752D01*
X115124683Y-100705752D02*
X115029445Y-100753371D01*
X115029445Y-100753371D02*
X114981826Y-100848609D01*
X114981826Y-100848609D02*
X114981826Y-101372419D01*
X114505635Y-101372419D02*
X114505635Y-100705752D01*
X114505635Y-100372419D02*
X114553254Y-100420038D01*
X114553254Y-100420038D02*
X114505635Y-100467657D01*
X114505635Y-100467657D02*
X114458016Y-100420038D01*
X114458016Y-100420038D02*
X114505635Y-100372419D01*
X114505635Y-100372419D02*
X114505635Y-100467657D01*
X114172302Y-100705752D02*
X113791350Y-100705752D01*
X114029445Y-100372419D02*
X114029445Y-101229561D01*
X114029445Y-101229561D02*
X113981826Y-101324800D01*
X113981826Y-101324800D02*
X113886588Y-101372419D01*
X113886588Y-101372419D02*
X113791350Y-101372419D01*
D12*
X136091792Y-77164636D02*
X136139411Y-77212256D01*
X136139411Y-77212256D02*
X136282268Y-77259875D01*
X136282268Y-77259875D02*
X136377506Y-77259875D01*
X136377506Y-77259875D02*
X136520363Y-77212256D01*
X136520363Y-77212256D02*
X136615601Y-77117017D01*
X136615601Y-77117017D02*
X136663220Y-77021779D01*
X136663220Y-77021779D02*
X136710839Y-76831303D01*
X136710839Y-76831303D02*
X136710839Y-76688446D01*
X136710839Y-76688446D02*
X136663220Y-76497970D01*
X136663220Y-76497970D02*
X136615601Y-76402732D01*
X136615601Y-76402732D02*
X136520363Y-76307494D01*
X136520363Y-76307494D02*
X136377506Y-76259875D01*
X136377506Y-76259875D02*
X136282268Y-76259875D01*
X136282268Y-76259875D02*
X136139411Y-76307494D01*
X136139411Y-76307494D02*
X136091792Y-76355113D01*
X135520363Y-77259875D02*
X135615601Y-77212256D01*
X135615601Y-77212256D02*
X135663220Y-77164636D01*
X135663220Y-77164636D02*
X135710839Y-77069398D01*
X135710839Y-77069398D02*
X135710839Y-76783684D01*
X135710839Y-76783684D02*
X135663220Y-76688446D01*
X135663220Y-76688446D02*
X135615601Y-76640827D01*
X135615601Y-76640827D02*
X135520363Y-76593208D01*
X135520363Y-76593208D02*
X135377506Y-76593208D01*
X135377506Y-76593208D02*
X135282268Y-76640827D01*
X135282268Y-76640827D02*
X135234649Y-76688446D01*
X135234649Y-76688446D02*
X135187030Y-76783684D01*
X135187030Y-76783684D02*
X135187030Y-77069398D01*
X135187030Y-77069398D02*
X135234649Y-77164636D01*
X135234649Y-77164636D02*
X135282268Y-77212256D01*
X135282268Y-77212256D02*
X135377506Y-77259875D01*
X135377506Y-77259875D02*
X135520363Y-77259875D01*
X134758458Y-76593208D02*
X134758458Y-77259875D01*
X134758458Y-76688446D02*
X134710839Y-76640827D01*
X134710839Y-76640827D02*
X134615601Y-76593208D01*
X134615601Y-76593208D02*
X134472744Y-76593208D01*
X134472744Y-76593208D02*
X134377506Y-76640827D01*
X134377506Y-76640827D02*
X134329887Y-76736065D01*
X134329887Y-76736065D02*
X134329887Y-77259875D01*
X133853696Y-76593208D02*
X133853696Y-77259875D01*
X133853696Y-76688446D02*
X133806077Y-76640827D01*
X133806077Y-76640827D02*
X133710839Y-76593208D01*
X133710839Y-76593208D02*
X133567982Y-76593208D01*
X133567982Y-76593208D02*
X133472744Y-76640827D01*
X133472744Y-76640827D02*
X133425125Y-76736065D01*
X133425125Y-76736065D02*
X133425125Y-77259875D01*
X132567982Y-77212256D02*
X132663220Y-77259875D01*
X132663220Y-77259875D02*
X132853696Y-77259875D01*
X132853696Y-77259875D02*
X132948934Y-77212256D01*
X132948934Y-77212256D02*
X132996553Y-77117017D01*
X132996553Y-77117017D02*
X132996553Y-76736065D01*
X132996553Y-76736065D02*
X132948934Y-76640827D01*
X132948934Y-76640827D02*
X132853696Y-76593208D01*
X132853696Y-76593208D02*
X132663220Y-76593208D01*
X132663220Y-76593208D02*
X132567982Y-76640827D01*
X132567982Y-76640827D02*
X132520363Y-76736065D01*
X132520363Y-76736065D02*
X132520363Y-76831303D01*
X132520363Y-76831303D02*
X132996553Y-76926541D01*
X131663220Y-77212256D02*
X131758458Y-77259875D01*
X131758458Y-77259875D02*
X131948934Y-77259875D01*
X131948934Y-77259875D02*
X132044172Y-77212256D01*
X132044172Y-77212256D02*
X132091791Y-77164636D01*
X132091791Y-77164636D02*
X132139410Y-77069398D01*
X132139410Y-77069398D02*
X132139410Y-76783684D01*
X132139410Y-76783684D02*
X132091791Y-76688446D01*
X132091791Y-76688446D02*
X132044172Y-76640827D01*
X132044172Y-76640827D02*
X131948934Y-76593208D01*
X131948934Y-76593208D02*
X131758458Y-76593208D01*
X131758458Y-76593208D02*
X131663220Y-76640827D01*
X131377505Y-76593208D02*
X130996553Y-76593208D01*
X131234648Y-76259875D02*
X131234648Y-77117017D01*
X131234648Y-77117017D02*
X131187029Y-77212256D01*
X131187029Y-77212256D02*
X131091791Y-77259875D01*
X131091791Y-77259875D02*
X130996553Y-77259875D01*
X130520362Y-77259875D02*
X130615600Y-77212256D01*
X130615600Y-77212256D02*
X130663219Y-77164636D01*
X130663219Y-77164636D02*
X130710838Y-77069398D01*
X130710838Y-77069398D02*
X130710838Y-76783684D01*
X130710838Y-76783684D02*
X130663219Y-76688446D01*
X130663219Y-76688446D02*
X130615600Y-76640827D01*
X130615600Y-76640827D02*
X130520362Y-76593208D01*
X130520362Y-76593208D02*
X130377505Y-76593208D01*
X130377505Y-76593208D02*
X130282267Y-76640827D01*
X130282267Y-76640827D02*
X130234648Y-76688446D01*
X130234648Y-76688446D02*
X130187029Y-76783684D01*
X130187029Y-76783684D02*
X130187029Y-77069398D01*
X130187029Y-77069398D02*
X130234648Y-77164636D01*
X130234648Y-77164636D02*
X130282267Y-77212256D01*
X130282267Y-77212256D02*
X130377505Y-77259875D01*
X130377505Y-77259875D02*
X130520362Y-77259875D01*
X129758457Y-77259875D02*
X129758457Y-76593208D01*
X129758457Y-76783684D02*
X129710838Y-76688446D01*
X129710838Y-76688446D02*
X129663219Y-76640827D01*
X129663219Y-76640827D02*
X129567981Y-76593208D01*
X129567981Y-76593208D02*
X129472743Y-76593208D01*
X128377504Y-77259875D02*
X128377504Y-76259875D01*
X128377504Y-76259875D02*
X127996552Y-76259875D01*
X127996552Y-76259875D02*
X127901314Y-76307494D01*
X127901314Y-76307494D02*
X127853695Y-76355113D01*
X127853695Y-76355113D02*
X127806076Y-76450351D01*
X127806076Y-76450351D02*
X127806076Y-76593208D01*
X127806076Y-76593208D02*
X127853695Y-76688446D01*
X127853695Y-76688446D02*
X127901314Y-76736065D01*
X127901314Y-76736065D02*
X127996552Y-76783684D01*
X127996552Y-76783684D02*
X128377504Y-76783684D01*
X127377504Y-77259875D02*
X127377504Y-76593208D01*
X127377504Y-76259875D02*
X127425123Y-76307494D01*
X127425123Y-76307494D02*
X127377504Y-76355113D01*
X127377504Y-76355113D02*
X127329885Y-76307494D01*
X127329885Y-76307494D02*
X127377504Y-76259875D01*
X127377504Y-76259875D02*
X127377504Y-76355113D01*
X126901314Y-76593208D02*
X126901314Y-77259875D01*
X126901314Y-76688446D02*
X126853695Y-76640827D01*
X126853695Y-76640827D02*
X126758457Y-76593208D01*
X126758457Y-76593208D02*
X126615600Y-76593208D01*
X126615600Y-76593208D02*
X126520362Y-76640827D01*
X126520362Y-76640827D02*
X126472743Y-76736065D01*
X126472743Y-76736065D02*
X126472743Y-77259875D01*
X125853695Y-77259875D02*
X125948933Y-77212256D01*
X125948933Y-77212256D02*
X125996552Y-77164636D01*
X125996552Y-77164636D02*
X126044171Y-77069398D01*
X126044171Y-77069398D02*
X126044171Y-76783684D01*
X126044171Y-76783684D02*
X125996552Y-76688446D01*
X125996552Y-76688446D02*
X125948933Y-76640827D01*
X125948933Y-76640827D02*
X125853695Y-76593208D01*
X125853695Y-76593208D02*
X125710838Y-76593208D01*
X125710838Y-76593208D02*
X125615600Y-76640827D01*
X125615600Y-76640827D02*
X125567981Y-76688446D01*
X125567981Y-76688446D02*
X125520362Y-76783684D01*
X125520362Y-76783684D02*
X125520362Y-77069398D01*
X125520362Y-77069398D02*
X125567981Y-77164636D01*
X125567981Y-77164636D02*
X125615600Y-77212256D01*
X125615600Y-77212256D02*
X125710838Y-77259875D01*
X125710838Y-77259875D02*
X125853695Y-77259875D01*
X124663219Y-76593208D02*
X124663219Y-77259875D01*
X125091790Y-76593208D02*
X125091790Y-77117017D01*
X125091790Y-77117017D02*
X125044171Y-77212256D01*
X125044171Y-77212256D02*
X124948933Y-77259875D01*
X124948933Y-77259875D02*
X124806076Y-77259875D01*
X124806076Y-77259875D02*
X124710838Y-77212256D01*
X124710838Y-77212256D02*
X124663219Y-77164636D01*
X124329885Y-76593208D02*
X123948933Y-76593208D01*
X124187028Y-76259875D02*
X124187028Y-77117017D01*
X124187028Y-77117017D02*
X124139409Y-77212256D01*
X124139409Y-77212256D02*
X124044171Y-77259875D01*
X124044171Y-77259875D02*
X123948933Y-77259875D01*
X122567980Y-77640827D02*
X122615599Y-77593208D01*
X122615599Y-77593208D02*
X122710837Y-77450351D01*
X122710837Y-77450351D02*
X122758456Y-77355113D01*
X122758456Y-77355113D02*
X122806075Y-77212256D01*
X122806075Y-77212256D02*
X122853694Y-76974160D01*
X122853694Y-76974160D02*
X122853694Y-76783684D01*
X122853694Y-76783684D02*
X122806075Y-76545589D01*
X122806075Y-76545589D02*
X122758456Y-76402732D01*
X122758456Y-76402732D02*
X122710837Y-76307494D01*
X122710837Y-76307494D02*
X122615599Y-76164636D01*
X122615599Y-76164636D02*
X122567980Y-76117017D01*
X122044170Y-77259875D02*
X122139408Y-77212256D01*
X122139408Y-77212256D02*
X122187027Y-77117017D01*
X122187027Y-77117017D02*
X122187027Y-76259875D01*
X121520360Y-77259875D02*
X121615598Y-77212256D01*
X121615598Y-77212256D02*
X121663217Y-77164636D01*
X121663217Y-77164636D02*
X121710836Y-77069398D01*
X121710836Y-77069398D02*
X121710836Y-76783684D01*
X121710836Y-76783684D02*
X121663217Y-76688446D01*
X121663217Y-76688446D02*
X121615598Y-76640827D01*
X121615598Y-76640827D02*
X121520360Y-76593208D01*
X121520360Y-76593208D02*
X121377503Y-76593208D01*
X121377503Y-76593208D02*
X121282265Y-76640827D01*
X121282265Y-76640827D02*
X121234646Y-76688446D01*
X121234646Y-76688446D02*
X121187027Y-76783684D01*
X121187027Y-76783684D02*
X121187027Y-77069398D01*
X121187027Y-77069398D02*
X121234646Y-77164636D01*
X121234646Y-77164636D02*
X121282265Y-77212256D01*
X121282265Y-77212256D02*
X121377503Y-77259875D01*
X121377503Y-77259875D02*
X121520360Y-77259875D01*
X120615598Y-77259875D02*
X120710836Y-77212256D01*
X120710836Y-77212256D02*
X120758455Y-77164636D01*
X120758455Y-77164636D02*
X120806074Y-77069398D01*
X120806074Y-77069398D02*
X120806074Y-76783684D01*
X120806074Y-76783684D02*
X120758455Y-76688446D01*
X120758455Y-76688446D02*
X120710836Y-76640827D01*
X120710836Y-76640827D02*
X120615598Y-76593208D01*
X120615598Y-76593208D02*
X120472741Y-76593208D01*
X120472741Y-76593208D02*
X120377503Y-76640827D01*
X120377503Y-76640827D02*
X120329884Y-76688446D01*
X120329884Y-76688446D02*
X120282265Y-76783684D01*
X120282265Y-76783684D02*
X120282265Y-77069398D01*
X120282265Y-77069398D02*
X120329884Y-77164636D01*
X120329884Y-77164636D02*
X120377503Y-77212256D01*
X120377503Y-77212256D02*
X120472741Y-77259875D01*
X120472741Y-77259875D02*
X120615598Y-77259875D01*
X119853693Y-77259875D02*
X119853693Y-76259875D01*
X119758455Y-76878922D02*
X119472741Y-77259875D01*
X119472741Y-76593208D02*
X119853693Y-76974160D01*
X119044169Y-77259875D02*
X119044169Y-76593208D01*
X119044169Y-76259875D02*
X119091788Y-76307494D01*
X119091788Y-76307494D02*
X119044169Y-76355113D01*
X119044169Y-76355113D02*
X118996550Y-76307494D01*
X118996550Y-76307494D02*
X119044169Y-76259875D01*
X119044169Y-76259875D02*
X119044169Y-76355113D01*
X118567979Y-76593208D02*
X118567979Y-77259875D01*
X118567979Y-76688446D02*
X118520360Y-76640827D01*
X118520360Y-76640827D02*
X118425122Y-76593208D01*
X118425122Y-76593208D02*
X118282265Y-76593208D01*
X118282265Y-76593208D02*
X118187027Y-76640827D01*
X118187027Y-76640827D02*
X118139408Y-76736065D01*
X118139408Y-76736065D02*
X118139408Y-77259875D01*
X117234646Y-76593208D02*
X117234646Y-77402732D01*
X117234646Y-77402732D02*
X117282265Y-77497970D01*
X117282265Y-77497970D02*
X117329884Y-77545589D01*
X117329884Y-77545589D02*
X117425122Y-77593208D01*
X117425122Y-77593208D02*
X117567979Y-77593208D01*
X117567979Y-77593208D02*
X117663217Y-77545589D01*
X117234646Y-77212256D02*
X117329884Y-77259875D01*
X117329884Y-77259875D02*
X117520360Y-77259875D01*
X117520360Y-77259875D02*
X117615598Y-77212256D01*
X117615598Y-77212256D02*
X117663217Y-77164636D01*
X117663217Y-77164636D02*
X117710836Y-77069398D01*
X117710836Y-77069398D02*
X117710836Y-76783684D01*
X117710836Y-76783684D02*
X117663217Y-76688446D01*
X117663217Y-76688446D02*
X117615598Y-76640827D01*
X117615598Y-76640827D02*
X117520360Y-76593208D01*
X117520360Y-76593208D02*
X117329884Y-76593208D01*
X117329884Y-76593208D02*
X117234646Y-76640827D01*
X115996550Y-77259875D02*
X115996550Y-76259875D01*
X115520360Y-77259875D02*
X115520360Y-76259875D01*
X115520360Y-76259875D02*
X114948932Y-77259875D01*
X114948932Y-77259875D02*
X114948932Y-76259875D01*
X114615598Y-76259875D02*
X114044170Y-76259875D01*
X114329884Y-77259875D02*
X114329884Y-76259875D01*
X113520360Y-76259875D02*
X113329884Y-76259875D01*
X113329884Y-76259875D02*
X113234646Y-76307494D01*
X113234646Y-76307494D02*
X113139408Y-76402732D01*
X113139408Y-76402732D02*
X113091789Y-76593208D01*
X113091789Y-76593208D02*
X113091789Y-76926541D01*
X113091789Y-76926541D02*
X113139408Y-77117017D01*
X113139408Y-77117017D02*
X113234646Y-77212256D01*
X113234646Y-77212256D02*
X113329884Y-77259875D01*
X113329884Y-77259875D02*
X113520360Y-77259875D01*
X113520360Y-77259875D02*
X113615598Y-77212256D01*
X113615598Y-77212256D02*
X113710836Y-77117017D01*
X113710836Y-77117017D02*
X113758455Y-76926541D01*
X113758455Y-76926541D02*
X113758455Y-76593208D01*
X113758455Y-76593208D02*
X113710836Y-76402732D01*
X113710836Y-76402732D02*
X113615598Y-76307494D01*
X113615598Y-76307494D02*
X113520360Y-76259875D01*
X136806077Y-78203152D02*
X136425125Y-78203152D01*
X136663220Y-77869819D02*
X136663220Y-78726961D01*
X136663220Y-78726961D02*
X136615601Y-78822200D01*
X136615601Y-78822200D02*
X136520363Y-78869819D01*
X136520363Y-78869819D02*
X136425125Y-78869819D01*
X136091791Y-78869819D02*
X136091791Y-77869819D01*
X135663220Y-78869819D02*
X135663220Y-78346009D01*
X135663220Y-78346009D02*
X135710839Y-78250771D01*
X135710839Y-78250771D02*
X135806077Y-78203152D01*
X135806077Y-78203152D02*
X135948934Y-78203152D01*
X135948934Y-78203152D02*
X136044172Y-78250771D01*
X136044172Y-78250771D02*
X136091791Y-78298390D01*
X134806077Y-78822200D02*
X134901315Y-78869819D01*
X134901315Y-78869819D02*
X135091791Y-78869819D01*
X135091791Y-78869819D02*
X135187029Y-78822200D01*
X135187029Y-78822200D02*
X135234648Y-78726961D01*
X135234648Y-78726961D02*
X135234648Y-78346009D01*
X135234648Y-78346009D02*
X135187029Y-78250771D01*
X135187029Y-78250771D02*
X135091791Y-78203152D01*
X135091791Y-78203152D02*
X134901315Y-78203152D01*
X134901315Y-78203152D02*
X134806077Y-78250771D01*
X134806077Y-78250771D02*
X134758458Y-78346009D01*
X134758458Y-78346009D02*
X134758458Y-78441247D01*
X134758458Y-78441247D02*
X135234648Y-78536485D01*
X133710838Y-78203152D02*
X133329886Y-78203152D01*
X133567981Y-78869819D02*
X133567981Y-78012676D01*
X133567981Y-78012676D02*
X133520362Y-77917438D01*
X133520362Y-77917438D02*
X133425124Y-77869819D01*
X133425124Y-77869819D02*
X133329886Y-77869819D01*
X132567981Y-78869819D02*
X132567981Y-78346009D01*
X132567981Y-78346009D02*
X132615600Y-78250771D01*
X132615600Y-78250771D02*
X132710838Y-78203152D01*
X132710838Y-78203152D02*
X132901314Y-78203152D01*
X132901314Y-78203152D02*
X132996552Y-78250771D01*
X132567981Y-78822200D02*
X132663219Y-78869819D01*
X132663219Y-78869819D02*
X132901314Y-78869819D01*
X132901314Y-78869819D02*
X132996552Y-78822200D01*
X132996552Y-78822200D02*
X133044171Y-78726961D01*
X133044171Y-78726961D02*
X133044171Y-78631723D01*
X133044171Y-78631723D02*
X132996552Y-78536485D01*
X132996552Y-78536485D02*
X132901314Y-78488866D01*
X132901314Y-78488866D02*
X132663219Y-78488866D01*
X132663219Y-78488866D02*
X132567981Y-78441247D01*
X131663219Y-78822200D02*
X131758457Y-78869819D01*
X131758457Y-78869819D02*
X131948933Y-78869819D01*
X131948933Y-78869819D02*
X132044171Y-78822200D01*
X132044171Y-78822200D02*
X132091790Y-78774580D01*
X132091790Y-78774580D02*
X132139409Y-78679342D01*
X132139409Y-78679342D02*
X132139409Y-78393628D01*
X132139409Y-78393628D02*
X132091790Y-78298390D01*
X132091790Y-78298390D02*
X132044171Y-78250771D01*
X132044171Y-78250771D02*
X131948933Y-78203152D01*
X131948933Y-78203152D02*
X131758457Y-78203152D01*
X131758457Y-78203152D02*
X131663219Y-78250771D01*
X130853695Y-78822200D02*
X130948933Y-78869819D01*
X130948933Y-78869819D02*
X131139409Y-78869819D01*
X131139409Y-78869819D02*
X131234647Y-78822200D01*
X131234647Y-78822200D02*
X131282266Y-78726961D01*
X131282266Y-78726961D02*
X131282266Y-78346009D01*
X131282266Y-78346009D02*
X131234647Y-78250771D01*
X131234647Y-78250771D02*
X131139409Y-78203152D01*
X131139409Y-78203152D02*
X130948933Y-78203152D01*
X130948933Y-78203152D02*
X130853695Y-78250771D01*
X130853695Y-78250771D02*
X130806076Y-78346009D01*
X130806076Y-78346009D02*
X130806076Y-78441247D01*
X130806076Y-78441247D02*
X131282266Y-78536485D01*
X129472742Y-78869819D02*
X129567980Y-78822200D01*
X129567980Y-78822200D02*
X129615599Y-78774580D01*
X129615599Y-78774580D02*
X129663218Y-78679342D01*
X129663218Y-78679342D02*
X129663218Y-78393628D01*
X129663218Y-78393628D02*
X129615599Y-78298390D01*
X129615599Y-78298390D02*
X129567980Y-78250771D01*
X129567980Y-78250771D02*
X129472742Y-78203152D01*
X129472742Y-78203152D02*
X129329885Y-78203152D01*
X129329885Y-78203152D02*
X129234647Y-78250771D01*
X129234647Y-78250771D02*
X129187028Y-78298390D01*
X129187028Y-78298390D02*
X129139409Y-78393628D01*
X129139409Y-78393628D02*
X129139409Y-78679342D01*
X129139409Y-78679342D02*
X129187028Y-78774580D01*
X129187028Y-78774580D02*
X129234647Y-78822200D01*
X129234647Y-78822200D02*
X129329885Y-78869819D01*
X129329885Y-78869819D02*
X129472742Y-78869819D01*
X128853694Y-78203152D02*
X128472742Y-78203152D01*
X128710837Y-78869819D02*
X128710837Y-78012676D01*
X128710837Y-78012676D02*
X128663218Y-77917438D01*
X128663218Y-77917438D02*
X128567980Y-77869819D01*
X128567980Y-77869819D02*
X128472742Y-77869819D01*
X127520360Y-78203152D02*
X127139408Y-78203152D01*
X127377503Y-77869819D02*
X127377503Y-78726961D01*
X127377503Y-78726961D02*
X127329884Y-78822200D01*
X127329884Y-78822200D02*
X127234646Y-78869819D01*
X127234646Y-78869819D02*
X127139408Y-78869819D01*
X126806074Y-78869819D02*
X126806074Y-77869819D01*
X126377503Y-78869819D02*
X126377503Y-78346009D01*
X126377503Y-78346009D02*
X126425122Y-78250771D01*
X126425122Y-78250771D02*
X126520360Y-78203152D01*
X126520360Y-78203152D02*
X126663217Y-78203152D01*
X126663217Y-78203152D02*
X126758455Y-78250771D01*
X126758455Y-78250771D02*
X126806074Y-78298390D01*
X125520360Y-78822200D02*
X125615598Y-78869819D01*
X125615598Y-78869819D02*
X125806074Y-78869819D01*
X125806074Y-78869819D02*
X125901312Y-78822200D01*
X125901312Y-78822200D02*
X125948931Y-78726961D01*
X125948931Y-78726961D02*
X125948931Y-78346009D01*
X125948931Y-78346009D02*
X125901312Y-78250771D01*
X125901312Y-78250771D02*
X125806074Y-78203152D01*
X125806074Y-78203152D02*
X125615598Y-78203152D01*
X125615598Y-78203152D02*
X125520360Y-78250771D01*
X125520360Y-78250771D02*
X125472741Y-78346009D01*
X125472741Y-78346009D02*
X125472741Y-78441247D01*
X125472741Y-78441247D02*
X125948931Y-78536485D01*
X124425121Y-78203152D02*
X124044169Y-78203152D01*
X124282264Y-77869819D02*
X124282264Y-78726961D01*
X124282264Y-78726961D02*
X124234645Y-78822200D01*
X124234645Y-78822200D02*
X124139407Y-78869819D01*
X124139407Y-78869819D02*
X124044169Y-78869819D01*
X123567978Y-78869819D02*
X123663216Y-78822200D01*
X123663216Y-78822200D02*
X123710835Y-78774580D01*
X123710835Y-78774580D02*
X123758454Y-78679342D01*
X123758454Y-78679342D02*
X123758454Y-78393628D01*
X123758454Y-78393628D02*
X123710835Y-78298390D01*
X123710835Y-78298390D02*
X123663216Y-78250771D01*
X123663216Y-78250771D02*
X123567978Y-78203152D01*
X123567978Y-78203152D02*
X123425121Y-78203152D01*
X123425121Y-78203152D02*
X123329883Y-78250771D01*
X123329883Y-78250771D02*
X123282264Y-78298390D01*
X123282264Y-78298390D02*
X123234645Y-78393628D01*
X123234645Y-78393628D02*
X123234645Y-78679342D01*
X123234645Y-78679342D02*
X123282264Y-78774580D01*
X123282264Y-78774580D02*
X123329883Y-78822200D01*
X123329883Y-78822200D02*
X123425121Y-78869819D01*
X123425121Y-78869819D02*
X123567978Y-78869819D01*
X122806073Y-78203152D02*
X122806073Y-79203152D01*
X122806073Y-78250771D02*
X122710835Y-78203152D01*
X122710835Y-78203152D02*
X122520359Y-78203152D01*
X122520359Y-78203152D02*
X122425121Y-78250771D01*
X122425121Y-78250771D02*
X122377502Y-78298390D01*
X122377502Y-78298390D02*
X122329883Y-78393628D01*
X122329883Y-78393628D02*
X122329883Y-78679342D01*
X122329883Y-78679342D02*
X122377502Y-78774580D01*
X122377502Y-78774580D02*
X122425121Y-78822200D01*
X122425121Y-78822200D02*
X122520359Y-78869819D01*
X122520359Y-78869819D02*
X122710835Y-78869819D01*
X122710835Y-78869819D02*
X122806073Y-78822200D01*
X120710835Y-78822200D02*
X120806073Y-78869819D01*
X120806073Y-78869819D02*
X120996549Y-78869819D01*
X120996549Y-78869819D02*
X121091787Y-78822200D01*
X121091787Y-78822200D02*
X121139406Y-78774580D01*
X121139406Y-78774580D02*
X121187025Y-78679342D01*
X121187025Y-78679342D02*
X121187025Y-78393628D01*
X121187025Y-78393628D02*
X121139406Y-78298390D01*
X121139406Y-78298390D02*
X121091787Y-78250771D01*
X121091787Y-78250771D02*
X120996549Y-78203152D01*
X120996549Y-78203152D02*
X120806073Y-78203152D01*
X120806073Y-78203152D02*
X120710835Y-78250771D01*
X120139406Y-78869819D02*
X120234644Y-78822200D01*
X120234644Y-78822200D02*
X120282263Y-78774580D01*
X120282263Y-78774580D02*
X120329882Y-78679342D01*
X120329882Y-78679342D02*
X120329882Y-78393628D01*
X120329882Y-78393628D02*
X120282263Y-78298390D01*
X120282263Y-78298390D02*
X120234644Y-78250771D01*
X120234644Y-78250771D02*
X120139406Y-78203152D01*
X120139406Y-78203152D02*
X119996549Y-78203152D01*
X119996549Y-78203152D02*
X119901311Y-78250771D01*
X119901311Y-78250771D02*
X119853692Y-78298390D01*
X119853692Y-78298390D02*
X119806073Y-78393628D01*
X119806073Y-78393628D02*
X119806073Y-78679342D01*
X119806073Y-78679342D02*
X119853692Y-78774580D01*
X119853692Y-78774580D02*
X119901311Y-78822200D01*
X119901311Y-78822200D02*
X119996549Y-78869819D01*
X119996549Y-78869819D02*
X120139406Y-78869819D01*
X119377501Y-78203152D02*
X119377501Y-78869819D01*
X119377501Y-78298390D02*
X119329882Y-78250771D01*
X119329882Y-78250771D02*
X119234644Y-78203152D01*
X119234644Y-78203152D02*
X119091787Y-78203152D01*
X119091787Y-78203152D02*
X118996549Y-78250771D01*
X118996549Y-78250771D02*
X118948930Y-78346009D01*
X118948930Y-78346009D02*
X118948930Y-78869819D01*
X118472739Y-78203152D02*
X118472739Y-78869819D01*
X118472739Y-78298390D02*
X118425120Y-78250771D01*
X118425120Y-78250771D02*
X118329882Y-78203152D01*
X118329882Y-78203152D02*
X118187025Y-78203152D01*
X118187025Y-78203152D02*
X118091787Y-78250771D01*
X118091787Y-78250771D02*
X118044168Y-78346009D01*
X118044168Y-78346009D02*
X118044168Y-78869819D01*
X117187025Y-78822200D02*
X117282263Y-78869819D01*
X117282263Y-78869819D02*
X117472739Y-78869819D01*
X117472739Y-78869819D02*
X117567977Y-78822200D01*
X117567977Y-78822200D02*
X117615596Y-78726961D01*
X117615596Y-78726961D02*
X117615596Y-78346009D01*
X117615596Y-78346009D02*
X117567977Y-78250771D01*
X117567977Y-78250771D02*
X117472739Y-78203152D01*
X117472739Y-78203152D02*
X117282263Y-78203152D01*
X117282263Y-78203152D02*
X117187025Y-78250771D01*
X117187025Y-78250771D02*
X117139406Y-78346009D01*
X117139406Y-78346009D02*
X117139406Y-78441247D01*
X117139406Y-78441247D02*
X117615596Y-78536485D01*
X116282263Y-78822200D02*
X116377501Y-78869819D01*
X116377501Y-78869819D02*
X116567977Y-78869819D01*
X116567977Y-78869819D02*
X116663215Y-78822200D01*
X116663215Y-78822200D02*
X116710834Y-78774580D01*
X116710834Y-78774580D02*
X116758453Y-78679342D01*
X116758453Y-78679342D02*
X116758453Y-78393628D01*
X116758453Y-78393628D02*
X116710834Y-78298390D01*
X116710834Y-78298390D02*
X116663215Y-78250771D01*
X116663215Y-78250771D02*
X116567977Y-78203152D01*
X116567977Y-78203152D02*
X116377501Y-78203152D01*
X116377501Y-78203152D02*
X116282263Y-78250771D01*
X115996548Y-78203152D02*
X115615596Y-78203152D01*
X115853691Y-77869819D02*
X115853691Y-78726961D01*
X115853691Y-78726961D02*
X115806072Y-78822200D01*
X115806072Y-78822200D02*
X115710834Y-78869819D01*
X115710834Y-78869819D02*
X115615596Y-78869819D01*
X115139405Y-78869819D02*
X115234643Y-78822200D01*
X115234643Y-78822200D02*
X115282262Y-78774580D01*
X115282262Y-78774580D02*
X115329881Y-78679342D01*
X115329881Y-78679342D02*
X115329881Y-78393628D01*
X115329881Y-78393628D02*
X115282262Y-78298390D01*
X115282262Y-78298390D02*
X115234643Y-78250771D01*
X115234643Y-78250771D02*
X115139405Y-78203152D01*
X115139405Y-78203152D02*
X114996548Y-78203152D01*
X114996548Y-78203152D02*
X114901310Y-78250771D01*
X114901310Y-78250771D02*
X114853691Y-78298390D01*
X114853691Y-78298390D02*
X114806072Y-78393628D01*
X114806072Y-78393628D02*
X114806072Y-78679342D01*
X114806072Y-78679342D02*
X114853691Y-78774580D01*
X114853691Y-78774580D02*
X114901310Y-78822200D01*
X114901310Y-78822200D02*
X114996548Y-78869819D01*
X114996548Y-78869819D02*
X115139405Y-78869819D01*
X114377500Y-78869819D02*
X114377500Y-78203152D01*
X114377500Y-78393628D02*
X114329881Y-78298390D01*
X114329881Y-78298390D02*
X114282262Y-78250771D01*
X114282262Y-78250771D02*
X114187024Y-78203152D01*
X114187024Y-78203152D02*
X114091786Y-78203152D01*
X113853690Y-79250771D02*
X113806071Y-79203152D01*
X113806071Y-79203152D02*
X113710833Y-79060295D01*
X113710833Y-79060295D02*
X113663214Y-78965057D01*
X113663214Y-78965057D02*
X113615595Y-78822200D01*
X113615595Y-78822200D02*
X113567976Y-78584104D01*
X113567976Y-78584104D02*
X113567976Y-78393628D01*
X113567976Y-78393628D02*
X113615595Y-78155533D01*
X113615595Y-78155533D02*
X113663214Y-78012676D01*
X113663214Y-78012676D02*
X113710833Y-77917438D01*
X113710833Y-77917438D02*
X113806071Y-77774580D01*
X113806071Y-77774580D02*
X113853690Y-77726961D01*
X113091785Y-78774580D02*
X113044166Y-78822200D01*
X113044166Y-78822200D02*
X113091785Y-78869819D01*
X113091785Y-78869819D02*
X113139404Y-78822200D01*
X113139404Y-78822200D02*
X113091785Y-78774580D01*
X113091785Y-78774580D02*
X113091785Y-78869819D01*
X113091785Y-78250771D02*
X113044166Y-78298390D01*
X113044166Y-78298390D02*
X113091785Y-78346009D01*
X113091785Y-78346009D02*
X113139404Y-78298390D01*
X113139404Y-78298390D02*
X113091785Y-78250771D01*
X113091785Y-78250771D02*
X113091785Y-78346009D01*
D11*
X58176692Y-54315942D02*
X58319549Y-54458800D01*
X58319549Y-54458800D02*
X58748121Y-54601657D01*
X58748121Y-54601657D02*
X59033835Y-54601657D01*
X59033835Y-54601657D02*
X59462406Y-54458800D01*
X59462406Y-54458800D02*
X59748121Y-54173085D01*
X59748121Y-54173085D02*
X59890978Y-53887371D01*
X59890978Y-53887371D02*
X60033835Y-53315942D01*
X60033835Y-53315942D02*
X60033835Y-52887371D01*
X60033835Y-52887371D02*
X59890978Y-52315942D01*
X59890978Y-52315942D02*
X59748121Y-52030228D01*
X59748121Y-52030228D02*
X59462406Y-51744514D01*
X59462406Y-51744514D02*
X59033835Y-51601657D01*
X59033835Y-51601657D02*
X58748121Y-51601657D01*
X58748121Y-51601657D02*
X58319549Y-51744514D01*
X58319549Y-51744514D02*
X58176692Y-51887371D01*
X56890978Y-54601657D02*
X56890978Y-51601657D01*
X55605264Y-54601657D02*
X55605264Y-53030228D01*
X55605264Y-53030228D02*
X55748121Y-52744514D01*
X55748121Y-52744514D02*
X56033835Y-52601657D01*
X56033835Y-52601657D02*
X56462406Y-52601657D01*
X56462406Y-52601657D02*
X56748121Y-52744514D01*
X56748121Y-52744514D02*
X56890978Y-52887371D01*
X53605263Y-51601657D02*
X53319549Y-51601657D01*
X53319549Y-51601657D02*
X53033835Y-51744514D01*
X53033835Y-51744514D02*
X52890978Y-51887371D01*
X52890978Y-51887371D02*
X52748120Y-52173085D01*
X52748120Y-52173085D02*
X52605263Y-52744514D01*
X52605263Y-52744514D02*
X52605263Y-53458800D01*
X52605263Y-53458800D02*
X52748120Y-54030228D01*
X52748120Y-54030228D02*
X52890978Y-54315942D01*
X52890978Y-54315942D02*
X53033835Y-54458800D01*
X53033835Y-54458800D02*
X53319549Y-54601657D01*
X53319549Y-54601657D02*
X53605263Y-54601657D01*
X53605263Y-54601657D02*
X53890978Y-54458800D01*
X53890978Y-54458800D02*
X54033835Y-54315942D01*
X54033835Y-54315942D02*
X54176692Y-54030228D01*
X54176692Y-54030228D02*
X54319549Y-53458800D01*
X54319549Y-53458800D02*
X54319549Y-52744514D01*
X54319549Y-52744514D02*
X54176692Y-52173085D01*
X54176692Y-52173085D02*
X54033835Y-51887371D01*
X54033835Y-51887371D02*
X53890978Y-51744514D01*
X53890978Y-51744514D02*
X53605263Y-51601657D01*
X80176692Y-54315942D02*
X80319549Y-54458800D01*
X80319549Y-54458800D02*
X80748121Y-54601657D01*
X80748121Y-54601657D02*
X81033835Y-54601657D01*
X81033835Y-54601657D02*
X81462406Y-54458800D01*
X81462406Y-54458800D02*
X81748121Y-54173085D01*
X81748121Y-54173085D02*
X81890978Y-53887371D01*
X81890978Y-53887371D02*
X82033835Y-53315942D01*
X82033835Y-53315942D02*
X82033835Y-52887371D01*
X82033835Y-52887371D02*
X81890978Y-52315942D01*
X81890978Y-52315942D02*
X81748121Y-52030228D01*
X81748121Y-52030228D02*
X81462406Y-51744514D01*
X81462406Y-51744514D02*
X81033835Y-51601657D01*
X81033835Y-51601657D02*
X80748121Y-51601657D01*
X80748121Y-51601657D02*
X80319549Y-51744514D01*
X80319549Y-51744514D02*
X80176692Y-51887371D01*
X78890978Y-54601657D02*
X78890978Y-51601657D01*
X77605264Y-54601657D02*
X77605264Y-53030228D01*
X77605264Y-53030228D02*
X77748121Y-52744514D01*
X77748121Y-52744514D02*
X78033835Y-52601657D01*
X78033835Y-52601657D02*
X78462406Y-52601657D01*
X78462406Y-52601657D02*
X78748121Y-52744514D01*
X78748121Y-52744514D02*
X78890978Y-52887371D01*
X76319549Y-51887371D02*
X76176692Y-51744514D01*
X76176692Y-51744514D02*
X75890978Y-51601657D01*
X75890978Y-51601657D02*
X75176692Y-51601657D01*
X75176692Y-51601657D02*
X74890978Y-51744514D01*
X74890978Y-51744514D02*
X74748120Y-51887371D01*
X74748120Y-51887371D02*
X74605263Y-52173085D01*
X74605263Y-52173085D02*
X74605263Y-52458800D01*
X74605263Y-52458800D02*
X74748120Y-52887371D01*
X74748120Y-52887371D02*
X76462406Y-54601657D01*
X76462406Y-54601657D02*
X74605263Y-54601657D01*
D10*
X123119047Y-84643427D02*
X123166666Y-84595808D01*
X123166666Y-84595808D02*
X123261904Y-84452951D01*
X123261904Y-84452951D02*
X123309523Y-84357713D01*
X123309523Y-84357713D02*
X123357142Y-84214856D01*
X123357142Y-84214856D02*
X123404761Y-83976760D01*
X123404761Y-83976760D02*
X123404761Y-83786284D01*
X123404761Y-83786284D02*
X123357142Y-83548189D01*
X123357142Y-83548189D02*
X123309523Y-83405332D01*
X123309523Y-83405332D02*
X123261904Y-83310094D01*
X123261904Y-83310094D02*
X123166666Y-83167236D01*
X123166666Y-83167236D02*
X123119047Y-83119617D01*
X122833332Y-83262475D02*
X122214285Y-83262475D01*
X122214285Y-83262475D02*
X122547618Y-83643427D01*
X122547618Y-83643427D02*
X122404761Y-83643427D01*
X122404761Y-83643427D02*
X122309523Y-83691046D01*
X122309523Y-83691046D02*
X122261904Y-83738665D01*
X122261904Y-83738665D02*
X122214285Y-83833903D01*
X122214285Y-83833903D02*
X122214285Y-84071998D01*
X122214285Y-84071998D02*
X122261904Y-84167236D01*
X122261904Y-84167236D02*
X122309523Y-84214856D01*
X122309523Y-84214856D02*
X122404761Y-84262475D01*
X122404761Y-84262475D02*
X122690475Y-84262475D01*
X122690475Y-84262475D02*
X122785713Y-84214856D01*
X122785713Y-84214856D02*
X122833332Y-84167236D01*
X121880951Y-84643427D02*
X121833332Y-84595808D01*
X121833332Y-84595808D02*
X121738094Y-84452951D01*
X121738094Y-84452951D02*
X121690475Y-84357713D01*
X121690475Y-84357713D02*
X121642856Y-84214856D01*
X121642856Y-84214856D02*
X121595237Y-83976760D01*
X121595237Y-83976760D02*
X121595237Y-83786284D01*
X121595237Y-83786284D02*
X121642856Y-83548189D01*
X121642856Y-83548189D02*
X121690475Y-83405332D01*
X121690475Y-83405332D02*
X121738094Y-83310094D01*
X121738094Y-83310094D02*
X121833332Y-83167236D01*
X121833332Y-83167236D02*
X121880951Y-83119617D01*
X125238095Y-84872419D02*
X124904762Y-85872419D01*
X124904762Y-85872419D02*
X124571429Y-84872419D01*
X124285714Y-85824800D02*
X124190476Y-85872419D01*
X124190476Y-85872419D02*
X124000000Y-85872419D01*
X124000000Y-85872419D02*
X123904762Y-85824800D01*
X123904762Y-85824800D02*
X123857143Y-85729561D01*
X123857143Y-85729561D02*
X123857143Y-85681942D01*
X123857143Y-85681942D02*
X123904762Y-85586704D01*
X123904762Y-85586704D02*
X124000000Y-85539085D01*
X124000000Y-85539085D02*
X124142857Y-85539085D01*
X124142857Y-85539085D02*
X124238095Y-85491466D01*
X124238095Y-85491466D02*
X124285714Y-85396228D01*
X124285714Y-85396228D02*
X124285714Y-85348609D01*
X124285714Y-85348609D02*
X124238095Y-85253371D01*
X124238095Y-85253371D02*
X124142857Y-85205752D01*
X124142857Y-85205752D02*
X124000000Y-85205752D01*
X124000000Y-85205752D02*
X123904762Y-85253371D01*
X123000000Y-85205752D02*
X123000000Y-85872419D01*
X123428571Y-85205752D02*
X123428571Y-85729561D01*
X123428571Y-85729561D02*
X123380952Y-85824800D01*
X123380952Y-85824800D02*
X123285714Y-85872419D01*
X123285714Y-85872419D02*
X123142857Y-85872419D01*
X123142857Y-85872419D02*
X123047619Y-85824800D01*
X123047619Y-85824800D02*
X123000000Y-85777180D01*
X122523809Y-85205752D02*
X122523809Y-86205752D01*
X122523809Y-85253371D02*
X122428571Y-85205752D01*
X122428571Y-85205752D02*
X122238095Y-85205752D01*
X122238095Y-85205752D02*
X122142857Y-85253371D01*
X122142857Y-85253371D02*
X122095238Y-85300990D01*
X122095238Y-85300990D02*
X122047619Y-85396228D01*
X122047619Y-85396228D02*
X122047619Y-85681942D01*
X122047619Y-85681942D02*
X122095238Y-85777180D01*
X122095238Y-85777180D02*
X122142857Y-85824800D01*
X122142857Y-85824800D02*
X122238095Y-85872419D01*
X122238095Y-85872419D02*
X122428571Y-85872419D01*
X122428571Y-85872419D02*
X122523809Y-85824800D01*
X121619047Y-85205752D02*
X121619047Y-86205752D01*
X121619047Y-85253371D02*
X121523809Y-85205752D01*
X121523809Y-85205752D02*
X121333333Y-85205752D01*
X121333333Y-85205752D02*
X121238095Y-85253371D01*
X121238095Y-85253371D02*
X121190476Y-85300990D01*
X121190476Y-85300990D02*
X121142857Y-85396228D01*
X121142857Y-85396228D02*
X121142857Y-85681942D01*
X121142857Y-85681942D02*
X121190476Y-85777180D01*
X121190476Y-85777180D02*
X121238095Y-85824800D01*
X121238095Y-85824800D02*
X121333333Y-85872419D01*
X121333333Y-85872419D02*
X121523809Y-85872419D01*
X121523809Y-85872419D02*
X121619047Y-85824800D01*
X120571428Y-85872419D02*
X120666666Y-85824800D01*
X120666666Y-85824800D02*
X120714285Y-85729561D01*
X120714285Y-85729561D02*
X120714285Y-84872419D01*
X120285713Y-85205752D02*
X120047618Y-85872419D01*
X119809523Y-85205752D02*
X120047618Y-85872419D01*
X120047618Y-85872419D02*
X120142856Y-86110514D01*
X120142856Y-86110514D02*
X120190475Y-86158133D01*
X120190475Y-86158133D02*
X120285713Y-86205752D01*
D11*
X135176692Y-54315942D02*
X135319549Y-54458800D01*
X135319549Y-54458800D02*
X135748121Y-54601657D01*
X135748121Y-54601657D02*
X136033835Y-54601657D01*
X136033835Y-54601657D02*
X136462406Y-54458800D01*
X136462406Y-54458800D02*
X136748121Y-54173085D01*
X136748121Y-54173085D02*
X136890978Y-53887371D01*
X136890978Y-53887371D02*
X137033835Y-53315942D01*
X137033835Y-53315942D02*
X137033835Y-52887371D01*
X137033835Y-52887371D02*
X136890978Y-52315942D01*
X136890978Y-52315942D02*
X136748121Y-52030228D01*
X136748121Y-52030228D02*
X136462406Y-51744514D01*
X136462406Y-51744514D02*
X136033835Y-51601657D01*
X136033835Y-51601657D02*
X135748121Y-51601657D01*
X135748121Y-51601657D02*
X135319549Y-51744514D01*
X135319549Y-51744514D02*
X135176692Y-51887371D01*
X133890978Y-54601657D02*
X133890978Y-51601657D01*
X132605264Y-54601657D02*
X132605264Y-53030228D01*
X132605264Y-53030228D02*
X132748121Y-52744514D01*
X132748121Y-52744514D02*
X133033835Y-52601657D01*
X133033835Y-52601657D02*
X133462406Y-52601657D01*
X133462406Y-52601657D02*
X133748121Y-52744514D01*
X133748121Y-52744514D02*
X133890978Y-52887371D01*
X131462406Y-51601657D02*
X129462406Y-51601657D01*
X129462406Y-51601657D02*
X130748120Y-54601657D01*
X102176692Y-54315942D02*
X102319549Y-54458800D01*
X102319549Y-54458800D02*
X102748121Y-54601657D01*
X102748121Y-54601657D02*
X103033835Y-54601657D01*
X103033835Y-54601657D02*
X103462406Y-54458800D01*
X103462406Y-54458800D02*
X103748121Y-54173085D01*
X103748121Y-54173085D02*
X103890978Y-53887371D01*
X103890978Y-53887371D02*
X104033835Y-53315942D01*
X104033835Y-53315942D02*
X104033835Y-52887371D01*
X104033835Y-52887371D02*
X103890978Y-52315942D01*
X103890978Y-52315942D02*
X103748121Y-52030228D01*
X103748121Y-52030228D02*
X103462406Y-51744514D01*
X103462406Y-51744514D02*
X103033835Y-51601657D01*
X103033835Y-51601657D02*
X102748121Y-51601657D01*
X102748121Y-51601657D02*
X102319549Y-51744514D01*
X102319549Y-51744514D02*
X102176692Y-51887371D01*
X100890978Y-54601657D02*
X100890978Y-51601657D01*
X99605264Y-54601657D02*
X99605264Y-53030228D01*
X99605264Y-53030228D02*
X99748121Y-52744514D01*
X99748121Y-52744514D02*
X100033835Y-52601657D01*
X100033835Y-52601657D02*
X100462406Y-52601657D01*
X100462406Y-52601657D02*
X100748121Y-52744514D01*
X100748121Y-52744514D02*
X100890978Y-52887371D01*
X96890978Y-52601657D02*
X96890978Y-54601657D01*
X97605263Y-51458800D02*
X98319549Y-53601657D01*
X98319549Y-53601657D02*
X96462406Y-53601657D01*
X69176692Y-54315942D02*
X69319549Y-54458800D01*
X69319549Y-54458800D02*
X69748121Y-54601657D01*
X69748121Y-54601657D02*
X70033835Y-54601657D01*
X70033835Y-54601657D02*
X70462406Y-54458800D01*
X70462406Y-54458800D02*
X70748121Y-54173085D01*
X70748121Y-54173085D02*
X70890978Y-53887371D01*
X70890978Y-53887371D02*
X71033835Y-53315942D01*
X71033835Y-53315942D02*
X71033835Y-52887371D01*
X71033835Y-52887371D02*
X70890978Y-52315942D01*
X70890978Y-52315942D02*
X70748121Y-52030228D01*
X70748121Y-52030228D02*
X70462406Y-51744514D01*
X70462406Y-51744514D02*
X70033835Y-51601657D01*
X70033835Y-51601657D02*
X69748121Y-51601657D01*
X69748121Y-51601657D02*
X69319549Y-51744514D01*
X69319549Y-51744514D02*
X69176692Y-51887371D01*
X67890978Y-54601657D02*
X67890978Y-51601657D01*
X66605264Y-54601657D02*
X66605264Y-53030228D01*
X66605264Y-53030228D02*
X66748121Y-52744514D01*
X66748121Y-52744514D02*
X67033835Y-52601657D01*
X67033835Y-52601657D02*
X67462406Y-52601657D01*
X67462406Y-52601657D02*
X67748121Y-52744514D01*
X67748121Y-52744514D02*
X67890978Y-52887371D01*
X63605263Y-54601657D02*
X65319549Y-54601657D01*
X64462406Y-54601657D02*
X64462406Y-51601657D01*
X64462406Y-51601657D02*
X64748120Y-52030228D01*
X64748120Y-52030228D02*
X65033835Y-52315942D01*
X65033835Y-52315942D02*
X65319549Y-52458800D01*
M02*
