G04 #@! TF.GenerationSoftware,KiCad,Pcbnew,9.0.7+1*
G04 #@! TF.CreationDate,2026-05-07T05:04:50+00:00*
G04 #@! TF.ProjectId,HackerDAQ Voltage Card,4861636b-6572-4444-9151-20566f6c7461,rev?*
G04 #@! TF.SameCoordinates,Original*
G04 #@! TF.FileFunction,Paste,Top*
G04 #@! TF.FilePolarity,Positive*
%FSLAX46Y46*%
G04 Gerber Fmt 4.6, Leading zero omitted, Abs format (unit mm)*
G04 Created by KiCad (PCBNEW 9.0.7+1) date 2026-05-07 05:04:50*
%MOMM*%
%LPD*%
G01*
G04 APERTURE LIST*
G04 APERTURE END LIST*
G36*
G01*
X102500000Y-99200000D02*
X102000000Y-99200000D01*
G75*
G02*
X101775000Y-98975000I0J225000D01*
G01*
X101775000Y-98525000D01*
G75*
G02*
X102000000Y-98300000I225000J0D01*
G01*
X102500000Y-98300000D01*
G75*
G02*
X102725000Y-98525000I0J-225000D01*
G01*
X102725000Y-98975000D01*
G75*
G02*
X102500000Y-99200000I-225000J0D01*
G01*
G37*
G36*
G01*
X102500000Y-97650000D02*
X102000000Y-97650000D01*
G75*
G02*
X101775000Y-97425000I0J225000D01*
G01*
X101775000Y-96975000D01*
G75*
G02*
X102000000Y-96750000I225000J0D01*
G01*
X102500000Y-96750000D01*
G75*
G02*
X102725000Y-96975000I0J-225000D01*
G01*
X102725000Y-97425000D01*
G75*
G02*
X102500000Y-97650000I-225000J0D01*
G01*
G37*
G36*
G01*
X99629081Y-79225000D02*
X99079081Y-79225000D01*
G75*
G02*
X98879081Y-79025000I0J200000D01*
G01*
X98879081Y-78625000D01*
G75*
G02*
X99079081Y-78425000I200000J0D01*
G01*
X99629081Y-78425000D01*
G75*
G02*
X99829081Y-78625000I0J-200000D01*
G01*
X99829081Y-79025000D01*
G75*
G02*
X99629081Y-79225000I-200000J0D01*
G01*
G37*
G36*
G01*
X99629081Y-77575000D02*
X99079081Y-77575000D01*
G75*
G02*
X98879081Y-77375000I0J200000D01*
G01*
X98879081Y-76975000D01*
G75*
G02*
X99079081Y-76775000I200000J0D01*
G01*
X99629081Y-76775000D01*
G75*
G02*
X99829081Y-76975000I0J-200000D01*
G01*
X99829081Y-77375000D01*
G75*
G02*
X99629081Y-77575000I-200000J0D01*
G01*
G37*
G36*
G01*
X57225000Y-76775000D02*
X57775000Y-76775000D01*
G75*
G02*
X57975000Y-76975000I0J-200000D01*
G01*
X57975000Y-77375000D01*
G75*
G02*
X57775000Y-77575000I-200000J0D01*
G01*
X57225000Y-77575000D01*
G75*
G02*
X57025000Y-77375000I0J200000D01*
G01*
X57025000Y-76975000D01*
G75*
G02*
X57225000Y-76775000I200000J0D01*
G01*
G37*
G36*
G01*
X57225000Y-78425000D02*
X57775000Y-78425000D01*
G75*
G02*
X57975000Y-78625000I0J-200000D01*
G01*
X57975000Y-79025000D01*
G75*
G02*
X57775000Y-79225000I-200000J0D01*
G01*
X57225000Y-79225000D01*
G75*
G02*
X57025000Y-79025000I0J200000D01*
G01*
X57025000Y-78625000D01*
G75*
G02*
X57225000Y-78425000I200000J0D01*
G01*
G37*
G36*
G01*
X67784259Y-80750000D02*
X67784259Y-80250000D01*
G75*
G02*
X68009259Y-80025000I225000J0D01*
G01*
X68459259Y-80025000D01*
G75*
G02*
X68684259Y-80250000I0J-225000D01*
G01*
X68684259Y-80750000D01*
G75*
G02*
X68459259Y-80975000I-225000J0D01*
G01*
X68009259Y-80975000D01*
G75*
G02*
X67784259Y-80750000I0J225000D01*
G01*
G37*
G36*
G01*
X69334259Y-80750000D02*
X69334259Y-80250000D01*
G75*
G02*
X69559259Y-80025000I225000J0D01*
G01*
X70009259Y-80025000D01*
G75*
G02*
X70234259Y-80250000I0J-225000D01*
G01*
X70234259Y-80750000D01*
G75*
G02*
X70009259Y-80975000I-225000J0D01*
G01*
X69559259Y-80975000D01*
G75*
G02*
X69334259Y-80750000I0J225000D01*
G01*
G37*
G36*
G01*
X56775000Y-80750000D02*
X56775000Y-80250000D01*
G75*
G02*
X57000000Y-80025000I225000J0D01*
G01*
X57450000Y-80025000D01*
G75*
G02*
X57675000Y-80250000I0J-225000D01*
G01*
X57675000Y-80750000D01*
G75*
G02*
X57450000Y-80975000I-225000J0D01*
G01*
X57000000Y-80975000D01*
G75*
G02*
X56775000Y-80750000I0J225000D01*
G01*
G37*
G36*
G01*
X58325000Y-80750000D02*
X58325000Y-80250000D01*
G75*
G02*
X58550000Y-80025000I225000J0D01*
G01*
X59000000Y-80025000D01*
G75*
G02*
X59225000Y-80250000I0J-225000D01*
G01*
X59225000Y-80750000D01*
G75*
G02*
X59000000Y-80975000I-225000J0D01*
G01*
X58550000Y-80975000D01*
G75*
G02*
X58325000Y-80750000I0J225000D01*
G01*
G37*
G36*
G01*
X112010271Y-76775000D02*
X112560271Y-76775000D01*
G75*
G02*
X112760271Y-76975000I0J-200000D01*
G01*
X112760271Y-77375000D01*
G75*
G02*
X112560271Y-77575000I-200000J0D01*
G01*
X112010271Y-77575000D01*
G75*
G02*
X111810271Y-77375000I0J200000D01*
G01*
X111810271Y-76975000D01*
G75*
G02*
X112010271Y-76775000I200000J0D01*
G01*
G37*
G36*
G01*
X112010271Y-78425000D02*
X112560271Y-78425000D01*
G75*
G02*
X112760271Y-78625000I0J-200000D01*
G01*
X112760271Y-79025000D01*
G75*
G02*
X112560271Y-79225000I-200000J0D01*
G01*
X112010271Y-79225000D01*
G75*
G02*
X111810271Y-79025000I0J200000D01*
G01*
X111810271Y-78625000D01*
G75*
G02*
X112010271Y-78425000I200000J0D01*
G01*
G37*
G36*
G01*
X88025000Y-109575000D02*
X88575000Y-109575000D01*
G75*
G02*
X88775000Y-109775000I0J-200000D01*
G01*
X88775000Y-110175000D01*
G75*
G02*
X88575000Y-110375000I-200000J0D01*
G01*
X88025000Y-110375000D01*
G75*
G02*
X87825000Y-110175000I0J200000D01*
G01*
X87825000Y-109775000D01*
G75*
G02*
X88025000Y-109575000I200000J0D01*
G01*
G37*
G36*
G01*
X88025000Y-111225000D02*
X88575000Y-111225000D01*
G75*
G02*
X88775000Y-111425000I0J-200000D01*
G01*
X88775000Y-111825000D01*
G75*
G02*
X88575000Y-112025000I-200000J0D01*
G01*
X88025000Y-112025000D01*
G75*
G02*
X87825000Y-111825000I0J200000D01*
G01*
X87825000Y-111425000D01*
G75*
G02*
X88025000Y-111225000I200000J0D01*
G01*
G37*
G36*
G01*
X67909259Y-75450000D02*
X67909259Y-74550000D01*
G75*
G02*
X68159259Y-74300000I250000J0D01*
G01*
X68959259Y-74300000D01*
G75*
G02*
X69209259Y-74550000I0J-250000D01*
G01*
X69209259Y-75450000D01*
G75*
G02*
X68959259Y-75700000I-250000J0D01*
G01*
X68159259Y-75700000D01*
G75*
G02*
X67909259Y-75450000I0J250000D01*
G01*
G37*
G36*
G01*
X70809259Y-75450000D02*
X70809259Y-74550000D01*
G75*
G02*
X71059259Y-74300000I250000J0D01*
G01*
X71859259Y-74300000D01*
G75*
G02*
X72109259Y-74550000I0J-250000D01*
G01*
X72109259Y-75450000D01*
G75*
G02*
X71859259Y-75700000I-250000J0D01*
G01*
X71059259Y-75700000D01*
G75*
G02*
X70809259Y-75450000I0J250000D01*
G01*
G37*
G36*
G01*
X86350000Y-91050000D02*
X86350000Y-90550000D01*
G75*
G02*
X86575000Y-90325000I225000J0D01*
G01*
X87025000Y-90325000D01*
G75*
G02*
X87250000Y-90550000I0J-225000D01*
G01*
X87250000Y-91050000D01*
G75*
G02*
X87025000Y-91275000I-225000J0D01*
G01*
X86575000Y-91275000D01*
G75*
G02*
X86350000Y-91050000I0J225000D01*
G01*
G37*
G36*
G01*
X87900000Y-91050000D02*
X87900000Y-90550000D01*
G75*
G02*
X88125000Y-90325000I225000J0D01*
G01*
X88575000Y-90325000D01*
G75*
G02*
X88800000Y-90550000I0J-225000D01*
G01*
X88800000Y-91050000D01*
G75*
G02*
X88575000Y-91275000I-225000J0D01*
G01*
X88125000Y-91275000D01*
G75*
G02*
X87900000Y-91050000I0J225000D01*
G01*
G37*
G36*
G01*
X70750000Y-128215000D02*
X70250000Y-128215000D01*
G75*
G02*
X70025000Y-127990000I0J225000D01*
G01*
X70025000Y-127540000D01*
G75*
G02*
X70250000Y-127315000I225000J0D01*
G01*
X70750000Y-127315000D01*
G75*
G02*
X70975000Y-127540000I0J-225000D01*
G01*
X70975000Y-127990000D01*
G75*
G02*
X70750000Y-128215000I-225000J0D01*
G01*
G37*
G36*
G01*
X70750000Y-126665000D02*
X70250000Y-126665000D01*
G75*
G02*
X70025000Y-126440000I0J225000D01*
G01*
X70025000Y-125990000D01*
G75*
G02*
X70250000Y-125765000I225000J0D01*
G01*
X70750000Y-125765000D01*
G75*
G02*
X70975000Y-125990000I0J-225000D01*
G01*
X70975000Y-126440000D01*
G75*
G02*
X70750000Y-126665000I-225000J0D01*
G01*
G37*
G36*
G01*
X91575000Y-89050000D02*
X91575000Y-88550000D01*
G75*
G02*
X91800000Y-88325000I225000J0D01*
G01*
X92250000Y-88325000D01*
G75*
G02*
X92475000Y-88550000I0J-225000D01*
G01*
X92475000Y-89050000D01*
G75*
G02*
X92250000Y-89275000I-225000J0D01*
G01*
X91800000Y-89275000D01*
G75*
G02*
X91575000Y-89050000I0J225000D01*
G01*
G37*
G36*
G01*
X93125000Y-89050000D02*
X93125000Y-88550000D01*
G75*
G02*
X93350000Y-88325000I225000J0D01*
G01*
X93800000Y-88325000D01*
G75*
G02*
X94025000Y-88550000I0J-225000D01*
G01*
X94025000Y-89050000D01*
G75*
G02*
X93800000Y-89275000I-225000J0D01*
G01*
X93350000Y-89275000D01*
G75*
G02*
X93125000Y-89050000I0J225000D01*
G01*
G37*
G36*
G01*
X104500000Y-99200000D02*
X104000000Y-99200000D01*
G75*
G02*
X103775000Y-98975000I0J225000D01*
G01*
X103775000Y-98525000D01*
G75*
G02*
X104000000Y-98300000I225000J0D01*
G01*
X104500000Y-98300000D01*
G75*
G02*
X104725000Y-98525000I0J-225000D01*
G01*
X104725000Y-98975000D01*
G75*
G02*
X104500000Y-99200000I-225000J0D01*
G01*
G37*
G36*
G01*
X104500000Y-97650000D02*
X104000000Y-97650000D01*
G75*
G02*
X103775000Y-97425000I0J225000D01*
G01*
X103775000Y-96975000D01*
G75*
G02*
X104000000Y-96750000I225000J0D01*
G01*
X104500000Y-96750000D01*
G75*
G02*
X104725000Y-96975000I0J-225000D01*
G01*
X104725000Y-97425000D01*
G75*
G02*
X104500000Y-97650000I-225000J0D01*
G01*
G37*
G36*
G01*
X84550000Y-101075000D02*
X85050000Y-101075000D01*
G75*
G02*
X85275000Y-101300000I0J-225000D01*
G01*
X85275000Y-101750000D01*
G75*
G02*
X85050000Y-101975000I-225000J0D01*
G01*
X84550000Y-101975000D01*
G75*
G02*
X84325000Y-101750000I0J225000D01*
G01*
X84325000Y-101300000D01*
G75*
G02*
X84550000Y-101075000I225000J0D01*
G01*
G37*
G36*
G01*
X84550000Y-102625000D02*
X85050000Y-102625000D01*
G75*
G02*
X85275000Y-102850000I0J-225000D01*
G01*
X85275000Y-103300000D01*
G75*
G02*
X85050000Y-103525000I-225000J0D01*
G01*
X84550000Y-103525000D01*
G75*
G02*
X84325000Y-103300000I0J225000D01*
G01*
X84325000Y-102850000D01*
G75*
G02*
X84550000Y-102625000I225000J0D01*
G01*
G37*
G36*
G01*
X100629081Y-80750000D02*
X100629081Y-80250000D01*
G75*
G02*
X100854081Y-80025000I225000J0D01*
G01*
X101304081Y-80025000D01*
G75*
G02*
X101529081Y-80250000I0J-225000D01*
G01*
X101529081Y-80750000D01*
G75*
G02*
X101304081Y-80975000I-225000J0D01*
G01*
X100854081Y-80975000D01*
G75*
G02*
X100629081Y-80750000I0J225000D01*
G01*
G37*
G36*
G01*
X102179081Y-80750000D02*
X102179081Y-80250000D01*
G75*
G02*
X102404081Y-80025000I225000J0D01*
G01*
X102854081Y-80025000D01*
G75*
G02*
X103079081Y-80250000I0J-225000D01*
G01*
X103079081Y-80750000D01*
G75*
G02*
X102854081Y-80975000I-225000J0D01*
G01*
X102404081Y-80975000D01*
G75*
G02*
X102179081Y-80750000I0J225000D01*
G01*
G37*
G36*
G01*
X117275000Y-90250000D02*
X117275000Y-89750000D01*
G75*
G02*
X117500000Y-89525000I225000J0D01*
G01*
X117950000Y-89525000D01*
G75*
G02*
X118175000Y-89750000I0J-225000D01*
G01*
X118175000Y-90250000D01*
G75*
G02*
X117950000Y-90475000I-225000J0D01*
G01*
X117500000Y-90475000D01*
G75*
G02*
X117275000Y-90250000I0J225000D01*
G01*
G37*
G36*
G01*
X118825000Y-90250000D02*
X118825000Y-89750000D01*
G75*
G02*
X119050000Y-89525000I225000J0D01*
G01*
X119500000Y-89525000D01*
G75*
G02*
X119725000Y-89750000I0J-225000D01*
G01*
X119725000Y-90250000D01*
G75*
G02*
X119500000Y-90475000I-225000J0D01*
G01*
X119050000Y-90475000D01*
G75*
G02*
X118825000Y-90250000I0J225000D01*
G01*
G37*
G36*
G01*
X102050000Y-100075000D02*
X102550000Y-100075000D01*
G75*
G02*
X102775000Y-100300000I0J-225000D01*
G01*
X102775000Y-100750000D01*
G75*
G02*
X102550000Y-100975000I-225000J0D01*
G01*
X102050000Y-100975000D01*
G75*
G02*
X101825000Y-100750000I0J225000D01*
G01*
X101825000Y-100300000D01*
G75*
G02*
X102050000Y-100075000I225000J0D01*
G01*
G37*
G36*
G01*
X102050000Y-101625000D02*
X102550000Y-101625000D01*
G75*
G02*
X102775000Y-101850000I0J-225000D01*
G01*
X102775000Y-102300000D01*
G75*
G02*
X102550000Y-102525000I-225000J0D01*
G01*
X102050000Y-102525000D01*
G75*
G02*
X101825000Y-102300000I0J225000D01*
G01*
X101825000Y-101850000D01*
G75*
G02*
X102050000Y-101625000I225000J0D01*
G01*
G37*
G36*
G01*
X122837784Y-75450000D02*
X122837784Y-74550000D01*
G75*
G02*
X123087784Y-74300000I250000J0D01*
G01*
X123887784Y-74300000D01*
G75*
G02*
X124137784Y-74550000I0J-250000D01*
G01*
X124137784Y-75450000D01*
G75*
G02*
X123887784Y-75700000I-250000J0D01*
G01*
X123087784Y-75700000D01*
G75*
G02*
X122837784Y-75450000I0J250000D01*
G01*
G37*
G36*
G01*
X125737784Y-75450000D02*
X125737784Y-74550000D01*
G75*
G02*
X125987784Y-74300000I250000J0D01*
G01*
X126787784Y-74300000D01*
G75*
G02*
X127037784Y-74550000I0J-250000D01*
G01*
X127037784Y-75450000D01*
G75*
G02*
X126787784Y-75700000I-250000J0D01*
G01*
X125987784Y-75700000D01*
G75*
G02*
X125737784Y-75450000I0J250000D01*
G01*
G37*
G36*
G01*
X88826910Y-79225000D02*
X88276910Y-79225000D01*
G75*
G02*
X88076910Y-79025000I0J200000D01*
G01*
X88076910Y-78625000D01*
G75*
G02*
X88276910Y-78425000I200000J0D01*
G01*
X88826910Y-78425000D01*
G75*
G02*
X89026910Y-78625000I0J-200000D01*
G01*
X89026910Y-79025000D01*
G75*
G02*
X88826910Y-79225000I-200000J0D01*
G01*
G37*
G36*
G01*
X88826910Y-77575000D02*
X88276910Y-77575000D01*
G75*
G02*
X88076910Y-77375000I0J200000D01*
G01*
X88076910Y-76975000D01*
G75*
G02*
X88276910Y-76775000I200000J0D01*
G01*
X88826910Y-76775000D01*
G75*
G02*
X89026910Y-76975000I0J-200000D01*
G01*
X89026910Y-77375000D01*
G75*
G02*
X88826910Y-77575000I-200000J0D01*
G01*
G37*
G36*
G01*
X132400000Y-75450000D02*
X132400000Y-74550000D01*
G75*
G02*
X132650000Y-74300000I250000J0D01*
G01*
X133450000Y-74300000D01*
G75*
G02*
X133700000Y-74550000I0J-250000D01*
G01*
X133700000Y-75450000D01*
G75*
G02*
X133450000Y-75700000I-250000J0D01*
G01*
X132650000Y-75700000D01*
G75*
G02*
X132400000Y-75450000I0J250000D01*
G01*
G37*
G36*
G01*
X135300000Y-75450000D02*
X135300000Y-74550000D01*
G75*
G02*
X135550000Y-74300000I250000J0D01*
G01*
X136350000Y-74300000D01*
G75*
G02*
X136600000Y-74550000I0J-250000D01*
G01*
X136600000Y-75450000D01*
G75*
G02*
X136350000Y-75700000I-250000J0D01*
G01*
X135550000Y-75700000D01*
G75*
G02*
X135300000Y-75450000I0J250000D01*
G01*
G37*
G36*
G01*
X82575000Y-109575000D02*
X82575000Y-109025000D01*
G75*
G02*
X82775000Y-108825000I200000J0D01*
G01*
X83175000Y-108825000D01*
G75*
G02*
X83375000Y-109025000I0J-200000D01*
G01*
X83375000Y-109575000D01*
G75*
G02*
X83175000Y-109775000I-200000J0D01*
G01*
X82775000Y-109775000D01*
G75*
G02*
X82575000Y-109575000I0J200000D01*
G01*
G37*
G36*
G01*
X84225000Y-109575000D02*
X84225000Y-109025000D01*
G75*
G02*
X84425000Y-108825000I200000J0D01*
G01*
X84825000Y-108825000D01*
G75*
G02*
X85025000Y-109025000I0J-200000D01*
G01*
X85025000Y-109575000D01*
G75*
G02*
X84825000Y-109775000I-200000J0D01*
G01*
X84425000Y-109775000D01*
G75*
G02*
X84225000Y-109575000I0J200000D01*
G01*
G37*
G36*
G01*
X100825000Y-92525000D02*
X100325000Y-92525000D01*
G75*
G02*
X100100000Y-92300000I0J225000D01*
G01*
X100100000Y-91850000D01*
G75*
G02*
X100325000Y-91625000I225000J0D01*
G01*
X100825000Y-91625000D01*
G75*
G02*
X101050000Y-91850000I0J-225000D01*
G01*
X101050000Y-92300000D01*
G75*
G02*
X100825000Y-92525000I-225000J0D01*
G01*
G37*
G36*
G01*
X100825000Y-90975000D02*
X100325000Y-90975000D01*
G75*
G02*
X100100000Y-90750000I0J225000D01*
G01*
X100100000Y-90300000D01*
G75*
G02*
X100325000Y-90075000I225000J0D01*
G01*
X100825000Y-90075000D01*
G75*
G02*
X101050000Y-90300000I0J-225000D01*
G01*
X101050000Y-90750000D01*
G75*
G02*
X100825000Y-90975000I-225000J0D01*
G01*
G37*
G36*
G01*
X90325000Y-91025000D02*
X89825000Y-91025000D01*
G75*
G02*
X89600000Y-90800000I0J225000D01*
G01*
X89600000Y-90350000D01*
G75*
G02*
X89825000Y-90125000I225000J0D01*
G01*
X90325000Y-90125000D01*
G75*
G02*
X90550000Y-90350000I0J-225000D01*
G01*
X90550000Y-90800000D01*
G75*
G02*
X90325000Y-91025000I-225000J0D01*
G01*
G37*
G36*
G01*
X90325000Y-89475000D02*
X89825000Y-89475000D01*
G75*
G02*
X89600000Y-89250000I0J225000D01*
G01*
X89600000Y-88800000D01*
G75*
G02*
X89825000Y-88575000I225000J0D01*
G01*
X90325000Y-88575000D01*
G75*
G02*
X90550000Y-88800000I0J-225000D01*
G01*
X90550000Y-89250000D01*
G75*
G02*
X90325000Y-89475000I-225000J0D01*
G01*
G37*
G36*
G01*
X82575000Y-107575000D02*
X82575000Y-107025000D01*
G75*
G02*
X82775000Y-106825000I200000J0D01*
G01*
X83175000Y-106825000D01*
G75*
G02*
X83375000Y-107025000I0J-200000D01*
G01*
X83375000Y-107575000D01*
G75*
G02*
X83175000Y-107775000I-200000J0D01*
G01*
X82775000Y-107775000D01*
G75*
G02*
X82575000Y-107575000I0J200000D01*
G01*
G37*
G36*
G01*
X84225000Y-107575000D02*
X84225000Y-107025000D01*
G75*
G02*
X84425000Y-106825000I200000J0D01*
G01*
X84825000Y-106825000D01*
G75*
G02*
X85025000Y-107025000I0J-200000D01*
G01*
X85025000Y-107575000D01*
G75*
G02*
X84825000Y-107775000I-200000J0D01*
G01*
X84425000Y-107775000D01*
G75*
G02*
X84225000Y-107575000I0J200000D01*
G01*
G37*
G36*
G01*
X96725000Y-108775000D02*
X97275000Y-108775000D01*
G75*
G02*
X97475000Y-108975000I0J-200000D01*
G01*
X97475000Y-109375000D01*
G75*
G02*
X97275000Y-109575000I-200000J0D01*
G01*
X96725000Y-109575000D01*
G75*
G02*
X96525000Y-109375000I0J200000D01*
G01*
X96525000Y-108975000D01*
G75*
G02*
X96725000Y-108775000I200000J0D01*
G01*
G37*
G36*
G01*
X96725000Y-110425000D02*
X97275000Y-110425000D01*
G75*
G02*
X97475000Y-110625000I0J-200000D01*
G01*
X97475000Y-111025000D01*
G75*
G02*
X97275000Y-111225000I-200000J0D01*
G01*
X96725000Y-111225000D01*
G75*
G02*
X96525000Y-111025000I0J200000D01*
G01*
X96525000Y-110625000D01*
G75*
G02*
X96725000Y-110425000I200000J0D01*
G01*
G37*
G36*
G01*
X132275000Y-80750000D02*
X132275000Y-80250000D01*
G75*
G02*
X132500000Y-80025000I225000J0D01*
G01*
X132950000Y-80025000D01*
G75*
G02*
X133175000Y-80250000I0J-225000D01*
G01*
X133175000Y-80750000D01*
G75*
G02*
X132950000Y-80975000I-225000J0D01*
G01*
X132500000Y-80975000D01*
G75*
G02*
X132275000Y-80750000I0J225000D01*
G01*
G37*
G36*
G01*
X133825000Y-80750000D02*
X133825000Y-80250000D01*
G75*
G02*
X134050000Y-80025000I225000J0D01*
G01*
X134500000Y-80025000D01*
G75*
G02*
X134725000Y-80250000I0J-225000D01*
G01*
X134725000Y-80750000D01*
G75*
G02*
X134500000Y-80975000I-225000J0D01*
G01*
X134050000Y-80975000D01*
G75*
G02*
X133825000Y-80750000I0J225000D01*
G01*
G37*
G36*
G01*
X101079081Y-76775000D02*
X101629081Y-76775000D01*
G75*
G02*
X101829081Y-76975000I0J-200000D01*
G01*
X101829081Y-77375000D01*
G75*
G02*
X101629081Y-77575000I-200000J0D01*
G01*
X101079081Y-77575000D01*
G75*
G02*
X100879081Y-77375000I0J200000D01*
G01*
X100879081Y-76975000D01*
G75*
G02*
X101079081Y-76775000I200000J0D01*
G01*
G37*
G36*
G01*
X101079081Y-78425000D02*
X101629081Y-78425000D01*
G75*
G02*
X101829081Y-78625000I0J-200000D01*
G01*
X101829081Y-79025000D01*
G75*
G02*
X101629081Y-79225000I-200000J0D01*
G01*
X101079081Y-79225000D01*
G75*
G02*
X100879081Y-79025000I0J200000D01*
G01*
X100879081Y-78625000D01*
G75*
G02*
X101079081Y-78425000I200000J0D01*
G01*
G37*
G36*
G01*
X77823571Y-79225000D02*
X77273571Y-79225000D01*
G75*
G02*
X77073571Y-79025000I0J200000D01*
G01*
X77073571Y-78625000D01*
G75*
G02*
X77273571Y-78425000I200000J0D01*
G01*
X77823571Y-78425000D01*
G75*
G02*
X78023571Y-78625000I0J-200000D01*
G01*
X78023571Y-79025000D01*
G75*
G02*
X77823571Y-79225000I-200000J0D01*
G01*
G37*
G36*
G01*
X77823571Y-77575000D02*
X77273571Y-77575000D01*
G75*
G02*
X77073571Y-77375000I0J200000D01*
G01*
X77073571Y-76975000D01*
G75*
G02*
X77273571Y-76775000I200000J0D01*
G01*
X77823571Y-76775000D01*
G75*
G02*
X78023571Y-76975000I0J-200000D01*
G01*
X78023571Y-77375000D01*
G75*
G02*
X77823571Y-77575000I-200000J0D01*
G01*
G37*
G36*
G01*
X121712784Y-79225000D02*
X121162784Y-79225000D01*
G75*
G02*
X120962784Y-79025000I0J200000D01*
G01*
X120962784Y-78625000D01*
G75*
G02*
X121162784Y-78425000I200000J0D01*
G01*
X121712784Y-78425000D01*
G75*
G02*
X121912784Y-78625000I0J-200000D01*
G01*
X121912784Y-79025000D01*
G75*
G02*
X121712784Y-79225000I-200000J0D01*
G01*
G37*
G36*
G01*
X121712784Y-77575000D02*
X121162784Y-77575000D01*
G75*
G02*
X120962784Y-77375000I0J200000D01*
G01*
X120962784Y-76975000D01*
G75*
G02*
X121162784Y-76775000I200000J0D01*
G01*
X121712784Y-76775000D01*
G75*
G02*
X121912784Y-76975000I0J-200000D01*
G01*
X121912784Y-77375000D01*
G75*
G02*
X121712784Y-77575000I-200000J0D01*
G01*
G37*
G36*
G01*
X93075000Y-111050000D02*
X93075000Y-110550000D01*
G75*
G02*
X93300000Y-110325000I225000J0D01*
G01*
X93750000Y-110325000D01*
G75*
G02*
X93975000Y-110550000I0J-225000D01*
G01*
X93975000Y-111050000D01*
G75*
G02*
X93750000Y-111275000I-225000J0D01*
G01*
X93300000Y-111275000D01*
G75*
G02*
X93075000Y-111050000I0J225000D01*
G01*
G37*
G36*
G01*
X94625000Y-111050000D02*
X94625000Y-110550000D01*
G75*
G02*
X94850000Y-110325000I225000J0D01*
G01*
X95300000Y-110325000D01*
G75*
G02*
X95525000Y-110550000I0J-225000D01*
G01*
X95525000Y-111050000D01*
G75*
G02*
X95300000Y-111275000I-225000J0D01*
G01*
X94850000Y-111275000D01*
G75*
G02*
X94625000Y-111050000I0J225000D01*
G01*
G37*
G36*
G01*
X111560271Y-80750000D02*
X111560271Y-80250000D01*
G75*
G02*
X111785271Y-80025000I225000J0D01*
G01*
X112235271Y-80025000D01*
G75*
G02*
X112460271Y-80250000I0J-225000D01*
G01*
X112460271Y-80750000D01*
G75*
G02*
X112235271Y-80975000I-225000J0D01*
G01*
X111785271Y-80975000D01*
G75*
G02*
X111560271Y-80750000I0J225000D01*
G01*
G37*
G36*
G01*
X113110271Y-80750000D02*
X113110271Y-80250000D01*
G75*
G02*
X113335271Y-80025000I225000J0D01*
G01*
X113785271Y-80025000D01*
G75*
G02*
X114010271Y-80250000I0J-225000D01*
G01*
X114010271Y-80750000D01*
G75*
G02*
X113785271Y-80975000I-225000J0D01*
G01*
X113335271Y-80975000D01*
G75*
G02*
X113110271Y-80750000I0J225000D01*
G01*
G37*
G36*
G01*
X90276910Y-76775000D02*
X90826910Y-76775000D01*
G75*
G02*
X91026910Y-76975000I0J-200000D01*
G01*
X91026910Y-77375000D01*
G75*
G02*
X90826910Y-77575000I-200000J0D01*
G01*
X90276910Y-77575000D01*
G75*
G02*
X90076910Y-77375000I0J200000D01*
G01*
X90076910Y-76975000D01*
G75*
G02*
X90276910Y-76775000I200000J0D01*
G01*
G37*
G36*
G01*
X90276910Y-78425000D02*
X90826910Y-78425000D01*
G75*
G02*
X91026910Y-78625000I0J-200000D01*
G01*
X91026910Y-79025000D01*
G75*
G02*
X90826910Y-79225000I-200000J0D01*
G01*
X90276910Y-79225000D01*
G75*
G02*
X90076910Y-79025000I0J200000D01*
G01*
X90076910Y-78625000D01*
G75*
G02*
X90276910Y-78425000I200000J0D01*
G01*
G37*
G36*
G01*
X89826910Y-80750000D02*
X89826910Y-80250000D01*
G75*
G02*
X90051910Y-80025000I225000J0D01*
G01*
X90501910Y-80025000D01*
G75*
G02*
X90726910Y-80250000I0J-225000D01*
G01*
X90726910Y-80750000D01*
G75*
G02*
X90501910Y-80975000I-225000J0D01*
G01*
X90051910Y-80975000D01*
G75*
G02*
X89826910Y-80750000I0J225000D01*
G01*
G37*
G36*
G01*
X91376910Y-80750000D02*
X91376910Y-80250000D01*
G75*
G02*
X91601910Y-80025000I225000J0D01*
G01*
X92051910Y-80025000D01*
G75*
G02*
X92276910Y-80250000I0J-225000D01*
G01*
X92276910Y-80750000D01*
G75*
G02*
X92051910Y-80975000I-225000J0D01*
G01*
X91601910Y-80975000D01*
G75*
G02*
X91376910Y-80750000I0J225000D01*
G01*
G37*
G36*
G01*
X111685271Y-75450000D02*
X111685271Y-74550000D01*
G75*
G02*
X111935271Y-74300000I250000J0D01*
G01*
X112735271Y-74300000D01*
G75*
G02*
X112985271Y-74550000I0J-250000D01*
G01*
X112985271Y-75450000D01*
G75*
G02*
X112735271Y-75700000I-250000J0D01*
G01*
X111935271Y-75700000D01*
G75*
G02*
X111685271Y-75450000I0J250000D01*
G01*
G37*
G36*
G01*
X114585271Y-75450000D02*
X114585271Y-74550000D01*
G75*
G02*
X114835271Y-74300000I250000J0D01*
G01*
X115635271Y-74300000D01*
G75*
G02*
X115885271Y-74550000I0J-250000D01*
G01*
X115885271Y-75450000D01*
G75*
G02*
X115635271Y-75700000I-250000J0D01*
G01*
X114835271Y-75700000D01*
G75*
G02*
X114585271Y-75450000I0J250000D01*
G01*
G37*
G36*
G01*
X69775000Y-108225000D02*
X69225000Y-108225000D01*
G75*
G02*
X69025000Y-108025000I0J200000D01*
G01*
X69025000Y-107625000D01*
G75*
G02*
X69225000Y-107425000I200000J0D01*
G01*
X69775000Y-107425000D01*
G75*
G02*
X69975000Y-107625000I0J-200000D01*
G01*
X69975000Y-108025000D01*
G75*
G02*
X69775000Y-108225000I-200000J0D01*
G01*
G37*
G36*
G01*
X69775000Y-106575000D02*
X69225000Y-106575000D01*
G75*
G02*
X69025000Y-106375000I0J200000D01*
G01*
X69025000Y-105975000D01*
G75*
G02*
X69225000Y-105775000I200000J0D01*
G01*
X69775000Y-105775000D01*
G75*
G02*
X69975000Y-105975000I0J-200000D01*
G01*
X69975000Y-106375000D01*
G75*
G02*
X69775000Y-106575000I-200000J0D01*
G01*
G37*
G36*
G01*
X60225000Y-87275000D02*
X60775000Y-87275000D01*
G75*
G02*
X60975000Y-87475000I0J-200000D01*
G01*
X60975000Y-87875000D01*
G75*
G02*
X60775000Y-88075000I-200000J0D01*
G01*
X60225000Y-88075000D01*
G75*
G02*
X60025000Y-87875000I0J200000D01*
G01*
X60025000Y-87475000D01*
G75*
G02*
X60225000Y-87275000I200000J0D01*
G01*
G37*
G36*
G01*
X60225000Y-88925000D02*
X60775000Y-88925000D01*
G75*
G02*
X60975000Y-89125000I0J-200000D01*
G01*
X60975000Y-89525000D01*
G75*
G02*
X60775000Y-89725000I-200000J0D01*
G01*
X60225000Y-89725000D01*
G75*
G02*
X60025000Y-89525000I0J200000D01*
G01*
X60025000Y-89125000D01*
G75*
G02*
X60225000Y-88925000I200000J0D01*
G01*
G37*
G36*
G01*
X117275000Y-97750000D02*
X117275000Y-97250000D01*
G75*
G02*
X117500000Y-97025000I225000J0D01*
G01*
X117950000Y-97025000D01*
G75*
G02*
X118175000Y-97250000I0J-225000D01*
G01*
X118175000Y-97750000D01*
G75*
G02*
X117950000Y-97975000I-225000J0D01*
G01*
X117500000Y-97975000D01*
G75*
G02*
X117275000Y-97750000I0J225000D01*
G01*
G37*
G36*
G01*
X118825000Y-97750000D02*
X118825000Y-97250000D01*
G75*
G02*
X119050000Y-97025000I225000J0D01*
G01*
X119500000Y-97025000D01*
G75*
G02*
X119725000Y-97250000I0J-225000D01*
G01*
X119725000Y-97750000D01*
G75*
G02*
X119500000Y-97975000I-225000J0D01*
G01*
X119050000Y-97975000D01*
G75*
G02*
X118825000Y-97750000I0J225000D01*
G01*
G37*
G36*
G01*
X98825000Y-91025000D02*
X98325000Y-91025000D01*
G75*
G02*
X98100000Y-90800000I0J225000D01*
G01*
X98100000Y-90350000D01*
G75*
G02*
X98325000Y-90125000I225000J0D01*
G01*
X98825000Y-90125000D01*
G75*
G02*
X99050000Y-90350000I0J-225000D01*
G01*
X99050000Y-90800000D01*
G75*
G02*
X98825000Y-91025000I-225000J0D01*
G01*
G37*
G36*
G01*
X98825000Y-89475000D02*
X98325000Y-89475000D01*
G75*
G02*
X98100000Y-89250000I0J225000D01*
G01*
X98100000Y-88800000D01*
G75*
G02*
X98325000Y-88575000I225000J0D01*
G01*
X98825000Y-88575000D01*
G75*
G02*
X99050000Y-88800000I0J-225000D01*
G01*
X99050000Y-89250000D01*
G75*
G02*
X98825000Y-89475000I-225000J0D01*
G01*
G37*
G36*
G01*
X89951910Y-75450000D02*
X89951910Y-74550000D01*
G75*
G02*
X90201910Y-74300000I250000J0D01*
G01*
X91001910Y-74300000D01*
G75*
G02*
X91251910Y-74550000I0J-250000D01*
G01*
X91251910Y-75450000D01*
G75*
G02*
X91001910Y-75700000I-250000J0D01*
G01*
X90201910Y-75700000D01*
G75*
G02*
X89951910Y-75450000I0J250000D01*
G01*
G37*
G36*
G01*
X92851910Y-75450000D02*
X92851910Y-74550000D01*
G75*
G02*
X93101910Y-74300000I250000J0D01*
G01*
X93901910Y-74300000D01*
G75*
G02*
X94151910Y-74550000I0J-250000D01*
G01*
X94151910Y-75450000D01*
G75*
G02*
X93901910Y-75700000I-250000J0D01*
G01*
X93101910Y-75700000D01*
G75*
G02*
X92851910Y-75450000I0J250000D01*
G01*
G37*
G36*
G01*
X110560271Y-79225000D02*
X110010271Y-79225000D01*
G75*
G02*
X109810271Y-79025000I0J200000D01*
G01*
X109810271Y-78625000D01*
G75*
G02*
X110010271Y-78425000I200000J0D01*
G01*
X110560271Y-78425000D01*
G75*
G02*
X110760271Y-78625000I0J-200000D01*
G01*
X110760271Y-79025000D01*
G75*
G02*
X110560271Y-79225000I-200000J0D01*
G01*
G37*
G36*
G01*
X110560271Y-77575000D02*
X110010271Y-77575000D01*
G75*
G02*
X109810271Y-77375000I0J200000D01*
G01*
X109810271Y-76975000D01*
G75*
G02*
X110010271Y-76775000I200000J0D01*
G01*
X110560271Y-76775000D01*
G75*
G02*
X110760271Y-76975000I0J-200000D01*
G01*
X110760271Y-77375000D01*
G75*
G02*
X110560271Y-77575000I-200000J0D01*
G01*
G37*
G36*
G01*
X123162784Y-76775000D02*
X123712784Y-76775000D01*
G75*
G02*
X123912784Y-76975000I0J-200000D01*
G01*
X123912784Y-77375000D01*
G75*
G02*
X123712784Y-77575000I-200000J0D01*
G01*
X123162784Y-77575000D01*
G75*
G02*
X122962784Y-77375000I0J200000D01*
G01*
X122962784Y-76975000D01*
G75*
G02*
X123162784Y-76775000I200000J0D01*
G01*
G37*
G36*
G01*
X123162784Y-78425000D02*
X123712784Y-78425000D01*
G75*
G02*
X123912784Y-78625000I0J-200000D01*
G01*
X123912784Y-79025000D01*
G75*
G02*
X123712784Y-79225000I-200000J0D01*
G01*
X123162784Y-79225000D01*
G75*
G02*
X122962784Y-79025000I0J200000D01*
G01*
X122962784Y-78625000D01*
G75*
G02*
X123162784Y-78425000I200000J0D01*
G01*
G37*
G36*
G01*
X122712784Y-80750000D02*
X122712784Y-80250000D01*
G75*
G02*
X122937784Y-80025000I225000J0D01*
G01*
X123387784Y-80025000D01*
G75*
G02*
X123612784Y-80250000I0J-225000D01*
G01*
X123612784Y-80750000D01*
G75*
G02*
X123387784Y-80975000I-225000J0D01*
G01*
X122937784Y-80975000D01*
G75*
G02*
X122712784Y-80750000I0J225000D01*
G01*
G37*
G36*
G01*
X124262784Y-80750000D02*
X124262784Y-80250000D01*
G75*
G02*
X124487784Y-80025000I225000J0D01*
G01*
X124937784Y-80025000D01*
G75*
G02*
X125162784Y-80250000I0J-225000D01*
G01*
X125162784Y-80750000D01*
G75*
G02*
X124937784Y-80975000I-225000J0D01*
G01*
X124487784Y-80975000D01*
G75*
G02*
X124262784Y-80750000I0J225000D01*
G01*
G37*
G36*
G01*
X66784259Y-79225000D02*
X66234259Y-79225000D01*
G75*
G02*
X66034259Y-79025000I0J200000D01*
G01*
X66034259Y-78625000D01*
G75*
G02*
X66234259Y-78425000I200000J0D01*
G01*
X66784259Y-78425000D01*
G75*
G02*
X66984259Y-78625000I0J-200000D01*
G01*
X66984259Y-79025000D01*
G75*
G02*
X66784259Y-79225000I-200000J0D01*
G01*
G37*
G36*
G01*
X66784259Y-77575000D02*
X66234259Y-77575000D01*
G75*
G02*
X66034259Y-77375000I0J200000D01*
G01*
X66034259Y-76975000D01*
G75*
G02*
X66234259Y-76775000I200000J0D01*
G01*
X66784259Y-76775000D01*
G75*
G02*
X66984259Y-76975000I0J-200000D01*
G01*
X66984259Y-77375000D01*
G75*
G02*
X66784259Y-77575000I-200000J0D01*
G01*
G37*
G36*
G01*
X79273571Y-76775000D02*
X79823571Y-76775000D01*
G75*
G02*
X80023571Y-76975000I0J-200000D01*
G01*
X80023571Y-77375000D01*
G75*
G02*
X79823571Y-77575000I-200000J0D01*
G01*
X79273571Y-77575000D01*
G75*
G02*
X79073571Y-77375000I0J200000D01*
G01*
X79073571Y-76975000D01*
G75*
G02*
X79273571Y-76775000I200000J0D01*
G01*
G37*
G36*
G01*
X79273571Y-78425000D02*
X79823571Y-78425000D01*
G75*
G02*
X80023571Y-78625000I0J-200000D01*
G01*
X80023571Y-79025000D01*
G75*
G02*
X79823571Y-79225000I-200000J0D01*
G01*
X79273571Y-79225000D01*
G75*
G02*
X79073571Y-79025000I0J200000D01*
G01*
X79073571Y-78625000D01*
G75*
G02*
X79273571Y-78425000I200000J0D01*
G01*
G37*
G36*
G01*
X68234259Y-76775000D02*
X68784259Y-76775000D01*
G75*
G02*
X68984259Y-76975000I0J-200000D01*
G01*
X68984259Y-77375000D01*
G75*
G02*
X68784259Y-77575000I-200000J0D01*
G01*
X68234259Y-77575000D01*
G75*
G02*
X68034259Y-77375000I0J200000D01*
G01*
X68034259Y-76975000D01*
G75*
G02*
X68234259Y-76775000I200000J0D01*
G01*
G37*
G36*
G01*
X68234259Y-78425000D02*
X68784259Y-78425000D01*
G75*
G02*
X68984259Y-78625000I0J-200000D01*
G01*
X68984259Y-79025000D01*
G75*
G02*
X68784259Y-79225000I-200000J0D01*
G01*
X68234259Y-79225000D01*
G75*
G02*
X68034259Y-79025000I0J200000D01*
G01*
X68034259Y-78625000D01*
G75*
G02*
X68234259Y-78425000I200000J0D01*
G01*
G37*
G36*
G01*
X93075000Y-113050000D02*
X93075000Y-112550000D01*
G75*
G02*
X93300000Y-112325000I225000J0D01*
G01*
X93750000Y-112325000D01*
G75*
G02*
X93975000Y-112550000I0J-225000D01*
G01*
X93975000Y-113050000D01*
G75*
G02*
X93750000Y-113275000I-225000J0D01*
G01*
X93300000Y-113275000D01*
G75*
G02*
X93075000Y-113050000I0J225000D01*
G01*
G37*
G36*
G01*
X94625000Y-113050000D02*
X94625000Y-112550000D01*
G75*
G02*
X94850000Y-112325000I225000J0D01*
G01*
X95300000Y-112325000D01*
G75*
G02*
X95525000Y-112550000I0J-225000D01*
G01*
X95525000Y-113050000D01*
G75*
G02*
X95300000Y-113275000I-225000J0D01*
G01*
X94850000Y-113275000D01*
G75*
G02*
X94625000Y-113050000I0J225000D01*
G01*
G37*
G36*
G01*
X82550000Y-101075000D02*
X83050000Y-101075000D01*
G75*
G02*
X83275000Y-101300000I0J-225000D01*
G01*
X83275000Y-101750000D01*
G75*
G02*
X83050000Y-101975000I-225000J0D01*
G01*
X82550000Y-101975000D01*
G75*
G02*
X82325000Y-101750000I0J225000D01*
G01*
X82325000Y-101300000D01*
G75*
G02*
X82550000Y-101075000I225000J0D01*
G01*
G37*
G36*
G01*
X82550000Y-102625000D02*
X83050000Y-102625000D01*
G75*
G02*
X83275000Y-102850000I0J-225000D01*
G01*
X83275000Y-103300000D01*
G75*
G02*
X83050000Y-103525000I-225000J0D01*
G01*
X82550000Y-103525000D01*
G75*
G02*
X82325000Y-103300000I0J225000D01*
G01*
X82325000Y-102850000D01*
G75*
G02*
X82550000Y-102625000I225000J0D01*
G01*
G37*
G36*
G01*
X132725000Y-76775000D02*
X133275000Y-76775000D01*
G75*
G02*
X133475000Y-76975000I0J-200000D01*
G01*
X133475000Y-77375000D01*
G75*
G02*
X133275000Y-77575000I-200000J0D01*
G01*
X132725000Y-77575000D01*
G75*
G02*
X132525000Y-77375000I0J200000D01*
G01*
X132525000Y-76975000D01*
G75*
G02*
X132725000Y-76775000I200000J0D01*
G01*
G37*
G36*
G01*
X132725000Y-78425000D02*
X133275000Y-78425000D01*
G75*
G02*
X133475000Y-78625000I0J-200000D01*
G01*
X133475000Y-79025000D01*
G75*
G02*
X133275000Y-79225000I-200000J0D01*
G01*
X132725000Y-79225000D01*
G75*
G02*
X132525000Y-79025000I0J200000D01*
G01*
X132525000Y-78625000D01*
G75*
G02*
X132725000Y-78425000I200000J0D01*
G01*
G37*
G36*
G01*
X61050000Y-128245000D02*
X61050000Y-127945000D01*
G75*
G02*
X61200000Y-127795000I150000J0D01*
G01*
X62850000Y-127795000D01*
G75*
G02*
X63000000Y-127945000I0J-150000D01*
G01*
X63000000Y-128245000D01*
G75*
G02*
X62850000Y-128395000I-150000J0D01*
G01*
X61200000Y-128395000D01*
G75*
G02*
X61050000Y-128245000I0J150000D01*
G01*
G37*
G36*
G01*
X61050000Y-129515000D02*
X61050000Y-129215000D01*
G75*
G02*
X61200000Y-129065000I150000J0D01*
G01*
X62850000Y-129065000D01*
G75*
G02*
X63000000Y-129215000I0J-150000D01*
G01*
X63000000Y-129515000D01*
G75*
G02*
X62850000Y-129665000I-150000J0D01*
G01*
X61200000Y-129665000D01*
G75*
G02*
X61050000Y-129515000I0J150000D01*
G01*
G37*
G36*
G01*
X61050000Y-130785000D02*
X61050000Y-130485000D01*
G75*
G02*
X61200000Y-130335000I150000J0D01*
G01*
X62850000Y-130335000D01*
G75*
G02*
X63000000Y-130485000I0J-150000D01*
G01*
X63000000Y-130785000D01*
G75*
G02*
X62850000Y-130935000I-150000J0D01*
G01*
X61200000Y-130935000D01*
G75*
G02*
X61050000Y-130785000I0J150000D01*
G01*
G37*
G36*
G01*
X61050000Y-132055000D02*
X61050000Y-131755000D01*
G75*
G02*
X61200000Y-131605000I150000J0D01*
G01*
X62850000Y-131605000D01*
G75*
G02*
X63000000Y-131755000I0J-150000D01*
G01*
X63000000Y-132055000D01*
G75*
G02*
X62850000Y-132205000I-150000J0D01*
G01*
X61200000Y-132205000D01*
G75*
G02*
X61050000Y-132055000I0J150000D01*
G01*
G37*
G36*
G01*
X66000000Y-132055000D02*
X66000000Y-131755000D01*
G75*
G02*
X66150000Y-131605000I150000J0D01*
G01*
X67800000Y-131605000D01*
G75*
G02*
X67950000Y-131755000I0J-150000D01*
G01*
X67950000Y-132055000D01*
G75*
G02*
X67800000Y-132205000I-150000J0D01*
G01*
X66150000Y-132205000D01*
G75*
G02*
X66000000Y-132055000I0J150000D01*
G01*
G37*
G36*
G01*
X66000000Y-130785000D02*
X66000000Y-130485000D01*
G75*
G02*
X66150000Y-130335000I150000J0D01*
G01*
X67800000Y-130335000D01*
G75*
G02*
X67950000Y-130485000I0J-150000D01*
G01*
X67950000Y-130785000D01*
G75*
G02*
X67800000Y-130935000I-150000J0D01*
G01*
X66150000Y-130935000D01*
G75*
G02*
X66000000Y-130785000I0J150000D01*
G01*
G37*
G36*
G01*
X66000000Y-129515000D02*
X66000000Y-129215000D01*
G75*
G02*
X66150000Y-129065000I150000J0D01*
G01*
X67800000Y-129065000D01*
G75*
G02*
X67950000Y-129215000I0J-150000D01*
G01*
X67950000Y-129515000D01*
G75*
G02*
X67800000Y-129665000I-150000J0D01*
G01*
X66150000Y-129665000D01*
G75*
G02*
X66000000Y-129515000I0J150000D01*
G01*
G37*
G36*
G01*
X66000000Y-128245000D02*
X66000000Y-127945000D01*
G75*
G02*
X66150000Y-127795000I150000J0D01*
G01*
X67800000Y-127795000D01*
G75*
G02*
X67950000Y-127945000I0J-150000D01*
G01*
X67950000Y-128245000D01*
G75*
G02*
X67800000Y-128395000I-150000J0D01*
G01*
X66150000Y-128395000D01*
G75*
G02*
X66000000Y-128245000I0J150000D01*
G01*
G37*
G36*
G01*
X78948571Y-75450000D02*
X78948571Y-74550000D01*
G75*
G02*
X79198571Y-74300000I250000J0D01*
G01*
X79998571Y-74300000D01*
G75*
G02*
X80248571Y-74550000I0J-250000D01*
G01*
X80248571Y-75450000D01*
G75*
G02*
X79998571Y-75700000I-250000J0D01*
G01*
X79198571Y-75700000D01*
G75*
G02*
X78948571Y-75450000I0J250000D01*
G01*
G37*
G36*
G01*
X81848571Y-75450000D02*
X81848571Y-74550000D01*
G75*
G02*
X82098571Y-74300000I250000J0D01*
G01*
X82898571Y-74300000D01*
G75*
G02*
X83148571Y-74550000I0J-250000D01*
G01*
X83148571Y-75450000D01*
G75*
G02*
X82898571Y-75700000I-250000J0D01*
G01*
X82098571Y-75700000D01*
G75*
G02*
X81848571Y-75450000I0J250000D01*
G01*
G37*
G36*
G01*
X58475000Y-129225000D02*
X58475000Y-129775000D01*
G75*
G02*
X58275000Y-129975000I-200000J0D01*
G01*
X57875000Y-129975000D01*
G75*
G02*
X57675000Y-129775000I0J200000D01*
G01*
X57675000Y-129225000D01*
G75*
G02*
X57875000Y-129025000I200000J0D01*
G01*
X58275000Y-129025000D01*
G75*
G02*
X58475000Y-129225000I0J-200000D01*
G01*
G37*
G36*
G01*
X56825000Y-129225000D02*
X56825000Y-129775000D01*
G75*
G02*
X56625000Y-129975000I-200000J0D01*
G01*
X56225000Y-129975000D01*
G75*
G02*
X56025000Y-129775000I0J200000D01*
G01*
X56025000Y-129225000D01*
G75*
G02*
X56225000Y-129025000I200000J0D01*
G01*
X56625000Y-129025000D01*
G75*
G02*
X56825000Y-129225000I0J-200000D01*
G01*
G37*
G36*
G01*
X83000000Y-99975000D02*
X82500000Y-99975000D01*
G75*
G02*
X82275000Y-99750000I0J225000D01*
G01*
X82275000Y-99300000D01*
G75*
G02*
X82500000Y-99075000I225000J0D01*
G01*
X83000000Y-99075000D01*
G75*
G02*
X83225000Y-99300000I0J-225000D01*
G01*
X83225000Y-99750000D01*
G75*
G02*
X83000000Y-99975000I-225000J0D01*
G01*
G37*
G36*
G01*
X83000000Y-98425000D02*
X82500000Y-98425000D01*
G75*
G02*
X82275000Y-98200000I0J225000D01*
G01*
X82275000Y-97750000D01*
G75*
G02*
X82500000Y-97525000I225000J0D01*
G01*
X83000000Y-97525000D01*
G75*
G02*
X83225000Y-97750000I0J-225000D01*
G01*
X83225000Y-98200000D01*
G75*
G02*
X83000000Y-98425000I-225000J0D01*
G01*
G37*
G36*
G01*
X117700000Y-95300000D02*
X117400000Y-95300000D01*
G75*
G02*
X117250000Y-95150000I0J150000D01*
G01*
X117250000Y-94125000D01*
G75*
G02*
X117400000Y-93975000I150000J0D01*
G01*
X117700000Y-93975000D01*
G75*
G02*
X117850000Y-94125000I0J-150000D01*
G01*
X117850000Y-95150000D01*
G75*
G02*
X117700000Y-95300000I-150000J0D01*
G01*
G37*
G36*
G01*
X118650000Y-95300000D02*
X118350000Y-95300000D01*
G75*
G02*
X118200000Y-95150000I0J150000D01*
G01*
X118200000Y-94125000D01*
G75*
G02*
X118350000Y-93975000I150000J0D01*
G01*
X118650000Y-93975000D01*
G75*
G02*
X118800000Y-94125000I0J-150000D01*
G01*
X118800000Y-95150000D01*
G75*
G02*
X118650000Y-95300000I-150000J0D01*
G01*
G37*
G36*
G01*
X119600000Y-95300000D02*
X119300000Y-95300000D01*
G75*
G02*
X119150000Y-95150000I0J150000D01*
G01*
X119150000Y-94125000D01*
G75*
G02*
X119300000Y-93975000I150000J0D01*
G01*
X119600000Y-93975000D01*
G75*
G02*
X119750000Y-94125000I0J-150000D01*
G01*
X119750000Y-95150000D01*
G75*
G02*
X119600000Y-95300000I-150000J0D01*
G01*
G37*
G36*
G01*
X119600000Y-93025000D02*
X119300000Y-93025000D01*
G75*
G02*
X119150000Y-92875000I0J150000D01*
G01*
X119150000Y-91850000D01*
G75*
G02*
X119300000Y-91700000I150000J0D01*
G01*
X119600000Y-91700000D01*
G75*
G02*
X119750000Y-91850000I0J-150000D01*
G01*
X119750000Y-92875000D01*
G75*
G02*
X119600000Y-93025000I-150000J0D01*
G01*
G37*
G36*
G01*
X117700000Y-93025000D02*
X117400000Y-93025000D01*
G75*
G02*
X117250000Y-92875000I0J150000D01*
G01*
X117250000Y-91850000D01*
G75*
G02*
X117400000Y-91700000I150000J0D01*
G01*
X117700000Y-91700000D01*
G75*
G02*
X117850000Y-91850000I0J-150000D01*
G01*
X117850000Y-92875000D01*
G75*
G02*
X117700000Y-93025000I-150000J0D01*
G01*
G37*
G36*
G01*
X104050000Y-100075000D02*
X104550000Y-100075000D01*
G75*
G02*
X104775000Y-100300000I0J-225000D01*
G01*
X104775000Y-100750000D01*
G75*
G02*
X104550000Y-100975000I-225000J0D01*
G01*
X104050000Y-100975000D01*
G75*
G02*
X103825000Y-100750000I0J225000D01*
G01*
X103825000Y-100300000D01*
G75*
G02*
X104050000Y-100075000I225000J0D01*
G01*
G37*
G36*
G01*
X104050000Y-101625000D02*
X104550000Y-101625000D01*
G75*
G02*
X104775000Y-101850000I0J-225000D01*
G01*
X104775000Y-102300000D01*
G75*
G02*
X104550000Y-102525000I-225000J0D01*
G01*
X104050000Y-102525000D01*
G75*
G02*
X103825000Y-102300000I0J225000D01*
G01*
X103825000Y-101850000D01*
G75*
G02*
X104050000Y-101625000I225000J0D01*
G01*
G37*
G36*
G01*
X92025000Y-110550000D02*
X92025000Y-111050000D01*
G75*
G02*
X91800000Y-111275000I-225000J0D01*
G01*
X91350000Y-111275000D01*
G75*
G02*
X91125000Y-111050000I0J225000D01*
G01*
X91125000Y-110550000D01*
G75*
G02*
X91350000Y-110325000I225000J0D01*
G01*
X91800000Y-110325000D01*
G75*
G02*
X92025000Y-110550000I0J-225000D01*
G01*
G37*
G36*
G01*
X90475000Y-110550000D02*
X90475000Y-111050000D01*
G75*
G02*
X90250000Y-111275000I-225000J0D01*
G01*
X89800000Y-111275000D01*
G75*
G02*
X89575000Y-111050000I0J225000D01*
G01*
X89575000Y-110550000D01*
G75*
G02*
X89800000Y-110325000I225000J0D01*
G01*
X90250000Y-110325000D01*
G75*
G02*
X90475000Y-110550000I0J-225000D01*
G01*
G37*
G36*
G01*
X131275000Y-79225000D02*
X130725000Y-79225000D01*
G75*
G02*
X130525000Y-79025000I0J200000D01*
G01*
X130525000Y-78625000D01*
G75*
G02*
X130725000Y-78425000I200000J0D01*
G01*
X131275000Y-78425000D01*
G75*
G02*
X131475000Y-78625000I0J-200000D01*
G01*
X131475000Y-79025000D01*
G75*
G02*
X131275000Y-79225000I-200000J0D01*
G01*
G37*
G36*
G01*
X131275000Y-77575000D02*
X130725000Y-77575000D01*
G75*
G02*
X130525000Y-77375000I0J200000D01*
G01*
X130525000Y-76975000D01*
G75*
G02*
X130725000Y-76775000I200000J0D01*
G01*
X131275000Y-76775000D01*
G75*
G02*
X131475000Y-76975000I0J-200000D01*
G01*
X131475000Y-77375000D01*
G75*
G02*
X131275000Y-77575000I-200000J0D01*
G01*
G37*
G36*
G01*
X60225000Y-90775000D02*
X60775000Y-90775000D01*
G75*
G02*
X60975000Y-90975000I0J-200000D01*
G01*
X60975000Y-91375000D01*
G75*
G02*
X60775000Y-91575000I-200000J0D01*
G01*
X60225000Y-91575000D01*
G75*
G02*
X60025000Y-91375000I0J200000D01*
G01*
X60025000Y-90975000D01*
G75*
G02*
X60225000Y-90775000I200000J0D01*
G01*
G37*
G36*
G01*
X60225000Y-92425000D02*
X60775000Y-92425000D01*
G75*
G02*
X60975000Y-92625000I0J-200000D01*
G01*
X60975000Y-93025000D01*
G75*
G02*
X60775000Y-93225000I-200000J0D01*
G01*
X60225000Y-93225000D01*
G75*
G02*
X60025000Y-93025000I0J200000D01*
G01*
X60025000Y-92625000D01*
G75*
G02*
X60225000Y-92425000I200000J0D01*
G01*
G37*
G36*
G01*
X86350000Y-89050000D02*
X86350000Y-88550000D01*
G75*
G02*
X86575000Y-88325000I225000J0D01*
G01*
X87025000Y-88325000D01*
G75*
G02*
X87250000Y-88550000I0J-225000D01*
G01*
X87250000Y-89050000D01*
G75*
G02*
X87025000Y-89275000I-225000J0D01*
G01*
X86575000Y-89275000D01*
G75*
G02*
X86350000Y-89050000I0J225000D01*
G01*
G37*
G36*
G01*
X87900000Y-89050000D02*
X87900000Y-88550000D01*
G75*
G02*
X88125000Y-88325000I225000J0D01*
G01*
X88575000Y-88325000D01*
G75*
G02*
X88800000Y-88550000I0J-225000D01*
G01*
X88800000Y-89050000D01*
G75*
G02*
X88575000Y-89275000I-225000J0D01*
G01*
X88125000Y-89275000D01*
G75*
G02*
X87900000Y-89050000I0J225000D01*
G01*
G37*
G36*
G01*
X85000000Y-99975000D02*
X84500000Y-99975000D01*
G75*
G02*
X84275000Y-99750000I0J225000D01*
G01*
X84275000Y-99300000D01*
G75*
G02*
X84500000Y-99075000I225000J0D01*
G01*
X85000000Y-99075000D01*
G75*
G02*
X85225000Y-99300000I0J-225000D01*
G01*
X85225000Y-99750000D01*
G75*
G02*
X85000000Y-99975000I-225000J0D01*
G01*
G37*
G36*
G01*
X85000000Y-98425000D02*
X84500000Y-98425000D01*
G75*
G02*
X84275000Y-98200000I0J225000D01*
G01*
X84275000Y-97750000D01*
G75*
G02*
X84500000Y-97525000I225000J0D01*
G01*
X85000000Y-97525000D01*
G75*
G02*
X85225000Y-97750000I0J-225000D01*
G01*
X85225000Y-98200000D01*
G75*
G02*
X85000000Y-98425000I-225000J0D01*
G01*
G37*
G36*
G01*
X85025000Y-105025000D02*
X85025000Y-105575000D01*
G75*
G02*
X84825000Y-105775000I-200000J0D01*
G01*
X84425000Y-105775000D01*
G75*
G02*
X84225000Y-105575000I0J200000D01*
G01*
X84225000Y-105025000D01*
G75*
G02*
X84425000Y-104825000I200000J0D01*
G01*
X84825000Y-104825000D01*
G75*
G02*
X85025000Y-105025000I0J-200000D01*
G01*
G37*
G36*
G01*
X83375000Y-105025000D02*
X83375000Y-105575000D01*
G75*
G02*
X83175000Y-105775000I-200000J0D01*
G01*
X82775000Y-105775000D01*
G75*
G02*
X82575000Y-105575000I0J200000D01*
G01*
X82575000Y-105025000D01*
G75*
G02*
X82775000Y-104825000I200000J0D01*
G01*
X83175000Y-104825000D01*
G75*
G02*
X83375000Y-105025000I0J-200000D01*
G01*
G37*
G36*
G01*
X100754081Y-75450000D02*
X100754081Y-74550000D01*
G75*
G02*
X101004081Y-74300000I250000J0D01*
G01*
X101804081Y-74300000D01*
G75*
G02*
X102054081Y-74550000I0J-250000D01*
G01*
X102054081Y-75450000D01*
G75*
G02*
X101804081Y-75700000I-250000J0D01*
G01*
X101004081Y-75700000D01*
G75*
G02*
X100754081Y-75450000I0J250000D01*
G01*
G37*
G36*
G01*
X103654081Y-75450000D02*
X103654081Y-74550000D01*
G75*
G02*
X103904081Y-74300000I250000J0D01*
G01*
X104704081Y-74300000D01*
G75*
G02*
X104954081Y-74550000I0J-250000D01*
G01*
X104954081Y-75450000D01*
G75*
G02*
X104704081Y-75700000I-250000J0D01*
G01*
X103904081Y-75700000D01*
G75*
G02*
X103654081Y-75450000I0J250000D01*
G01*
G37*
G36*
G01*
X55775000Y-79225000D02*
X55225000Y-79225000D01*
G75*
G02*
X55025000Y-79025000I0J200000D01*
G01*
X55025000Y-78625000D01*
G75*
G02*
X55225000Y-78425000I200000J0D01*
G01*
X55775000Y-78425000D01*
G75*
G02*
X55975000Y-78625000I0J-200000D01*
G01*
X55975000Y-79025000D01*
G75*
G02*
X55775000Y-79225000I-200000J0D01*
G01*
G37*
G36*
G01*
X55775000Y-77575000D02*
X55225000Y-77575000D01*
G75*
G02*
X55025000Y-77375000I0J200000D01*
G01*
X55025000Y-76975000D01*
G75*
G02*
X55225000Y-76775000I200000J0D01*
G01*
X55775000Y-76775000D01*
G75*
G02*
X55975000Y-76975000I0J-200000D01*
G01*
X55975000Y-77375000D01*
G75*
G02*
X55775000Y-77575000I-200000J0D01*
G01*
G37*
G36*
G01*
X56900000Y-75450000D02*
X56900000Y-74550000D01*
G75*
G02*
X57150000Y-74300000I250000J0D01*
G01*
X57950000Y-74300000D01*
G75*
G02*
X58200000Y-74550000I0J-250000D01*
G01*
X58200000Y-75450000D01*
G75*
G02*
X57950000Y-75700000I-250000J0D01*
G01*
X57150000Y-75700000D01*
G75*
G02*
X56900000Y-75450000I0J250000D01*
G01*
G37*
G36*
G01*
X59800000Y-75450000D02*
X59800000Y-74550000D01*
G75*
G02*
X60050000Y-74300000I250000J0D01*
G01*
X60850000Y-74300000D01*
G75*
G02*
X61100000Y-74550000I0J-250000D01*
G01*
X61100000Y-75450000D01*
G75*
G02*
X60850000Y-75700000I-250000J0D01*
G01*
X60050000Y-75700000D01*
G75*
G02*
X59800000Y-75450000I0J250000D01*
G01*
G37*
G36*
G01*
X97300000Y-90550000D02*
X97300000Y-91050000D01*
G75*
G02*
X97075000Y-91275000I-225000J0D01*
G01*
X96625000Y-91275000D01*
G75*
G02*
X96400000Y-91050000I0J225000D01*
G01*
X96400000Y-90550000D01*
G75*
G02*
X96625000Y-90325000I225000J0D01*
G01*
X97075000Y-90325000D01*
G75*
G02*
X97300000Y-90550000I0J-225000D01*
G01*
G37*
G36*
G01*
X95750000Y-90550000D02*
X95750000Y-91050000D01*
G75*
G02*
X95525000Y-91275000I-225000J0D01*
G01*
X95075000Y-91275000D01*
G75*
G02*
X94850000Y-91050000I0J225000D01*
G01*
X94850000Y-90550000D01*
G75*
G02*
X95075000Y-90325000I225000J0D01*
G01*
X95525000Y-90325000D01*
G75*
G02*
X95750000Y-90550000I0J-225000D01*
G01*
G37*
G36*
G01*
X91575000Y-91050000D02*
X91575000Y-90550000D01*
G75*
G02*
X91800000Y-90325000I225000J0D01*
G01*
X92250000Y-90325000D01*
G75*
G02*
X92475000Y-90550000I0J-225000D01*
G01*
X92475000Y-91050000D01*
G75*
G02*
X92250000Y-91275000I-225000J0D01*
G01*
X91800000Y-91275000D01*
G75*
G02*
X91575000Y-91050000I0J225000D01*
G01*
G37*
G36*
G01*
X93125000Y-91050000D02*
X93125000Y-90550000D01*
G75*
G02*
X93350000Y-90325000I225000J0D01*
G01*
X93800000Y-90325000D01*
G75*
G02*
X94025000Y-90550000I0J-225000D01*
G01*
X94025000Y-91050000D01*
G75*
G02*
X93800000Y-91275000I-225000J0D01*
G01*
X93350000Y-91275000D01*
G75*
G02*
X93125000Y-91050000I0J225000D01*
G01*
G37*
G36*
G01*
X91150000Y-99999999D02*
X91150000Y-98400001D01*
G75*
G02*
X91400001Y-98150000I250001J0D01*
G01*
X92999999Y-98150000D01*
G75*
G02*
X93250000Y-98400001I0J-250001D01*
G01*
X93250000Y-99999999D01*
G75*
G02*
X92999999Y-100250000I-250001J0D01*
G01*
X91400001Y-100250000D01*
G75*
G02*
X91150000Y-99999999I0J250001D01*
G01*
G37*
G36*
G01*
X91150000Y-102599999D02*
X91150000Y-101000001D01*
G75*
G02*
X91400001Y-100750000I250001J0D01*
G01*
X92999999Y-100750000D01*
G75*
G02*
X93250000Y-101000001I0J-250001D01*
G01*
X93250000Y-102599999D01*
G75*
G02*
X92999999Y-102850000I-250001J0D01*
G01*
X91400001Y-102850000D01*
G75*
G02*
X91150000Y-102599999I0J250001D01*
G01*
G37*
G36*
G01*
X93750000Y-99999999D02*
X93750000Y-98400001D01*
G75*
G02*
X94000001Y-98150000I250001J0D01*
G01*
X95599999Y-98150000D01*
G75*
G02*
X95850000Y-98400001I0J-250001D01*
G01*
X95850000Y-99999999D01*
G75*
G02*
X95599999Y-100250000I-250001J0D01*
G01*
X94000001Y-100250000D01*
G75*
G02*
X93750000Y-99999999I0J250001D01*
G01*
G37*
G36*
G01*
X93750000Y-102599999D02*
X93750000Y-101000001D01*
G75*
G02*
X94000001Y-100750000I250001J0D01*
G01*
X95599999Y-100750000D01*
G75*
G02*
X95850000Y-101000001I0J-250001D01*
G01*
X95850000Y-102599999D01*
G75*
G02*
X95599999Y-102850000I-250001J0D01*
G01*
X94000001Y-102850000D01*
G75*
G02*
X93750000Y-102599999I0J250001D01*
G01*
G37*
G36*
G01*
X88000000Y-96812500D02*
X88000000Y-96687500D01*
G75*
G02*
X88062500Y-96625000I62500J0D01*
G01*
X89437500Y-96625000D01*
G75*
G02*
X89500000Y-96687500I0J-62500D01*
G01*
X89500000Y-96812500D01*
G75*
G02*
X89437500Y-96875000I-62500J0D01*
G01*
X88062500Y-96875000D01*
G75*
G02*
X88000000Y-96812500I0J62500D01*
G01*
G37*
G36*
G01*
X88000000Y-97312500D02*
X88000000Y-97187500D01*
G75*
G02*
X88062500Y-97125000I62500J0D01*
G01*
X89437500Y-97125000D01*
G75*
G02*
X89500000Y-97187500I0J-62500D01*
G01*
X89500000Y-97312500D01*
G75*
G02*
X89437500Y-97375000I-62500J0D01*
G01*
X88062500Y-97375000D01*
G75*
G02*
X88000000Y-97312500I0J62500D01*
G01*
G37*
G36*
G01*
X88000000Y-97812500D02*
X88000000Y-97687500D01*
G75*
G02*
X88062500Y-97625000I62500J0D01*
G01*
X89437500Y-97625000D01*
G75*
G02*
X89500000Y-97687500I0J-62500D01*
G01*
X89500000Y-97812500D01*
G75*
G02*
X89437500Y-97875000I-62500J0D01*
G01*
X88062500Y-97875000D01*
G75*
G02*
X88000000Y-97812500I0J62500D01*
G01*
G37*
G36*
G01*
X88000000Y-98312500D02*
X88000000Y-98187500D01*
G75*
G02*
X88062500Y-98125000I62500J0D01*
G01*
X89437500Y-98125000D01*
G75*
G02*
X89500000Y-98187500I0J-62500D01*
G01*
X89500000Y-98312500D01*
G75*
G02*
X89437500Y-98375000I-62500J0D01*
G01*
X88062500Y-98375000D01*
G75*
G02*
X88000000Y-98312500I0J62500D01*
G01*
G37*
G36*
G01*
X88000000Y-98812500D02*
X88000000Y-98687500D01*
G75*
G02*
X88062500Y-98625000I62500J0D01*
G01*
X89437500Y-98625000D01*
G75*
G02*
X89500000Y-98687500I0J-62500D01*
G01*
X89500000Y-98812500D01*
G75*
G02*
X89437500Y-98875000I-62500J0D01*
G01*
X88062500Y-98875000D01*
G75*
G02*
X88000000Y-98812500I0J62500D01*
G01*
G37*
G36*
G01*
X88000000Y-99312500D02*
X88000000Y-99187500D01*
G75*
G02*
X88062500Y-99125000I62500J0D01*
G01*
X89437500Y-99125000D01*
G75*
G02*
X89500000Y-99187500I0J-62500D01*
G01*
X89500000Y-99312500D01*
G75*
G02*
X89437500Y-99375000I-62500J0D01*
G01*
X88062500Y-99375000D01*
G75*
G02*
X88000000Y-99312500I0J62500D01*
G01*
G37*
G36*
G01*
X88000000Y-99812500D02*
X88000000Y-99687500D01*
G75*
G02*
X88062500Y-99625000I62500J0D01*
G01*
X89437500Y-99625000D01*
G75*
G02*
X89500000Y-99687500I0J-62500D01*
G01*
X89500000Y-99812500D01*
G75*
G02*
X89437500Y-99875000I-62500J0D01*
G01*
X88062500Y-99875000D01*
G75*
G02*
X88000000Y-99812500I0J62500D01*
G01*
G37*
G36*
G01*
X88000000Y-100312500D02*
X88000000Y-100187500D01*
G75*
G02*
X88062500Y-100125000I62500J0D01*
G01*
X89437500Y-100125000D01*
G75*
G02*
X89500000Y-100187500I0J-62500D01*
G01*
X89500000Y-100312500D01*
G75*
G02*
X89437500Y-100375000I-62500J0D01*
G01*
X88062500Y-100375000D01*
G75*
G02*
X88000000Y-100312500I0J62500D01*
G01*
G37*
G36*
G01*
X88000000Y-100812500D02*
X88000000Y-100687500D01*
G75*
G02*
X88062500Y-100625000I62500J0D01*
G01*
X89437500Y-100625000D01*
G75*
G02*
X89500000Y-100687500I0J-62500D01*
G01*
X89500000Y-100812500D01*
G75*
G02*
X89437500Y-100875000I-62500J0D01*
G01*
X88062500Y-100875000D01*
G75*
G02*
X88000000Y-100812500I0J62500D01*
G01*
G37*
G36*
G01*
X88000000Y-101312500D02*
X88000000Y-101187500D01*
G75*
G02*
X88062500Y-101125000I62500J0D01*
G01*
X89437500Y-101125000D01*
G75*
G02*
X89500000Y-101187500I0J-62500D01*
G01*
X89500000Y-101312500D01*
G75*
G02*
X89437500Y-101375000I-62500J0D01*
G01*
X88062500Y-101375000D01*
G75*
G02*
X88000000Y-101312500I0J62500D01*
G01*
G37*
G36*
G01*
X88000000Y-101812500D02*
X88000000Y-101687500D01*
G75*
G02*
X88062500Y-101625000I62500J0D01*
G01*
X89437500Y-101625000D01*
G75*
G02*
X89500000Y-101687500I0J-62500D01*
G01*
X89500000Y-101812500D01*
G75*
G02*
X89437500Y-101875000I-62500J0D01*
G01*
X88062500Y-101875000D01*
G75*
G02*
X88000000Y-101812500I0J62500D01*
G01*
G37*
G36*
G01*
X88000000Y-102312500D02*
X88000000Y-102187500D01*
G75*
G02*
X88062500Y-102125000I62500J0D01*
G01*
X89437500Y-102125000D01*
G75*
G02*
X89500000Y-102187500I0J-62500D01*
G01*
X89500000Y-102312500D01*
G75*
G02*
X89437500Y-102375000I-62500J0D01*
G01*
X88062500Y-102375000D01*
G75*
G02*
X88000000Y-102312500I0J62500D01*
G01*
G37*
G36*
G01*
X88000000Y-102812500D02*
X88000000Y-102687500D01*
G75*
G02*
X88062500Y-102625000I62500J0D01*
G01*
X89437500Y-102625000D01*
G75*
G02*
X89500000Y-102687500I0J-62500D01*
G01*
X89500000Y-102812500D01*
G75*
G02*
X89437500Y-102875000I-62500J0D01*
G01*
X88062500Y-102875000D01*
G75*
G02*
X88000000Y-102812500I0J62500D01*
G01*
G37*
G36*
G01*
X88000000Y-103312500D02*
X88000000Y-103187500D01*
G75*
G02*
X88062500Y-103125000I62500J0D01*
G01*
X89437500Y-103125000D01*
G75*
G02*
X89500000Y-103187500I0J-62500D01*
G01*
X89500000Y-103312500D01*
G75*
G02*
X89437500Y-103375000I-62500J0D01*
G01*
X88062500Y-103375000D01*
G75*
G02*
X88000000Y-103312500I0J62500D01*
G01*
G37*
G36*
G01*
X88000000Y-103812500D02*
X88000000Y-103687500D01*
G75*
G02*
X88062500Y-103625000I62500J0D01*
G01*
X89437500Y-103625000D01*
G75*
G02*
X89500000Y-103687500I0J-62500D01*
G01*
X89500000Y-103812500D01*
G75*
G02*
X89437500Y-103875000I-62500J0D01*
G01*
X88062500Y-103875000D01*
G75*
G02*
X88000000Y-103812500I0J62500D01*
G01*
G37*
G36*
G01*
X88000000Y-104312500D02*
X88000000Y-104187500D01*
G75*
G02*
X88062500Y-104125000I62500J0D01*
G01*
X89437500Y-104125000D01*
G75*
G02*
X89500000Y-104187500I0J-62500D01*
G01*
X89500000Y-104312500D01*
G75*
G02*
X89437500Y-104375000I-62500J0D01*
G01*
X88062500Y-104375000D01*
G75*
G02*
X88000000Y-104312500I0J62500D01*
G01*
G37*
G36*
G01*
X89625000Y-105937500D02*
X89625000Y-104562500D01*
G75*
G02*
X89687500Y-104500000I62500J0D01*
G01*
X89812500Y-104500000D01*
G75*
G02*
X89875000Y-104562500I0J-62500D01*
G01*
X89875000Y-105937500D01*
G75*
G02*
X89812500Y-106000000I-62500J0D01*
G01*
X89687500Y-106000000D01*
G75*
G02*
X89625000Y-105937500I0J62500D01*
G01*
G37*
G36*
G01*
X90125000Y-105937500D02*
X90125000Y-104562500D01*
G75*
G02*
X90187500Y-104500000I62500J0D01*
G01*
X90312500Y-104500000D01*
G75*
G02*
X90375000Y-104562500I0J-62500D01*
G01*
X90375000Y-105937500D01*
G75*
G02*
X90312500Y-106000000I-62500J0D01*
G01*
X90187500Y-106000000D01*
G75*
G02*
X90125000Y-105937500I0J62500D01*
G01*
G37*
G36*
G01*
X90625000Y-105937500D02*
X90625000Y-104562500D01*
G75*
G02*
X90687500Y-104500000I62500J0D01*
G01*
X90812500Y-104500000D01*
G75*
G02*
X90875000Y-104562500I0J-62500D01*
G01*
X90875000Y-105937500D01*
G75*
G02*
X90812500Y-106000000I-62500J0D01*
G01*
X90687500Y-106000000D01*
G75*
G02*
X90625000Y-105937500I0J62500D01*
G01*
G37*
G36*
G01*
X91125000Y-105937500D02*
X91125000Y-104562500D01*
G75*
G02*
X91187500Y-104500000I62500J0D01*
G01*
X91312500Y-104500000D01*
G75*
G02*
X91375000Y-104562500I0J-62500D01*
G01*
X91375000Y-105937500D01*
G75*
G02*
X91312500Y-106000000I-62500J0D01*
G01*
X91187500Y-106000000D01*
G75*
G02*
X91125000Y-105937500I0J62500D01*
G01*
G37*
G36*
G01*
X91625000Y-105937500D02*
X91625000Y-104562500D01*
G75*
G02*
X91687500Y-104500000I62500J0D01*
G01*
X91812500Y-104500000D01*
G75*
G02*
X91875000Y-104562500I0J-62500D01*
G01*
X91875000Y-105937500D01*
G75*
G02*
X91812500Y-106000000I-62500J0D01*
G01*
X91687500Y-106000000D01*
G75*
G02*
X91625000Y-105937500I0J62500D01*
G01*
G37*
G36*
G01*
X92125000Y-105937500D02*
X92125000Y-104562500D01*
G75*
G02*
X92187500Y-104500000I62500J0D01*
G01*
X92312500Y-104500000D01*
G75*
G02*
X92375000Y-104562500I0J-62500D01*
G01*
X92375000Y-105937500D01*
G75*
G02*
X92312500Y-106000000I-62500J0D01*
G01*
X92187500Y-106000000D01*
G75*
G02*
X92125000Y-105937500I0J62500D01*
G01*
G37*
G36*
G01*
X92625000Y-105937500D02*
X92625000Y-104562500D01*
G75*
G02*
X92687500Y-104500000I62500J0D01*
G01*
X92812500Y-104500000D01*
G75*
G02*
X92875000Y-104562500I0J-62500D01*
G01*
X92875000Y-105937500D01*
G75*
G02*
X92812500Y-106000000I-62500J0D01*
G01*
X92687500Y-106000000D01*
G75*
G02*
X92625000Y-105937500I0J62500D01*
G01*
G37*
G36*
G01*
X93125000Y-105937500D02*
X93125000Y-104562500D01*
G75*
G02*
X93187500Y-104500000I62500J0D01*
G01*
X93312500Y-104500000D01*
G75*
G02*
X93375000Y-104562500I0J-62500D01*
G01*
X93375000Y-105937500D01*
G75*
G02*
X93312500Y-106000000I-62500J0D01*
G01*
X93187500Y-106000000D01*
G75*
G02*
X93125000Y-105937500I0J62500D01*
G01*
G37*
G36*
G01*
X93625000Y-105937500D02*
X93625000Y-104562500D01*
G75*
G02*
X93687500Y-104500000I62500J0D01*
G01*
X93812500Y-104500000D01*
G75*
G02*
X93875000Y-104562500I0J-62500D01*
G01*
X93875000Y-105937500D01*
G75*
G02*
X93812500Y-106000000I-62500J0D01*
G01*
X93687500Y-106000000D01*
G75*
G02*
X93625000Y-105937500I0J62500D01*
G01*
G37*
G36*
G01*
X94125000Y-105937500D02*
X94125000Y-104562500D01*
G75*
G02*
X94187500Y-104500000I62500J0D01*
G01*
X94312500Y-104500000D01*
G75*
G02*
X94375000Y-104562500I0J-62500D01*
G01*
X94375000Y-105937500D01*
G75*
G02*
X94312500Y-106000000I-62500J0D01*
G01*
X94187500Y-106000000D01*
G75*
G02*
X94125000Y-105937500I0J62500D01*
G01*
G37*
G36*
G01*
X94625000Y-105937500D02*
X94625000Y-104562500D01*
G75*
G02*
X94687500Y-104500000I62500J0D01*
G01*
X94812500Y-104500000D01*
G75*
G02*
X94875000Y-104562500I0J-62500D01*
G01*
X94875000Y-105937500D01*
G75*
G02*
X94812500Y-106000000I-62500J0D01*
G01*
X94687500Y-106000000D01*
G75*
G02*
X94625000Y-105937500I0J62500D01*
G01*
G37*
G36*
G01*
X95125000Y-105937500D02*
X95125000Y-104562500D01*
G75*
G02*
X95187500Y-104500000I62500J0D01*
G01*
X95312500Y-104500000D01*
G75*
G02*
X95375000Y-104562500I0J-62500D01*
G01*
X95375000Y-105937500D01*
G75*
G02*
X95312500Y-106000000I-62500J0D01*
G01*
X95187500Y-106000000D01*
G75*
G02*
X95125000Y-105937500I0J62500D01*
G01*
G37*
G36*
G01*
X95625000Y-105937500D02*
X95625000Y-104562500D01*
G75*
G02*
X95687500Y-104500000I62500J0D01*
G01*
X95812500Y-104500000D01*
G75*
G02*
X95875000Y-104562500I0J-62500D01*
G01*
X95875000Y-105937500D01*
G75*
G02*
X95812500Y-106000000I-62500J0D01*
G01*
X95687500Y-106000000D01*
G75*
G02*
X95625000Y-105937500I0J62500D01*
G01*
G37*
G36*
G01*
X96125000Y-105937500D02*
X96125000Y-104562500D01*
G75*
G02*
X96187500Y-104500000I62500J0D01*
G01*
X96312500Y-104500000D01*
G75*
G02*
X96375000Y-104562500I0J-62500D01*
G01*
X96375000Y-105937500D01*
G75*
G02*
X96312500Y-106000000I-62500J0D01*
G01*
X96187500Y-106000000D01*
G75*
G02*
X96125000Y-105937500I0J62500D01*
G01*
G37*
G36*
G01*
X96625000Y-105937500D02*
X96625000Y-104562500D01*
G75*
G02*
X96687500Y-104500000I62500J0D01*
G01*
X96812500Y-104500000D01*
G75*
G02*
X96875000Y-104562500I0J-62500D01*
G01*
X96875000Y-105937500D01*
G75*
G02*
X96812500Y-106000000I-62500J0D01*
G01*
X96687500Y-106000000D01*
G75*
G02*
X96625000Y-105937500I0J62500D01*
G01*
G37*
G36*
G01*
X97125000Y-105937500D02*
X97125000Y-104562500D01*
G75*
G02*
X97187500Y-104500000I62500J0D01*
G01*
X97312500Y-104500000D01*
G75*
G02*
X97375000Y-104562500I0J-62500D01*
G01*
X97375000Y-105937500D01*
G75*
G02*
X97312500Y-106000000I-62500J0D01*
G01*
X97187500Y-106000000D01*
G75*
G02*
X97125000Y-105937500I0J62500D01*
G01*
G37*
G36*
G01*
X97500000Y-104312500D02*
X97500000Y-104187500D01*
G75*
G02*
X97562500Y-104125000I62500J0D01*
G01*
X98937500Y-104125000D01*
G75*
G02*
X99000000Y-104187500I0J-62500D01*
G01*
X99000000Y-104312500D01*
G75*
G02*
X98937500Y-104375000I-62500J0D01*
G01*
X97562500Y-104375000D01*
G75*
G02*
X97500000Y-104312500I0J62500D01*
G01*
G37*
G36*
G01*
X97500000Y-103812500D02*
X97500000Y-103687500D01*
G75*
G02*
X97562500Y-103625000I62500J0D01*
G01*
X98937500Y-103625000D01*
G75*
G02*
X99000000Y-103687500I0J-62500D01*
G01*
X99000000Y-103812500D01*
G75*
G02*
X98937500Y-103875000I-62500J0D01*
G01*
X97562500Y-103875000D01*
G75*
G02*
X97500000Y-103812500I0J62500D01*
G01*
G37*
G36*
G01*
X97500000Y-103312500D02*
X97500000Y-103187500D01*
G75*
G02*
X97562500Y-103125000I62500J0D01*
G01*
X98937500Y-103125000D01*
G75*
G02*
X99000000Y-103187500I0J-62500D01*
G01*
X99000000Y-103312500D01*
G75*
G02*
X98937500Y-103375000I-62500J0D01*
G01*
X97562500Y-103375000D01*
G75*
G02*
X97500000Y-103312500I0J62500D01*
G01*
G37*
G36*
G01*
X97500000Y-102812500D02*
X97500000Y-102687500D01*
G75*
G02*
X97562500Y-102625000I62500J0D01*
G01*
X98937500Y-102625000D01*
G75*
G02*
X99000000Y-102687500I0J-62500D01*
G01*
X99000000Y-102812500D01*
G75*
G02*
X98937500Y-102875000I-62500J0D01*
G01*
X97562500Y-102875000D01*
G75*
G02*
X97500000Y-102812500I0J62500D01*
G01*
G37*
G36*
G01*
X97500000Y-102312500D02*
X97500000Y-102187500D01*
G75*
G02*
X97562500Y-102125000I62500J0D01*
G01*
X98937500Y-102125000D01*
G75*
G02*
X99000000Y-102187500I0J-62500D01*
G01*
X99000000Y-102312500D01*
G75*
G02*
X98937500Y-102375000I-62500J0D01*
G01*
X97562500Y-102375000D01*
G75*
G02*
X97500000Y-102312500I0J62500D01*
G01*
G37*
G36*
G01*
X97500000Y-101812500D02*
X97500000Y-101687500D01*
G75*
G02*
X97562500Y-101625000I62500J0D01*
G01*
X98937500Y-101625000D01*
G75*
G02*
X99000000Y-101687500I0J-62500D01*
G01*
X99000000Y-101812500D01*
G75*
G02*
X98937500Y-101875000I-62500J0D01*
G01*
X97562500Y-101875000D01*
G75*
G02*
X97500000Y-101812500I0J62500D01*
G01*
G37*
G36*
G01*
X97500000Y-101312500D02*
X97500000Y-101187500D01*
G75*
G02*
X97562500Y-101125000I62500J0D01*
G01*
X98937500Y-101125000D01*
G75*
G02*
X99000000Y-101187500I0J-62500D01*
G01*
X99000000Y-101312500D01*
G75*
G02*
X98937500Y-101375000I-62500J0D01*
G01*
X97562500Y-101375000D01*
G75*
G02*
X97500000Y-101312500I0J62500D01*
G01*
G37*
G36*
G01*
X97500000Y-100812500D02*
X97500000Y-100687500D01*
G75*
G02*
X97562500Y-100625000I62500J0D01*
G01*
X98937500Y-100625000D01*
G75*
G02*
X99000000Y-100687500I0J-62500D01*
G01*
X99000000Y-100812500D01*
G75*
G02*
X98937500Y-100875000I-62500J0D01*
G01*
X97562500Y-100875000D01*
G75*
G02*
X97500000Y-100812500I0J62500D01*
G01*
G37*
G36*
G01*
X97500000Y-100312500D02*
X97500000Y-100187500D01*
G75*
G02*
X97562500Y-100125000I62500J0D01*
G01*
X98937500Y-100125000D01*
G75*
G02*
X99000000Y-100187500I0J-62500D01*
G01*
X99000000Y-100312500D01*
G75*
G02*
X98937500Y-100375000I-62500J0D01*
G01*
X97562500Y-100375000D01*
G75*
G02*
X97500000Y-100312500I0J62500D01*
G01*
G37*
G36*
G01*
X97500000Y-99812500D02*
X97500000Y-99687500D01*
G75*
G02*
X97562500Y-99625000I62500J0D01*
G01*
X98937500Y-99625000D01*
G75*
G02*
X99000000Y-99687500I0J-62500D01*
G01*
X99000000Y-99812500D01*
G75*
G02*
X98937500Y-99875000I-62500J0D01*
G01*
X97562500Y-99875000D01*
G75*
G02*
X97500000Y-99812500I0J62500D01*
G01*
G37*
G36*
G01*
X97500000Y-99312500D02*
X97500000Y-99187500D01*
G75*
G02*
X97562500Y-99125000I62500J0D01*
G01*
X98937500Y-99125000D01*
G75*
G02*
X99000000Y-99187500I0J-62500D01*
G01*
X99000000Y-99312500D01*
G75*
G02*
X98937500Y-99375000I-62500J0D01*
G01*
X97562500Y-99375000D01*
G75*
G02*
X97500000Y-99312500I0J62500D01*
G01*
G37*
G36*
G01*
X97500000Y-98812500D02*
X97500000Y-98687500D01*
G75*
G02*
X97562500Y-98625000I62500J0D01*
G01*
X98937500Y-98625000D01*
G75*
G02*
X99000000Y-98687500I0J-62500D01*
G01*
X99000000Y-98812500D01*
G75*
G02*
X98937500Y-98875000I-62500J0D01*
G01*
X97562500Y-98875000D01*
G75*
G02*
X97500000Y-98812500I0J62500D01*
G01*
G37*
G36*
G01*
X97500000Y-98312500D02*
X97500000Y-98187500D01*
G75*
G02*
X97562500Y-98125000I62500J0D01*
G01*
X98937500Y-98125000D01*
G75*
G02*
X99000000Y-98187500I0J-62500D01*
G01*
X99000000Y-98312500D01*
G75*
G02*
X98937500Y-98375000I-62500J0D01*
G01*
X97562500Y-98375000D01*
G75*
G02*
X97500000Y-98312500I0J62500D01*
G01*
G37*
G36*
G01*
X97500000Y-97812500D02*
X97500000Y-97687500D01*
G75*
G02*
X97562500Y-97625000I62500J0D01*
G01*
X98937500Y-97625000D01*
G75*
G02*
X99000000Y-97687500I0J-62500D01*
G01*
X99000000Y-97812500D01*
G75*
G02*
X98937500Y-97875000I-62500J0D01*
G01*
X97562500Y-97875000D01*
G75*
G02*
X97500000Y-97812500I0J62500D01*
G01*
G37*
G36*
G01*
X97500000Y-97312500D02*
X97500000Y-97187500D01*
G75*
G02*
X97562500Y-97125000I62500J0D01*
G01*
X98937500Y-97125000D01*
G75*
G02*
X99000000Y-97187500I0J-62500D01*
G01*
X99000000Y-97312500D01*
G75*
G02*
X98937500Y-97375000I-62500J0D01*
G01*
X97562500Y-97375000D01*
G75*
G02*
X97500000Y-97312500I0J62500D01*
G01*
G37*
G36*
G01*
X97500000Y-96812500D02*
X97500000Y-96687500D01*
G75*
G02*
X97562500Y-96625000I62500J0D01*
G01*
X98937500Y-96625000D01*
G75*
G02*
X99000000Y-96687500I0J-62500D01*
G01*
X99000000Y-96812500D01*
G75*
G02*
X98937500Y-96875000I-62500J0D01*
G01*
X97562500Y-96875000D01*
G75*
G02*
X97500000Y-96812500I0J62500D01*
G01*
G37*
G36*
G01*
X97125000Y-96437500D02*
X97125000Y-95062500D01*
G75*
G02*
X97187500Y-95000000I62500J0D01*
G01*
X97312500Y-95000000D01*
G75*
G02*
X97375000Y-95062500I0J-62500D01*
G01*
X97375000Y-96437500D01*
G75*
G02*
X97312500Y-96500000I-62500J0D01*
G01*
X97187500Y-96500000D01*
G75*
G02*
X97125000Y-96437500I0J62500D01*
G01*
G37*
G36*
G01*
X96625000Y-96437500D02*
X96625000Y-95062500D01*
G75*
G02*
X96687500Y-95000000I62500J0D01*
G01*
X96812500Y-95000000D01*
G75*
G02*
X96875000Y-95062500I0J-62500D01*
G01*
X96875000Y-96437500D01*
G75*
G02*
X96812500Y-96500000I-62500J0D01*
G01*
X96687500Y-96500000D01*
G75*
G02*
X96625000Y-96437500I0J62500D01*
G01*
G37*
G36*
G01*
X96125000Y-96437500D02*
X96125000Y-95062500D01*
G75*
G02*
X96187500Y-95000000I62500J0D01*
G01*
X96312500Y-95000000D01*
G75*
G02*
X96375000Y-95062500I0J-62500D01*
G01*
X96375000Y-96437500D01*
G75*
G02*
X96312500Y-96500000I-62500J0D01*
G01*
X96187500Y-96500000D01*
G75*
G02*
X96125000Y-96437500I0J62500D01*
G01*
G37*
G36*
G01*
X95625000Y-96437500D02*
X95625000Y-95062500D01*
G75*
G02*
X95687500Y-95000000I62500J0D01*
G01*
X95812500Y-95000000D01*
G75*
G02*
X95875000Y-95062500I0J-62500D01*
G01*
X95875000Y-96437500D01*
G75*
G02*
X95812500Y-96500000I-62500J0D01*
G01*
X95687500Y-96500000D01*
G75*
G02*
X95625000Y-96437500I0J62500D01*
G01*
G37*
G36*
G01*
X95125000Y-96437500D02*
X95125000Y-95062500D01*
G75*
G02*
X95187500Y-95000000I62500J0D01*
G01*
X95312500Y-95000000D01*
G75*
G02*
X95375000Y-95062500I0J-62500D01*
G01*
X95375000Y-96437500D01*
G75*
G02*
X95312500Y-96500000I-62500J0D01*
G01*
X95187500Y-96500000D01*
G75*
G02*
X95125000Y-96437500I0J62500D01*
G01*
G37*
G36*
G01*
X94625000Y-96437500D02*
X94625000Y-95062500D01*
G75*
G02*
X94687500Y-95000000I62500J0D01*
G01*
X94812500Y-95000000D01*
G75*
G02*
X94875000Y-95062500I0J-62500D01*
G01*
X94875000Y-96437500D01*
G75*
G02*
X94812500Y-96500000I-62500J0D01*
G01*
X94687500Y-96500000D01*
G75*
G02*
X94625000Y-96437500I0J62500D01*
G01*
G37*
G36*
G01*
X94125000Y-96437500D02*
X94125000Y-95062500D01*
G75*
G02*
X94187500Y-95000000I62500J0D01*
G01*
X94312500Y-95000000D01*
G75*
G02*
X94375000Y-95062500I0J-62500D01*
G01*
X94375000Y-96437500D01*
G75*
G02*
X94312500Y-96500000I-62500J0D01*
G01*
X94187500Y-96500000D01*
G75*
G02*
X94125000Y-96437500I0J62500D01*
G01*
G37*
G36*
G01*
X93625000Y-96437500D02*
X93625000Y-95062500D01*
G75*
G02*
X93687500Y-95000000I62500J0D01*
G01*
X93812500Y-95000000D01*
G75*
G02*
X93875000Y-95062500I0J-62500D01*
G01*
X93875000Y-96437500D01*
G75*
G02*
X93812500Y-96500000I-62500J0D01*
G01*
X93687500Y-96500000D01*
G75*
G02*
X93625000Y-96437500I0J62500D01*
G01*
G37*
G36*
G01*
X93125000Y-96437500D02*
X93125000Y-95062500D01*
G75*
G02*
X93187500Y-95000000I62500J0D01*
G01*
X93312500Y-95000000D01*
G75*
G02*
X93375000Y-95062500I0J-62500D01*
G01*
X93375000Y-96437500D01*
G75*
G02*
X93312500Y-96500000I-62500J0D01*
G01*
X93187500Y-96500000D01*
G75*
G02*
X93125000Y-96437500I0J62500D01*
G01*
G37*
G36*
G01*
X92625000Y-96437500D02*
X92625000Y-95062500D01*
G75*
G02*
X92687500Y-95000000I62500J0D01*
G01*
X92812500Y-95000000D01*
G75*
G02*
X92875000Y-95062500I0J-62500D01*
G01*
X92875000Y-96437500D01*
G75*
G02*
X92812500Y-96500000I-62500J0D01*
G01*
X92687500Y-96500000D01*
G75*
G02*
X92625000Y-96437500I0J62500D01*
G01*
G37*
G36*
G01*
X92125000Y-96437500D02*
X92125000Y-95062500D01*
G75*
G02*
X92187500Y-95000000I62500J0D01*
G01*
X92312500Y-95000000D01*
G75*
G02*
X92375000Y-95062500I0J-62500D01*
G01*
X92375000Y-96437500D01*
G75*
G02*
X92312500Y-96500000I-62500J0D01*
G01*
X92187500Y-96500000D01*
G75*
G02*
X92125000Y-96437500I0J62500D01*
G01*
G37*
G36*
G01*
X91625000Y-96437500D02*
X91625000Y-95062500D01*
G75*
G02*
X91687500Y-95000000I62500J0D01*
G01*
X91812500Y-95000000D01*
G75*
G02*
X91875000Y-95062500I0J-62500D01*
G01*
X91875000Y-96437500D01*
G75*
G02*
X91812500Y-96500000I-62500J0D01*
G01*
X91687500Y-96500000D01*
G75*
G02*
X91625000Y-96437500I0J62500D01*
G01*
G37*
G36*
G01*
X91125000Y-96437500D02*
X91125000Y-95062500D01*
G75*
G02*
X91187500Y-95000000I62500J0D01*
G01*
X91312500Y-95000000D01*
G75*
G02*
X91375000Y-95062500I0J-62500D01*
G01*
X91375000Y-96437500D01*
G75*
G02*
X91312500Y-96500000I-62500J0D01*
G01*
X91187500Y-96500000D01*
G75*
G02*
X91125000Y-96437500I0J62500D01*
G01*
G37*
G36*
G01*
X90625000Y-96437500D02*
X90625000Y-95062500D01*
G75*
G02*
X90687500Y-95000000I62500J0D01*
G01*
X90812500Y-95000000D01*
G75*
G02*
X90875000Y-95062500I0J-62500D01*
G01*
X90875000Y-96437500D01*
G75*
G02*
X90812500Y-96500000I-62500J0D01*
G01*
X90687500Y-96500000D01*
G75*
G02*
X90625000Y-96437500I0J62500D01*
G01*
G37*
G36*
G01*
X90125000Y-96437500D02*
X90125000Y-95062500D01*
G75*
G02*
X90187500Y-95000000I62500J0D01*
G01*
X90312500Y-95000000D01*
G75*
G02*
X90375000Y-95062500I0J-62500D01*
G01*
X90375000Y-96437500D01*
G75*
G02*
X90312500Y-96500000I-62500J0D01*
G01*
X90187500Y-96500000D01*
G75*
G02*
X90125000Y-96437500I0J62500D01*
G01*
G37*
G36*
G01*
X89625000Y-96437500D02*
X89625000Y-95062500D01*
G75*
G02*
X89687500Y-95000000I62500J0D01*
G01*
X89812500Y-95000000D01*
G75*
G02*
X89875000Y-95062500I0J-62500D01*
G01*
X89875000Y-96437500D01*
G75*
G02*
X89812500Y-96500000I-62500J0D01*
G01*
X89687500Y-96500000D01*
G75*
G02*
X89625000Y-96437500I0J62500D01*
G01*
G37*
G36*
G01*
X58300000Y-91800000D02*
X58300000Y-92100000D01*
G75*
G02*
X58150000Y-92250000I-150000J0D01*
G01*
X57125000Y-92250000D01*
G75*
G02*
X56975000Y-92100000I0J150000D01*
G01*
X56975000Y-91800000D01*
G75*
G02*
X57125000Y-91650000I150000J0D01*
G01*
X58150000Y-91650000D01*
G75*
G02*
X58300000Y-91800000I0J-150000D01*
G01*
G37*
G36*
G01*
X58300000Y-90850000D02*
X58300000Y-91150000D01*
G75*
G02*
X58150000Y-91300000I-150000J0D01*
G01*
X57125000Y-91300000D01*
G75*
G02*
X56975000Y-91150000I0J150000D01*
G01*
X56975000Y-90850000D01*
G75*
G02*
X57125000Y-90700000I150000J0D01*
G01*
X58150000Y-90700000D01*
G75*
G02*
X58300000Y-90850000I0J-150000D01*
G01*
G37*
G36*
G01*
X58300000Y-89900000D02*
X58300000Y-90200000D01*
G75*
G02*
X58150000Y-90350000I-150000J0D01*
G01*
X57125000Y-90350000D01*
G75*
G02*
X56975000Y-90200000I0J150000D01*
G01*
X56975000Y-89900000D01*
G75*
G02*
X57125000Y-89750000I150000J0D01*
G01*
X58150000Y-89750000D01*
G75*
G02*
X58300000Y-89900000I0J-150000D01*
G01*
G37*
G36*
G01*
X56025000Y-89900000D02*
X56025000Y-90200000D01*
G75*
G02*
X55875000Y-90350000I-150000J0D01*
G01*
X54850000Y-90350000D01*
G75*
G02*
X54700000Y-90200000I0J150000D01*
G01*
X54700000Y-89900000D01*
G75*
G02*
X54850000Y-89750000I150000J0D01*
G01*
X55875000Y-89750000D01*
G75*
G02*
X56025000Y-89900000I0J-150000D01*
G01*
G37*
G36*
G01*
X56025000Y-91800000D02*
X56025000Y-92100000D01*
G75*
G02*
X55875000Y-92250000I-150000J0D01*
G01*
X54850000Y-92250000D01*
G75*
G02*
X54700000Y-92100000I0J150000D01*
G01*
X54700000Y-91800000D01*
G75*
G02*
X54850000Y-91650000I150000J0D01*
G01*
X55875000Y-91650000D01*
G75*
G02*
X56025000Y-91800000I0J-150000D01*
G01*
G37*
G36*
G01*
X97300000Y-88550000D02*
X97300000Y-89050000D01*
G75*
G02*
X97075000Y-89275000I-225000J0D01*
G01*
X96625000Y-89275000D01*
G75*
G02*
X96400000Y-89050000I0J225000D01*
G01*
X96400000Y-88550000D01*
G75*
G02*
X96625000Y-88325000I225000J0D01*
G01*
X97075000Y-88325000D01*
G75*
G02*
X97300000Y-88550000I0J-225000D01*
G01*
G37*
G36*
G01*
X95750000Y-88550000D02*
X95750000Y-89050000D01*
G75*
G02*
X95525000Y-89275000I-225000J0D01*
G01*
X95075000Y-89275000D01*
G75*
G02*
X94850000Y-89050000I0J225000D01*
G01*
X94850000Y-88550000D01*
G75*
G02*
X95075000Y-88325000I225000J0D01*
G01*
X95525000Y-88325000D01*
G75*
G02*
X95750000Y-88550000I0J-225000D01*
G01*
G37*
G36*
G01*
X69725000Y-98775000D02*
X70275000Y-98775000D01*
G75*
G02*
X70475000Y-98975000I0J-200000D01*
G01*
X70475000Y-99375000D01*
G75*
G02*
X70275000Y-99575000I-200000J0D01*
G01*
X69725000Y-99575000D01*
G75*
G02*
X69525000Y-99375000I0J200000D01*
G01*
X69525000Y-98975000D01*
G75*
G02*
X69725000Y-98775000I200000J0D01*
G01*
G37*
G36*
G01*
X69725000Y-100425000D02*
X70275000Y-100425000D01*
G75*
G02*
X70475000Y-100625000I0J-200000D01*
G01*
X70475000Y-101025000D01*
G75*
G02*
X70275000Y-101225000I-200000J0D01*
G01*
X69725000Y-101225000D01*
G75*
G02*
X69525000Y-101025000I0J200000D01*
G01*
X69525000Y-100625000D01*
G75*
G02*
X69725000Y-100425000I200000J0D01*
G01*
G37*
G36*
G01*
X78823571Y-80750000D02*
X78823571Y-80250000D01*
G75*
G02*
X79048571Y-80025000I225000J0D01*
G01*
X79498571Y-80025000D01*
G75*
G02*
X79723571Y-80250000I0J-225000D01*
G01*
X79723571Y-80750000D01*
G75*
G02*
X79498571Y-80975000I-225000J0D01*
G01*
X79048571Y-80975000D01*
G75*
G02*
X78823571Y-80750000I0J225000D01*
G01*
G37*
G36*
G01*
X80373571Y-80750000D02*
X80373571Y-80250000D01*
G75*
G02*
X80598571Y-80025000I225000J0D01*
G01*
X81048571Y-80025000D01*
G75*
G02*
X81273571Y-80250000I0J-225000D01*
G01*
X81273571Y-80750000D01*
G75*
G02*
X81048571Y-80975000I-225000J0D01*
G01*
X80598571Y-80975000D01*
G75*
G02*
X80373571Y-80750000I0J225000D01*
G01*
G37*
M02*
