<?xml version="1.0" encoding="UTF-8" standalone="no"?>
<!-- Created with Inkscape (http://www.inkscape.org/) -->

<svg
   width="512"
   height="512"
   viewBox="0 0 512 512"
   version="1.1"
   id="svg1"
   inkscape:version="1.4.3 (0d15f75, 2025-12-25)"
   sodipodi:docname="logo-bw.svg"
   xmlns:inkscape="http://www.inkscape.org/namespaces/inkscape"
   xmlns:sodipodi="http://sodipodi.sourceforge.net/DTD/sodipodi-0.dtd"
   xmlns="http://www.w3.org/2000/svg"
   xmlns:svg="http://www.w3.org/2000/svg">
  <sodipodi:namedview
     id="namedview1"
     pagecolor="#ffffff"
     bordercolor="#000000"
     borderopacity="0.25"
     inkscape:showpageshadow="2"
     inkscape:pageopacity="0.0"
     inkscape:pagecheckerboard="0"
     inkscape:deskcolor="#d1d1d1"
     inkscape:document-units="px"
     inkscape:zoom="0.5932617"
     inkscape:cx="-465.22471"
     inkscape:cy="567.20331"
     inkscape:window-width="2560"
     inkscape:window-height="1417"
     inkscape:window-x="-8"
     inkscape:window-y="810"
     inkscape:window-maximized="1"
     inkscape:current-layer="layer1" />
  <defs
     id="defs1">
    <rect
       x="-78.069244"
       y="-5.3635359"
       width="439.80994"
       height="244.33886"
       id="rect8" />
  </defs>
  <g
     inkscape:label="Layer 1"
     inkscape:groupmode="layer"
     id="layer1">
    <path
       id="rect3"
       style="fill:none;stroke-width:8.50000095;stroke:#000000;stroke-opacity:1;fill-opacity:1;stroke-dasharray:none"
       d="m 34.94926,96.285328 c 150.56565,-12.145565 300.30319,-11.869392 449.26784,0 20.51266,115.703772 22.69263,230.728552 0,344.832112 -150.53248,20.18981 -300.33611,21.42963 -449.26784,0 -20.629678,-125.25887 -14.351022,-237.06359 0,-344.832112 z"
       sodipodi:nodetypes="ccccc" />
    <path
       style="fill:none;fill-opacity:1;stroke:#000000;stroke-width:7.6;stroke-dasharray:none;stroke-opacity:1;stroke-linecap:butt;stroke-linejoin:round"
       d="m 21.128451,278.51761 c 0,0 246.275499,-27.67941 301.857479,20.28753 55.58198,47.96694 60.31237,109.07547 60.31237,109.07547 V 227.18326 c 0,0 24.35994,73.33527 71.54702,83.44931 14.48677,3.1051 44.55228,4.31593 44.55228,4.31593"
       id="path7"
       sodipodi:nodetypes="csccsc" />
    <path
       d="m 139.45996,130.41485 q 1.96407,0 3.46297,1.44721 1.49889,1.39552 1.49889,3.56633 0,3.66971 -2.27418,16.07436 -2.79105,15.1957 -3.92814,32.40714 -1.13709,17.15977 -1.13709,21.50139 0,2.37756 -2.17082,4.70343 -2.11913,2.32587 -3.72139,2.32587 -1.70564,0 -3.20454,-1.39552 -1.49889,-1.34384 -1.49889,-3.41128 0,-1.86069 1.60227,-13.17993 1.34383,-9.56192 1.34383,-13.80018 0,-2.48093 -0.7236,-3.41127 -0.72361,-0.93035 -2.42925,-0.93035 -2.5843,0 -10.13046,0.56854 -8.16639,0.67192 -10.18215,0.67192 -2.11912,0 -10.802378,0.67192 -8.631568,0.67192 -9.561916,1.18878 -0.878663,0.46517 -1.860697,6.82256 -0.930349,6.30569 -1.137093,10.49226 -0.25843,7.18436 -1.653953,11.88779 -1.343837,4.65174 -3.51465,4.65174 -1.498895,0 -3.721395,-2.37756 -2.170813,-2.32587 -2.170813,-4.70343 0,-2.06744 1.240465,-7.08098 1.705639,-6.87424 4.083196,-24.55087 2.429244,-17.67662 4.186569,-36.74877 0.103372,-1.24046 1.395523,-2.53261 1.292151,-1.29215 2.73936,-1.29215 5.065231,0 5.065231,7.28773 0,4.28994 -1.860697,13.80017 -1.653953,8.57988 -1.653953,12.40465 0,1.60226 1.03372,2.32587 1.033721,0.7236 4.910173,0.7236 8.476508,0 22.793538,-1.34384 14.36872,-1.39552 15.45413,-3.92813 1.13709,-2.58431 2.27418,-11.62936 1.18878,-9.09674 1.18878,-18.96878 0,-1.13709 1.60227,-2.68767 1.60227,-1.55058 3.46296,-1.55058 z m 51.32423,60.21423 q -7.23604,9.71697 -14.31703,14.57546 -7.08099,4.85849 -12.9732,4.85849 -3.97982,0 -6.87424,-3.35959 -2.89442,-3.3596 -2.89442,-8.63157 0,-13.59343 12.14622,-29.2543 12.14622,-15.71255 24.13738,-15.71255 4.34163,0 6.46075,4.96186 0.67192,1.65395 2.11913,1.65395 4.13488,0 4.13488,3.20453 0,1.60227 -0.51686,4.39332 -2.79104,15.24738 -2.79104,21.50139 0,12.50802 4.75511,14.98895 2.27419,1.24046 2.27419,3.04947 0,1.60227 -2.2225,3.20454 -2.2225,1.65395 -4.28994,1.65395 -3.97983,0 -6.56413,-5.47872 -2.5843,-5.47872 -2.5843,-15.60918 z m -3.15285,-29.09924 q -6.82255,0 -15.86761,12.81814 -9.04506,12.76645 -9.04506,21.19127 0,5.9439 3.92814,5.9439 5.68547,0 15.76424,-11.4743 10.07878,-11.4743 10.07878,-21.08791 0,-7.3911 -4.85849,-7.3911 z m 44.55337,50.85906 q -7.75291,0 -11.93948,-4.445 -4.13488,-4.445 -4.13488,-12.45633 0,-13.49006 10.69901,-28.42732 10.69901,-14.98895 19.89912,-14.98895 4.18657,0 7.18436,4.54837 3.04948,4.49668 3.04948,9.56191 0,3.04948 -1.34384,5.27198 -1.29215,2.17081 -2.63599,2.17081 -2.99779,0 -4.23825,-6.04726 -1.39552,-6.51244 -4.03151,-6.51244 -5.37535,0 -12.71477,12.76645 -7.33941,12.76645 -7.33941,21.55307 0,8.78663 9.9754,8.78663 7.59785,0 17.88337,-7.13267 3.61802,-2.53262 5.32366,-2.53262 1.75733,0 1.75733,2.01576 0,3.92813 -9.2518,9.92371 -9.2518,5.9439 -18.1418,5.9439 z m 49.5669,-27.08348 q 0.67192,-0.87867 9.2518,-8.32145 8.11471,-7.08099 11.31924,-10.28552 11.93948,-11.93948 17.15977,-11.93948 4.03151,0 4.03151,3.87645 0,4.39332 -3.97983,6.46076 -5.1686,2.63599 -13.80017,8.78662 -8.63157,6.09896 -8.63157,8.63157 0,1.03372 6.09896,7.75291 6.09895,6.66749 10.54395,9.87203 4.445,3.15285 8.63157,3.15285 l 1.70563,-0.0517 q 1.80902,-0.10337 1.80902,1.60227 0,2.27418 -2.84274,4.60005 -2.84273,2.37756 -7.49447,2.37756 -2.99779,0 -6.09895,-2.11913 -3.04948,-2.06744 -10.90576,-11.26755 -6.25401,-7.59785 -7.80459,-9.04506 -1.55058,-1.49889 -2.5843,-1.49889 -0.56855,0 -3.61802,2.68767 -3.04948,2.68768 -3.35959,4.0832 -0.25843,1.39552 -0.25843,10.64732 v 2.42925 q 0,1.91238 -1.80901,3.41127 -1.80902,1.4989 -3.92814,1.4989 -2.17082,0 -3.41128,-1.29215 -1.24047,-1.24047 -1.24047,-2.5843 0,-1.8607 1.39553,-8.78663 1.96407,-9.9754 3.61802,-26.72168 3.82477,-39.53981 5.89221,-44.70842 2.06744,-5.22029 5.8922,-5.22029 1.34384,0 2.2225,1.44721 0.93035,1.44721 0.93035,3.7214 0,4.13488 -3.56633,21.96656 -3.56634,17.88337 -5.16861,34.83639 z m 96.80794,6.61581 q 0,5.27197 -9.35517,12.71476 -9.30349,7.44279 -19.22721,7.44279 -8.32145,0 -12.86982,-4.91017 -4.49669,-4.91017 -4.49669,-13.6968 0,-14.78221 9.97541,-28.1172 9.9754,-13.335 21.81151,-13.335 3.87645,0 6.30569,2.53262 2.48093,2.53261 2.48093,6.09895 0,7.95965 -7.80459,15.24738 -7.80459,7.28773 -20.88116,14.31703 -2.68767,1.39552 -2.68767,3.61802 0,4.28994 2.48093,6.87425 2.48093,2.5843 7.33942,2.5843 11.11249,0 22.69016,-12.30128 1.70564,-1.70564 2.58431,-1.70564 1.65395,0 1.65395,2.63599 z m -35.92179,-8.06302 q 21.91487,-13.02488 21.91487,-20.93285 0,-3.10116 -2.79104,-3.10116 -4.75512,0 -10.7507,6.97762 -5.94389,6.97761 -8.37313,17.05639 z m 57.16475,5.06523 q 0.51686,-0.93035 1.24046,-2.5843 3.51465,-8.06302 6.46076,-12.61139 2.9461,-4.60006 6.46075,-8.78663 3.56634,-4.18657 6.46075,-6.35738 2.94611,-2.17082 5.32367,-2.99779 2.37755,-0.87866 4.60005,-0.87866 4.49669,0 7.33942,2.73935 2.84273,2.68768 2.84273,6.3057 0,1.60227 -1.03372,2.89442 -0.98203,1.29215 -3.04948,1.29215 -2.17081,0 -3.97982,-1.91238 -1.8607,-1.91239 -3.87645,-1.91239 -5.37535,0 -14.88558,13.02488 -9.51023,13.02488 -11.57767,28.68575 -0.51686,4.03151 -1.96407,5.32366 -1.44721,1.29215 -4.0832,1.29215 -2.53261,0 -3.66971,-3.77308 -1.13709,-3.77308 -1.13709,-12.71476 0,-2.42924 0.25843,-10.69901 0.31012,-9.76866 1.24047,-15.76424 0.15505,-0.98203 0.51686,-4.60006 0.3618,-3.97982 0.87866,-5.5304 0.56855,-1.55058 2.2225,-2.89442 1.70564,-1.34384 3.66971,-1.34384 1.91238,0 2.84273,1.24047 0.98203,1.18878 0.98203,2.5843 0,2.01576 -1.03372,5.68546 -1.18878,4.0832 -1.39552,5.63378 -0.15506,1.75733 -0.56855,3.66971 -0.51686,2.2225 -1.03372,11.68104 l -0.0517,1.91239 z"
       id="text7"
       style="font-size:105.853px;font-family:'Segoe Print';-inkscape-font-specification:'Segoe Print';text-align:center;text-anchor:middle;stroke-width:1.9"
       aria-label="Hacker" />
    <path
       d="m 72.367326,323.57123 q 0,-2.01576 -2.325871,-2.63599 -4.238255,-1.03372 -4.238255,-3.56634 0,-1.91238 1.653953,-3.72139 1.705639,-1.8607 3.618022,-1.8607 l 7.236045,0.20674 q 5.065231,0 13.334997,-0.67191 8.218079,-0.67192 12.301273,-0.67192 14.26535,0 22.89692,8.06302 8.68325,8.01133 8.68325,21.13959 0,14.4204 -12.40465,26.30819 -12.35296,11.8361 -35.249874,17.31482 -9.045056,2.17081 -12.24959,4.39331 -4.238255,2.89442 -7.0293,2.89442 -1.96407,0 -3.514651,-2.11913 -1.498895,-2.06744 -1.498895,-3.3079 0,-0.51686 1.033721,-2.68768 1.085407,-2.32587 1.498895,-4.70343 0.465174,-2.37755 0.775291,-8.52819 0.25843,-6.09895 1.860697,-19.69238 1.653953,-13.64511 2.687673,-19.33058 0.930349,-4.96186 0.930349,-6.82255 z m 9.355172,-3.46297 q -6.150638,36.95552 -6.150638,52.15121 0,3.35959 0.671919,5.06523 0.413488,0.3618 1.602267,0.3618 3.307906,0 17.314821,-4.34162 14.006913,-4.34163 22.741853,-13.38669 8.73494,-9.04505 8.73494,-20.57104 0,-9.56191 -6.77087,-15.24738 -6.71918,-5.73715 -17.77999,-5.73715 -6.719189,0 -16.177733,1.24047 -2.119127,0.31011 -4.186569,0.46517 z m 103.578812,-8.11471 q 0.46518,0.36181 0.46518,2.53262 0,2.2225 -0.46518,3.35959 l 0.67192,2.17082 q 1.70564,6.09895 3.35959,10.02709 2.06745,5.27197 4.0832,11.31924 4.60006,13.90354 9.56192,23.82726 5.01354,9.87203 9.14842,13.90354 2.58431,2.53262 3.20454,3.51465 0.67192,0.93035 0.67192,2.2225 0,2.27419 -1.55058,3.82477 -1.4989,1.60227 -3.61803,1.60227 -6.61581,0 -16.02267,-20.82948 -3.77308,-8.21808 -4.54837,-8.21808 -2.48093,0 -10.69901,1.4989 -8.16639,1.49889 -14.93726,3.51465 -3.87645,1.18878 -4.91017,1.18878 -1.29215,0 -2.68768,-1.29215 -0.25843,-0.20675 -0.62023,-0.20675 -1.13709,0 -4.91017,6.71919 -6.20233,11.11249 -7.85628,13.28331 -1.60227,2.11913 -3.56634,2.11913 -1.39552,0 -3.35959,-1.65396 -1.96407,-1.60226 -1.96407,-3.3079 0,-1.65396 1.8607,-4.445 1.8607,-2.84273 7.59785,-11.37093 10.23383,-15.14401 17.26313,-28.42732 11.1125,-21.13959 14.11029,-24.91267 2.99779,-3.82476 4.60006,-3.82476 3.41127,0 5.11691,1.86069 z m 3.15285,41.0904 q -1.80901,-4.13488 -5.32366,-15.14401 -3.82477,-11.73273 -4.85849,-14.26534 -2.84273,5.99558 -8.78662,17.0047 l -9.35518,17.72831 q 1.08541,-0.82697 5.73715,-1.34383 3.56634,-0.36181 6.20233,-0.93035 14.11029,-2.84273 16.38447,-3.04948 z m 93.60341,-35.66336 q 6.71918,6.09895 10.80238,14.16197 4.13488,8.01134 4.13488,15.14401 0,8.83831 -5.84052,17.88337 -5.78884,9.04505 -14.88558,14.73052 0.41349,0.56854 8.57988,10.23383 5.99558,7.13267 5.99558,8.78663 0,1.60226 -2.42924,3.41127 -2.42924,1.80902 -3.46297,1.80902 -1.80901,0 -3.41127,-1.75733 -2.68768,-5.27197 -7.95965,-11.68104 -5.27198,-6.40907 -5.53041,-6.40907 -0.51686,0 -2.17081,0.46517 -8.83831,2.48093 -17.26314,2.48093 -10.49226,0 -18.09011,-5.84052 -7.59785,-5.84052 -7.59785,-15.86761 0,-11.78442 8.47651,-25.42953 8.47651,-13.64511 20.82948,-22.63848 12.35296,-8.99337 22.12162,-8.99337 2.68767,0 5.37535,3.04947 2.68767,3.04948 2.32587,6.46076 z m -20.15756,59.64568 q -0.25843,-1.55058 -3.82476,-5.42703 -3.35959,-3.61803 -3.35959,-4.23826 0,-1.70564 2.22249,-3.25622 2.2225,-1.60226 2.84274,-1.60226 0.62023,0 1.39552,-0.20675 3.10116,-0.7236 3.77308,2.2225 0.67192,2.9461 2.9461,5.47872 2.32588,2.48093 3.66971,2.48093 4.8068,0 11.00913,-8.37314 6.25401,-8.37314 6.25401,-16.12604 0,-11.00913 -7.59785,-20.51936 -7.54616,-9.56191 -11.62936,-9.56191 -7.28773,0 -16.22941,7.54616 -8.94169,7.54616 -14.98895,18.60697 -6.04727,11.00913 -6.04727,20.05418 0,6.97762 4.49669,10.90576 4.54837,3.87645 11.31924,3.87645 7.49447,0 13.74848,-1.8607 z"
       id="text7-8"
       style="font-size:105.853px;font-family:'Segoe Print';-inkscape-font-specification:'Segoe Print';text-align:center;text-anchor:middle;stroke-width:1.9"
       aria-label="DAQ" />
    <text
       xml:space="preserve"
       id="text8"
       style="font-style:normal;font-variant:normal;font-weight:normal;font-stretch:normal;font-size:12px;font-family:Calibri;-inkscape-font-specification:Calibri;text-align:center;writing-mode:lr-tb;direction:ltr;white-space:pre;shape-inside:url(#rect8);display:inline;fill:#0bf2f2;fill-opacity:1;stroke:none;stroke-width:1.9;stroke-dasharray:none;stroke-opacity:1" />
  </g>
</svg>
