M48
INCH,TZ
T1C0.0118
T2C0.0236
T3C0.0350
T4C0.0394
T5C0.0402
T6C0.0472
T7C0.0512
T8C0.0591
T9C0.0630
T10C0.0709
T11C0.1378
T12C0.1693
%
G90
G05
T1
X12156Y-15699
X12402Y-36024
X12598Y-14559
X13091Y-14059
X13278Y-26280
X13307Y-36875
X13780Y-15559
X13888Y-26280
X13976Y-31299
X14075Y-30709
X14075Y-34252
X14075Y-35039
X14636Y-30181
X14921Y-26280
X14961Y-13559
X14961Y-30906
X15650Y-30807
X15945Y-14559
X16240Y-15354
X16339Y-26969
X16339Y-28346
X16437Y-24409
X16634Y-16240
X19016Y-34906
X19016Y-36284
X19587Y-31890
X19606Y-34513
X19606Y-35103
X19606Y-35433
X19980Y-36875
X20394Y-34513
X20394Y-35103
X20394Y-35694
X20394Y-36284
X20394Y-36875
X21378Y-36024
X21526Y-33760
X22029Y-36560
X22736Y-37697
X23346Y-34843
X23740Y-36875
X23819Y-29232
X24331Y-36284
X24705Y-39173
X24724Y-36885
X24724Y-37269
X24921Y-36284
X24951Y-19341
X25394Y-19783
X25492Y-39173
X25512Y-36284
X25591Y-27264
X25787Y-8071
X26102Y-36284
X26102Y-36885
X26102Y-37269
X26280Y-39173
X26693Y-36284
X27067Y-19587
X27362Y-27264
X28947Y-37106
X29035Y-34985
X29035Y-35881
X29528Y-28740
X30108Y-37106
X30217Y-31693
X30709Y-33258
X30807Y-6398
X30906Y-24114
X31791Y-9843
X31988Y-38976
X32283Y-33366
X32731Y-33116
X32734Y-35673
X32776Y-10433
X33267Y-12307
X33366Y-12008
X33366Y-16256
X33425Y-9356
X33425Y-10433
X33898Y-10827
X34154Y-8957
X34348Y-33980
X34350Y-9449
X34449Y-32874
X34492Y-31649
X34547Y-14256
X34547Y-30512
X34646Y-7579
X34665Y-10906
X34941Y-30512
X35236Y-33563
X35295Y-15764
X35335Y-31594
X35443Y-7382
X35472Y-12697
X35492Y-13091
X35492Y-13484
X35925Y-16309
X36122Y-31299
X36319Y-30512
X36417Y-33268
X36811Y-30512
X37195Y-31988
X37205Y-33071
X37805Y-33169
X38563Y-18523
X38878Y-38976
X40059Y-9154
X40157Y-6594
X40157Y-7382
X40157Y-15256
X40256Y-7874
X40256Y-8465
X40748Y-17028
X42028Y-20167
X42028Y-20778
X42223Y-19590
X42323Y-19291
X42618Y-33661
X42697Y-27343
X42717Y-14567
X42717Y-30792
X42923Y-20108
X43012Y-36122
X43110Y-23148
X43307Y-22539
X43494Y-20108
X43504Y-14272
X43504Y-28150
X43602Y-13878
X43898Y-20965
X43898Y-21457
X44094Y-14075
X44685Y-30512
X44861Y-27264
X45076Y-27566
X45176Y-27267
X45276Y-26969
X45344Y-28248
X45571Y-13484
X45603Y-24075
X45669Y-18406
X45935Y-11811
X46063Y-29331
X46161Y-15463
X46161Y-17028
X46358Y-25787
X46457Y-24016
X46557Y-29825
X46594Y-30994
X46654Y-23525
X46752Y-19056
X46752Y-25886
X46841Y-17707
X46934Y-31147
X47210Y-27165
X47210Y-27756
X47234Y-19587
X47234Y-21752
X47343Y-26122
X47451Y-18012
X47495Y-29862
X47539Y-35335
X47578Y-22973
X47844Y-19587
X47844Y-21752
X47943Y-22973
X48322Y-24897
X48425Y-22737
X48524Y-15463
X48524Y-16624
X48596Y-26122
X48632Y-18012
X48819Y-23130
X48819Y-25492
X48819Y-25886
X48838Y-22756
X48917Y-20965
X49109Y-16048
X49311Y-11713
X49571Y-27988
X49902Y-13100
X49902Y-14370
X50098Y-9281
X50098Y-28346
X50295Y-21457
X50394Y-28878
X50492Y-15354
X50689Y-22835
X50689Y-25689
X50787Y-17028
X50830Y-17913
X50846Y-19390
X50846Y-19705
X50846Y-20046
X50886Y-32677
X50886Y-36122
X50984Y-27264
X51083Y-13386
X51083Y-13976
X51181Y-16240
X51234Y-20566
X51378Y-29862
X51476Y-9851
X51476Y-20768
X51476Y-22835
X51699Y-23057
X51811Y-16437
X52165Y-8957
X52264Y-13376
X52264Y-13986
X52264Y-23809
X52264Y-24419
X52303Y-14469
X52461Y-17815
X52461Y-19390
X52500Y-22539
X52500Y-22952
X52541Y-12304
X52559Y-23327
X52657Y-8957
X52657Y-10531
X52854Y-23524
X52856Y-12304
X53155Y-12403
X53179Y-23533
X53307Y-24803
X53317Y-35531
X53445Y-23819
X53543Y-26181
X53605Y-13376
X53661Y-37617
X53787Y-16654
X53937Y-19390
X53996Y-20866
X54035Y-17815
X54035Y-26673
X54038Y-20541
X54049Y-16479
X54075Y-24905
X54203Y-25886
X54232Y-26969
X54331Y-14665
X54331Y-16339
X54396Y-20501
X54455Y-27191
X54528Y-11417
X54528Y-14075
X54695Y-20601
X54711Y-28727
X54724Y-27362
X54823Y-23809
X54823Y-24419
X54934Y-28950
X54947Y-27585
X55020Y-13376
X55020Y-35487
X55118Y-24902
X55157Y-29173
X55315Y-16535
X55315Y-19980
X55315Y-20374
X55415Y-16834
X55512Y-18209
X55610Y-20768
X55610Y-21083
X55748Y-13976
X55807Y-11614
X55807Y-14370
X56181Y-37617
X56722Y-35531
X56988Y-18051
X57353Y-18179
X57608Y-29626
X57638Y-14310
X57677Y-17854
X57772Y-16436
X57776Y-24902
X57972Y-8947
X57981Y-14319
X58071Y-16535
X58071Y-17657
X58465Y-16535
X58858Y-16634
X58868Y-18209
X59055Y-17461
X59055Y-28346
X59154Y-15059
X59347Y-16731
X59411Y-14408
X59414Y-14799
X59636Y-17520
X59646Y-16831
X59744Y-20079
X59941Y-20433
X59941Y-21358
X59961Y-30512
X60138Y-14764
X60236Y-20669
X60246Y-17520
X60288Y-14487
X60333Y-22641
X60335Y-23031
X60433Y-21063
X60433Y-22343
X60630Y-8947
X60630Y-9557
X60925Y-18297
X60935Y-28051
X61260Y-37617
X61319Y-27067
X61508Y-31988
X61545Y-28051
X61614Y-30512
X61634Y-29921
X62185Y-22441
X62323Y-32972
X62421Y-24232
X62500Y-22441
X62500Y-23228
X62520Y-35684
X62618Y-32480
X63189Y-29926
X63701Y-30207
X63701Y-30817
X63780Y-37617
X64567Y-32943
X66063Y-34154
X66063Y-35138
X66388Y-37500
X68504Y-20671
X68799Y-31890
X69390Y-14969
X69587Y-32087
X69783Y-14469
X69882Y-26083
X70177Y-13969
X70177Y-25787
X70177Y-26476
X70669Y-38297
X70768Y-15469
X70768Y-30217
X71083Y-30217
X71457Y-27559
X71555Y-30118
X71850Y-26181
X71949Y-13469
X72539Y-14469
X72539Y-26083
X72638Y-30610
X72835Y-14969
X72835Y-25689
X73031Y-37795
X73130Y-15469
X76036Y-33614
X76036Y-34992
X76626Y-33221
X76626Y-35386
X76772Y-32382
X76823Y-34402
X77217Y-35386
X77807Y-35386
X78444Y-35237
X79035Y-37992
X79331Y-36614
X79707Y-33614
X79707Y-34795
X80020Y-37992
X80118Y-36516
X80512Y-35728
X80610Y-36417
X81004Y-37992
X81496Y-35925
X81594Y-35531
X81594Y-36417
X82185Y-37992
X82283Y-35433
X82776Y-37992
X82874Y-35433
X82874Y-35925
X82874Y-36417
X83563Y-31004
X89469Y-10433
X90650Y-13614
X90846Y-10630
X91043Y-32392
X91208Y-9815
X91240Y-9449
X91319Y-10256
X91732Y-9350
X91831Y-11614
X92185Y-12614
X92421Y-10433
X92421Y-13114
X92510Y-7480
X93120Y-7480
X93307Y-12205
X93307Y-14665
X93327Y-33858
X94193Y-30610
X94193Y-31102
X94193Y-31594
X94685Y-30610
X94685Y-31102
X94685Y-31594
X95177Y-30610
X95177Y-31102
X95177Y-31594
T3
X45199Y-33581
X45699Y-32581
X46199Y-33581
X46699Y-32581
X47199Y-33581
X47699Y-32581
X48199Y-33581
X48699Y-32581
T4
X5807Y-28823
X5807Y-29823
X5807Y-30823
X5807Y-31823
X5807Y-32823
X5807Y-33823
X5807Y-34823
X5807Y-35823
X8791Y-15764
X8791Y-16854
X8791Y-17945
X8791Y-19035
X8791Y-20126
X8791Y-21217
X8791Y-22307
X9909Y-15219
X9909Y-16309
X9909Y-17400
X9909Y-18490
X9909Y-19581
X9909Y-20671
X9909Y-21762
X9909Y-22852
X18634Y-15764
X18634Y-16854
X18634Y-17945
X18634Y-19035
X18634Y-20126
X18634Y-21217
X18634Y-22307
X19752Y-15219
X19752Y-16309
X19752Y-17400
X19752Y-18490
X19752Y-19581
X19752Y-20671
X19752Y-21762
X19752Y-22852
X28476Y-15764
X28476Y-16854
X28476Y-17945
X28476Y-19035
X28476Y-20126
X28476Y-21217
X28476Y-22307
X29594Y-15219
X29594Y-16309
X29594Y-17400
X29594Y-18490
X29594Y-19581
X29594Y-20671
X29594Y-21762
X29594Y-22852
X38319Y-15764
X38319Y-16854
X38319Y-17945
X38319Y-19035
X38319Y-20126
X38319Y-21217
X38319Y-22307
X39437Y-15219
X39437Y-16309
X39437Y-17400
X39437Y-18490
X39437Y-19581
X39437Y-20671
X39437Y-21762
X39437Y-22852
X65878Y-15764
X65878Y-16854
X65878Y-17945
X65878Y-19035
X65878Y-20126
X65878Y-21217
X65878Y-22307
X66996Y-15219
X66996Y-16309
X66996Y-17400
X66996Y-18490
X66996Y-19581
X66996Y-20671
X66996Y-21762
X66996Y-22852
X75720Y-15764
X75720Y-16854
X75720Y-17945
X75720Y-19035
X75720Y-20126
X75720Y-21217
X75720Y-22307
X76839Y-15219
X76839Y-16309
X76839Y-17400
X76839Y-18490
X76839Y-19581
X76839Y-20671
X76839Y-21762
X76839Y-22852
X85563Y-15764
X85563Y-16854
X85563Y-17945
X85563Y-19035
X85563Y-20126
X85563Y-21217
X85563Y-22307
X86681Y-15219
X86681Y-16309
X86681Y-17400
X86681Y-18490
X86681Y-19581
X86681Y-20671
X86681Y-21762
X86681Y-22852
X95406Y-15764
X95406Y-16854
X95406Y-17945
X95406Y-19035
X95406Y-20126
X95406Y-21217
X95406Y-22307
X96524Y-15219
X96524Y-16309
X96524Y-17400
X96524Y-18490
X96524Y-19581
X96524Y-20671
X96524Y-21762
X96524Y-22852
T5
X44339Y-37679
X45339Y-37679
X48559Y-37679
X49559Y-37679
T6
X15059Y-34646
X44291Y-15650
X56693Y-9252
X71752Y-33661
T7
X45866Y-9547
X48425Y-9547
X54429Y-31496
X56988Y-31496
T8
X9843Y-37402
X23524Y-23622
X81496Y-23917
T9
X43900Y-34880
X49998Y-34880
T10
X86909Y-32372
X86909Y-34537
T11
X9350Y-12480
X9350Y-25591
X19193Y-12480
X19193Y-25591
X29035Y-12480
X29035Y-25591
X38878Y-12480
X38878Y-25591
X66437Y-12480
X66437Y-25591
X76280Y-12480
X76280Y-25591
X86122Y-12480
X86122Y-25591
X95965Y-12480
X95965Y-25591
T12
X6791Y-6693
X6791Y-38583
X99114Y-6693
X99114Y-38583
T2
G00X53220Y-37636
M15
G01X53220Y-38069
M16
G05
G00X53220Y-39341
M15
G01X53220Y-39656
M16
G05
G00X56622Y-37636
M15
G01X56622Y-38069
M16
G05
G00X56622Y-39341
M15
G01X56622Y-39656
M16
G05
G00X60819Y-37636
M15
G01X60819Y-38069
M16
G05
G00X60819Y-39341
M15
G01X60819Y-39656
M16
G05
G00X64220Y-37636
M15
G01X64220Y-38069
M16
G05
G00X64220Y-39341
M15
G01X64220Y-39656
M16
G05
T4
G00X92520Y-37795
M15
G01X92520Y-38386
M16
G05
G00X93898Y-35335
M15
G01X94685Y-35335
M16
G05
G00X94035Y-37697
M15
G01X94547Y-37697
M16
G05
G00X96063Y-37795
M15
G01X96063Y-38386
M16
G05
M30
