G04 #@! TF.GenerationSoftware,KiCad,Pcbnew,9.0.7+1*
G04 #@! TF.CreationDate,2026-05-10T05:28:59+00:00*
G04 #@! TF.ProjectId,HackerDAQ Main Unit,4861636b-6572-4444-9151-204d61696e20,rev?*
G04 #@! TF.SameCoordinates,Original*
G04 #@! TF.FileFunction,Soldermask,Bot*
G04 #@! TF.FilePolarity,Negative*
%FSLAX46Y46*%
G04 Gerber Fmt 4.6, Leading zero omitted, Abs format (unit mm)*
G04 Created by KiCad (PCBNEW 9.0.7+1) date 2026-05-10 05:28:59*
%MOMM*%
%LPD*%
G01*
G04 APERTURE LIST*
%ADD10C,6.300000*%
%ADD11R,1.600000X1.600000*%
%ADD12C,1.600000*%
%ADD13C,2.500000*%
%ADD14R,1.700000X1.700000*%
%ADD15C,1.700000*%
%ADD16C,7.500000*%
%ADD17R,4.000000X2.000000*%
%ADD18O,3.300000X2.000000*%
%ADD19O,2.000000X3.500000*%
%ADD20C,3.000000*%
%ADD21O,2.700000X3.700000*%
%ADD22C,0.650000*%
%ADD23O,1.000000X2.100000*%
%ADD24O,1.000000X1.800000*%
%ADD25C,3.250000*%
%ADD26R,1.800000X1.800000*%
%ADD27C,1.800000*%
%ADD28C,2.000000*%
%ADD29R,2.250000X2.250000*%
%ADD30C,2.250000*%
G04 APERTURE END LIST*
D10*
X23750000Y-31700000D03*
X23750000Y-65000000D03*
D11*
X25170000Y-58045000D03*
D12*
X25170000Y-55275000D03*
X25170000Y-52505000D03*
X25170000Y-49735000D03*
X25170000Y-46965000D03*
X25170000Y-44195000D03*
X25170000Y-41425000D03*
X25170000Y-38655000D03*
X22330000Y-56660000D03*
X22330000Y-53890000D03*
X22330000Y-51120000D03*
X22330000Y-48350000D03*
X22330000Y-45580000D03*
X22330000Y-42810000D03*
X22330000Y-40040000D03*
D13*
X112500000Y-39750000D03*
D14*
X14750000Y-73210000D03*
D15*
X14750000Y-75750000D03*
X14750000Y-78290000D03*
X14750000Y-80830000D03*
X14750000Y-83370000D03*
X14750000Y-85910000D03*
X14750000Y-88450000D03*
X14750000Y-90990000D03*
D16*
X251750000Y-17000000D03*
X17250000Y-17000000D03*
D10*
X218750000Y-31700000D03*
X218750000Y-65000000D03*
D11*
X220170000Y-58045000D03*
D12*
X220170000Y-55275000D03*
X220170000Y-52505000D03*
X220170000Y-49735000D03*
X220170000Y-46965000D03*
X220170000Y-44195000D03*
X220170000Y-41425000D03*
X220170000Y-38655000D03*
X217330000Y-56660000D03*
X217330000Y-53890000D03*
X217330000Y-51120000D03*
X217330000Y-48350000D03*
X217330000Y-45580000D03*
X217330000Y-42810000D03*
X217330000Y-40040000D03*
D10*
X48750000Y-31700000D03*
X48750000Y-65000000D03*
D11*
X50170000Y-58045000D03*
D12*
X50170000Y-55275000D03*
X50170000Y-52505000D03*
X50170000Y-49735000D03*
X50170000Y-46965000D03*
X50170000Y-44195000D03*
X50170000Y-41425000D03*
X50170000Y-38655000D03*
X47330000Y-56660000D03*
X47330000Y-53890000D03*
X47330000Y-51120000D03*
X47330000Y-48350000D03*
X47330000Y-45580000D03*
X47330000Y-42810000D03*
X47330000Y-40040000D03*
D10*
X193750000Y-31700000D03*
X193750000Y-65000000D03*
D11*
X195170000Y-58045000D03*
D12*
X195170000Y-55275000D03*
X195170000Y-52505000D03*
X195170000Y-49735000D03*
X195170000Y-46965000D03*
X195170000Y-44195000D03*
X195170000Y-41425000D03*
X195170000Y-38655000D03*
X192330000Y-56660000D03*
X192330000Y-53890000D03*
X192330000Y-51120000D03*
X192330000Y-48350000D03*
X192330000Y-45580000D03*
X192330000Y-42810000D03*
X192330000Y-40040000D03*
D13*
X182250000Y-85500000D03*
X144000000Y-23500000D03*
D12*
X239500000Y-98750000D03*
D17*
X239500000Y-89750000D03*
D18*
X239500000Y-95750000D03*
D19*
X235000000Y-96750000D03*
X244000000Y-96750000D03*
D20*
X220750000Y-95025000D03*
G36*
G01*
X222100000Y-86125001D02*
X222100000Y-89324999D01*
G75*
G02*
X221849999Y-89575000I-250001J0D01*
G01*
X219650001Y-89575000D01*
G75*
G02*
X219400000Y-89324999I0J250001D01*
G01*
X219400000Y-86125001D01*
G75*
G02*
X219650001Y-85875000I250001J0D01*
G01*
X221849999Y-85875000D01*
G75*
G02*
X222100000Y-86125001I0J-250001D01*
G01*
G37*
D21*
X220750000Y-82225000D03*
D10*
X98750000Y-31700000D03*
X98750000Y-65000000D03*
D11*
X100170000Y-58045000D03*
D12*
X100170000Y-55275000D03*
X100170000Y-52505000D03*
X100170000Y-49735000D03*
X100170000Y-46965000D03*
X100170000Y-44195000D03*
X100170000Y-41425000D03*
X100170000Y-38655000D03*
X97330000Y-56660000D03*
X97330000Y-53890000D03*
X97330000Y-51120000D03*
X97330000Y-48350000D03*
X97330000Y-45580000D03*
X97330000Y-42810000D03*
X97330000Y-40040000D03*
D22*
X136610000Y-96645000D03*
X142390000Y-96645000D03*
D23*
X135180000Y-96145000D03*
D24*
X135180000Y-100325000D03*
D23*
X143820000Y-96145000D03*
D24*
X143820000Y-100325000D03*
D13*
X38250000Y-88000000D03*
D10*
X73750000Y-31700000D03*
X73750000Y-65000000D03*
D11*
X75170000Y-58045000D03*
D12*
X75170000Y-55275000D03*
X75170000Y-52505000D03*
X75170000Y-49735000D03*
X75170000Y-46965000D03*
X75170000Y-44195000D03*
X75170000Y-41425000D03*
X75170000Y-38655000D03*
X72330000Y-56660000D03*
X72330000Y-53890000D03*
X72330000Y-51120000D03*
X72330000Y-48350000D03*
X72330000Y-45580000D03*
X72330000Y-42810000D03*
X72330000Y-40040000D03*
D10*
X168750000Y-31700000D03*
X168750000Y-65000000D03*
D11*
X170170000Y-58045000D03*
D12*
X170170000Y-55275000D03*
X170170000Y-52505000D03*
X170170000Y-49735000D03*
X170170000Y-46965000D03*
X170170000Y-44195000D03*
X170170000Y-41425000D03*
X170170000Y-38655000D03*
X167330000Y-56660000D03*
X167330000Y-53890000D03*
X167330000Y-51120000D03*
X167330000Y-48350000D03*
X167330000Y-45580000D03*
X167330000Y-42810000D03*
X167330000Y-40040000D03*
D25*
X113535000Y-91645000D03*
X124965000Y-91645000D03*
D26*
X114805000Y-85295000D03*
D27*
X116075000Y-82755000D03*
X117345000Y-85295000D03*
X118615000Y-82755000D03*
X119885000Y-85295000D03*
X121155000Y-82755000D03*
X122425000Y-85295000D03*
X123695000Y-82755000D03*
D28*
X112620000Y-95705000D03*
X115160000Y-95705000D03*
X123340000Y-95705000D03*
X125880000Y-95705000D03*
D20*
X111505000Y-88595000D03*
X126995000Y-88595000D03*
D22*
X155910000Y-96645000D03*
X161690000Y-96645000D03*
D23*
X154480000Y-96145000D03*
D24*
X154480000Y-100325000D03*
D23*
X163120000Y-96145000D03*
D24*
X163120000Y-100325000D03*
D16*
X251750000Y-98000000D03*
D29*
X123000000Y-24250000D03*
D30*
X116500000Y-24250000D03*
D16*
X17250000Y-98000000D03*
D10*
X243750000Y-31700000D03*
X243750000Y-65000000D03*
D11*
X245170000Y-58045000D03*
D12*
X245170000Y-55275000D03*
X245170000Y-52505000D03*
X245170000Y-49735000D03*
X245170000Y-46965000D03*
X245170000Y-44195000D03*
X245170000Y-41425000D03*
X245170000Y-38655000D03*
X242330000Y-56660000D03*
X242330000Y-53890000D03*
X242330000Y-51120000D03*
X242330000Y-48350000D03*
X242330000Y-45580000D03*
X242330000Y-42810000D03*
X242330000Y-40040000D03*
D29*
X144750000Y-80000000D03*
D30*
X138250000Y-80000000D03*
M02*
